<svg width="18" height="18" viewBox="0 0 18 18" fill="none" xmlns="http://www.w3.org/2000/svg">
<path fill-rule="evenodd" clip-rule="evenodd" d="M10.2 6.24121L13.8 4.34171V8.1407L10.2 6.24121ZM13.8 14.3819L9 16.9146L4.2 14.3819V9.94975L9 12.4824L13.8 9.94975V14.3819ZM4.2 4.34171L7.8 6.24121L4.2 8.1407V4.34171ZM9.6 7.14573L13.2 9.04523L9.6 10.9447V7.14573ZM8.4 10.9447L4.8 9.04523L8.4 7.14573V10.9447ZM13.2 3.43719L9 5.60804L4.8 3.43719L9 1.17588L13.2 3.43719ZM3 3.07538V14.9246L9 18L15 14.9246V3.07538L9 0L3 3.07538Z" fill="#4FB2F9"/>
</svg>
