<svg xmlns="http://www.w3.org/2000/svg" viewBox="0 0 1185.1 1252.2"><path d="M622.1,1109.4a413.1,413.1,0,0,1-155.6-30.5L206.4,973.5,76.5,1031.3a69.8,69.8,0,0,0,2.1,128.3L485.1,1337a365.8,365.8,0,0,0,275.5.3l408.4-177a81.6,81.6,0,0,0,0-151.4l-108.5-44.1L776.9,1078.9A413,413,0,0,1,622.1,1109.4Z" transform="translate(-35.2 -111.9)" fill="#4FB2F9"/><path d="M1169.2,673.1l-138.1-55.9L777,719.5a412.4,412.4,0,0,1-310.3-.4L234.8,625l-158,70.4a69.7,69.7,0,0,0,2,128.2l242.4,98.8,179.1,74.5a323.4,323.4,0,0,0,243.4.3l197.5-80.5,228-92.2a81.7,81.7,0,0,0,0-151.4Z" transform="translate(-35.2 -111.9)" fill="#4FB2F9"/><path d="M1169.2,312.8l-455-184a231.2,231.2,0,0,0-181,3.1L76.7,334.9a69.7,69.7,0,0,0,2,128.2L349.9,573.6,500.2,637a323.4,323.4,0,0,0,243.4.3l167.2-68.9,258.3-104.7a81.7,81.7,0,0,0,.1-150.9Z" transform="translate(-35.2 -111.9)" fill="#4FB2F9"/></svg>