<svg width="479" height="80" viewBox="0 0 479 80" fill="none" xmlns="http://www.w3.org/2000/svg">
<path d="M84.0667 0H421L396.933 80H60L84.0667 0Z" fill="#FCD535"/>
<path d="M432.883 0H450L426.117 80H409L432.883 0Z" fill="#FCD535"/>
<path d="M23.8835 0H41L17.1165 80H0L23.8835 0Z" fill="#FFEF87"/>
<path d="M461.883 0H479L455.117 80H438L461.883 0Z" fill="#FFEF87"/>
<path d="M53.8835 0H71L47.1165 80H30L53.8835 0Z" fill="#FCD535"/>
<path d="M172.39 55.48C179.07 55.48 182.87 51.88 182.87 46.6C182.87 42 180.23 39.48 174.59 38.48L171.99 38C169.31 37.52 168.11 36.64 168.11 34.52C168.11 32.44 169.67 31.24 172.67 31.24C175.63 31.24 177.55 32.4 178.91 34.12L182.51 30.72C180.27 28.04 177.15 26.6 172.95 26.6C166.71 26.6 162.83 29.84 162.83 34.84C162.83 39.4 165.55 42.08 171.19 42.96L173.83 43.36C176.75 43.88 177.63 45.04 177.63 46.92C177.63 49.28 175.95 50.84 172.71 50.84C169.83 50.84 167.47 49.64 165.55 47.4L161.99 50.84C164.35 53.6 167.63 55.48 172.39 55.48ZM196.123 55.48C202.123 55.48 205.843 51.24 205.843 44.52C205.843 37.84 202.123 33.64 196.123 33.64C190.163 33.64 186.443 37.84 186.443 44.52C186.443 51.24 190.163 55.48 196.123 55.48ZM196.123 51.36C193.483 51.36 191.803 49.64 191.803 46.48V42.6C191.803 39.48 193.483 37.76 196.123 37.76C198.803 37.76 200.483 39.48 200.483 42.6V46.48C200.483 49.64 198.803 51.36 196.123 51.36ZM215.502 55H218.262V50.92H215.502V25.4H210.382V49.96C210.382 53.16 212.022 55 215.502 55ZM235.1 51.52V55H240.22V25.4H235.1V37.56H234.9C234.18 35.16 231.9 33.64 229.14 33.64C223.9 33.64 220.98 37.56 220.98 44.52C220.98 51.52 223.9 55.48 229.14 55.48C231.9 55.48 234.14 53.88 234.9 51.52H235.1ZM230.78 51.24C228.14 51.24 226.34 49.32 226.34 46.36V42.76C226.34 39.8 228.14 37.84 230.78 37.84C233.22 37.84 235.1 39.16 235.1 41.2V47.84C235.1 50 233.22 51.24 230.78 51.24ZM266.857 55.48C274.217 55.48 279.017 50.48 279.017 41.04C279.017 31.6 274.217 26.6 266.857 26.6C259.537 26.6 254.697 31.6 254.697 41.04C254.697 50.48 259.537 55.48 266.857 55.48ZM266.857 50.8C262.857 50.8 260.297 47.96 260.297 43.2V38.88C260.297 34.12 262.857 31.28 266.857 31.28C270.857 31.28 273.417 34.12 273.417 38.88V43.2C273.417 47.96 270.857 50.8 266.857 50.8ZM296.534 51.52V55H301.654V34.12H296.534V47.92C296.534 50.16 294.494 51.24 292.454 51.24C290.014 51.24 288.934 49.68 288.934 46.8V34.12H283.814V47.32C283.814 52.52 286.214 55.48 290.494 55.48C293.934 55.48 295.614 53.6 296.334 51.52H296.534ZM314.089 55H317.769V50.92H313.809V38.2H318.089V34.12H313.809V28.4H309.209V31.96C309.209 33.4 308.729 34.12 307.209 34.12H305.609V38.2H308.689V49.68C308.689 53.08 310.569 55 314.089 55Z" fill="black"/>
</svg>
