<svg xmlns="http://www.w3.org/2000/svg" width="167" height="60" fill="none" xmlns:v="https://vecta.io/nano"><rect width="167" height="60" rx="10" fill="#14161a"/><path d="M54.85 25c-.1 0-.185-.03-.255-.09-.06-.07-.09-.155-.09-.255V14.86c0-.11.03-.195.09-.255.07-.07.155-.105.255-.105h3.405c1.51 0 2.6.34 3.27 1.02.67.67 1.02 1.685 1.05 3.045l.015 1.17-.015 1.185c-.03.95-.19 1.725-.48 2.325a2.72 2.72 0 0 1-1.335 1.32c-.61.29-1.42.435-2.43.435h-3.48zm3.405-1.275c.69 0 1.235-.095 1.635-.285.41-.19.705-.49.885-.9.19-.42.295-.98.315-1.68l.03-1.125-.03-1.11c-.02-.99-.255-1.71-.705-2.16-.45-.46-1.185-.69-2.205-.69h-2.205v7.95h2.28zm9.592 1.425c-1.1 0-1.955-.31-2.565-.93-.6-.62-.92-1.445-.96-2.475l-.015-.645.015-.645c.04-1.02.365-1.84.975-2.46.61-.63 1.46-.945 2.55-.945s1.94.315 2.55.945c.61.62.935 1.44.975 2.46.01.11.015.325.015.645l-.015.645c-.04 1.03-.365 1.855-.975 2.475-.6.62-1.45.93-2.55.93zm0-1.155c.63 0 1.125-.2 1.485-.6.37-.4.57-.975.6-1.725a6.95 6.95 0 0 0 .015-.57l-.015-.57c-.03-.75-.23-1.325-.6-1.725-.36-.4-.855-.6-1.485-.6s-1.13.2-1.5.6-.565.975-.585 1.725l-.015.57.015.57c.02.75.215 1.325.585 1.725s.87.6 1.5.6zM75.13 25c-.13 0-.23-.03-.3-.09a.7.7 0 0 1-.18-.285l-2.13-6.96-.03-.15c0-.09.03-.165.09-.225a.34.34 0 0 1 .225-.09h.66c.1 0 .18.03.24.09.07.05.115.105.135.165l1.665 5.655 1.785-5.595c.02-.08.065-.15.135-.21.07-.07.165-.105.285-.105h.51c.12 0 .215.035.285.105.07.06.115.13.135.21l1.785 5.595 1.665-5.655c.01-.05.045-.105.105-.165.07-.06.155-.09.255-.09h.675c.08 0 .15.03.21.09s.09.135.09.225l-.03.15-2.115 6.96a.7.7 0 0 1-.18.285c-.07.06-.175.09-.315.09H80.2c-.27 0-.435-.125-.495-.375l-1.74-5.37-1.74 5.37a.49.49 0 0 1-.51.375h-.585zm10.301 0c-.1 0-.185-.03-.255-.09-.06-.07-.09-.155-.09-.255v-7.11c0-.1.03-.18.09-.24.07-.07.155-.105.255-.105h.705a.3.3 0 0 1 .24.105.3.3 0 0 1 .105.24v.66a3.07 3.07 0 0 1 1.02-.855c.4-.2.895-.3 1.485-.3.96 0 1.705.31 2.235.93.54.61.81 1.425.81 2.445v4.23c0 .1-.035.185-.105.255-.06.06-.14.09-.24.09h-.75c-.1 0-.185-.03-.255-.09-.06-.07-.09-.155-.09-.255V20.5c0-.71-.175-1.26-.525-1.65-.34-.39-.835-.585-1.485-.585-.63 0-1.13.2-1.5.6-.37.39-.555.935-.555 1.635v4.155c0 .1-.035.185-.105.255-.06.06-.14.09-.24.09h-.75zm9.112 0c-.1 0-.185-.03-.255-.09-.06-.07-.09-.155-.09-.255v-9.96c0-.1.03-.18.09-.24.07-.07.155-.105.255-.105h.705a.3.3 0 0 1 .24.105.3.3 0 0 1 .105.24v9.96c0 .1-.035.185-.105.255-.06.06-.14.09-.24.09h-.705zm6.483.15c-1.1 0-1.955-.31-2.565-.93-.6-.62-.92-1.445-.96-2.475l-.015-.645.015-.645c.04-1.02.365-1.84.975-2.46.61-.63 1.46-.945 2.55-.945s1.94.315 2.55.945c.61.62.935 1.44.975 2.46.01.11.015.325.015.645l-.015.645c-.04 1.03-.365 1.855-.975 2.475-.6.62-1.45.93-2.55.93zm0-1.155c.63 0 1.125-.2 1.485-.6.37-.4.57-.975.6-1.725a6.95 6.95 0 0 0 .015-.57l-.015-.57c-.03-.75-.23-1.325-.6-1.725-.36-.4-.855-.6-1.485-.6s-1.13.2-1.5.6-.565.975-.585 1.725l-.015.57.015.57c.02.75.215 1.325.585 1.725s.87.6 1.5.6zm7.593 1.155c-.49 0-.945-.1-1.365-.3s-.755-.47-1.005-.81a2 2 0 0 1-.36-1.155 1.96 1.96 0 0 1 .81-1.62c.55-.43 1.29-.71 2.22-.84l2.235-.315v-.435c0-1.02-.585-1.53-1.755-1.53-.44 0-.8.095-1.08.285-.28.18-.49.395-.63.645-.03.09-.07.155-.12.195-.04.04-.1.06-.18.06h-.645c-.09 0-.17-.03-.24-.09-.06-.07-.09-.15-.09-.24.01-.24.12-.51.33-.81.22-.31.555-.575 1.005-.795.45-.23 1.005-.345 1.665-.345 1.12 0 1.925.265 2.415.795.49.52.735 1.17.735 1.95v4.86c0 .1-.035.185-.105.255-.06.06-.14.09-.24.09h-.69c-.1 0-.185-.03-.255-.09-.06-.07-.09-.155-.09-.255v-.645c-.22.32-.54.59-.96.81s-.955.33-1.605.33zm.315-1.125c.65 0 1.18-.21 1.59-.63.42-.43.63-1.045.63-1.845v-.42l-1.74.255c-.71.1-1.245.27-1.605.51-.36.23-.54.525-.54.885 0 .4.165.71.495.93.33.21.72.315 1.17.315zm8.636 1.125c-1.04 0-1.825-.34-2.355-1.02s-.81-1.54-.84-2.58l-.015-.45.015-.45c.03-1.03.31-1.885.84-2.565.53-.69 1.315-1.035 2.355-1.035 1.03 0 1.84.365 2.43 1.095v-3.45c0-.1.03-.18.09-.24.07-.07.155-.105.255-.105h.72a.3.3 0 0 1 .24.105.3.3 0 0 1 .105.24v9.96c0 .1-.035.185-.105.255-.06.06-.14.09-.24.09h-.675c-.1 0-.185-.03-.255-.09-.06-.07-.09-.155-.09-.255v-.63c-.58.75-1.405 1.125-2.475 1.125zm.315-1.215c.69 0 1.205-.225 1.545-.675.35-.46.54-1.005.57-1.635.01-.11.015-.3.015-.57L120 20.47c-.02-.59-.21-1.105-.57-1.545s-.875-.66-1.545-.66c-.71 0-1.23.22-1.56.66-.32.44-.495 1.02-.525 1.74l-.015.435c0 1.89.7 2.835 2.1 2.835zM54.85 45c-.1 0-.185-.03-.255-.09-.06-.07-.09-.155-.09-.255v-9.81c0-.1.03-.18.09-.24.07-.07.155-.105.255-.105h.795a.3.3 0 0 1 .24.105.3.3 0 0 1 .105.24v9.81c0 .1-.035.185-.105.255-.06.06-.14.09-.24.09h-.795zm7.537.15c-1.31 0-2.325-.34-3.045-1.02-.71-.69-1.085-1.725-1.125-3.105l-.015-1.275.015-1.26c.04-1.35.43-2.375 1.17-3.075.74-.71 1.74-1.065 3-1.065 1.25 0 2.245.355 2.985 1.065.74.7 1.13 1.725 1.17 3.075l.03 1.26-.03 1.275c-.04 1.38-.42 2.415-1.14 3.105-.71.68-1.715 1.02-3.015 1.02zm0-1.275c.79 0 1.42-.24 1.89-.72s.725-1.215.765-2.205l.03-1.2-.03-1.2c-.04-.99-.3-1.725-.78-2.205-.47-.48-1.095-.72-1.875-.72-.79 0-1.425.24-1.905.72-.47.48-.725 1.215-.765 2.205l-.015 1.2.015 1.2c.04.99.295 1.725.765 2.205.48.48 1.115.72 1.905.72zm9.746 1.275c-.83 0-1.55-.13-2.16-.39-.6-.26-1.06-.6-1.38-1.02-.32-.43-.49-.89-.51-1.38 0-.08.03-.15.09-.21a.33.33 0 0 1 .24-.105h.765c.19 0 .32.1.39.3.09.42.345.78.765 1.08.43.3 1.03.45 1.8.45.83 0 1.455-.145 1.875-.435.42-.3.63-.715.63-1.245 0-.34-.105-.615-.315-.825-.2-.21-.5-.395-.9-.555s-1-.36-1.8-.6c-.78-.22-1.4-.455-1.86-.705s-.805-.56-1.035-.93-.345-.835-.345-1.395c0-.54.145-1.025.435-1.455.3-.43.725-.765 1.275-1.005.55-.25 1.205-.375 1.965-.375.78 0 1.45.14 2.01.42.56.27.985.615 1.275 1.035s.445.84.465 1.26c0 .08-.03.15-.09.21-.05.06-.125.09-.225.09h-.795c-.21 0-.34-.095-.39-.285-.06-.42-.295-.765-.705-1.035-.41-.28-.925-.42-1.545-.42-.68 0-1.215.13-1.605.39s-.585.645-.585 1.155c0 .34.09.62.27.84.19.22.475.415.855.585.38.16.935.345 1.665.555.85.23 1.52.47 2.01.72.49.24.855.545 1.095.915.24.36.36.82.36 1.38 0 .93-.36 1.66-1.08 2.19s-1.69.795-2.91.795zm-29.461-6.771c-.453 1.048-.988 2.013-1.608 2.9-.846 1.209-1.538 2.046-2.072 2.511-.827.763-1.714 1.154-2.663 1.176-.681 0-1.503-.194-2.46-.589s-1.842-.587-2.648-.587c-.846 0-1.753.194-2.723.587s-1.755.6-2.353.62c-.91.039-1.818-.363-2.723-1.207-.578-.506-1.301-1.372-2.167-2.6-.929-1.311-1.693-2.831-2.292-4.565-.641-1.872-.962-3.685-.962-5.44 0-2.011.433-3.745 1.301-5.198.682-1.167 1.589-2.088 2.725-2.764s2.363-1.02 3.684-1.042c.723 0 1.671.224 2.849.665s1.929.666 2.26.666c.247 0 1.085-.262 2.506-.785 1.343-.485 2.477-.686 3.406-.606 2.517.204 4.408 1.199 5.666 2.991-2.251 1.368-3.365 3.283-3.343 5.741.02 1.914.713 3.507 2.074 4.772.617.587 1.306 1.041 2.072 1.363l-.528 1.391h0zM36.899 15.6c0 1.5-.547 2.901-1.636 4.198-1.315 1.542-2.905 2.432-4.63 2.292a4.71 4.71 0 0 1-.035-.569c0-1.44.625-2.982 1.736-4.242.554-.638 1.259-1.169 2.114-1.592.853-.417 1.66-.647 2.419-.687.022.201.031.401.031.6h0z" fill="#fff"/></svg>