<?xml version="1.0" encoding="utf-8"?><!DOCTYPE svg PUBLIC "-//W3C//DTD SVG 1.1//EN" "http://www.w3.org/Graphics/SVG/1.1/DTD/svg11.dtd"><svg version="1.1" xmlns="http://www.w3.org/2000/svg" xmlns:xlink="http://www.w3.org/1999/xlink" x="0px" y="0px" viewBox="0 0 100 118.17625" enable-background="new 0 0 100 94.541" xml:space="preserve"><path fill="#010101" d="M99.584,34.77L50.543,0.175C50.38,0.06,50.19,0.005,50,0c-0.19,0.005-0.38,0.06-0.543,0.175L0.416,34.77
	c-0.35,0.247-0.5,0.692-0.37,1.101s0.508,0.686,0.937,0.686h10.565V83.73H8.6c-0.543,0-0.983,0.439-0.983,0.982v1.966H2.703
	c-0.543,0-0.983,0.439-0.983,0.982v5.897c0,0.543,0.44,0.982,0.983,0.982H50h47.298c0.543,0,0.982-0.439,0.982-0.982v-5.897
	c0-0.543-0.439-0.982-0.982-0.982h-4.914v-1.966c0-0.543-0.44-0.982-0.983-0.982h-2.948V36.556h10.565
	c0.428,0,0.807-0.277,0.937-0.686S99.934,35.017,99.584,34.77z M31.204,83.73h-8.845V36.556h8.845V83.73z M57.985,83.73H42.015
	V36.556h15.971V83.73z M77.642,83.73h-8.846V36.556h8.846V83.73z"/><text x="0" y="109.541" fill="#000000" font-size="5px" font-weight="bold" font-family="'Helvetica Neue', Helvetica, Arial-Unicode, Arial, Sans-serif">Created by Ilaria Baggio</text><text x="0" y="114.541" fill="#000000" font-size="5px" font-weight="bold" font-family="'Helvetica Neue', Helvetica, Arial-Unicode, Arial, Sans-serif">from the Noun Project</text></svg>