<svg xmlns="http://www.w3.org/2000/svg" width="16" height="16" fill="none" xmlns:v="https://vecta.io/nano"><g clip-path="url(#A)"><g fill="#da832c"><path d="M7.979 16c4.407 0 7.979-3.582 7.979-8s-3.572-8-7.979-8S0 3.582 0 8s3.572 8 7.979 8z"/><path d="M11.75.949c.882 1.287 1.398 2.845 1.398 4.524 0 4.418-3.572 8-7.979 8-1.364 0-2.648-.343-3.771-.949C2.837 14.623 5.247 16 7.979 16c4.407 0 7.979-3.582 7.979-8A8 8 0 0 0 11.75.949z"/></g><path d="M7.979 14.966c3.837 0 6.948-3.119 6.948-6.966s-3.111-6.966-6.948-6.966S1.031 4.153 1.031 8s3.111 6.966 6.948 6.966z" fill="#191c22"/><path d="M10.557 6.999a1.76 1.76 0 0 0 .072-1.142c-.254-.931-1.199-1.495-2.107-1.255l-.174.046-.15-.552c-.068-.25-.319-.402-.559-.338s-.381.318-.313.568l.15.552-.962.253-.15-.552c-.068-.25-.319-.402-.559-.338s-.381.318-.313.568l.15.552-1.238.326c-.241.063-.381.318-.313.568s.319.402.559.338l.709-.187 1.161 4.264-.709.187c-.241.063-.381.318-.313.568s.319.402.559.338l1.238-.326.128.469c.068.25.319.401.559.338s.381-.318.313-.568l-.128-.469.962-.253.128.469c.068.25.319.402.559.338s.381-.318.313-.568l-.128-.469.549-.145c.969-.255 1.537-1.271 1.267-2.265-.177-.65-.669-1.131-1.26-1.315zM8.768 5.507c.427-.113.871.147.988.579a.8.8 0 0 1-.562.988l-1.519.4-1.017.268-.426-1.567 2.537-.668zm1.535 4.165l-2.911.767-.488-1.791 1.017-.268 1.519-.4.374-.099c.488-.129.995.169 1.129.662s-.153 1-.641 1.129z" fill="#da832c"/><path d="M12.733 2.921a8.01 8.01 0 0 1 .415 2.551c0 4.418-3.572 8-7.979 8-.588 0-1.162-.064-1.714-.186a6.91 6.91 0 0 0 4.523 1.679c3.837 0 6.948-3.119 6.948-6.966 0-2.003-.843-3.808-2.193-5.079z" fill="#191c22"/></g><defs><clipPath id="A"><path fill="#fff" d="M0 0h15.958v16H0z"/></clipPath></defs></svg>