<svg xmlns="http://www.w3.org/2000/svg" width="17" height="16" fill="none" xmlns:v="https://vecta.io/nano"><g fill="#8cb23e"><path d="M8.958 16a8 8 0 1 0 0-16 8 8 0 1 0 0 16z"/><path d="M12.424.788c.939 1.311 1.492 2.917 1.492 4.653a8 8 0 0 1-8 8c-1.242 0-2.417-.283-3.466-.788A7.99 7.99 0 0 0 8.958 16 8 8 0 0 0 12.424.788z"/></g><g fill="#191c22"><path d="M8.958 14.966A6.97 6.97 0 0 0 15.924 8a6.97 6.97 0 0 0-6.966-6.966A6.97 6.97 0 0 0 1.992 8a6.97 6.97 0 0 0 6.966 6.966z"/><path d="M13.413 2.645c.325.87.502 1.812.502 2.796a8 8 0 0 1-8 8 8.04 8.04 0 0 1-1.472-.136 6.94 6.94 0 0 0 4.514 1.661A6.97 6.97 0 0 0 15.924 8a6.95 6.95 0 0 0-2.511-5.355z"/></g><path d="M8.864 3.82L6.618 7.443c-.027.044-.014.101.03.129L8.939 9.02c.031.02.07.019.101-.001l2.23-1.446c.043-.028.056-.085.028-.128L9.023 3.82c-.037-.059-.123-.058-.159 0zm.157 6.453l1.969-1.225c.085-.053.183.047.128.131l-1.984 3.014c-.036.055-.116.056-.155.003L6.833 9.201c-.06-.083.038-.188.125-.134l1.965 1.207c.03.019.068.018.099 0z" fill="#8cb23e"/></svg>