<svg xmlns="http://www.w3.org/2000/svg" width="17" height="16" fill="none" xmlns:v="https://vecta.io/nano"><g fill="#1ecccc"><path d="M8.958 16a8 8 0 1 0 0-16 8 8 0 1 0 0 16z"/><path d="M12.625.888a7.96 7.96 0 0 1 1.355 4.467 8 8 0 0 1-8.011 7.989c-1.318-.002-2.561-.322-3.656-.888C3.746 14.59 6.182 15.996 8.946 16A8 8 0 0 0 12.625.888z"/></g><g fill="#191c22"><path d="M8.958 14.966A6.97 6.97 0 0 0 15.924 8a6.97 6.97 0 0 0-6.966-6.966A6.97 6.97 0 0 0 1.992 8a6.97 6.97 0 0 0 6.966 6.966z"/><path d="M13.556 2.767a7.99 7.99 0 0 1 .424 2.588 8 8 0 0 1-8.011 7.989c-.579-.001-1.143-.064-1.687-.181a6.94 6.94 0 0 0 4.667 1.803 6.97 6.97 0 0 0 6.976-6.956 6.95 6.95 0 0 0-2.368-5.243z"/></g><path d="M11.129 10.939l-2.864-.004.565-2.07 1.305-.403a.48.48 0 0 0 .318-.602c-.079-.254-.349-.396-.603-.318l-.719.222.833-3.053a.48.48 0 0 0-.339-.591c-.257-.07-.522.081-.592.338l-.994 3.644-1.399.432a.48.48 0 0 0-.318.602c.064.206.254.339.46.339.047 0 .096-.007.143-.022l.813-.251-.569 2.086a.48.48 0 0 0 .082.418c.091.119.233.189.383.189l3.494.005a.48.48 0 1 0 .001-.963z" fill="#1ecccc"/></svg>