<svg xmlns="http://www.w3.org/2000/svg" width="40" height="40" fill="none" xmlns:v="https://vecta.io/nano"><g clip-path="url(#A)"><path d="M15.45 6.667c-.386 0-.732-.27-.815-.663l-.35-1.666c-.094-.45.194-.892.645-.986s.892.194.987.645l.35 1.666c.095.45-.194.892-.645.986a.83.83 0 0 1-.172.018z" fill="#e9573f"/><path d="M12.119 40c-.236 0-.468-.099-.632-.288-.267-.31-.27-.767-.007-1.08.037-.043 3.176-3.809 5.585-8.214 2.081-3.806 4.038-8.866 1.694-11.559l-1.187-.353-4.311 9.343c-.113.245-.338.42-.603.47s-.538-.032-.732-.218l-1.754-1.69-4.011 6.526c-.157.256-.441.408-.742.397s-.572-.184-.71-.453c-4.992-9.713-6.018-17.105-3.049-21.969C3.104 8.548 5.44 6.852 8.605 5.873c2.507-.776 4.901-.892 6.104-.892.493 0 .786.02.798.021.407.028.734.345.773.752.001.01.117 1.163.512 2.51.458 1.558 1.094 2.731 1.849 3.412.272-.172.967-.742 2.337-2.581a48.67 48.67 0 0 0 1.509-2.157l-3.764-5.642c-.221-.332-.177-.774.106-1.055s.726-.321 1.056-.096l7.642 5.202a.81.81 0 0 1 .181.167l2.993 3.723.816.343a.83.83 0 0 1 .469.507l.573 1.735a.83.83 0 0 1-.402.999l-1.577.835c-.226.12-.493.128-.726.026l-3.423-1.514c-.178-.079-.322-.216-.409-.389l-.447-.895-1.185 1.44.077.924c2.369 2.687 3.34 5.681 2.885 8.905-.31 2.203-1.298 4.515-2.932 6.87-1.284 1.849-2.971 3.734-5.015 5.603-3.461 3.164-6.714 5.169-6.851 5.253a.83.83 0 0 1-.435.122z" fill="#fc6e51"/><g opacity=".1" fill="#000"><path opacity=".1" d="M32.559 11.821l-.573-1.735a.83.83 0 0 0-.469-.507l-.816-.343-2.993-3.723a.81.81 0 0 0-.181-.167L19.887.145c-.27-.183-.615-.189-.886-.033l.053.033 7.642 5.202a.81.81 0 0 1 .181.167l2.994 3.723.814.343a.83.83 0 0 1 .469.507l.573 1.735c.128.387-.041.808-.4.999l-1.555.823.084.038a.83.83 0 0 0 .726-.026l1.577-.835a.83.83 0 0 0 .401-.998zm-8.169.502l1.185-1.44-.315-.63-1.704 2.07.078.924c2.368 2.687 3.339 5.681 2.884 8.905-.311 2.203-1.297 4.515-2.933 6.87-1.284 1.849-2.971 3.734-5.015 5.603-3.461 3.164-6.715 5.168-6.851 5.253l-.019.011a.84.84 0 0 0 .418.111.83.83 0 0 0 .435-.122c.137-.084 3.389-2.089 6.851-5.253 2.044-1.869 3.731-3.754 5.015-5.603 1.634-2.355 2.622-4.667 2.932-6.87.455-3.224-.515-6.218-2.884-8.905l-.077-.924z"/></g><g fill="#e9573f"><path d="M5.449 23.334c-.382 0-.727-.265-.813-.653-1.014-4.595-.443-8.274 1.698-10.938C9.703 7.551 15.676 7.5 15.945 7.5h.001c.46.001.833.374.833.835s-.374.833-.833.833c-.054 0-5.454.054-8.319 3.628-1.802 2.25-2.261 5.454-1.362 9.525.099.451-.185.895-.634.994a.86.86 0 0 1-.181.02zM10.003 20c-.46 0-.833-.372-.833-.833-.001-4.27 2.153-6.466 3.959-7.556 1.926-1.163 3.844-1.321 3.925-1.327.459-.035.859.309.894.768s-.309.859-.768.895c-.014.001-1.65.144-3.24 1.122-2.06 1.266-3.104 3.318-3.104 6.099 0 .46-.373.833-.833.833z"/></g><path d="M38.057 19.947c-.625 0-1.256-.286-1.773-.82l-4.353-4.279c-.334-.316-.349-.844-.034-1.178s.844-.35 1.178-.034l4.409 4.334c.236.244.488.354.675.295.092-.028.155-.093.167-.168.017-.109-.073-.314-.386-.538-.373-.268-.459-.789-.19-1.163s.789-.459 1.162-.191c.802.575 1.188 1.36 1.06 2.156-.112.703-.616 1.276-1.313 1.495-.196.061-.399.092-.602.092z" fill="#ffce54"/></g><defs><clipPath id="A"><path fill="#fff" d="M0 0h40v40H0z"/></clipPath></defs></svg>