<svg xmlns="http://www.w3.org/2000/svg" width="44" height="41" fill="none" xmlns:v="https://vecta.io/nano"><path d="M19.699 5.436l-2.106.89c-4.179 1.957-7.959 4.454-10.848 8.13-.844 1.075-1.536 2.24-1.831 3.602-.346 1.6.261 2.715 1.765 3.367.526.229 1.066.537 1.442.95.209.229.238.828.084 1.12-.137.259-.655.48-.98.45-1.934-.178-3.721-.821-5.293-1.973-1.23-.9-1.785-2.191-1.902-3.675-.229-2.928.855-5.462 2.479-7.793 2.849-4.087 6.816-6.71 11.423-8.403C19.168.177 24.589-.354 30.125.219c.803.083 1.605.229 2.388.426.457.114.897.353 1.304.601.452.276.759.701.653 1.265-.109.58-.632.613-1.083.667l-7.967.928c-.577.068-1.146.196-1.885.325.69.241 1.236.383 1.735.622a4.69 4.69 0 0 1 1.187.8c.412.392.476.896.057 1.347-1.786 1.929-2.905 4.268-4.026 6.595-3.102 6.443-5.566 13.145-8.041 19.843-.614 1.663-1.246 3.321-1.783 5.01-.306.963-.966 1.386-1.852 1.35-.668-.026-1.38-.241-1.97-.559-.607-.328-.882-.98-.673-1.703l2.802-9.502c2.037-6.381 4.203-12.721 6.866-18.876.547-1.265 1.18-2.49 1.864-3.923z" fill="url(#A)"/><path d="M39.792 32.122c.216 1.508-1.966 3.058-3.465 2.574-.582-.188-1.131-.507-1.723-.628-.644-.132-1.337-.213-1.98-.117-1.1.164-2.173.499-3.264.729-.337.071-.701.078-1.047.049-2.045-.175-2.886-1.299-2.322-3.266.832-2.909 2.488-5.306 4.894-7.138 1.607-1.223 2.919-1.17 4.473.122 2.134 1.773 3.538 4.036 4.275 6.706.086.313.107.645.158.969z" fill="url(#A)"/><path d="M39.893 15.086c-.107 1.925-.499 3.411-1.49 4.686a4.34 4.34 0 0 1-.843.822c-1.158.855-2.38.582-3.002-.715-.815-1.7-.608-3.439.117-5.089a7 7 0 0 1 1.552-2.233c1.179-1.109 2.617-.741 3.22.759.263.658.353 1.386.445 1.769z" fill="url(#A)"/><path d="M33.094 16.866c-.258.915-.395 1.888-.801 2.733-.714 1.482-2.188 1.624-3.334.43-1.591-1.657-2.085-5.106-1.026-7.156.819-1.587 2.319-1.79 3.503-.438 1.093 1.247 1.461 2.763 1.494 4.382l.163.049z" fill="url(#A)"/><path d="M43.949 22.944c-.057 1.712-.613 3.223-1.939 4.357-1.628 1.392-3.41.758-3.785-1.355-.349-1.973.277-3.679 1.665-5.09.707-.72 1.579-1.165 2.612-.762s1.312 1.336 1.444 2.325c.024.172.004.35.004.525z" fill="url(#A)"/><path d="M28.258 23.38c-.074.45-.108.912-.23 1.349-.5 1.796-2.082 2.307-3.559 1.166-1.575-1.216-2.435-3.838-1.883-5.74.518-1.783 2.092-2.295 3.575-1.161 1.181.901 1.97 2.59 2.098 4.386z" fill="url(#A)"/><defs><linearGradient id="A" x1="36.5" y1="6.5" x2="3.5" y2="42.5" gradientUnits="userSpaceOnUse"><stop stop-color="#F8D12F"/><stop offset="1" stop-color="#e56736"/></linearGradient></defs></svg>