<svg xmlns="http://www.w3.org/2000/svg" width="184" height="184" fill="none" xmlns:v="https://vecta.io/nano"><path d="M172 92c0 44.183-35.817 80-80 80s-80-35.817-80-80 35.817-80 80-80 80 35.817 80 80zM14.4 92c0 42.857 34.743 77.6 77.6 77.6s77.6-34.743 77.6-77.6S134.857 14.4 92 14.4 14.4 49.143 14.4 92z" fill="#22272e"/><path d="M170.354 83.632c.659-.07 1.252.407 1.312 1.067 1.505 16.421-2.1 32.917-10.339 47.223-8.438 14.654-21.302 26.257-36.745 33.143s-32.672 8.703-49.212 5.189-31.541-12.181-42.849-24.752-18.342-28.404-20.092-45.222a80 80 0 0 1 47.188-81.432 80 80 0 0 1 48.05-5.298c.65.13 1.062.769.923 1.417s-.778 1.059-1.428.929a77.6 77.6 0 0 0-82.305 37.197 77.6 77.6 0 0 0 9.447 90.802 77.6 77.6 0 0 0 41.564 24.01c16.044 3.409 32.755 1.648 47.735-5.032s27.459-17.935 35.644-32.149a77.6 77.6 0 0 0 10.031-45.771c-.06-.66.416-1.251 1.075-1.322z" fill="#da832c"/><path d="M178 92c0 47.496-38.504 86-86 86S6 139.496 6 92 44.504 6 92 6s86 38.504 86 86zM8.58 92c0 46.072 37.348 83.42 83.42 83.42s83.42-37.348 83.42-83.42S138.072 8.58 92 8.58 8.58 45.928 8.58 92z" fill="#22272e"/><path d="M172.143 64.56c.674-.231 1.408.129 1.629.806a86 86 0 0 1-36.987 100.053c-16.715 10.196-36.408 14.383-55.825 11.869s-37.395-11.577-50.963-25.693a86 86 0 0 1-9.585-107.251A86 86 0 0 1 121.85 11.347c.668.247.998.995.741 1.66s-1.004.993-1.673.746a83.42 83.42 0 0 0-98.358 32.02A83.42 83.42 0 0 0 8.911 99.426c1.69 18.917 9.785 36.69 22.946 50.381s30.6 22.485 49.434 24.923 37.937-1.624 54.151-11.514 28.566-25.016 35.018-42.879c6.305-17.457 6.603-36.507.871-54.135-.221-.677.138-1.411.812-1.642z" fill="#8cb33e"/><path d="M184 92c0 50.81-41.19 92-92 92S0 142.81 0 92 41.19 0 92 0s92 41.19 92 92zM2.76 92c0 49.286 39.954 89.24 89.24 89.24s89.24-39.954 89.24-89.24S141.286 2.76 92 2.76 2.76 42.714 2.76 92z" fill="#22272e"/><path d="M174.081 53.599c.691-.323 1.513-.025 1.826.67 8.69 19.324 10.449 41.072 4.952 61.564-5.615 20.937-18.443 39.219-36.222 51.621a92 92 0 0 1-117.999-10.71C11.383 141.343 2.056 121.05.302 99.445A92 92 0 0 1 69.013 2.918a92 92 0 0 1 61.514 5.538c.692.319.982 1.145.653 1.832s-1.154.976-1.846.657A89.24 89.24 0 0 0 19.298 40.248 89.24 89.24 0 0 0 3.053 99.221c1.701 20.958 10.749 40.642 25.546 55.58a89.24 89.24 0 0 0 55.335 26.074c20.941 1.9 41.88-3.654 59.125-15.684a89.25 89.25 0 0 0 30.349-109.752c-.313-.695-.016-1.517.674-1.84z" fill="#1ecccc"/><path d="M73.181 67c-.187 0-.355-.065-.504-.196-.131-.149-.196-.317-.196-.504V51.796h-4.984c-.187 0-.355-.065-.504-.196-.131-.149-.196-.317-.196-.504V48.1c0-.205.065-.373.196-.504.149-.131.317-.196.504-.196h15.064c.205 0 .373.065.504.196s.196.299.196.504v2.996c0 .205-.065.373-.196.504s-.299.196-.504.196h-4.984V66.3c0 .187-.065.355-.196.504-.131.131-.299.196-.504.196h-3.696zm17.637 0c-.187 0-.355-.065-.504-.196-.131-.149-.196-.317-.196-.504V51.796h-4.984c-.187 0-.355-.065-.504-.196-.131-.149-.196-.317-.196-.504V48.1c0-.205.065-.373.196-.504.149-.131.317-.196.504-.196h15.064c.205 0 .373.065.504.196s.196.299.196.504v2.996c0 .205-.066.373-.196.504a.68.68 0 0 1-.504.196h-4.984V66.3c0 .187-.065.355-.196.504-.131.131-.299.196-.504.196h-3.696zm13.324 0c-.186 0-.354-.065-.504-.196a.75.75 0 0 1-.196-.504V48.1c0-.205.066-.373.196-.504.15-.131.318-.196.504-.196h12.88a.68.68 0 0 1 .7.7v2.828c0 .187-.065.355-.196.504a.68.68 0 0 1-.504.196h-8.652v4.116h8.092c.206 0 .374.075.504.224a.68.68 0 0 1 .196.504v2.8c0 .187-.065.355-.196.504a.68.68 0 0 1-.504.196h-8.092V66.3a.68.68 0 0 1-.7.7h-3.528zm-66.283 49.2c-.147 0-.271-.051-.374-.154-.103-.088-.154-.213-.154-.374v-1.54c-1.056-.103-1.965-.352-2.728-.748-.748-.411-1.32-.909-1.716-1.496-.381-.601-.587-1.239-.616-1.914 0-.132.044-.242.132-.33.103-.088.22-.132.352-.132h1.958c.161 0 .286.037.374.11.103.059.198.161.286.308.161.499.499.917 1.012 1.254.528.337 1.254.506 2.178.506 1.027 0 1.804-.169 2.332-.506.528-.352.792-.836.792-1.452 0-.411-.132-.748-.396-1.012s-.667-.491-1.21-.682c-.543-.205-1.342-.44-2.398-.704-1.731-.411-2.999-.953-3.806-1.628-.792-.689-1.188-1.665-1.188-2.926 0-1.144.411-2.105 1.232-2.882.836-.792 1.973-1.276 3.41-1.452v-1.518c0-.161.051-.286.154-.374a.51.51 0 0 1 .374-.154h1.342a.51.51 0 0 1 .528.528v1.562c.953.132 1.767.418 2.442.858.689.425 1.21.924 1.562 1.496.367.572.565 1.129.594 1.672 0 .132-.044.242-.132.33s-.198.132-.33.132h-2.046a.65.65 0 0 1-.66-.418c-.073-.469-.359-.858-.858-1.166-.499-.323-1.122-.484-1.87-.484-.807 0-1.445.154-1.914.462s-.704.755-.704 1.342c0 .411.117.748.352 1.012s.601.499 1.1.704c.513.205 1.247.433 2.2.682 1.291.293 2.317.623 3.08.99.777.367 1.349.829 1.716 1.386s.55 1.269.55 2.134c0 1.261-.455 2.295-1.364 3.102-.909.792-2.149 1.269-3.718 1.43v1.518a.51.51 0 0 1-.154.374c-.103.103-.227.154-.374.154h-1.342zm9.275-2.2a.51.51 0 0 1-.528-.528v-1.122c0-.396.183-.741.55-1.034l3.476-3.454c1.511-1.188 2.559-2.112 3.146-2.772.601-.675.902-1.335.902-1.98 0-.689-.191-1.232-.572-1.628-.367-.396-.924-.594-1.672-.594-.733 0-1.313.22-1.738.66-.425.425-.689.983-.792 1.672a.68.68 0 0 1-.242.396c-.117.073-.249.11-.396.11H47.31c-.132 0-.242-.044-.33-.132s-.132-.191-.132-.308a5.04 5.04 0 0 1 .704-2.42c.44-.763 1.078-1.371 1.914-1.826.836-.469 1.819-.704 2.948-.704 1.173 0 2.163.205 2.97.616.821.396 1.437.946 1.848 1.65s.616 1.503.616 2.398c0 .983-.279 1.87-.836 2.662-.543.792-1.379 1.643-2.508 2.552l-3.124 3.168h6.27c.161 0 .286.051.374.154.103.088.154.213.154.374v1.562a.51.51 0 0 1-.154.374c-.088.103-.213.154-.374.154H47.133zm19.121.22c-1.232 0-2.31-.235-3.234-.704s-1.635-1.107-2.134-1.914c-.499-.821-.748-1.745-.748-2.772 0-1.305.565-2.728 1.694-4.268l4.026-5.522c.088-.132.183-.235.286-.308.117-.088.271-.132.462-.132h2.046c.132 0 .242.051.33.154.088.088.132.198.132.33 0 .073-.037.169-.11.286l-3.08 4.268a3.91 3.91 0 0 1 .946-.11 5.71 5.71 0 0 1 2.706.748 5.17 5.17 0 0 1 1.98 1.87 4.85 4.85 0 0 1 .748 2.64c0 .983-.249 1.892-.748 2.728-.484.821-1.188 1.481-2.112 1.98-.909.484-1.973.726-3.19.726zm-.022-2.53c.836 0 1.54-.249 2.112-.748.572-.513.858-1.225.858-2.134 0-.895-.286-1.591-.858-2.09-.572-.513-1.276-.77-2.112-.77s-1.54.257-2.112.77c-.572.499-.858 1.195-.858 2.09 0 .909.286 1.621.858 2.134.572.499 1.276.748 2.112.748zm8.117 3.96c-.132 0-.235-.044-.308-.132a.42.42 0 0 1-.088-.33l.594-3.74c.029-.205.103-.374.22-.506s.279-.198.484-.198h2.024c.103 0 .191.044.264.132.088.073.132.169.132.286 0 .073-.022.169-.066.286l-1.408 3.652c-.073.176-.169.308-.286.396-.103.103-.249.154-.44.154H74.35zm7.005-1.65c-.132 0-.242-.044-.33-.132-.088-.103-.132-.22-.132-.352a.71.71 0 0 1 .044-.198l5.302-12.1H79.33c-.147 0-.271-.051-.374-.154a.51.51 0 0 1-.154-.374v-1.54c0-.161.044-.293.132-.396.103-.103.235-.154.396-.154h9.658c.161 0 .286.051.374.154.103.103.154.235.154.396v1.364c0 .293-.066.609-.198.946l-5.258 12.012c-.161.352-.396.528-.704.528h-2.002zm15.971.22c-1.276 0-2.376-.198-3.3-.594-.909-.411-1.606-.975-2.09-1.694s-.726-1.54-.726-2.464c0-.821.205-1.547.616-2.178a4.01 4.01 0 0 1 1.65-1.474 3.72 3.72 0 0 1-1.276-1.298c-.293-.543-.44-1.159-.44-1.848 0-1.291.484-2.325 1.452-3.102.983-.792 2.354-1.188 4.114-1.188 1.745 0 3.102.389 4.07 1.166s1.452 1.811 1.452 3.102c0 .689-.146 1.305-.44 1.848a3.52 3.52 0 0 1-1.232 1.32c.704.337 1.254.829 1.65 1.474.411.631.616 1.364.616 2.2 0 .924-.242 1.745-.726 2.464s-1.188 1.276-2.112 1.672-2.016.594-3.278.594zm0-9.35c.763-.015 1.393-.213 1.892-.594.513-.381.77-.88.77-1.496 0-.645-.249-1.159-.748-1.54s-1.137-.572-1.914-.572-1.415.191-1.914.572-.748.895-.748 1.54c0 .631.249 1.137.748 1.518s1.137.572 1.914.572zm0 7.062c.865 0 1.591-.22 2.178-.66.587-.455.88-1.049.88-1.782a2.09 2.09 0 0 0-.88-1.76c-.587-.455-1.313-.682-2.178-.682-.88 0-1.613.22-2.2.66-.572.44-.858 1.034-.858 1.782s.286 1.342.858 1.782c.587.44 1.32.66 2.2.66zm13.954 2.31c-1.217 0-2.266-.205-3.146-.616-.865-.411-1.533-.953-2.002-1.628-.455-.675-.697-1.401-.726-2.178v-.044c0-.117.044-.213.132-.286a.5.5 0 0 1 .33-.11h2.046c.337 0 .557.147.66.44.205.645.543 1.122 1.012 1.43.484.308 1.049.462 1.694.462.821 0 1.503-.249 2.046-.748.557-.499.836-1.195.836-2.09 0-.792-.279-1.437-.836-1.936-.543-.499-1.225-.748-2.046-.748-.44 0-.799.059-1.078.176s-.55.279-.814.484l-.418.286c-.088.044-.198.066-.33.066h-2.024c-.132 0-.249-.044-.352-.132-.088-.103-.132-.22-.132-.352l.77-7.524c.015-.176.073-.315.176-.418.117-.117.264-.176.44-.176h8.272a.51.51 0 0 1 .374.154c.103.103.154.227.154.374v1.474c0 .147-.051.271-.154.374s-.227.154-.374.154h-6.358l-.352 3.586c.719-.499 1.679-.748 2.882-.748.953 0 1.833.205 2.64.616a4.68 4.68 0 0 1 1.958 1.738c.484.748.726 1.621.726 2.618 0 1.071-.249 2.009-.748 2.816-.499.792-1.203 1.408-2.112 1.848-.895.425-1.943.638-3.146.638zm8.08 1.408c-.132 0-.235-.044-.308-.132a.42.42 0 0 1-.088-.33l.594-3.74c.029-.205.103-.374.22-.506s.279-.198.484-.198h2.024c.103 0 .191.044.264.132.088.073.132.169.132.286 0 .073-.022.169-.066.286l-1.408 3.652c-.073.176-.169.308-.286.396-.103.103-.249.154-.44.154h-1.122zm11.461-1.43c-1.951 0-3.41-.543-4.378-1.628-.954-1.085-1.474-2.508-1.562-4.268l-.022-2.024.022-2.068c.073-1.731.601-3.139 1.584-4.224s2.434-1.628 4.356-1.628c1.936 0 3.395.543 4.378 1.628s1.503 2.493 1.562 4.224c.029.411.044 1.1.044 2.068l-.044 2.024c-.074 1.76-.594 3.183-1.562 4.268-.954 1.085-2.413 1.628-4.378 1.628zm0-2.53c.924 0 1.613-.301 2.068-.902.454-.616.696-1.474.726-2.574l.044-1.936-.044-1.914c-.03-1.085-.272-1.936-.726-2.552s-1.144-.924-2.068-.924c-.91 0-1.599.308-2.068.924-.455.616-.697 1.467-.726 2.552l-.022 1.914.022 1.936c.029 1.1.271 1.958.726 2.574.469.601 1.158.902 2.068.902zm14.459 2.53c-1.951 0-3.41-.543-4.378-1.628-.954-1.085-1.474-2.508-1.562-4.268l-.022-2.024.022-2.068c.073-1.731.601-3.139 1.584-4.224s2.434-1.628 4.356-1.628c1.936 0 3.395.543 4.378 1.628s1.503 2.493 1.562 4.224c.029.411.044 1.1.044 2.068l-.044 2.024c-.074 1.76-.594 3.183-1.562 4.268-.954 1.085-2.413 1.628-4.378 1.628zm0-2.53c.924 0 1.613-.301 2.068-.902.454-.616.696-1.474.726-2.574l.044-1.936-.044-1.914c-.03-1.085-.272-1.936-.726-2.552s-1.144-.924-2.068-.924c-.91 0-1.599.308-2.068.924-.455.616-.697 1.467-.726 2.552l-.022 1.914.022 1.936c.029 1.1.271 1.958.726 2.574.469.601 1.158.902 2.068.902z" fill="#fff"/><path d="M60.72 84c-.08 0-.148-.024-.204-.072-.048-.056-.072-.124-.072-.204v-7.848c0-.08.024-.144.072-.192.056-.056.124-.084.204-.084h.636a.24.24 0 0 1 .192.084.24.24 0 0 1 .084.192v7.848c0 .08-.028.148-.084.204-.048.048-.112.072-.192.072h-.636zm3.125 0c-.08 0-.148-.024-.204-.072-.048-.056-.072-.124-.072-.204v-5.688c0-.08.024-.144.072-.192.056-.056.124-.084.204-.084h.564a.24.24 0 0 1 .192.084.24.24 0 0 1 .084.192v.528c.232-.296.504-.524.816-.684.32-.16.716-.24 1.188-.24.768 0 1.364.248 1.788.744.432.488.648 1.14.648 1.956v3.384c0 .08-.028.148-.084.204-.048.048-.112.072-.192.072h-.6c-.08 0-.148-.024-.204-.072-.048-.056-.072-.124-.072-.204V80.4c0-.568-.14-1.008-.42-1.32-.272-.312-.668-.468-1.188-.468-.504 0-.904.16-1.2.48-.296.312-.444.748-.444 1.308v3.324c0 .08-.028.148-.084.204-.048.048-.112.072-.192.072h-.6zm10.219 0c-.08 0-.148-.024-.204-.072-.048-.056-.072-.124-.072-.204v-5.688c0-.08.024-.144.072-.192.056-.056.124-.084.204-.084h.54a.24.24 0 0 1 .192.084.24.24 0 0 1 .084.192v.42c.416-.544.996-.816 1.74-.816.888 0 1.516.368 1.884 1.104a2.13 2.13 0 0 1 .816-.804c.352-.2.748-.3 1.188-.3.656 0 1.192.224 1.608.672s.624 1.096.624 1.944v3.468c0 .08-.028.148-.084.204-.048.048-.112.072-.192.072H81.9c-.08 0-.148-.024-.204-.072-.048-.056-.072-.124-.072-.204v-3.36c0-.624-.132-1.072-.396-1.344-.256-.272-.596-.408-1.02-.408-.376 0-.7.14-.972.42-.272.272-.408.716-.408 1.332v3.36c0 .08-.028.148-.084.204-.048.048-.112.072-.192.072h-.564c-.08 0-.148-.024-.204-.072-.048-.056-.072-.124-.072-.204v-3.36c0-.624-.136-1.072-.408-1.344-.264-.272-.6-.408-1.008-.408-.376 0-.7.14-.972.42-.272.272-.408.712-.408 1.32v3.372c0 .08-.028.148-.084.204-.048.048-.112.072-.192.072h-.576zm11.293 2.28a.23.23 0 0 1-.24-.24c0-.056.02-.128.06-.216l.924-2.196-2.292-5.412c-.04-.104-.06-.172-.06-.204 0-.072.024-.132.072-.18s.108-.072.18-.072h.588c.128 0 .224.068.288.204l1.824 4.368 1.872-4.368c.064-.136.164-.204.3-.204h.564c.072 0 .132.024.18.072a.23.23 0 0 1 .072.168c0 .024-.02.096-.06.216l-3.408 7.86c-.064.136-.164.204-.3.204h-.564zM94.896 84c-.208 0-.332-.108-.372-.324l-1.548-7.704c-.008-.04-.012-.084-.012-.132a.23.23 0 0 1 .24-.24h.624c.168 0 .264.068.288.204l1.224 6.192 1.296-4.248c.072-.192.2-.288.384-.288h.444c.104 0 .184.028.24.084a.43.43 0 0 1 .132.204l1.308 4.248 1.212-6.192c.024-.136.124-.204.3-.204h.624a.23.23 0 0 1 .24.24l-.012.132-1.548 7.704c-.048.216-.172.324-.372.324h-.468c-.208 0-.34-.1-.396-.3l-1.488-4.572L95.76 83.7c-.064.2-.196.3-.396.3h-.468zm9.508.12c-.392 0-.756-.08-1.092-.24a2.09 2.09 0 0 1-.804-.648 1.6 1.6 0 0 1-.288-.924c0-.528.216-.96.648-1.296.44-.344 1.032-.568 1.776-.672l1.788-.252v-.348c0-.816-.468-1.224-1.404-1.224-.352 0-.64.076-.864.228-.224.144-.392.316-.504.516-.024.072-.056.124-.096.156-.032.032-.08.048-.144.048h-.516c-.072 0-.136-.024-.192-.072-.048-.056-.072-.12-.072-.192.008-.192.096-.408.264-.648.176-.248.444-.46.804-.636.36-.184.804-.276 1.332-.276.896 0 1.54.212 1.932.636.392.416.588.936.588 1.56v3.888c0 .08-.028.148-.084.204-.048.048-.112.072-.192.072h-.552c-.08 0-.148-.024-.204-.072-.048-.056-.072-.124-.072-.204v-.516c-.176.256-.432.472-.768.648s-.764.264-1.284.264zm.252-.9c.52 0 .944-.168 1.272-.504.336-.344.504-.836.504-1.476v-.336l-1.392.204c-.568.08-.996.216-1.284.408-.288.184-.432.42-.432.708 0 .32.132.568.396.744.264.168.576.252.936.252zm4.917.78c-.08 0-.148-.024-.204-.072-.048-.056-.072-.124-.072-.204v-7.968c0-.08.024-.144.072-.192.056-.056.124-.084.204-.084h.564a.24.24 0 0 1 .192.084.24.24 0 0 1 .084.192v7.968c0 .08-.028.148-.084.204-.048.048-.112.072-.192.072h-.564zm2.918 0c-.08 0-.148-.024-.204-.072-.048-.056-.072-.124-.072-.204v-7.968c0-.08.024-.144.072-.192.056-.056.124-.084.204-.084h.564a.24.24 0 0 1 .192.084.24.24 0 0 1 .084.192v7.968c0 .08-.028.148-.084.204-.048.048-.112.072-.192.072h-.564zm5.126.12c-.824 0-1.484-.252-1.98-.756-.488-.512-.756-1.208-.804-2.088l-.012-.408.012-.396c.056-.864.328-1.552.816-2.064.496-.512 1.148-.768 1.956-.768.888 0 1.576.284 2.064.852.488.56.732 1.32.732 2.28v.204c0 .08-.028.148-.084.204-.048.048-.112.072-.192.072h-4.152v.108c.024.52.18.964.468 1.332.296.36.684.54 1.164.54.368 0 .668-.072.9-.216.24-.152.416-.308.528-.468.072-.096.124-.152.156-.168.04-.024.108-.036.204-.036h.588c.072 0 .132.02.18.06s.072.096.072.168c0 .176-.112.388-.336.636-.216.248-.524.464-.924.648-.392.176-.844.264-1.356.264zm1.644-3.696v-.036c0-.552-.152-1-.456-1.344-.296-.352-.696-.528-1.2-.528s-.904.176-1.2.528c-.288.344-.432.792-.432 1.344v.036h3.288zM124.236 84c-1.264 0-1.896-.704-1.896-2.112V78.72h-.936c-.08 0-.148-.024-.204-.072-.048-.056-.072-.124-.072-.204v-.408c0-.08.024-.144.072-.192.056-.056.124-.084.204-.084h.936v-2.004c0-.08.024-.144.072-.192.056-.056.124-.084.204-.084h.564a.24.24 0 0 1 .192.084.24.24 0 0 1 .084.192v2.004h1.488a.24.24 0 0 1 .192.084.24.24 0 0 1 .084.192v.408c0 .08-.028.148-.084.204-.048.048-.112.072-.192.072h-1.488v3.084c0 .4.068.704.204.912.136.2.36.3.672.3h.732a.24.24 0 0 1 .192.084.24.24 0 0 1 .084.192v.432c0 .08-.028.148-.084.204-.048.048-.112.072-.192.072h-.828z" fill="#d4d6d9"/><path d="M51.261 136c-.107 0-.197-.032-.272-.096-.064-.075-.096-.165-.096-.272v-.512c0-.245.133-.48.4-.704l3.392-3.392c.821-.683 1.387-1.237 1.696-1.664.309-.437.464-.896.464-1.376 0-.619-.176-1.104-.528-1.456-.341-.352-.843-.528-1.504-.528-.619 0-1.115.187-1.488.56-.373.363-.603.848-.688 1.456-.021.128-.075.224-.16.288a.43.43 0 0 1-.256.08h-.832c-.096 0-.176-.027-.24-.08-.064-.064-.096-.139-.096-.224.021-.576.176-1.125.464-1.648.288-.533.709-.965 1.264-1.296.565-.341 1.243-.512 2.032-.512 1.205 0 2.112.315 2.72.944.619.619.928 1.408.928 2.368a3.36 3.36 0 0 1-.512 1.824c-.331.533-.848 1.109-1.552 1.728l-3.072 3.12h4.992c.117 0 .208.037.272.112a.32.32 0 0 1 .112.256v.656a.37.37 0 0 1-.112.272c-.075.064-.165.096-.272.096h-7.056zm12.911.16c-.811 0-1.509-.144-2.096-.432s-1.04-.667-1.36-1.136c-.309-.469-.475-.971-.496-1.504v-.032c0-.085.032-.155.096-.208a.34.34 0 0 1 .224-.08h.864c.224 0 .368.117.432.352.149.565.437.987.864 1.264s.917.416 1.472.416c.715 0 1.307-.213 1.776-.64.48-.437.72-1.04.72-1.808 0-.693-.24-1.253-.72-1.68-.469-.427-1.061-.64-1.776-.64-.384 0-.693.053-.928.16-.235.096-.469.235-.704.416-.128.096-.24.171-.336.224a.63.63 0 0 1-.288.064h-.832c-.096 0-.181-.032-.256-.096-.075-.075-.107-.16-.096-.256l.512-5.344c.011-.128.048-.224.112-.288.075-.075.171-.112.288-.112h5.584c.107 0 .192.037.256.112a.32.32 0 0 1 .112.256v.624a.37.37 0 0 1-.112.272c-.064.064-.149.096-.256.096H62.62l-.304 3.152c.576-.363 1.269-.544 2.08-.544.704 0 1.349.144 1.936.432.597.288 1.067.704 1.408 1.248.352.544.528 1.184.528 1.92 0 .789-.176 1.472-.528 2.048-.341.565-.821.997-1.44 1.296s-1.328.448-2.128.448zm5.759 1.04c-.085 0-.155-.032-.208-.096a.35.35 0 0 1-.048-.24l.368-2.288c.043-.309.192-.464.448-.464h1.072c.075 0 .133.027.176.08a.26.26 0 0 1 .08.192 1.11 1.11 0 0 1-.048.256l-.848 2.192c-.053.128-.112.219-.176.272-.064.064-.16.096-.288.096h-.528zm7.844-1.04c-.832 0-1.563-.133-2.192-.4-.629-.277-1.12-.672-1.472-1.184s-.528-1.109-.528-1.792c0-.629.155-1.179.464-1.648a3.03 3.03 0 0 1 1.264-1.104c-.427-.245-.757-.565-.992-.96-.224-.405-.336-.875-.336-1.408 0-.939.341-1.675 1.024-2.208.693-.544 1.616-.816 2.768-.816 1.141 0 2.053.272 2.736.816.693.533 1.04 1.264 1.04 2.192 0 .533-.117 1.003-.352 1.408-.224.395-.544.72-.96.976a3.03 3.03 0 0 1 1.264 1.104c.309.469.464 1.019.464 1.648 0 .683-.176 1.28-.528 1.792s-.848.907-1.488 1.184c-.629.267-1.355.4-2.176.4zm0-6.704c.64-.011 1.179-.176 1.616-.496s.656-.741.656-1.264c0-.533-.219-.96-.656-1.28-.427-.331-.965-.496-1.616-.496-.661 0-1.211.16-1.648.48-.427.32-.64.752-.64 1.296a1.52 1.52 0 0 0 .64 1.28c.437.32.987.48 1.648.48zm0 5.424c.747 0 1.371-.192 1.872-.576a1.82 1.82 0 0 0 .752-1.52c0-.629-.251-1.131-.752-1.504s-1.125-.56-1.872-.56c-.757 0-1.387.187-1.888.56s-.752.875-.752 1.504a1.82 1.82 0 0 0 .752 1.52c.501.384 1.131.576 1.888.576zm8.172 1.12c-.096 0-.176-.032-.24-.096a.43.43 0 0 1-.08-.256c0-.075.021-.144.064-.208l2.448-3.408a3.57 3.57 0 0 1-.864.096c-.757-.011-1.429-.187-2.016-.528-.576-.341-1.019-.795-1.328-1.36a3.71 3.71 0 0 1-.464-1.808 3.91 3.91 0 0 1 .448-1.824c.309-.587.768-1.061 1.376-1.424s1.344-.544 2.208-.544 1.6.176 2.208.528c.619.352 1.083.816 1.392 1.392a3.83 3.83 0 0 1 .464 1.84c0 .576-.101 1.088-.304 1.536-.203.437-.485.917-.848 1.44l-3.088 4.304a1.65 1.65 0 0 1-.224.24c-.064.053-.16.08-.288.08h-.864zm1.552-5.168c.448 0 .859-.096 1.232-.288a2.33 2.33 0 0 0 .912-.848c.224-.373.336-.8.336-1.28s-.112-.901-.336-1.264c-.224-.373-.528-.656-.912-.848-.373-.203-.784-.304-1.232-.304s-.859.101-1.232.304a2.21 2.21 0 0 0-.896.848c-.213.363-.32.784-.32 1.264s.107.907.32 1.28a2.36 2.36 0 0 0 .896.848c.373.192.784.288 1.232.288zm9.916 5.328c-1.376 0-2.384-.4-3.024-1.2s-.981-1.851-1.024-3.152l-.016-1.392.016-1.44c.032-1.28.373-2.32 1.024-3.12.651-.811 1.659-1.216 3.024-1.216 1.376 0 2.389.405 3.04 1.216.65.8.992 1.84 1.024 3.12l.032 1.44-.032 1.392c-.043 1.301-.384 2.352-1.024 3.152s-1.654 1.2-3.04 1.2zm0-1.376c.8 0 1.403-.267 1.808-.8.416-.533.635-1.285.656-2.256l.032-1.344-.032-1.312c-.021-.96-.235-1.712-.64-2.256S98.226 126 97.416 126c-.8 0-1.408.272-1.824.816-.405.544-.619 1.296-.64 2.256l-.016 1.312.016 1.344c.021.971.235 1.723.64 2.256.416.533 1.024.8 1.824.8zM110.224 136c-.107 0-.198-.032-.272-.096-.064-.075-.096-.165-.096-.272v-9.408h-3.072c-.107 0-.198-.032-.272-.096-.064-.075-.096-.165-.096-.272v-.672c0-.107.032-.197.096-.272.074-.075.165-.112.272-.112h7.712c.117 0 .208.037.272.112.074.064.112.155.112.272v.672c0 .107-.038.197-.112.272-.075.064-.166.096-.272.096h-3.056v9.408c0 .107-.038.197-.112.272-.075.064-.166.096-.272.096h-.832zm9.265 0c-.106 0-.197-.032-.272-.096-.064-.075-.096-.165-.096-.272v-9.408h-3.072c-.106 0-.197-.032-.272-.096-.064-.075-.096-.165-.096-.272v-.672c0-.107.032-.197.096-.272a.37.37 0 0 1 .272-.112h7.712c.118 0 .208.037.272.112.075.064.112.155.112.272v.672a.37.37 0 0 1-.112.272c-.074.064-.165.096-.272.096h-3.056v9.408a.37.37 0 0 1-.112.272c-.074.064-.165.096-.272.096h-.832zm6.818 0c-.107 0-.197-.032-.272-.096-.064-.075-.096-.165-.096-.272v-10.448c0-.117.032-.208.096-.272a.37.37 0 0 1 .272-.112h6.528c.117 0 .208.037.272.112.075.064.112.155.112.272v.64a.37.37 0 0 1-.112.272c-.064.064-.155.096-.272.096h-5.344v3.728h5.024c.117 0 .208.037.272.112.075.064.112.155.112.272v.64a.37.37 0 0 1-.112.272c-.075.064-.165.096-.272.096h-5.024v4.32a.37.37 0 0 1-.112.272c-.075.064-.165.096-.272.096h-.8z" fill="#fff"/></svg>