<svg xmlns="http://www.w3.org/2000/svg" width="12" height="18" fill="none" xmlns:v="https://vecta.io/nano"><path d="M10.577 8.71c.756-.739 1.229-1.765 1.229-2.903 0-2.042-1.519-3.721-3.484-4.006V0H6v1.742H3.677V0H1.355v1.742H.193v2.323h1.161v9.29H.193v2.323h1.161V18h2.323v-2.323H6V18h2.323v-2.381c1.964-.285 3.484-1.964 3.484-4.006 0-1.138-.473-2.165-1.229-2.903zM9.484 5.806c0 .961-.781 1.742-1.742 1.742H3.677V4.065h4.065c.961 0 1.742.781 1.742 1.742zm-1.742 7.548H3.677V9.871h4.065c.961 0 1.742.781 1.742 1.742s-.781 1.742-1.742 1.742z" fill="#fff"/></svg>