<svg xmlns="http://www.w3.org/2000/svg" width="18" height="18" fill="none" xmlns:v="https://vecta.io/nano"><g clip-path="url(#A)" fill="#fff"><path d="M11.651 7.939a.531.531 0 1 0 0-1.061.531.531 0 1 0 0 1.061zm-5.302 0a.531.531 0 1 0 0-1.061.531.531 0 1 0 0 1.061zM9 12.182a.531.531 0 0 0 0-1.061.531.531 0 0 0 0 1.061zm9-3.712a8.94 8.94 0 0 0-2.261-5.459l-1.864 1.864-.75-.75 1.864-1.864A8.94 8.94 0 0 0 9.53 0v2.636H8.47V0a8.94 8.94 0 0 0-5.459 2.261l1.864 1.864-.75.75-1.864-1.864A8.94 8.94 0 0 0 0 8.47h2.636v1.06H0a8.94 8.94 0 0 0 2.261 5.459l1.864-1.864.75.75-1.864 1.864A8.94 8.94 0 0 0 8.47 18v-2.636h1.06V18a8.94 8.94 0 0 0 5.459-2.261l-1.864-1.864.75-.75 1.864 1.864A8.94 8.94 0 0 0 18 9.53h-2.636V8.47H18zM11.652 9a1.58 1.58 0 0 1-.958-.322l-1.163.565v.908c.617.219 1.061.808 1.061 1.5 0 .877-.714 1.591-1.591 1.591s-1.591-.714-1.591-1.591c0-.691.443-1.281 1.061-1.5v-.908l-1.163-.565a1.59 1.59 0 0 1-.96.322c-.877 0-1.591-.714-1.591-1.591s.714-1.591 1.591-1.591 1.591.714 1.591 1.591a1.59 1.59 0 0 1-.045.375L9 8.322l1.106-.537a1.59 1.59 0 0 1-.045-.375c0-.877.714-1.591 1.591-1.591s1.591.714 1.591 1.591S12.529 9 11.652 9z"/></g><defs><clipPath id="A"><path fill="#fff" d="M0 0h18v18H0z"/></clipPath></defs></svg>