<svg xmlns="http://www.w3.org/2000/svg" width="18" height="18" fill="none" xmlns:v="https://vecta.io/nano"><g clip-path="url(#A)" fill="#fff"><path d="M4.99 5.016c.521-.52 1.127-.929 1.802-1.215A5.64 5.64 0 0 1 9 3.355a5.64 5.64 0 0 1 2.208.446 5.66 5.66 0 0 1 1.802 1.215 5.65 5.65 0 0 1 .611.722V5.13a3.54 3.54 0 0 0-3.537-3.537H5.697V.035L0 3.625l4.083 2.573a5.66 5.66 0 0 1 .907-1.182zM18 14.428l-4.083-2.573a5.66 5.66 0 0 1-.906 1.182 5.65 5.65 0 0 1-1.802 1.215 5.64 5.64 0 0 1-2.208.446 5.64 5.64 0 0 1-2.208-.446 5.65 5.65 0 0 1-1.802-1.215 5.69 5.69 0 0 1-.611-.722v.608a3.54 3.54 0 0 0 3.537 3.537h4.388v1.557L18 14.428zM4.384 9.026A4.62 4.62 0 0 0 9 13.642a4.62 4.62 0 0 0 4.616-4.616A4.62 4.62 0 0 0 9 4.41a4.62 4.62 0 0 0-4.616 4.616zm2.858-.75c0-.652.473-1.201 1.42-1.333v-.629h.814v.618c.427.04.843.15 1.172.335l-.41.987c-.398-.202-.773-.3-1.125-.3-.398 0-.525.115-.525.254 0 .485 2.234.081 2.234 1.57 0 .623-.45 1.166-1.345 1.322v.641h-.814v-.612c-.577-.035-1.137-.191-1.483-.404l.439-.993c.381.225.889.369 1.333.369.387 0 .525-.081.525-.219 0-.508-2.234-.098-2.234-1.604z"/></g><defs><clipPath id="A"><path fill="#fff" d="M0 0h18v18H0z"/></clipPath></defs></svg>