<svg width="114" height="36" viewBox="0 0 114 36" fill="none" xmlns="http://www.w3.org/2000/svg">
<line x1="2" y1="31" x2="113" y2="31" stroke="white" stroke-width="2"/>
<path d="M2.85 28C2.65 28 2.47 27.93 2.31 27.79C2.17 27.63 2.1 27.45 2.1 27.25V7.75C2.1 7.53 2.17 7.35 2.31 7.21C2.47 7.07 2.65 7 2.85 7H10.65C13.59 7 15.87 7.7 17.49 9.1C19.11 10.5 19.96 12.53 20.04 15.19C20.06 15.77 20.07 16.54 20.07 17.5C20.07 18.46 20.06 19.22 20.04 19.78C19.94 22.56 19.11 24.63 17.55 25.99C16.01 27.33 13.76 28 10.8 28H2.85ZM10.65 23.68C11.97 23.68 12.94 23.37 13.56 22.75C14.18 22.11 14.51 21.1 14.55 19.72C14.59 19.14 14.61 18.39 14.61 17.47C14.61 16.55 14.59 15.81 14.55 15.25C14.51 13.91 14.15 12.92 13.47 12.28C12.81 11.64 11.82 11.32 10.5 11.32H7.5V23.68H10.65ZM23.5646 28C23.4179 28 23.2859 27.9487 23.1686 27.846C23.0659 27.7287 23.0146 27.5967 23.0146 27.45V13.15C23.0146 12.9887 23.0659 12.8567 23.1686 12.754C23.2859 12.6513 23.4179 12.6 23.5646 12.6H26.5126C26.6739 12.6 26.8059 12.6513 26.9086 12.754C27.0259 12.8567 27.0846 12.9887 27.0846 13.15V27.45C27.0846 27.6113 27.0259 27.7433 26.9086 27.846C26.8059 27.9487 26.6739 28 26.5126 28H23.5646ZM36.5054 28.22C34.3934 28.22 32.7434 27.7067 31.5554 26.68C30.3674 25.6387 29.7368 24.1647 29.6634 22.258C29.6488 21.8327 29.6414 21.158 29.6414 20.234C29.6414 19.31 29.6488 18.6353 29.6634 18.21C29.7368 16.3473 30.3748 14.91 31.5774 13.898C32.7948 12.886 34.4374 12.38 36.5054 12.38C37.8988 12.38 39.1088 12.6073 40.1354 13.062C41.1768 13.5167 41.9688 14.096 42.5114 14.8C43.0688 15.504 43.3621 16.23 43.3914 16.978C43.3914 17.11 43.3401 17.22 43.2374 17.308C43.1494 17.396 43.0394 17.44 42.9074 17.44H39.6954C39.5488 17.44 39.4314 17.418 39.3434 17.374C39.2554 17.33 39.1821 17.2493 39.1234 17.132C38.9328 16.7067 38.6321 16.34 38.2214 16.032C37.8108 15.7093 37.2388 15.548 36.5054 15.548C34.7601 15.548 33.8434 16.472 33.7554 18.32C33.7408 18.7307 33.7334 19.3687 33.7334 20.234C33.7334 21.0847 33.7408 21.7227 33.7554 22.148C33.8434 24.084 34.7821 25.052 36.5714 25.052C37.4368 25.052 38.1261 24.832 38.6394 24.392C39.1674 23.9373 39.4314 23.248 39.4314 22.324V21.906H37.3634C37.2021 21.906 37.0701 21.8547 36.9674 21.752C36.8648 21.6347 36.8134 21.4953 36.8134 21.334V19.706C36.8134 19.5447 36.8648 19.4127 36.9674 19.31C37.0701 19.1927 37.2021 19.134 37.3634 19.134H42.9074C43.0688 19.134 43.2008 19.1927 43.3034 19.31C43.4061 19.4127 43.4574 19.5447 43.4574 19.706V22.214C43.4574 23.4607 43.1714 24.5387 42.5994 25.448C42.0274 26.3427 41.2134 27.032 40.1574 27.516C39.1161 27.9853 37.8988 28.22 36.5054 28.22ZM46.5314 28C46.3847 28 46.2527 27.9487 46.1354 27.846C46.0327 27.7287 45.9814 27.5967 45.9814 27.45V13.15C45.9814 12.9887 46.0327 12.8567 46.1354 12.754C46.2527 12.6513 46.3847 12.6 46.5314 12.6H49.4794C49.6407 12.6 49.7727 12.6513 49.8754 12.754C49.9927 12.8567 50.0514 12.9887 50.0514 13.15V27.45C50.0514 27.6113 49.9927 27.7433 49.8754 27.846C49.7727 27.9487 49.6407 28 49.4794 28H46.5314ZM53.6642 28C53.5176 28 53.3856 27.9487 53.2682 27.846C53.1656 27.7287 53.1142 27.5967 53.1142 27.45V13.15C53.1142 12.9887 53.1656 12.8567 53.2682 12.754C53.3856 12.6513 53.5176 12.6 53.6642 12.6H60.3742C62.2222 12.6 63.5936 12.9813 64.4882 13.744C65.3976 14.492 65.8522 15.5627 65.8522 16.956C65.8522 17.6893 65.6616 18.3127 65.2802 18.826C64.9136 19.3247 64.4956 19.6913 64.0262 19.926C64.6276 20.2047 65.1336 20.652 65.5442 21.268C65.9549 21.884 66.1602 22.5733 66.1602 23.336C66.1602 24.8027 65.6762 25.9467 64.7082 26.768C63.7402 27.5893 62.3616 28 60.5722 28H53.6642ZM59.9342 18.716C60.5209 18.716 60.9682 18.5693 61.2762 18.276C61.5842 17.968 61.7382 17.5647 61.7382 17.066C61.7382 16.582 61.5842 16.1933 61.2762 15.9C60.9682 15.6067 60.5209 15.46 59.9342 15.46H57.0742V18.716H59.9342ZM60.1322 25.14C60.7336 25.14 61.2029 24.964 61.5402 24.612C61.8776 24.26 62.0462 23.8347 62.0462 23.336C62.0462 22.808 61.8776 22.3753 61.5402 22.038C61.2029 21.686 60.7336 21.51 60.1322 21.51H57.0742V25.14H60.1322ZM69.1545 28C69.0078 28 68.8758 27.9487 68.7585 27.846C68.6558 27.7287 68.6045 27.5967 68.6045 27.45V13.15C68.6045 12.9887 68.6558 12.8567 68.7585 12.754C68.8758 12.6513 69.0078 12.6 69.1545 12.6H72.0585C72.2198 12.6 72.3518 12.6513 72.4545 12.754C72.5571 12.8567 72.6085 12.9887 72.6085 13.15V24.678H79.2745C79.4358 24.678 79.5678 24.7367 79.6705 24.854C79.7731 24.9567 79.8245 25.0887 79.8245 25.25V27.45C79.8245 27.5967 79.7731 27.7287 79.6705 27.846C79.5678 27.9487 79.4358 28 79.2745 28H69.1545ZM82.2814 28C82.1347 28 82.0027 27.9487 81.8854 27.846C81.7827 27.7287 81.7314 27.5967 81.7314 27.45V13.15C81.7314 12.9887 81.7827 12.8567 81.8854 12.754C82.0027 12.6513 82.1347 12.6 82.2814 12.6H92.5554C92.7167 12.6 92.8487 12.6513 92.9514 12.754C93.0541 12.8567 93.1054 12.9887 93.1054 13.15V15.218C93.1054 15.3647 93.0541 15.4967 92.9514 15.614C92.8487 15.7167 92.7167 15.768 92.5554 15.768H85.5374V18.738H92.0714C92.2327 18.738 92.3647 18.7967 92.4674 18.914C92.5701 19.0167 92.6214 19.1487 92.6214 19.31V21.224C92.6214 21.3707 92.5701 21.5027 92.4674 21.62C92.3647 21.7227 92.2327 21.774 92.0714 21.774H85.5374V24.832H92.7314C92.8927 24.832 93.0247 24.8833 93.1274 24.986C93.2301 25.0887 93.2814 25.2207 93.2814 25.382V27.45C93.2814 27.5967 93.2301 27.7287 93.1274 27.846C93.0247 27.9487 92.8927 28 92.7314 28H82.2814ZM96.1322 28C95.9122 28 95.7322 27.93 95.5922 27.79C95.4522 27.63 95.3822 27.44 95.3822 27.22V24.31C95.3822 23.89 95.5322 23.53 95.8322 23.23L105.492 11.47H96.4022C96.2022 11.47 96.0222 11.4 95.8622 11.26C95.7222 11.1 95.6522 10.92 95.6522 10.72V7.75C95.6522 7.53 95.7222 7.35 95.8622 7.21C96.0222 7.07 96.2022 7 96.4022 7H111.552C111.772 7 111.952 7.07 112.092 7.21C112.232 7.35 112.302 7.53 112.302 7.75V10.66C112.302 11 112.172 11.34 111.912 11.68L102.522 23.47H111.882C112.102 23.47 112.282 23.55 112.422 23.71C112.582 23.85 112.662 24.03 112.662 24.25V27.25C112.662 27.47 112.582 27.65 112.422 27.79C112.282 27.93 112.102 28 111.882 28H96.1322Z" fill="white"/>
</svg>
