<svg xmlns="http://www.w3.org/2000/svg" width="406" height="210" fill="none" xmlns:v="https://vecta.io/nano"><path d="M4.608 17c-.12 0-.222-.042-.306-.126s-.126-.186-.126-.306V6.614H.846c-.12 0-.222-.042-.306-.126s-.126-.186-.126-.306V4.85a.48.48 0 0 1 .108-.324C.606 4.442.714 4.4.846 4.4h9.18c.132 0 .24.042.324.126s.126.192.126.324v1.332c0 .12-.042.222-.126.306s-.192.126-.324.126H6.714v9.954c0 .12-.042.222-.126.306S6.396 17 6.264 17H4.608zm9.792.18c-1.104 0-1.974-.36-2.61-1.08-.636-.732-.954-1.722-.954-2.97V8.072c0-.12.042-.222.126-.306s.186-.126.306-.126h1.584c.132 0 .234.042.306.126.084.072.126.174.126.306v4.95c0 1.488.654 2.232 1.962 2.232.624 0 1.116-.198 1.476-.594.372-.396.558-.942.558-1.638v-4.95c0-.12.042-.222.126-.306s.186-.126.306-.126h1.584c.132 0 .234.042.306.126.084.072.126.174.126.306v8.496c0 .12-.042.222-.126.306-.072.084-.174.126-.306.126h-1.458c-.12 0-.222-.042-.306-.126s-.126-.186-.126-.306v-.738c-.672.9-1.674 1.35-3.006 1.35zm8.138-.18c-.12 0-.222-.042-.306-.126s-.126-.186-.126-.306V8.09c0-.12.042-.222.126-.306.084-.096.186-.144.306-.144h1.458c.132 0 .24.042.324.126s.126.192.126.324v.738c.288-.384.648-.678 1.08-.882.444-.204.948-.306 1.512-.306h.738c.132 0 .234.042.306.126.084.072.126.174.126.306v1.296c0 .12-.042.222-.126.306-.072.084-.174.126-.306.126h-1.404c-.564 0-1.008.162-1.332.486s-.486.768-.486 1.332v4.95c0 .12-.042.222-.126.306s-.192.126-.324.126h-1.566zm12.258.18c-1.236 0-2.196-.426-2.88-1.278v.666c0 .12-.042.222-.126.306-.072.084-.174.126-.306.126h-1.422c-.12 0-.222-.042-.306-.126s-.126-.186-.126-.306V4.652c0-.132.042-.234.126-.306.084-.084.186-.126.306-.126h1.53c.132 0 .234.042.306.126.084.072.126.174.126.306v3.996c.684-.792 1.608-1.188 2.772-1.188 1.212 0 2.142.396 2.79 1.188s.996 1.818 1.044 3.078c.012.144.018.336.018.576l-.018.594c-.048 1.296-.396 2.334-1.044 3.114s-1.578 1.17-2.79 1.17zm-.666-1.926c1.296 0 1.986-.798 2.07-2.394a5.92 5.92 0 0 0 .018-.54l-.018-.54c-.084-1.596-.774-2.394-2.07-2.394-.672 0-1.188.216-1.548.648-.348.42-.534.93-.558 1.53l-.018.684.018.702c.036.648.222 1.194.558 1.638s.852.666 1.548.666zm10.661 1.926c-1.404 0-2.49-.36-3.258-1.08-.768-.732-1.182-1.728-1.242-2.988l-.018-.792.018-.792c.06-1.248.48-2.238 1.26-2.97s1.86-1.098 3.24-1.098 2.46.366 3.24 1.098 1.2 1.722 1.26 2.97c.012.144.018.408.018.792l-.018.792c-.06 1.26-.474 2.256-1.242 2.988-.768.72-1.854 1.08-3.258 1.08zm0-1.782c.636 0 1.128-.198 1.476-.594.348-.408.54-1.002.576-1.782.012-.12.018-.354.018-.702l-.018-.702c-.036-.78-.228-1.368-.576-1.764-.348-.408-.84-.612-1.476-.612s-1.128.204-1.476.612c-.348.396-.54.984-.576 1.764l-.018.702.018.702c.036.78.228 1.374.576 1.782.348.396.84.594 1.476.594zM55.463 17c-1.092 0-1.914-.282-2.466-.846-.54-.576-.81-1.416-.81-2.52V9.548h-1.422c-.12 0-.222-.042-.306-.126a.48.48 0 0 1-.126-.324V8.072c0-.12.042-.222.126-.306s.186-.126.306-.126h1.422V4.652c0-.132.042-.234.126-.306.084-.084.186-.126.306-.126h1.458c.132 0 .234.042.306.126.084.072.126.174.126.306V7.64h2.25c.132 0 .234.042.306.126.084.072.126.174.126.306v1.026c0 .132-.042.24-.126.324s-.186.126-.306.126h-2.25v3.906c0 .516.09.906.27 1.17s.48.396.9.396h1.242c.12 0 .222.042.306.126s.126.186.126.306v1.116c0 .12-.042.222-.126.306-.072.084-.174.126-.306.126h-1.458zm3.919 0c-.12 0-.222-.042-.306-.126s-.126-.186-.126-.306V8.09c0-.12.042-.222.126-.306.084-.096.186-.144.306-.144h1.458c.132 0 .24.042.324.126s.126.192.126.324v.738c.288-.384.648-.678 1.08-.882.444-.204.948-.306 1.512-.306h.738c.132 0 .234.042.306.126.084.072.126.174.126.306v1.296c0 .12-.042.222-.126.306-.072.084-.174.126-.306.126h-1.404c-.564 0-1.008.162-1.332.486s-.486.768-.486 1.332v4.95c0 .12-.042.222-.126.306s-.192.126-.324.126h-1.566zm7.434-10.908c-.12 0-.222-.042-.306-.126s-.126-.186-.126-.306V4.364c0-.12.042-.222.126-.306s.186-.126.306-.126h1.638c.12 0 .222.042.306.126.096.084.144.186.144.306V5.66c0 .12-.042.222-.126.306s-.192.126-.324.126h-1.638zM66.888 17c-.12 0-.222-.042-.306-.126s-.126-.186-.126-.306V8.072c0-.12.042-.222.126-.306s.186-.126.306-.126h1.494c.132 0 .234.042.306.126.084.072.126.174.126.306v8.496c0 .12-.042.222-.126.306-.072.084-.174.126-.306.126h-1.494zm3.918 0a.43.43 0 0 1-.288-.108.43.43 0 0 1-.108-.288c0-.108.042-.21.126-.306l3.06-4.104-2.844-3.852a.5.5 0 0 1-.108-.306c0-.108.036-.198.108-.27.084-.084.18-.126.288-.126h1.566c.12 0 .21.03.27.09.072.048.144.12.216.216l2.034 2.7 2.034-2.7c.012-.012.06-.066.144-.162.072-.096.186-.144.342-.144h1.494a.34.34 0 0 1 .27.126c.084.072.126.156.126.252 0 .12-.036.228-.108.324l-2.88 3.888 3.078 4.068c.084.096.126.198.126.306s-.042.204-.126.288c-.072.072-.162.108-.27.108h-1.638c-.192 0-.354-.096-.486-.288l-2.16-2.862-2.196 2.862c-.132.192-.294.288-.486.288h-1.584zM1.632 43a.37.37 0 0 1-.272-.112.37.37 0 0 1-.112-.272V32.2c0-.117.032-.213.096-.288a.39.39 0 0 1 .288-.112H5.92c1.28 0 2.288.304 3.024.912.736.597 1.104 1.477 1.104 2.64s-.368 2.043-1.104 2.64c-.725.587-1.733.88-3.024.88H3.536v3.744a.37.37 0 0 1-.112.272c-.064.075-.155.112-.272.112h-1.52zm4.208-5.904c.619 0 1.093-.144 1.424-.432.331-.299.496-.736.496-1.312 0-.555-.16-.987-.48-1.296-.32-.32-.8-.48-1.44-.48H3.504v3.52H5.84zM11.987 43a.37.37 0 0 1-.384-.384V35.08a.37.37 0 0 1 .112-.272.35.35 0 0 1 .272-.128h1.296a.39.39 0 0 1 .4.4v.656c.256-.341.576-.603.96-.784.395-.181.843-.272 1.344-.272h.656c.117 0 .208.037.272.112.075.064.112.155.112.272v1.152a.37.37 0 0 1-.112.272c-.064.075-.155.112-.272.112h-1.248c-.501 0-.896.144-1.184.432s-.432.683-.432 1.184v4.4a.37.37 0 0 1-.112.272.39.39 0 0 1-.288.112h-1.392zm6.608-9.696a.37.37 0 0 1-.384-.384v-1.152a.37.37 0 0 1 .384-.384h1.456a.37.37 0 0 1 .272.112.35.35 0 0 1 .128.272v1.152a.37.37 0 0 1-.112.272.39.39 0 0 1-.288.112h-1.456zM18.659 43a.37.37 0 0 1-.384-.384v-7.552a.37.37 0 0 1 .384-.384h1.328c.117 0 .208.037.272.112.075.064.112.155.112.272v7.552a.37.37 0 0 1-.112.272c-.064.075-.155.112-.272.112h-1.328zm7.435.16c-1.173 0-2.112-.325-2.816-.976-.693-.651-1.061-1.552-1.104-2.704l-.016-.64.016-.64c.043-1.152.411-2.053 1.104-2.704.704-.651 1.643-.976 2.816-.976.832 0 1.536.149 2.112.448.587.299 1.019.667 1.296 1.104.288.427.443.832.464 1.216.011.107-.027.197-.112.272a.37.37 0 0 1-.272.112h-1.408c-.107 0-.192-.021-.256-.064-.053-.053-.107-.139-.16-.256-.16-.416-.373-.715-.64-.896-.256-.181-.587-.272-.992-.272-.544 0-.971.176-1.28.528-.309.341-.475.864-.496 1.568l-.016.592.016.528c.043 1.397.635 2.096 1.776 2.096.416 0 .752-.091 1.008-.272s.464-.48.624-.896c.053-.117.107-.197.16-.24.064-.053.149-.08.256-.08h1.408a.37.37 0 0 1 .272.112c.085.075.123.165.112.272-.021.373-.171.773-.448 1.2s-.704.795-1.28 1.104-1.291.464-2.144.464zm9.125 0c-1.184 0-2.128-.341-2.832-1.024-.693-.693-1.061-1.664-1.104-2.912l-.016-.4.016-.4c.053-1.216.427-2.171 1.12-2.864.704-.693 1.643-1.04 2.816-1.04 1.259 0 2.229.384 2.912 1.152.693.768 1.04 1.792 1.04 3.072v.336a.37.37 0 0 1-.112.272.39.39 0 0 1-.288.112h-5.312v.128c.021.587.181 1.083.48 1.488.309.395.731.592 1.264.592.629 0 1.136-.245 1.52-.736a1.08 1.08 0 0 1 .224-.224c.064-.032.155-.048.272-.048h1.376c.096 0 .176.032.24.096.075.053.112.123.112.208 0 .256-.155.56-.464.912-.299.341-.731.64-1.296.896s-1.221.384-1.968.384zm1.776-5.04v-.048c0-.629-.16-1.136-.48-1.52-.309-.384-.741-.576-1.296-.576s-.987.192-1.296.576-.464.891-.464 1.52v.048h3.536z" fill="#fff"/><path d="M48.109 44.6a.37.37 0 0 1-.272-.112c-.075-.064-.112-.155-.112-.272v-1.12c-.768-.075-1.429-.256-1.984-.544-.544-.299-.96-.661-1.248-1.088-.277-.437-.427-.901-.448-1.392 0-.096.032-.176.096-.24.075-.064.16-.096.256-.096h1.424c.117 0 .208.027.272.08a.61.61 0 0 1 .208.224c.117.363.363.667.736.912.384.245.912.368 1.584.368.747 0 1.312-.123 1.696-.368.384-.256.576-.608.576-1.056 0-.299-.096-.544-.288-.736s-.485-.357-.88-.496c-.395-.149-.976-.32-1.744-.512-1.259-.299-2.181-.693-2.768-1.184-.576-.501-.864-1.211-.864-2.128a2.77 2.77 0 0 1 .896-2.096c.608-.576 1.435-.928 2.48-1.056v-1.104c0-.117.037-.208.112-.272a.37.37 0 0 1 .272-.112h.976a.37.37 0 0 1 .384.384v1.136c.693.096 1.285.304 1.776.624.501.309.88.672 1.136 1.088.267.416.411.821.432 1.216 0 .096-.032.176-.096.24s-.144.096-.24.096h-1.488c-.235 0-.395-.101-.48-.304-.053-.341-.261-.624-.624-.848-.363-.235-.816-.352-1.36-.352-.587 0-1.051.112-1.392.336s-.512.549-.512.976c0 .299.085.544.256.736s.437.363.8.512c.373.149.907.315 1.6.496.939.213 1.685.453 2.24.72.565.267.981.603 1.248 1.008s.4.923.4 1.552c0 .917-.331 1.669-.992 2.256-.661.576-1.563.923-2.704 1.04v1.104a.37.37 0 0 1-.384.384h-.976zM58.182 43a.37.37 0 0 1-.384-.384v-8.288L55.366 36.2a.34.34 0 0 1-.224.08c-.128 0-.235-.059-.32-.176l-.672-.864c-.053-.085-.08-.165-.08-.24 0-.128.059-.235.176-.32l3.584-2.768c.096-.075.229-.112.4-.112h1.408c.117 0 .208.037.272.112.075.064.112.155.112.272v10.432a.37.37 0 0 1-.112.272c-.064.075-.155.112-.272.112h-1.456zm3.934 1.2c-.096 0-.171-.032-.224-.096s-.075-.144-.064-.24l.432-2.72c.021-.149.075-.272.16-.368s.203-.144.352-.144h1.472c.075 0 .139.032.192.096.064.053.096.123.096.208 0 .053-.016.123-.048.208L63.46 43.8c-.053.128-.123.224-.208.288-.075.075-.181.112-.32.112h-.816zm5.515-1.2c-.096 0-.176-.032-.24-.096-.064-.075-.096-.16-.096-.256 0-.075.021-.144.064-.208l2.352-3.248c-.235.053-.453.075-.656.064-.715-.021-1.365-.197-1.952-.528s-1.051-.779-1.392-1.344a3.61 3.61 0 0 1-.496-1.856c0-.672.165-1.301.496-1.888.331-.597.821-1.077 1.472-1.44.651-.373 1.435-.56 2.352-.56s1.707.176 2.368.528c.661.341 1.157.805 1.488 1.392.341.576.512 1.211.512 1.904a3.55 3.55 0 0 1-.208 1.216c-.139.384-.299.72-.48 1.008l-.736 1.088-2.816 3.904c-.064.096-.139.176-.224.24-.075.053-.181.08-.32.08h-1.488zm1.92-5.44c.587 0 1.077-.181 1.472-.544.405-.373.608-.869.608-1.488s-.203-1.115-.608-1.488c-.395-.373-.885-.56-1.472-.56s-1.083.187-1.488.56c-.395.373-.592.869-.592 1.488s.197 1.115.592 1.488c.395.363.891.544 1.488.544zM77.507 43c-.096 0-.176-.032-.24-.096-.064-.075-.096-.16-.096-.256 0-.075.021-.144.064-.208l2.352-3.248c-.235.053-.453.075-.656.064-.715-.021-1.365-.197-1.952-.528s-1.051-.779-1.392-1.344a3.61 3.61 0 0 1-.496-1.856c0-.672.165-1.301.496-1.888.331-.597.821-1.077 1.472-1.44.651-.373 1.435-.56 2.352-.56s1.707.176 2.368.528c.661.341 1.157.805 1.488 1.392.341.576.512 1.211.512 1.904a3.55 3.55 0 0 1-.208 1.216c-.139.384-.299.72-.48 1.008l-.736 1.088-2.816 3.904c-.064.096-.139.176-.224.24-.075.053-.181.08-.32.08h-1.488zm1.92-5.44c.587 0 1.077-.181 1.472-.544.405-.373.608-.869.608-1.488s-.203-1.115-.608-1.488c-.395-.373-.885-.56-1.472-.56s-1.083.187-1.488.56c-.395.373-.592.869-.592 1.488s.197 1.115.592 1.488c.395.363.891.544 1.488.544zm9.907 5.616c-.885 0-1.648-.149-2.288-.448-.629-.299-1.115-.693-1.456-1.184a2.99 2.99 0 0 1-.528-1.584v-.032c0-.085.032-.155.096-.208s.144-.08.24-.08h1.488c.245 0 .405.107.48.32.149.469.395.816.736 1.04.352.224.763.336 1.232.336.597 0 1.093-.181 1.488-.544.405-.363.608-.869.608-1.52 0-.576-.203-1.045-.608-1.408-.395-.363-.891-.544-1.488-.544-.32 0-.581.043-.784.128s-.4.203-.592.352l-.304.208c-.064.032-.144.048-.24.048h-1.472c-.096 0-.181-.032-.256-.096-.064-.075-.096-.16-.096-.256l.56-5.472c.011-.128.053-.229.128-.304.085-.085.192-.128.32-.128h6.016a.37.37 0 0 1 .384.384v1.072a.37.37 0 0 1-.384.384H87.99l-.256 2.608c.523-.363 1.221-.544 2.096-.544a4.17 4.17 0 0 1 1.92.448c.597.288 1.072.709 1.424 1.264.352.544.528 1.179.528 1.904 0 .779-.181 1.461-.544 2.048-.363.576-.875 1.024-1.536 1.344-.651.309-1.413.464-2.288.464z" fill="#89cd00"/><path d="M240.682 17c-.093 0-.173-.028-.238-.084-.056-.065-.084-.145-.084-.238V8.446h-2.688c-.093 0-.173-.028-.238-.084-.056-.065-.084-.145-.084-.238v-.588c0-.093.028-.173.084-.238.065-.065.145-.098.238-.098h6.748c.103 0 .182.033.238.098.065.056.098.135.098.238v.588c0 .093-.033.173-.098.238-.065.056-.145.084-.238.084h-2.674v8.232c0 .093-.033.173-.098.238-.065.056-.145.084-.238.084h-.728zm5.524 0c-.093 0-.173-.028-.238-.084-.056-.065-.084-.145-.084-.238V7.382c0-.093.028-.168.084-.224.065-.065.145-.098.238-.098h.7a.28.28 0 0 1 .224.098c.065.056.098.131.098.224v3.262a2.72 2.72 0 0 1 .952-.784c.364-.187.817-.28 1.358-.28.896 0 1.591.289 2.086.868.504.569.756 1.33.756 2.282v3.948c0 .093-.033.173-.098.238-.056.056-.131.084-.224.084h-.7c-.093 0-.173-.028-.238-.084-.056-.065-.084-.145-.084-.238V12.8c0-.663-.163-1.176-.49-1.54-.317-.364-.779-.546-1.386-.546-.588 0-1.059.187-1.414.56-.345.364-.518.873-.518 1.526v3.878c0 .093-.033.173-.098.238-.056.056-.131.084-.224.084h-.7zm8.405-8.638c-.093 0-.172-.028-.238-.084-.056-.065-.084-.145-.084-.238v-.756c0-.093.028-.173.084-.238.066-.065.145-.098.238-.098h.882c.094 0 .173.033.238.098a.32.32 0 0 1 .098.238v.756a.32.32 0 0 1-.098.238.35.35 0 0 1-.238.084h-.882zm.112 8.638c-.093 0-.172-.028-.238-.084-.056-.065-.084-.145-.084-.238v-6.636c0-.093.028-.168.084-.224.066-.065.145-.098.238-.098h.672c.094 0 .168.033.224.098.066.056.098.131.098.224v6.636a.32.32 0 0 1-.098.238c-.056.056-.13.084-.224.084h-.672zm5.589.14c-.653 0-1.204-.103-1.652-.308-.439-.215-.77-.457-.994-.728-.215-.271-.322-.495-.322-.672 0-.093.033-.163.098-.21.075-.056.149-.084.224-.084h.63c.093 0 .177.047.252.14.224.261.467.467.728.616s.611.224 1.05.224c.485 0 .877-.093 1.176-.28.308-.196.462-.462.462-.798 0-.224-.065-.406-.196-.546-.121-.149-.336-.275-.644-.378-.299-.112-.747-.233-1.344-.364-.812-.177-1.391-.434-1.736-.77-.336-.336-.504-.77-.504-1.302 0-.355.103-.691.308-1.008.215-.327.523-.588.924-.784.411-.205.901-.308 1.47-.308.597 0 1.106.098 1.526.294s.733.429.938.7c.215.261.322.481.322.658 0 .084-.033.154-.098.21-.056.056-.126.084-.21.084h-.588c-.112 0-.205-.047-.28-.14-.149-.177-.28-.313-.392-.406-.103-.103-.257-.191-.462-.266-.196-.075-.448-.112-.756-.112-.448 0-.793.098-1.036.294a.89.89 0 0 0-.364.742c0 .196.051.364.154.504.103.131.299.252.588.364.299.112.728.229 1.288.35.887.187 1.512.457 1.876.812a1.73 1.73 0 0 1 .56 1.33c0 .401-.117.765-.35 1.092s-.579.583-1.036.77c-.448.187-.985.28-1.61.28zm9.663-.14c-.242 0-.387-.126-.434-.378l-1.806-8.988c-.009-.047-.014-.098-.014-.154 0-.075.028-.14.084-.196a.27.27 0 0 1 .196-.084h.728c.196 0 .308.079.336.238l1.428 7.224 1.512-4.956c.084-.224.234-.336.448-.336h.518c.122 0 .215.033.28.098a.5.5 0 0 1 .154.238l1.526 4.956 1.414-7.224c.028-.159.145-.238.35-.238h.728c.075 0 .14.028.196.084s.084.121.084.196l-.014.154-1.806 8.988c-.056.252-.2.378-.434.378h-.546c-.242 0-.396-.117-.462-.35l-1.736-5.334-1.722 5.334c-.074.233-.228.35-.462.35h-.546zm11.989.14c-.962 0-1.732-.294-2.31-.882-.57-.597-.882-1.409-.938-2.436l-.014-.476.014-.462c.065-1.008.382-1.811.952-2.408.578-.597 1.339-.896 2.282-.896 1.036 0 1.838.331 2.408.994.569.653.854 1.54.854 2.66v.238c0 .093-.033.173-.098.238-.056.056-.131.084-.224.084h-4.844v.126c.028.607.21 1.125.546 1.554a1.67 1.67 0 0 0 1.358.63c.429 0 .779-.084 1.05-.252.28-.177.485-.359.616-.546.084-.112.144-.177.182-.196.046-.028.126-.042.238-.042h.686c.084 0 .154.023.21.07s.084.112.084.196c0 .205-.131.453-.392.742-.252.289-.612.541-1.078.756-.458.205-.985.308-1.582.308zm1.918-4.312v-.042c0-.644-.178-1.167-.532-1.568-.346-.411-.812-.616-1.4-.616s-1.055.205-1.4.616c-.336.401-.504.924-.504 1.568v.042h3.836zm5.916 4.312c-.962 0-1.732-.294-2.31-.882-.57-.597-.882-1.409-.938-2.436l-.014-.476.014-.462c.065-1.008.382-1.811.952-2.408.578-.597 1.339-.896 2.282-.896 1.036 0 1.838.331 2.408.994.569.653.854 1.54.854 2.66v.238c0 .093-.033.173-.098.238-.056.056-.131.084-.224.084h-4.844v.126c.028.607.21 1.125.546 1.554a1.67 1.67 0 0 0 1.358.63c.429 0 .779-.084 1.05-.252.28-.177.485-.359.616-.546.084-.112.144-.177.182-.196.046-.028.126-.042.238-.042h.686c.084 0 .154.023.21.07s.084.112.084.196c0 .205-.131.453-.392.742-.252.289-.612.541-1.078.756-.458.205-.985.308-1.582.308zm1.918-4.312v-.042c0-.644-.178-1.167-.532-1.568-.346-.411-.812-.616-1.4-.616s-1.055.205-1.4.616c-.336.401-.504.924-.504 1.568v.042h3.836zm3.34 4.172a.35.35 0 0 1-.238-.084c-.056-.065-.084-.145-.084-.238V7.382c0-.093.028-.168.084-.224.065-.065.144-.098.238-.098h.658a.28.28 0 0 1 .224.098c.065.056.098.131.098.224v4.872l2.758-2.296c.028-.019.074-.056.14-.112a.7.7 0 0 1 .182-.098.87.87 0 0 1 .238-.028h.742c.084 0 .154.028.21.084s.084.126.084.21c0 .103-.056.191-.168.266l-3.234 2.688 3.584 3.486c.112.093.168.177.168.252 0 .084-.028.154-.084.21s-.126.084-.21.084h-.728c-.14 0-.243-.014-.308-.042-.056-.028-.14-.093-.252-.196l-3.122-2.982v2.898c0 .093-.033.173-.098.238-.056.056-.131.084-.224.084h-.658z" fill="#b6b9bf"/><circle cx="228" cy="13" r="4" fill="url(#A)"/><path d="M341.54 17c-.093 0-.173-.028-.238-.084-.056-.065-.084-.145-.084-.238V7.522c0-.093.028-.168.084-.224.065-.065.145-.098.238-.098h.742a.28.28 0 0 1 .224.098c.065.056.098.131.098.224v8.26h4.648c.103 0 .182.033.238.098.065.056.098.135.098.238v.56c0 .093-.033.173-.098.238-.065.056-.145.084-.238.084h-5.712zm9.415.14c-.458 0-.882-.093-1.274-.28s-.705-.439-.938-.756c-.224-.327-.336-.686-.336-1.078a1.83 1.83 0 0 1 .756-1.512c.513-.401 1.204-.663 2.072-.784l2.086-.294v-.406c0-.952-.546-1.428-1.638-1.428-.411 0-.747.089-1.008.266-.262.168-.458.369-.588.602-.028.084-.066.145-.112.182-.038.037-.094.056-.168.056h-.602c-.084 0-.159-.028-.224-.084-.056-.065-.084-.14-.084-.224.009-.224.112-.476.308-.756.205-.289.518-.537.938-.742.42-.215.938-.322 1.554-.322 1.045 0 1.796.247 2.254.742.457.485.686 1.092.686 1.82v4.536c0 .093-.033.173-.098.238-.056.056-.131.084-.224.084h-.644a.35.35 0 0 1-.238-.084c-.056-.065-.084-.145-.084-.238v-.602c-.206.299-.504.551-.896.756s-.892.308-1.498.308zm.294-1.05c.606 0 1.101-.196 1.484-.588.392-.401.588-.975.588-1.722v-.392l-1.624.238c-.663.093-1.162.252-1.498.476-.336.215-.504.49-.504.826 0 .373.154.663.462.868a1.99 1.99 0 0 0 1.092.294zm7.92 1.05c-.653 0-1.204-.103-1.652-.308-.438-.215-.77-.457-.994-.728-.214-.271-.322-.495-.322-.672 0-.093.033-.163.098-.21.075-.056.15-.084.224-.084h.63c.094 0 .178.047.252.14.224.261.467.467.728.616s.612.224 1.05.224c.486 0 .878-.093 1.176-.28.308-.196.462-.462.462-.798 0-.224-.065-.406-.196-.546-.121-.149-.336-.275-.644-.378-.298-.112-.746-.233-1.344-.364-.812-.177-1.39-.434-1.736-.77-.336-.336-.504-.77-.504-1.302 0-.355.103-.691.308-1.008.215-.327.523-.588.924-.784.411-.205.901-.308 1.47-.308.598 0 1.106.098 1.526.294s.733.429.938.7c.215.261.322.481.322.658 0 .084-.032.154-.098.21-.056.056-.126.084-.21.084h-.588c-.112 0-.205-.047-.28-.14-.149-.177-.28-.313-.392-.406-.102-.103-.256-.191-.462-.266-.196-.075-.448-.112-.756-.112-.448 0-.793.098-1.036.294a.89.89 0 0 0-.364.742c0 .196.052.364.154.504.103.131.299.252.588.364.299.112.728.229 1.288.35.887.187 1.512.457 1.876.812.374.345.56.789.56 1.33a1.83 1.83 0 0 1-.35 1.092c-.233.327-.578.583-1.036.77-.448.187-.984.28-1.61.28zm7.445-.14c-1.474 0-2.212-.821-2.212-2.464V10.84h-1.092c-.093 0-.172-.028-.238-.084-.056-.065-.084-.145-.084-.238v-.476c0-.093.028-.168.084-.224.066-.065.145-.098.238-.098h1.092V7.382c0-.093.028-.168.084-.224.066-.065.145-.098.238-.098h.658c.094 0 .168.033.224.098.066.056.098.131.098.224V9.72h1.736c.094 0 .168.033.224.098.066.056.098.131.098.224v.476a.32.32 0 0 1-.098.238c-.056.056-.13.084-.224.084h-1.736v3.598c0 .467.08.821.238 1.064.159.233.42.35.784.35h.854a.28.28 0 0 1 .224.098c.066.056.098.131.098.224v.504a.32.32 0 0 1-.098.238c-.056.056-.13.084-.224.084h-.966zm7.674 0c-.243 0-.387-.126-.434-.378l-1.806-8.988c-.009-.047-.014-.098-.014-.154 0-.075.028-.14.084-.196s.121-.084.196-.084h.728c.196 0 .308.079.336.238l1.428 7.224 1.512-4.956c.084-.224.233-.336.448-.336h.518c.121 0 .215.033.28.098a.5.5 0 0 1 .154.238l1.526 4.956 1.414-7.224c.028-.159.145-.238.35-.238h.728c.075 0 .14.028.196.084s.084.121.084.196l-.014.154-1.806 8.988c-.056.252-.201.378-.434.378h-.546c-.243 0-.397-.117-.462-.35l-1.736-5.334-1.722 5.334c-.075.233-.229.35-.462.35h-.546zm11.988.14c-.961 0-1.731-.294-2.31-.882-.569-.597-.882-1.409-.938-2.436l-.014-.476.014-.462c.065-1.008.383-1.811.952-2.408.579-.597 1.339-.896 2.282-.896 1.036 0 1.839.331 2.408.994.569.653.854 1.54.854 2.66v.238c0 .093-.033.173-.098.238-.056.056-.131.084-.224.084h-4.844v.126c.028.607.21 1.125.546 1.554a1.67 1.67 0 0 0 1.358.63c.429 0 .779-.084 1.05-.252.28-.177.485-.359.616-.546.084-.112.145-.177.182-.196.047-.028.126-.042.238-.042h.686c.084 0 .154.023.21.07s.084.112.084.196c0 .205-.131.453-.392.742-.252.289-.611.541-1.078.756-.457.205-.985.308-1.582.308zm1.918-4.312v-.042c0-.644-.177-1.167-.532-1.568-.345-.411-.812-.616-1.4-.616s-1.055.205-1.4.616c-.336.401-.504.924-.504 1.568v.042h3.836zm5.916 4.312c-.961 0-1.731-.294-2.31-.882-.569-.597-.882-1.409-.938-2.436l-.014-.476.014-.462c.065-1.008.383-1.811.952-2.408.579-.597 1.339-.896 2.282-.896 1.036 0 1.839.331 2.408.994.569.653.854 1.54.854 2.66v.238c0 .093-.033.173-.098.238-.056.056-.131.084-.224.084h-4.844v.126c.028.607.21 1.125.546 1.554a1.67 1.67 0 0 0 1.358.63c.429 0 .779-.084 1.05-.252.28-.177.485-.359.616-.546.084-.112.145-.177.182-.196.047-.028.126-.042.238-.042h.686c.084 0 .154.023.21.07s.084.112.084.196c0 .205-.131.453-.392.742-.252.289-.611.541-1.078.756-.457.205-.985.308-1.582.308zm1.918-4.312v-.042c0-.644-.177-1.167-.532-1.568-.345-.411-.812-.616-1.4-.616s-1.055.205-1.4.616c-.336.401-.504.924-.504 1.568v.042h3.836zm3.34 4.172c-.093 0-.173-.028-.238-.084-.056-.065-.084-.145-.084-.238V7.382c0-.093.028-.168.084-.224.065-.065.145-.098.238-.098h.658a.28.28 0 0 1 .224.098c.065.056.098.131.098.224v4.872l2.758-2.296a1.69 1.69 0 0 0 .14-.112.7.7 0 0 1 .182-.098c.065-.019.145-.028.238-.028h.742c.084 0 .154.028.21.084s.084.126.084.21c0 .103-.056.191-.168.266l-3.234 2.688 3.584 3.486c.112.093.168.177.168.252 0 .084-.028.154-.084.21s-.126.084-.21.084h-.728c-.14 0-.243-.014-.308-.042-.056-.028-.14-.093-.252-.196l-3.122-2.982v2.898c0 .093-.033.173-.098.238-.056.056-.131.084-.224.084h-.658z" fill="#b6b9bf"/><circle cx="331" cy="13" r="4" fill="#333840"/><g fill="#b6b9bf"><path d="M11.551 186.14c-1.204 0-2.086-.35-2.646-1.05s-.859-1.619-.896-2.758l-.014-1.218.014-1.26c.028-1.12.327-2.03.896-2.73.569-.709 1.451-1.064 2.646-1.064 1.204 0 2.091.355 2.66 1.064.569.7.868 1.61.896 2.73l.028 1.26-.028 1.218c-.037 1.139-.336 2.058-.896 2.758s-1.447 1.05-2.66 1.05zm0-1.204c.7 0 1.227-.233 1.582-.7.364-.467.555-1.125.574-1.974l.028-1.176-.028-1.148c-.019-.84-.205-1.498-.56-1.974s-.887-.714-1.596-.714c-.7 0-1.232.238-1.596.714-.355.476-.541 1.134-.56 1.974l-.014 1.148.014 1.176c.019.849.205 1.507.56 1.974.364.467.896.7 1.596.7zm32.817 21.204c-.775 0-1.447-.121-2.016-.364-.56-.243-.989-.56-1.288-.952a2.28 2.28 0 0 1-.476-1.288c0-.075.028-.14.084-.196a.31.31 0 0 1 .224-.098h.714c.177 0 .299.093.364.28.084.392.322.728.714 1.008.401.28.961.42 1.68.42.775 0 1.358-.135 1.75-.406.392-.28.588-.667.588-1.162 0-.317-.098-.574-.294-.77-.187-.196-.467-.369-.84-.518s-.933-.336-1.68-.56c-.728-.205-1.307-.425-1.736-.658s-.751-.523-.966-.868-.322-.779-.322-1.302a2.37 2.37 0 0 1 .406-1.358c.28-.401.677-.714 1.19-.938.513-.233 1.125-.35 1.834-.35.728 0 1.353.131 1.876.392.523.252.919.574 1.19.966s.415.784.434 1.176c0 .075-.028.14-.084.196-.047.056-.117.084-.21.084h-.742c-.196 0-.317-.089-.364-.266-.056-.392-.275-.714-.658-.966-.383-.261-.863-.392-1.442-.392-.635 0-1.134.121-1.498.364s-.546.602-.546 1.078c0 .317.084.579.252.784.177.205.443.387.798.546.355.149.873.322 1.554.518.793.215 1.419.439 1.876.672.457.224.798.509 1.022.854.224.336.336.765.336 1.288 0 .868-.336 1.549-1.008 2.044s-1.577.742-2.716.742zm7.407 0a2.92 2.92 0 0 1-1.274-.28c-.392-.187-.705-.439-.938-.756-.224-.327-.336-.686-.336-1.078a1.83 1.83 0 0 1 .756-1.512c.513-.401 1.204-.663 2.072-.784l2.086-.294v-.406c0-.952-.546-1.428-1.638-1.428-.411 0-.747.089-1.008.266-.261.168-.457.369-.588.602-.028.084-.065.145-.112.182-.037.037-.093.056-.168.056h-.602c-.084 0-.159-.028-.224-.084-.056-.065-.084-.14-.084-.224.009-.224.112-.476.308-.756.205-.289.518-.537.938-.742.42-.215.938-.322 1.554-.322 1.045 0 1.797.247 2.254.742.457.485.686 1.092.686 1.82v4.536c0 .093-.033.173-.098.238-.056.056-.131.084-.224.084h-.644c-.093 0-.173-.028-.238-.084-.056-.065-.084-.145-.084-.238v-.602c-.205.299-.504.551-.896.756s-.891.308-1.498.308zm.294-1.05c.607 0 1.101-.196 1.484-.588.392-.401.588-.975.588-1.722v-.392l-1.624.238c-.663.093-1.162.252-1.498.476-.336.215-.504.49-.504.826 0 .373.154.663.462.868a1.99 1.99 0 0 0 1.092.294zm8.174.91c-1.475 0-2.212-.821-2.212-2.464v-3.696h-1.092c-.093 0-.173-.028-.238-.084-.056-.065-.084-.145-.084-.238v-.476c0-.093.028-.168.084-.224.065-.065.145-.098.238-.098h1.092v-2.338c0-.093.028-.168.084-.224.065-.065.145-.098.238-.098h.658a.28.28 0 0 1 .224.098.28.28 0 0 1 .098.224v2.338h1.736a.28.28 0 0 1 .224.098.28.28 0 0 1 .098.224v.476c0 .093-.033.173-.098.238-.056.056-.131.084-.224.084h-1.736v3.598c0 .467.079.821.238 1.064.159.233.42.35.784.35h.854a.28.28 0 0 1 .224.098.28.28 0 0 1 .098.224v.504c0 .093-.033.173-.098.238-.056.056-.131.084-.224.084h-.966zm35.125.14c-.775 0-1.447-.121-2.016-.364-.56-.243-.989-.56-1.288-.952a2.28 2.28 0 0 1-.476-1.288c0-.075.028-.14.084-.196a.31.31 0 0 1 .224-.098h.714c.177 0 .299.093.364.28.084.392.322.728.714 1.008.401.28.961.42 1.68.42.775 0 1.358-.135 1.75-.406.392-.28.588-.667.588-1.162 0-.317-.098-.574-.294-.77-.187-.196-.467-.369-.84-.518s-.933-.336-1.68-.56c-.728-.205-1.307-.425-1.736-.658s-.751-.523-.966-.868-.322-.779-.322-1.302a2.37 2.37 0 0 1 .406-1.358c.28-.401.677-.714 1.19-.938.513-.233 1.125-.35 1.834-.35.728 0 1.353.131 1.876.392.523.252.919.574 1.19.966s.415.784.434 1.176c0 .075-.028.14-.084.196-.047.056-.117.084-.21.084h-.742c-.196 0-.317-.089-.364-.266-.056-.392-.275-.714-.658-.966-.383-.261-.863-.392-1.442-.392-.635 0-1.134.121-1.498.364s-.546.602-.546 1.078c0 .317.084.579.252.784.177.205.443.387.798.546.355.149.873.322 1.554.518.793.215 1.419.439 1.876.672.457.224.798.509 1.022.854.224.336.336.765.336 1.288 0 .868-.336 1.549-1.008 2.044s-1.577.742-2.716.742zm8.093 0c-.887 0-1.573-.285-2.058-.854-.485-.579-.728-1.344-.728-2.296v-3.948c0-.093.028-.168.084-.224.065-.065.145-.098.238-.098h.7c.093 0 .168.033.224.098.065.056.098.131.098.224v3.878c0 1.391.607 2.086 1.82 2.086.588 0 1.055-.182 1.4-.546.345-.373.518-.887.518-1.54v-3.878c0-.093.028-.168.084-.224.065-.065.145-.098.238-.098h.7c.093 0 .168.033.224.098.056.056.084.131.084.224v6.636c0 .093-.028.173-.084.238-.056.056-.131.084-.224.084h-.658c-.093 0-.173-.028-.238-.084-.056-.065-.084-.145-.084-.238v-.616a2.64 2.64 0 0 1-.952.812c-.373.177-.835.266-1.386.266zm6.028-.14c-.093 0-.173-.028-.238-.084-.056-.065-.084-.145-.084-.238v-6.636c0-.093.028-.168.084-.224.065-.065.145-.098.238-.098h.658c.093 0 .168.033.224.098.065.056.098.131.098.224v.616c.271-.345.588-.611.952-.798.373-.187.835-.28 1.386-.28.896 0 1.591.289 2.086.868.504.569.756 1.33.756 2.282v3.948c0 .093-.033.173-.098.238-.056.056-.131.084-.224.084h-.7c-.093 0-.173-.028-.238-.084-.056-.065-.084-.145-.084-.238V201.8c0-.663-.163-1.176-.49-1.54-.317-.364-.779-.546-1.386-.546-.588 0-1.055.187-1.4.56-.345.364-.518.873-.518 1.526v3.878c0 .093-.033.173-.098.238-.056.056-.131.084-.224.084h-.7zm38.051 0c-.093 0-.173-.028-.238-.084-.056-.065-.084-.145-.084-.238v-9.142c0-.103.028-.182.084-.238.065-.065.145-.098.238-.098h.7c.149 0 .271.075.364.224l2.954 5.656 2.982-5.656c.019-.056.056-.107.112-.154.065-.047.145-.07.238-.07h.686c.103 0 .182.033.238.098.065.056.098.135.098.238v9.142c0 .093-.033.173-.098.238-.065.056-.145.084-.238.084h-.686c-.093 0-.173-.028-.238-.084-.056-.065-.084-.145-.084-.238v-6.888l-2.338 4.564c-.093.196-.243.294-.448.294h-.434c-.205 0-.355-.098-.448-.294l-2.352-4.564v6.888c0 .093-.033.173-.098.238-.056.056-.131.084-.224.084h-.686zm13.593.14c-1.026 0-1.824-.289-2.394-.868-.56-.579-.858-1.349-.896-2.31l-.014-.602.014-.602c.038-.952.341-1.717.91-2.296.57-.588 1.363-.882 2.38-.882s1.811.294 2.38.882c.57.579.873 1.344.91 2.296.01.103.014.303.014.602l-.014.602c-.037.961-.34 1.731-.91 2.31-.56.579-1.353.868-2.38.868zm0-1.078c.588 0 1.05-.187 1.386-.56.346-.373.532-.91.56-1.61.01-.093.014-.271.014-.532l-.014-.532c-.028-.7-.214-1.237-.56-1.61-.336-.373-.798-.56-1.386-.56s-1.054.187-1.4.56-.527.91-.546 1.61l-.014.532.014.532c.019.7.201 1.237.546 1.61s.812.56 1.4.56zm5.379.938c-.093 0-.172-.028-.238-.084-.056-.065-.084-.145-.084-.238v-6.636c0-.093.028-.168.084-.224.066-.065.145-.098.238-.098h.658a.28.28 0 0 1 .224.098c.066.056.098.131.098.224v.616c.271-.345.588-.611.952-.798.374-.187.836-.28 1.386-.28.896 0 1.592.289 2.086.868.504.569.756 1.33.756 2.282v3.948a.32.32 0 0 1-.098.238c-.056.056-.13.084-.224.084h-.7c-.093 0-.172-.028-.238-.084-.056-.065-.084-.145-.084-.238V201.8c0-.663-.163-1.176-.49-1.54-.317-.364-.779-.546-1.386-.546-.588 0-1.054.187-1.4.56-.345.364-.518.873-.518 1.526v3.878a.32.32 0 0 1-.098.238c-.056.056-.13.084-.224.084h-.7z"/><path d="M209.682 206c-.093 0-.173-.028-.238-.084-.056-.065-.084-.145-.084-.238v-8.232h-2.688c-.093 0-.173-.028-.238-.084-.056-.065-.084-.145-.084-.238v-.588c0-.093.028-.173.084-.238.065-.065.145-.098.238-.098h6.748c.103 0 .182.033.238.098.065.056.098.135.098.238v.588c0 .093-.033.173-.098.238-.065.056-.145.084-.238.084h-2.674v8.232c0 .093-.033.173-.098.238-.065.056-.145.084-.238.084h-.728zm7.056.14c-.886 0-1.572-.285-2.058-.854-.485-.579-.728-1.344-.728-2.296v-3.948c0-.093.028-.168.084-.224.066-.065.145-.098.238-.098h.7a.28.28 0 0 1 .224.098c.066.056.098.131.098.224v3.878c0 1.391.607 2.086 1.82 2.086.588 0 1.055-.182 1.4-.546.346-.373.518-.887.518-1.54v-3.878c0-.093.028-.168.084-.224.066-.065.145-.098.238-.098h.7a.28.28 0 0 1 .224.098c.056.056.084.131.084.224v6.636c0 .093-.028.173-.084.238-.056.056-.13.084-.224.084h-.658c-.093 0-.172-.028-.238-.084-.056-.065-.084-.145-.084-.238v-.616a2.63 2.63 0 0 1-.952.812c-.373.177-.835.266-1.386.266zm8.618 0c-.961 0-1.731-.294-2.31-.882-.569-.597-.882-1.409-.938-2.436l-.014-.476.014-.462c.066-1.008.383-1.811.952-2.408.579-.597 1.34-.896 2.282-.896 1.036 0 1.839.331 2.408.994.57.653.854 1.54.854 2.66v.238a.32.32 0 0 1-.098.238c-.056.056-.13.084-.224.084h-4.844v.126c.028.607.21 1.125.546 1.554.346.42.798.63 1.358.63.43 0 .78-.084 1.05-.252.28-.177.486-.359.616-.546.084-.112.145-.177.182-.196.047-.028.126-.042.238-.042h.686c.084 0 .154.023.21.07s.084.112.084.196c0 .205-.13.453-.392.742-.252.289-.611.541-1.078.756-.457.205-.984.308-1.582.308zm1.918-4.312v-.042c0-.644-.177-1.167-.532-1.568-.345-.411-.812-.616-1.4-.616s-1.054.205-1.4.616c-.336.401-.504.924-.504 1.568v.042h3.836zM262.87 206c-.243 0-.387-.126-.434-.378l-1.806-8.988c-.009-.047-.014-.098-.014-.154 0-.075.028-.14.084-.196s.121-.084.196-.084h.728c.196 0 .308.079.336.238l1.428 7.224 1.512-4.956c.084-.224.233-.336.448-.336h.518a.38.38 0 0 1 .28.098.5.5 0 0 1 .154.238l1.526 4.956 1.414-7.224c.028-.159.145-.238.35-.238h.728c.075 0 .14.028.196.084s.084.121.084.196l-.014.154-1.806 8.988c-.056.252-.201.378-.434.378h-.546c-.243 0-.397-.117-.462-.35l-1.736-5.334-1.722 5.334c-.075.233-.229.35-.462.35h-.546zm11.988.14c-.961 0-1.731-.294-2.31-.882-.569-.597-.882-1.409-.938-2.436l-.014-.476.014-.462c.065-1.008.383-1.811.952-2.408.579-.597 1.339-.896 2.282-.896 1.036 0 1.839.331 2.408.994.569.653.854 1.54.854 2.66v.238c0 .093-.033.173-.098.238-.056.056-.131.084-.224.084h-4.844v.126c.028.607.21 1.125.546 1.554a1.67 1.67 0 0 0 1.358.63c.429 0 .779-.084 1.05-.252.28-.177.485-.359.616-.546.084-.112.145-.177.182-.196.047-.028.126-.042.238-.042h.686c.084 0 .154.023.21.07s.084.112.084.196c0 .205-.131.453-.392.742-.252.289-.611.541-1.078.756-.457.205-.985.308-1.582.308zm1.918-4.312v-.042c0-.644-.177-1.167-.532-1.568-.345-.411-.812-.616-1.4-.616s-1.055.205-1.4.616c-.336.401-.504.924-.504 1.568v.042h3.836zm5.664 4.312c-.971 0-1.703-.317-2.198-.952s-.756-1.437-.784-2.408l-.014-.42.014-.42c.028-.961.289-1.759.784-2.394.495-.644 1.227-.966 2.198-.966.961 0 1.717.341 2.268 1.022v-3.22c0-.093.028-.168.084-.224.065-.065.145-.098.238-.098h.672c.093 0 .168.033.224.098.065.056.098.131.098.224v9.296c0 .093-.033.173-.098.238-.056.056-.131.084-.224.084h-.63c-.093 0-.173-.028-.238-.084-.056-.065-.084-.145-.084-.238v-.588c-.541.7-1.311 1.05-2.31 1.05zm.294-1.134c.644 0 1.125-.21 1.442-.63.327-.429.504-.938.532-1.526a6.99 6.99 0 0 0 .014-.532l-.014-.546a2.34 2.34 0 0 0-.532-1.442c-.336-.411-.817-.616-1.442-.616-.663 0-1.148.205-1.456.616-.299.411-.462.952-.49 1.624l-.014.406c0 1.764.653 2.646 1.96 2.646zm40.948.994c-.093 0-.173-.028-.238-.084-.056-.065-.084-.145-.084-.238v-8.232h-2.688c-.093 0-.173-.028-.238-.084-.056-.065-.084-.145-.084-.238v-.588c0-.093.028-.173.084-.238.065-.065.145-.098.238-.098h6.748c.103 0 .182.033.238.098.065.056.098.135.098.238v.588c0 .093-.033.173-.098.238-.065.056-.145.084-.238.084h-2.674v8.232c0 .093-.033.173-.098.238-.065.056-.145.084-.238.084h-.728zm5.524 0c-.093 0-.173-.028-.238-.084-.056-.065-.084-.145-.084-.238v-9.296c0-.093.028-.168.084-.224.065-.065.145-.098.238-.098h.7c.093 0 .168.033.224.098.065.056.098.131.098.224v3.262a2.72 2.72 0 0 1 .952-.784c.364-.187.817-.28 1.358-.28.896 0 1.591.289 2.086.868.504.569.756 1.33.756 2.282v3.948c0 .093-.033.173-.098.238-.056.056-.131.084-.224.084h-.7c-.093 0-.173-.028-.238-.084-.056-.065-.084-.145-.084-.238V201.8c0-.663-.163-1.176-.49-1.54-.317-.364-.779-.546-1.386-.546-.588 0-1.059.187-1.414.56-.345.364-.518.873-.518 1.526v3.878c0 .093-.033.173-.098.238-.056.056-.131.084-.224.084h-.7zm10.911.14c-.886 0-1.572-.285-2.058-.854-.485-.579-.728-1.344-.728-2.296v-3.948c0-.093.028-.168.084-.224.066-.065.145-.098.238-.098h.7a.28.28 0 0 1 .224.098c.066.056.098.131.098.224v3.878c0 1.391.607 2.086 1.82 2.086.588 0 1.055-.182 1.4-.546.346-.373.518-.887.518-1.54v-3.878c0-.093.028-.168.084-.224.066-.065.145-.098.238-.098h.7a.28.28 0 0 1 .224.098c.056.056.084.131.084.224v6.636c0 .093-.028.173-.084.238-.056.056-.13.084-.224.084h-.658c-.093 0-.172-.028-.238-.084-.056-.065-.084-.145-.084-.238v-.616a2.63 2.63 0 0 1-.952.812c-.373.177-.835.266-1.386.266zm36.423-.14c-.093 0-.173-.028-.238-.084-.056-.065-.084-.145-.084-.238v-9.142c0-.103.028-.182.084-.238.065-.065.145-.098.238-.098h5.712c.103 0 .182.033.238.098.065.056.098.135.098.238v.56c0 .093-.033.173-.098.238-.056.056-.135.084-.238.084h-4.676v3.262h4.396c.103 0 .182.033.238.098.065.056.098.135.098.238v.56c0 .093-.033.173-.098.238-.065.056-.145.084-.238.084h-4.396v3.78c0 .093-.033.173-.098.238-.065.056-.145.084-.238.084h-.7zm7.802 0c-.093 0-.172-.028-.238-.084-.056-.065-.084-.145-.084-.238v-6.622c0-.093.028-.173.084-.238.066-.065.145-.098.238-.098h.644c.094 0 .173.033.238.098a.32.32 0 0 1 .098.238v.616c.383-.635 1.036-.952 1.96-.952h.546a.28.28 0 0 1 .224.098c.066.056.098.131.098.224v.574c0 .093-.032.168-.098.224-.056.056-.13.084-.224.084h-.84c-.504 0-.9.149-1.19.448-.289.289-.434.686-.434 1.19v4.116a.32.32 0 0 1-.098.238.35.35 0 0 1-.238.084h-.686zm5.207-8.638a.35.35 0 0 1-.238-.084c-.056-.065-.084-.145-.084-.238v-.756c0-.093.028-.173.084-.238.065-.065.144-.098.238-.098h.882c.093 0 .172.033.238.098a.32.32 0 0 1 .098.238v.756c0 .093-.033.173-.098.238-.066.056-.145.084-.238.084h-.882zm.112 8.638a.35.35 0 0 1-.238-.084c-.056-.065-.084-.145-.084-.238v-6.636c0-.093.028-.168.084-.224.065-.065.144-.098.238-.098h.672c.093 0 .168.033.224.098.065.056.098.131.098.224v6.636c0 .093-.033.173-.098.238-.056.056-.131.084-.224.084h-.672zM6.657 150c-.093 0-.173-.028-.238-.084-.056-.065-.084-.145-.084-.238v-7.84l-2.324 1.792c-.065.056-.135.084-.21.084-.084 0-.163-.047-.238-.14l-.364-.462c-.047-.065-.07-.131-.07-.196 0-.112.047-.201.14-.266l3.052-2.352c.103-.065.224-.098.364-.098h.714c.093 0 .168.033.224.098a.28.28 0 0 1 .098.224v9.156c0 .093-.033.173-.098.238-.056.056-.131.084-.224.084h-.742zm3.496 0c-.093 0-.173-.028-.238-.084-.056-.065-.084-.145-.084-.238v-9.296c0-.093.028-.168.084-.224.065-.065.145-.098.238-.098h.658c.093 0 .168.033.224.098a.28.28 0 0 1 .098.224v4.872l2.758-2.296c.028-.019.075-.056.14-.112a.7.7 0 0 1 .182-.098c.065-.019.145-.028.238-.028h.742c.084 0 .154.028.21.084s.084.126.084.21c0 .103-.056.191-.168.266l-3.234 2.688 3.584 3.486c.112.093.168.177.168.252 0 .084-.028.154-.084.21s-.126.084-.21.084h-.728c-.14 0-.243-.014-.308-.042-.056-.028-.14-.093-.252-.196l-3.122-2.982v2.898c0 .093-.033.173-.098.238-.056.056-.131.084-.224.084h-.658zm-8.581-36c-.093 0-.173-.028-.238-.084-.056-.065-.084-.145-.084-.238v-.448c0-.215.117-.42.35-.616l2.968-2.968c.719-.597 1.213-1.083 1.484-1.456.271-.383.406-.784.406-1.204 0-.541-.154-.966-.462-1.274-.299-.308-.737-.462-1.316-.462-.541 0-.975.163-1.302.49-.327.317-.527.742-.602 1.274-.019.112-.065.196-.14.252-.065.047-.14.07-.224.07h-.728c-.084 0-.154-.023-.21-.07-.056-.056-.084-.121-.084-.196a3.2 3.2 0 0 1 .406-1.442c.252-.467.621-.845 1.106-1.134.495-.299 1.087-.448 1.778-.448 1.055 0 1.848.275 2.38.826.541.541.812 1.232.812 2.072a2.94 2.94 0 0 1-.448 1.596c-.289.467-.742.971-1.358 1.512l-2.688 2.73h4.368c.103 0 .182.033.238.098a.28.28 0 0 1 .098.224v.574c0 .093-.033.173-.098.238-.065.056-.145.084-.238.084H1.572zm8.581 0c-.093 0-.173-.028-.238-.084-.056-.065-.084-.145-.084-.238v-9.296c0-.093.028-.168.084-.224.065-.065.145-.098.238-.098h.658c.093 0 .168.033.224.098a.28.28 0 0 1 .098.224v4.872l2.758-2.296c.028-.019.075-.056.14-.112a.7.7 0 0 1 .182-.098c.065-.019.145-.028.238-.028h.742c.084 0 .154.028.21.084s.084.126.084.21c0 .103-.056.191-.168.266l-3.234 2.688 3.584 3.486c.112.093.168.177.168.252 0 .084-.028.154-.084.21s-.126.084-.21.084h-.728c-.14 0-.243-.014-.308-.042-.056-.028-.14-.093-.252-.196l-3.122-2.982v2.898c0 .093-.033.173-.098.238-.056.056-.131.084-.224.084h-.658zM4.545 78.14c-.737 0-1.377-.117-1.918-.35-.532-.243-.938-.555-1.218-.938-.271-.383-.415-.784-.434-1.204 0-.084.028-.149.084-.196.056-.056.126-.084.21-.084h.686c.196 0 .327.103.392.308.121.467.383.798.784.994.401.187.873.28 1.414.28.663 0 1.19-.154 1.582-.462.392-.317.588-.77.588-1.358 0-1.129-.686-1.694-2.058-1.694h-1.33c-.093 0-.173-.028-.238-.084-.056-.065-.084-.145-.084-.238v-.378a.58.58 0 0 1 .154-.378l2.716-2.968h-4.13c-.093 0-.173-.028-.238-.084-.056-.065-.084-.145-.084-.238v-.532c0-.093.028-.173.084-.238.065-.065.145-.098.238-.098h5.586c.103 0 .182.033.238.098.065.056.098.135.098.238v.504c0 .112-.051.219-.154.322l-2.702 3.01.224.014c.952.028 1.703.275 2.254.742s.826 1.148.826 2.044c0 .607-.154 1.134-.462 1.582s-.733.793-1.274 1.036c-.541.233-1.153.35-1.834.35zm5.608-.14c-.093 0-.173-.028-.238-.084-.056-.065-.084-.145-.084-.238v-9.296c0-.093.028-.168.084-.224.065-.065.145-.098.238-.098h.658a.28.28 0 0 1 .224.098.28.28 0 0 1 .098.224v4.872l2.758-2.296a1.77 1.77 0 0 0 .14-.112.7.7 0 0 1 .182-.098c.065-.019.145-.028.238-.028h.742c.084 0 .154.028.21.084s.084.126.084.21c0 .103-.056.191-.168.266l-3.234 2.688 3.584 3.486c.112.093.168.177.168.252 0 .084-.028.154-.084.21s-.126.084-.21.084h-.728c-.14 0-.243-.014-.308-.042-.056-.028-.14-.093-.252-.196l-3.122-2.982v2.898c0 .093-.033.173-.098.238-.056.056-.131.084-.224.084h-.658z"/></g><path d="M26.25 186.25h378.5v.5H26.25zm0-36h378.5v.5H26.25zm0-36h378.5v.5H26.25zm0-36h378.5v.5H26.25z" stroke="#262b33" stroke-width=".5" stroke-dasharray="4 4"/><g stroke-width="3"><path d="M26 140.265c12.534.997 19.696 4.985 29.843.997s20.293-39.879 38.795-41.872S124.348 130.5 146 134s42.254-.36 54.877-11.68S216.992 63 242.06 63s26.261 67.794 49.538 67.794 25.068-41.374 48.345-41.374 29.503 43.626 41.78 48.353 21.486-2.492 23.277-3.988" stroke="#333840"/><path d="M26 126.343c5.366-19.096 10.136-53.769 24.445-55.779s14.309 22.613 32.792 24.12 14.309 59.296 32.791 60.301 16.098-50.754 32.792-51.759 17.29 15.075 34.581 14.07S198.902 95.69 215 95.69s16.098 15.578 33.388 16.583 18.483 27.136 33.388 27.136S296.681 99.71 313.375 97.7s20.272 19.597 36.369 15.578 16.694-49.748 31.6-48.24S392.076 100.715 404 111.77" stroke="url(#B)"/></g><path d="M111.102 16.538c-.093 0-.173-.028-.238-.084-.056-.065-.084-.145-.084-.238v-2.912h-2.87c-.093 0-.173-.028-.238-.084-.056-.065-.084-.145-.084-.238v-.448c0-.093.028-.168.084-.224.065-.065.145-.098.238-.098h2.87V9.384c0-.093.028-.168.084-.224.065-.065.145-.098.238-.098h.49a.28.28 0 0 1 .224.098c.065.056.098.131.098.224v2.828h2.884a.28.28 0 0 1 .224.098c.065.056.098.131.098.224v.448c0 .093-.033.173-.098.238-.056.056-.131.084-.224.084h-2.884v2.912c0 .093-.033.173-.098.238-.056.056-.131.084-.224.084h-.49zm9.045.602c-1.204 0-2.086-.35-2.646-1.05s-.859-1.619-.896-2.758l-.014-1.218.014-1.26c.028-1.12.327-2.03.896-2.73.569-.709 1.451-1.064 2.646-1.064 1.204 0 2.091.355 2.66 1.064.569.7.868 1.61.896 2.73l.028 1.26-.028 1.218c-.037 1.139-.336 2.058-.896 2.758s-1.447 1.05-2.66 1.05zm0-1.204c.7 0 1.227-.233 1.582-.7.364-.467.555-1.125.574-1.974l.028-1.176-.028-1.148c-.019-.84-.205-1.498-.56-1.974s-.887-.714-1.596-.714c-.7 0-1.232.238-1.596.714-.355.476-.541 1.134-.56 1.974l-.014 1.148.014 1.176c.019.849.205 1.507.56 1.974.364.467.896.7 1.596.7zM125.651 17a.35.35 0 0 1-.238-.084c-.056-.065-.084-.145-.084-.238V15.67c0-.093.028-.168.084-.224.065-.065.144-.098.238-.098h1.008c.093 0 .172.033.238.098.065.056.098.131.098.224v1.008c0 .093-.033.173-.098.238-.066.056-.145.084-.238.084h-1.008zm6.439.14c-.737 0-1.377-.117-1.918-.35-.532-.243-.938-.555-1.218-.938-.271-.383-.415-.784-.434-1.204 0-.084.028-.149.084-.196.056-.056.126-.084.21-.084h.686c.196 0 .327.103.392.308.121.467.383.798.784.994.401.187.873.28 1.414.28.663 0 1.19-.154 1.582-.462.392-.317.588-.77.588-1.358 0-1.129-.686-1.694-2.058-1.694h-1.33c-.093 0-.173-.028-.238-.084-.056-.065-.084-.145-.084-.238v-.378c0-.131.051-.257.154-.378l2.716-2.968h-4.13c-.093 0-.173-.028-.238-.084-.056-.065-.084-.145-.084-.238v-.532c0-.093.028-.173.084-.238.065-.065.145-.098.238-.098h5.586c.103 0 .182.033.238.098.065.056.098.135.098.238v.504c0 .112-.051.219-.154.322l-2.702 3.01.224.014c.952.028 1.703.275 2.254.742s.826 1.148.826 2.044c0 .607-.154 1.134-.462 1.582a2.99 2.99 0 0 1-1.274 1.036c-.541.233-1.153.35-1.834.35zm6.938-5.026c-.606 0-1.087-.159-1.442-.476-.345-.327-.536-.775-.574-1.344l-.014-.616.014-.658c.028-.579.21-1.036.546-1.372.346-.345.836-.518 1.47-.518s1.12.173 1.456.518c.346.336.532.793.56 1.372l.028.714c0 .093-.009.28-.028.56-.028.569-.219 1.017-.574 1.344-.354.317-.835.476-1.442.476zM137.852 17c-.084 0-.154-.023-.21-.07-.056-.056-.084-.126-.084-.21 0-.056.019-.107.056-.154l6.916-9.1a.88.88 0 0 1 .196-.21c.066-.037.154-.056.266-.056h.462c.094 0 .164.028.21.084.056.047.084.112.084.196 0 .056-.018.107-.056.154l-6.902 9.1a.72.72 0 0 1-.21.21c-.056.037-.144.056-.266.056h-.462zm1.176-5.754c.336 0 .579-.098.728-.294.159-.196.252-.434.28-.714l.028-.588-.028-.574a1.2 1.2 0 0 0-.28-.728c-.158-.196-.401-.294-.728-.294s-.569.098-.728.294a1.26 1.26 0 0 0-.266.728l-.014.574.014.588c.028.289.117.532.266.728.159.187.402.28.728.28zm5.236 5.838c-.606 0-1.087-.168-1.442-.504-.345-.345-.536-.803-.574-1.372l-.014-.616.014-.658c.038-.579.224-1.036.56-1.372.346-.345.831-.518 1.456-.518.635 0 1.12.173 1.456.518.346.336.537.793.574 1.372l.028.658-.028.616c-.037.569-.233 1.027-.588 1.372-.354.336-.835.504-1.442.504zm0-.924c.336 0 .579-.098.728-.294.159-.196.252-.434.28-.714l.028-.588-.028-.574c-.018-.289-.107-.532-.266-.728s-.406-.294-.742-.294c-.326 0-.569.098-.728.294a1.26 1.26 0 0 0-.266.728l-.014.574.014.588a1.38 1.38 0 0 0 .266.714c.159.196.402.294.728.294z" fill="#89cd00"/><g clip-path="url(#C)"><path d="M101.955 8.954a.59.59 0 0 0-.128-.191.65.65 0 0 0-.192-.127c-.056-.023-.114-.03-.173-.035-.018-.001-.033-.009-.05-.009h-4.706a.59.59 0 0 0-.588.588.59.59 0 0 0 .588.588h3.292l-4.656 4.683-1.772-2.268a.59.59 0 0 0-.419-.225.58.58 0 0 0-.449.16l-4.518 4.277a.59.59 0 0 0 .405 1.015.59.59 0 0 0 .404-.161l4.047-3.832 1.784 2.284c.104.133.26.215.429.225a.59.59 0 0 0 .452-.172l5.119-5.148v3.28c0 .325.262.588.588.588a.59.59 0 0 0 .588-.588V9.179h0a.62.62 0 0 0-.045-.225z" fill="#89cd00"/></g><g clip-path="url(#D)"><path d="M238.338 107.629c-.212 0-.414.045-.597.124-.223-.563-.77-.962-1.408-.962-.237 0-.461.055-.661.153-.253-.488-.76-.822-1.344-.822a1.48 1.48 0 0 0-.49.083v-1.68a1.52 1.52 0 0 0-1.514-1.525c-.836 0-1.515.684-1.515 1.525v6.043l-1.091-1.248-.024-.025c-.286-.287-.667-.446-1.073-.448a1.5 1.5 0 0 0-1.076.441c-.501.501-.529 1.245-.076 2.041l1.786 2.857 1.082 1.707c.246.424.899 1.8.906 1.814a.51.51 0 0 0 .463.293h6.478c.223 0 .42-.144.488-.355.121-.376 1.181-3.707 1.181-4.994v-3.496c-.001-.841-.68-1.526-1.515-1.526zm-.49 1.526c0-.276.22-.501.49-.501s.49.225.49.501v3.496c0 .855-.657 3.154-1.02 4.324h-5.779l-.806-1.596-1.112-1.755-1.751-2.802c-.149-.262-.285-.615-.09-.81.091-.091.213-.139.346-.14s.25.049.343.137l1.976 2.261c.141.16.367.217.566.142a.51.51 0 0 0 .332-.48v-7.407c0-.276.22-.5.491-.5s.49.224.49.5v4.784a.51.51 0 1 0 1.024 0v-1.662c0-.276.22-.5.49-.5s.49.224.49.5v2.33c0 .283.23.512.513.512a.51.51 0 0 0 .512-.512v-1.661c0-.276.22-.501.49-.501s.49.225.49.501v2.33c0 .283.23.512.513.512a.51.51 0 0 0 .512-.512v-1.491h0z" fill="#b6b9bf"/></g><rect x="192" y="51" width="83" height="49" rx="10" fill="#242a33"/><path d="M212.511 69c-.08 0-.148-.024-.204-.072-.048-.056-.072-.124-.072-.204v-7.056h-2.304c-.08 0-.148-.024-.204-.072-.048-.056-.072-.124-.072-.204v-.504c0-.08.024-.148.072-.204.056-.056.124-.084.204-.084h5.784c.088 0 .156.028.204.084.056.048.084.116.084.204v.504c0 .08-.028.148-.084.204-.056.048-.124.072-.204.072h-2.292v7.056c0 .08-.028.148-.084.204-.056.048-.124.072-.204.072h-.624zm6.049.12c-.76 0-1.348-.244-1.764-.732-.416-.496-.624-1.152-.624-1.968v-3.384c0-.08.024-.144.072-.192.056-.056.124-.084.204-.084h.6a.24.24 0 0 1 .192.084.24.24 0 0 1 .084.192v3.324c0 1.192.52 1.788 1.56 1.788.504 0 .904-.156 1.2-.468.296-.32.444-.76.444-1.32v-3.324c0-.08.024-.144.072-.192.056-.056.124-.084.204-.084h.6a.24.24 0 0 1 .192.084c.048.048.072.112.072.192v5.688c0 .08-.024.148-.072.204-.048.048-.112.072-.192.072h-.564c-.08 0-.148-.024-.204-.072-.048-.056-.072-.124-.072-.204v-.528c-.224.304-.496.536-.816.696-.32.152-.716.228-1.188.228zm7.387 0c-.824 0-1.484-.252-1.98-.756-.488-.512-.756-1.208-.804-2.088l-.012-.408.012-.396c.056-.864.328-1.552.816-2.064.496-.512 1.148-.768 1.956-.768.888 0 1.576.284 2.064.852.488.56.731 1.32.731 2.28v.204c0 .08-.027.148-.083.204-.048.048-.112.072-.192.072h-4.152v.108c.024.52.18.964.468 1.332.296.36.684.54 1.164.54.368 0 .668-.072.9-.216.24-.152.416-.308.528-.468.072-.096.124-.152.156-.168.04-.024.108-.036.204-.036h.588c.072 0 .132.02.18.06s.071.096.071.168c0 .176-.111.388-.335.636-.216.248-.524.464-.924.648-.392.176-.844.264-1.356.264zm1.644-3.696v-.036c0-.552-.152-1-.456-1.344-.296-.352-.696-.528-1.2-.528s-.904.176-1.2.528c-.288.344-.432.792-.432 1.344v.036h3.288zm4.734 3.696c-.56 0-1.032-.088-1.416-.264-.376-.184-.66-.392-.852-.624-.184-.232-.276-.424-.276-.576 0-.08.028-.14.084-.18.064-.048.128-.072.192-.072h.54c.08 0 .152.04.216.12.192.224.4.4.624.528s.524.192.9.192c.416 0 .752-.08 1.008-.24.264-.168.396-.396.396-.684 0-.192-.056-.348-.168-.468-.104-.128-.288-.236-.552-.324-.256-.096-.64-.2-1.152-.312-.696-.152-1.192-.372-1.488-.66-.288-.288-.432-.66-.432-1.116 0-.304.088-.592.264-.864.184-.28.448-.504.792-.672.352-.176.772-.264 1.26-.264.512 0 .948.084 1.308.252s.628.368.804.6c.184.224.276.412.276.564 0 .072-.028.132-.084.18-.048.048-.108.072-.18.072h-.504c-.096 0-.176-.04-.24-.12-.128-.152-.24-.268-.336-.348-.088-.088-.22-.164-.396-.228-.168-.064-.384-.096-.648-.096-.384 0-.68.084-.888.252a.76.76 0 0 0-.312.636.71.71 0 0 0 .132.432c.088.112.256.216.504.312.256.096.624.196 1.104.3.76.16 1.296.392 1.608.696.32.296.48.676.48 1.14 0 .344-.1.656-.3.936s-.496.5-.888.66c-.384.16-.844.24-1.38.24zm6.238 0c-.832 0-1.46-.272-1.884-.816s-.648-1.232-.672-2.064l-.012-.36.012-.36c.024-.824.248-1.508.672-2.052.424-.552 1.052-.828 1.884-.828.824 0 1.472.292 1.944.876v-2.76c0-.08.024-.144.072-.192.056-.056.124-.084.204-.084h.576a.24.24 0 0 1 .192.084.24.24 0 0 1 .084.192v7.968c0 .08-.028.148-.084.204-.048.048-.112.072-.192.072h-.54c-.08 0-.148-.024-.204-.072-.048-.056-.072-.124-.072-.204v-.504c-.464.6-1.124.9-1.98.9zm.252-.972c.552 0 .964-.18 1.236-.54.28-.368.432-.804.456-1.308.008-.088.012-.24.012-.456l-.012-.468c-.016-.472-.168-.884-.456-1.236s-.7-.528-1.236-.528c-.568 0-.984.176-1.248.528-.256.352-.396.816-.42 1.392l-.012.348c0 1.512.56 2.268 1.68 2.268zm6.344.972c-.392 0-.756-.08-1.092-.24a2.09 2.09 0 0 1-.804-.648 1.6 1.6 0 0 1-.288-.924c0-.528.216-.96.648-1.296.44-.344 1.032-.568 1.776-.672l1.788-.252v-.348c0-.816-.468-1.224-1.404-1.224-.352 0-.64.076-.864.228-.224.144-.392.316-.504.516-.024.072-.056.124-.096.156-.032.032-.08.048-.144.048h-.516c-.072 0-.136-.024-.192-.072-.048-.056-.072-.12-.072-.192.008-.192.096-.408.264-.648.176-.248.444-.46.804-.636.36-.184.804-.276 1.332-.276.896 0 1.54.212 1.932.636.392.416.588.936.588 1.56v3.888c0 .08-.028.148-.084.204-.048.048-.112.072-.192.072h-.552c-.08 0-.148-.024-.204-.072-.048-.056-.072-.124-.072-.204v-.516c-.176.256-.432.472-.768.648s-.764.264-1.284.264zm.252-.9c.52 0 .944-.168 1.272-.504.336-.344.504-.836.504-1.476v-.336l-1.392.204c-.568.08-.996.216-1.284.408-.288.184-.432.42-.432.708 0 .32.132.568.396.744.264.168.576.252.936.252zm5.592 3.06a.23.23 0 0 1-.24-.24c0-.056.02-.128.06-.216l.924-2.196-2.292-5.412c-.04-.104-.06-.172-.06-.204 0-.072.024-.132.072-.18s.108-.072.18-.072h.588c.128 0 .224.068.288.204l1.824 4.368 1.872-4.368c.064-.136.164-.204.3-.204h.564c.072 0 .132.024.18.072a.23.23 0 0 1 .072.168c0 .024-.02.096-.06.216l-3.408 7.86c-.064.136-.164.204-.3.204h-.564z" fill="#b6b9bf"/><path d="M205.807 91.5c-.1 0-.185-.035-.255-.105-.07-.06-.105-.145-.105-.255v-1.05c-.72-.07-1.34-.24-1.86-.51-.51-.28-.9-.62-1.17-1.02-.26-.41-.4-.845-.42-1.305 0-.09.03-.165.09-.225.07-.06.15-.09.24-.09h1.335c.11 0 .195.025.255.075.07.04.135.11.195.21.11.34.34.625.69.855.36.23.855.345 1.485.345.7 0 1.23-.115 1.59-.345.36-.24.54-.57.54-.99 0-.28-.09-.51-.27-.69s-.455-.335-.825-.465c-.37-.14-.915-.3-1.635-.48-1.18-.28-2.045-.65-2.595-1.11-.54-.47-.81-1.135-.81-1.995 0-.78.28-1.435.84-1.965.57-.54 1.345-.87 2.325-.99V78.36c0-.11.035-.195.105-.255.07-.07.155-.105.255-.105h.915c.1 0 .185.035.255.105s.105.155.105.255v1.065c.65.09 1.205.285 1.665.585.47.29.825.63 1.065 1.02.25.39.385.77.405 1.14 0 .09-.03.165-.09.225s-.135.09-.225.09h-1.395c-.22 0-.37-.095-.45-.285-.05-.32-.245-.585-.585-.795-.34-.22-.765-.33-1.275-.33-.55 0-.985.105-1.305.315s-.48.515-.48.915c0 .28.08.51.24.69s.41.34.75.48c.35.14.85.295 1.5.465.88.2 1.58.425 2.1.675.53.25.92.565 1.17.945s.375.865.375 1.455c0 .86-.31 1.565-.93 2.115-.62.54-1.465.865-2.535.975v1.035c0 .1-.035.185-.105.255s-.155.105-.255.105h-.915zm9.443-1.5c-.1 0-.185-.035-.255-.105s-.105-.155-.105-.255v-7.77l-2.28 1.755c-.06.05-.13.075-.21.075-.12 0-.22-.055-.3-.165l-.63-.81a.43.43 0 0 1-.075-.225c0-.12.055-.22.165-.3l3.36-2.595c.09-.07.215-.105.375-.105h1.32c.11 0 .195.035.255.105.07.06.105.145.105.255v9.78c0 .1-.035.185-.105.255-.06.07-.145.105-.255.105h-1.365zm4.964 0c-.09 0-.165-.03-.225-.09-.06-.07-.09-.15-.09-.24 0-.03.01-.075.03-.135l3.615-8.25h-4.71c-.1 0-.185-.035-.255-.105s-.105-.155-.105-.255v-1.05a.4.4 0 0 1 .09-.27c.07-.07.16-.105.27-.105h6.585c.11 0 .195.035.255.105.07.07.105.16.105.27v.93c0 .2-.045.415-.135.645l-3.585 8.19c-.11.24-.27.36-.48.36h-1.365zm10.889.15c-.87 0-1.62-.135-2.25-.405-.62-.28-1.095-.665-1.425-1.155s-.495-1.05-.495-1.68a2.66 2.66 0 0 1 .42-1.485 2.73 2.73 0 0 1 1.125-1.005 2.54 2.54 0 0 1-.87-.885c-.2-.37-.3-.79-.3-1.26 0-.88.33-1.585.99-2.115.67-.54 1.605-.81 2.805-.81 1.19 0 2.115.265 2.775.795s.99 1.235.99 2.115c0 .47-.1.89-.3 1.26-.19.36-.47.66-.84.9.48.23.855.565 1.125 1.005.28.43.42.93.42 1.5 0 .63-.165 1.19-.495 1.68s-.81.87-1.44 1.14-1.375.405-2.235.405zm0-6.375c.52-.01.95-.145 1.29-.405.35-.26.525-.6.525-1.02 0-.44-.17-.79-.51-1.05s-.775-.39-1.305-.39-.965.13-1.305.39-.51.61-.51 1.05c0 .43.17.775.51 1.035s.775.39 1.305.39zm0 4.815c.59 0 1.085-.15 1.485-.45.4-.31.6-.715.6-1.215s-.2-.9-.6-1.2c-.4-.31-.895-.465-1.485-.465-.6 0-1.1.15-1.5.45a1.45 1.45 0 0 0-.585 1.215 1.45 1.45 0 0 0 .585 1.215c.4.3.9.45 1.5.45zm9.844 1.56c-1.33 0-2.325-.37-2.985-1.11-.65-.74-1.005-1.71-1.065-2.91l-.015-1.38.015-1.41c.05-1.18.41-2.14 1.08-2.88s1.66-1.11 2.97-1.11c1.32 0 2.315.37 2.985 1.11s1.025 1.7 1.065 2.88c.02.28.03.75.03 1.41l-.03 1.38c-.05 1.2-.405 2.17-1.065 2.91-.65.74-1.645 1.11-2.985 1.11zm0-1.725c.63 0 1.1-.205 1.41-.615.31-.42.475-1.005.495-1.755l.03-1.32-.03-1.305c-.02-.74-.185-1.32-.495-1.74s-.78-.63-1.41-.63c-.62 0-1.09.21-1.41.63-.31.42-.475 1-.495 1.74l-.015 1.305.015 1.32c.02.75.185 1.335.495 1.755.32.41.79.615 1.41.615zM246.984 90c-.1 0-.185-.035-.255-.105s-.105-.155-.105-.255v-1.485c0-.1.035-.185.105-.255.07-.08.155-.12.255-.12h1.5c.1 0 .185.04.255.12.07.07.105.155.105.255v1.485c0 .1-.035.185-.105.255s-.155.105-.255.105h-1.5zm5.913 0c-.1 0-.185-.035-.255-.105s-.105-.155-.105-.255v-7.77l-2.28 1.755c-.06.05-.13.075-.21.075-.12 0-.22-.055-.3-.165l-.63-.81a.43.43 0 0 1-.075-.225c0-.12.055-.22.165-.3l3.36-2.595c.09-.07.215-.105.375-.105h1.32c.11 0 .195.035.255.105.07.06.105.145.105.255v9.78c0 .1-.035.185-.105.255-.06.07-.145.105-.255.105h-1.365zm7.708.15c-1.33 0-2.325-.37-2.985-1.11-.65-.74-1.005-1.71-1.065-2.91l-.015-1.38.015-1.41c.05-1.18.41-2.14 1.08-2.88s1.66-1.11 2.97-1.11c1.32 0 2.315.37 2.985 1.11s1.025 1.7 1.065 2.88c.02.28.03.75.03 1.41l-.03 1.38c-.05 1.2-.405 2.17-1.065 2.91-.65.74-1.645 1.11-2.985 1.11zm0-1.725c.63 0 1.1-.205 1.41-.615.31-.42.475-1.005.495-1.755l.03-1.32-.03-1.305c-.02-.74-.185-1.32-.495-1.74s-.78-.63-1.41-.63c-.62 0-1.09.21-1.41.63-.31.42-.475 1-.495 1.74l-.015 1.305.015 1.32c.02.75.185 1.335.495 1.755.32.41.79.615 1.41.615z" fill="#fff"/><defs><linearGradient id="A" x1="224" y1="13" x2="232" y2="13" gradientUnits="userSpaceOnUse"><stop stop-color="#e56736"/><stop offset="1" stop-color="#de2671"/></linearGradient><linearGradient id="B" x1="26" y1="118.5" x2="404" y2="118.5" gradientUnits="userSpaceOnUse"><stop stop-color="#e56736"/><stop offset="1" stop-color="#de2671"/></linearGradient><clipPath id="C"><path fill="#fff" transform="translate(88 6)" d="M0 0h14v14H0z"/></clipPath><clipPath id="D"><path fill="#fff" transform="translate(226 103)" d="M0 0h15v15H0z"/></clipPath></defs></svg>