<svg xmlns="http://www.w3.org/2000/svg" width="14" height="14" fill="none" xmlns:v="https://vecta.io/nano"><g clip-path="url(#A)" fill="#ffbf00"><path d="M8.067 7.067l-1.17-1.17c-.107-.107-.278-.115-.394-.018L.568 10.826a1.58 1.58 0 0 0-.566 1.142c-.02.442.148.875.461 1.188l.347.347a1.57 1.57 0 0 0 1.116.463c.47 0 .912-.207 1.213-.568l4.946-5.935c.096-.117.088-.288-.019-.395zm5.398-1.62c-.495-.495-1.357-.495-1.853 0L8.957 8.102a1.31 1.31 0 0 0 .001 1.854c.331.331.772.513 1.24.513s.909-.182 1.24-.513l2.026-2.026c.684-.684.684-1.797-.001-2.482z"/><path d="M9.222 2.375c-.081.14-.175.273-.292.391L6.275 5.42c-.118.118-.251.211-.391.292l2.367 2.367a1.88 1.88 0 0 1 .292-.391l2.654-2.654c.117-.118.253-.209.395-.288L9.222 2.375z"/><path d="M8.515.498a1.8 1.8 0 0 0-2.481 0L4.008 2.524c-.684.684-.684 1.797.001 2.482.248.247.577.384.926.384a1.3 1.3 0 0 0 .926-.384l2.654-2.654a1.31 1.31 0 0 0 0-1.854zm4.023 11.746H9.103c-.806 0-1.462.656-1.462 1.462 0 .162.131.293.292.293h5.775c.161 0 .292-.131.292-.293 0-.806-.656-1.462-1.462-1.462z"/></g><defs><clipPath id="A"><path fill="#fff" d="M0 0h14v14H0z"/></clipPath></defs></svg>