<svg xmlns="http://www.w3.org/2000/svg" width="16" height="16" fill="none" xmlns:v="https://vecta.io/nano"><path d="M8 0a8 8 0 1 0 0 16A8 8 0 1 0 8 0zm2.222 7.333v1.333H5.635a2.87 2.87 0 0 0 .767 1.376 2.87 2.87 0 0 0 2.043.846 2.87 2.87 0 0 0 2.043-.846l.943.943c-.797.797-1.858 1.237-2.985 1.237s-2.188-.439-2.986-1.237a4.2 4.2 0 0 1-1.181-2.319h-.722V7.333h.722a4.2 4.2 0 0 1 1.181-2.319 4.23 4.23 0 0 1 5.971 0l-.943.943c-1.126-1.126-2.959-1.126-4.085 0a2.87 2.87 0 0 0-.767 1.376h4.588 0z" fill="#8a8f99"/></svg>