<svg xmlns="http://www.w3.org/2000/svg" width="16" height="16" fill="#8a8f99" xmlns:v="https://vecta.io/nano"><path d="M7.063 9.906h-.937v.938h.938v-.938zm-.938-3.698v.886h.938v-.83l-.937-.055zm0 5.573v.986l.938.057V11.78h-.937zm9.519-4.716c.271-.338.356-.664.356-.939 0-.627-.438-1.519-2.527-2.213-1.469-.488-3.413-.756-5.473-.756s-4.004.269-5.473.756C.438 4.606 0 5.498 0 6.125c0 .275.084.601.356.939C.157 7.313 0 7.628 0 8c0 .275.084.601.356.939-.199.249-.356.564-.356.936 0 .627.438 1.519 2.527 2.213.773.257 1.677.452 2.661.58V6.11l-.787-.126c-.887-.171-1.317-.368-1.488-.484.171-.116.602-.312 1.488-.484.994-.192 2.272-.298 3.6-.298s2.606.106 3.6.298c.887.171 1.317.368 1.488.484-.171.116-.602.312-1.488.484-.994.192-2.272.298-3.6.298v6.563c2.06 0 4.004-.269 5.473-.756C15.562 11.394 16 10.502 16 9.875c0-.37-.155-.684-.356-.935.271-.338.356-.664.356-.94 0-.37-.155-.684-.356-.936zm-8.581.966h-.937v.938h.938v-.937z"/></svg>