<svg xmlns="http://www.w3.org/2000/svg" width="16" height="16" fill="none" xmlns:v="https://vecta.io/nano"><g clip-path="url(#A)" fill="#8a8f99"><path d="M8.363 6.36v.804c0 .255.051.47.152.637a.72.72 0 0 0 .626.363c.254 0 .506-.124.749-.367l2.657-2.657a1.5 1.5 0 0 0 0-2.116L9.889.367C9.646.123 9.394 0 9.14 0c-.387 0-.778.309-.778.999v.731c-3.772.223-6.895 3.118-7.359 6.908a.47.47 0 0 0 .465.526.47.47 0 0 0 .378-.192 6.65 6.65 0 0 1 5.347-2.716 6.62 6.62 0 0 1 1.169.105zm6.332.509a.47.47 0 0 0-.551.159 6.65 6.65 0 0 1-5.347 2.716 6.62 6.62 0 0 1-1.169-.105v-.804c0-.69-.391-.999-.778-.999-.254 0-.506.124-.749.367L3.445 10.86a1.5 1.5 0 0 0 0 2.116l2.657 2.657c.244.243.496.367.749.367.387 0 .778-.309.778-.999v-.731c3.772-.223 6.895-3.118 7.359-6.908a.47.47 0 0 0-.293-.493z"/></g><defs><clipPath id="A"><path fill="#fff" d="M0 0h16v16H0z"/></clipPath></defs></svg>