<svg xmlns="http://www.w3.org/2000/svg" width="16" height="16" fill="none" xmlns:v="https://vecta.io/nano"><g clip-path="url(#A)" fill="#8a8f99"><path d="M13.321 2.012A7.98 7.98 0 0 0 8.472 0v1.819a6.17 6.17 0 0 1 3.564 1.479l1.286-1.286zm.86 5.517H16a7.98 7.98 0 0 0-2.012-4.849l-1.286 1.286a6.17 6.17 0 0 1 1.479 3.564zm-12.362.942H0a7.98 7.98 0 0 0 2.012 4.849l1.286-1.286A6.17 6.17 0 0 1 1.819 8.47zm1.479-4.506L2.012 2.679A7.98 7.98 0 0 0 0 7.529h1.819a6.17 6.17 0 0 1 1.479-3.564zm4.23-2.146V0a7.98 7.98 0 0 0-4.849 2.012l1.286 1.286a6.17 6.17 0 0 1 3.564-1.479zM2.679 13.988A7.98 7.98 0 0 0 7.528 16v-1.819a6.17 6.17 0 0 1-3.564-1.479l-1.286 1.286zm5.793.193V16a7.98 7.98 0 0 0 4.849-2.012l-1.286-1.286a6.17 6.17 0 0 1-3.564 1.479zm4.23-2.146l1.286 1.286A7.98 7.98 0 0 0 16 8.472h-1.819a6.17 6.17 0 0 1-1.479 3.564zM13.256 8c0-2.898-2.358-5.256-5.256-5.256S2.744 5.102 2.744 8 5.102 13.256 8 13.256 13.256 10.898 13.256 8zm-4.638 2.69h-.012-.135v.605a.471.471 0 1 1-.943 0v-.605l-.216-.009a1.84 1.84 0 0 1-1.402-.663.471.471 0 1 1 .724-.603c.17.204.419.331.684.333h1.293c.356.001.642-.283.642-.638a.64.64 0 0 0-.638-.638H7.383c-.871 0-1.58-.709-1.58-1.58a1.58 1.58 0 0 1 1.592-1.58h.135v-.605a.471.471 0 1 1 .943 0v.605h.108c.661.005 1.244.373 1.545.868a.471.471 0 1 1-.801.497.9.9 0 0 0-.751-.415H7.387a.63.63 0 0 0-.642.629.64.64 0 0 0 .638.638h1.235c.871 0 1.58.709 1.58 1.58a1.58 1.58 0 0 1-1.58 1.58z"/></g><defs><clipPath id="A"><path fill="#fff" d="M0 0h16v16H0z"/></clipPath></defs></svg>