<svg xmlns="http://www.w3.org/2000/svg" width="16" height="16" fill="none" xmlns:v="https://vecta.io/nano"><g clip-path="url(#A)" fill="#8a8f99"><path d="M10 8.667c-.369 0-.667.299-.667.667V12a.67.67 0 0 1-.667.667h-2v-10c0-.569-.363-1.078-.908-1.267l-.197-.066h3.105A.67.67 0 0 1 9.333 2v2c0 .368.298.667.667.667s.667-.299.667-.667V2c0-1.103-.897-2-2-2H1.5c-.025 0-.047.011-.071.015C1.397.012 1.366 0 1.333 0 .598 0 0 .598 0 1.334v12c0 .569.363 1.078.908 1.267l4.012 1.337a1.38 1.38 0 0 0 .413.062c.735 0 1.333-.598 1.333-1.333V14h2c1.103 0 2-.897 2-2V9.333c0-.368-.298-.667-.667-.667zm5.805-2.472l-2.667-2.667c-.191-.191-.477-.248-.727-.145A.67.67 0 0 0 12 4v2H9.334a.67.67 0 0 0-.667.667.67.67 0 0 0 .667.667H12v2a.67.67 0 0 0 .411.616c.249.103.536.046.727-.145l2.667-2.667c.261-.261.261-.682 0-.943z"/></g><defs><clipPath id="A"><path fill="#fff" d="M0 0h16v16H0z"/></clipPath></defs></svg>