<svg xmlns="http://www.w3.org/2000/svg" width="16" height="16" fill="none" xmlns:v="https://vecta.io/nano"><g clip-path="url(#A)"><path d="M15.67.33a1.12 1.12 0 0 0-1.051-.3L2.049 3.106A2.68 2.68 0 0 0 0 5.717v1.658c0 .604.479 1.099 1.077 1.124l4.726.805c.1.017.202-.015.273-.087l5.57-5.57a.5.5 0 1 1 .707.707l-5.57 5.57c-.072.072-.104.173-.087.273l.804 4.726c.025.598.52 1.077 1.124 1.077h1.658a2.68 2.68 0 0 0 2.611-2.049l3.075-12.565A1.12 1.12 0 0 0 15.67.33z" fill="#8a8f99"/></g><defs><clipPath id="A"><path fill="#fff" d="M0 0h16v16H0z"/></clipPath></defs></svg>