<svg xmlns="http://www.w3.org/2000/svg" width="16" height="16" fill="none" xmlns:v="https://vecta.io/nano"><g clip-path="url(#A)" fill="#8a8f99"><path d="M8 2.5a.67.67 0 0 1-.667-.667V.667A.67.67 0 0 1 8 0a.67.67 0 0 1 .667.667v1.167A.67.67 0 0 1 8 2.501zM8 16a.67.67 0 0 1-.667-.667v-3.667A.67.67 0 0 1 8 10.999a.67.67 0 0 1 .667.667v3.667A.67.67 0 0 1 8 16z"/><path d="M11 16c-.119 0-.239-.031-.347-.097l-3-1.833c-.314-.192-.413-.603-.221-.917s.603-.413.917-.221l3 1.833c.314.192.413.603.221.917-.125.205-.345.319-.569.319z"/><path d="M5.001 16c-.225 0-.444-.113-.569-.319a.67.67 0 0 1 .221-.917l3-1.833a.67.67 0 0 1 .917.221.67.67 0 0 1-.221.917l-3 1.833a.66.66 0 0 1-.347.098zm9.832-14.667H1.167A1.17 1.17 0 0 0 0 2.5v8.333A1.17 1.17 0 0 0 1.167 12h13.667A1.17 1.17 0 0 0 16 10.833V2.5a1.17 1.17 0 0 0-1.167-1.167zm-6.167 2.5c0-.273.227-.5.5-.5h1.667c.273 0 .5.227.5.5v4.5H8.667v-4.5zm-4 2.667c0-.273.227-.5.5-.5h1.667c.273 0 .5.227.5.5v1.833H4.667V6.5zM11.5 10h-7a.5.5 0 1 1 0-1h7a.5.5 0 1 1 0 1z"/></g><defs><clipPath id="A"><path fill="#fff" d="M0 0h16v16H0z"/></clipPath></defs></svg>