<svg xmlns="http://www.w3.org/2000/svg" width="16" height="16" fill="#8a8f99" xmlns:v="https://vecta.io/nano"><path d="M15.56 8.643h-5.545a.44.44 0 0 0-.306.755l3.905 3.905a.44.44 0 0 0 .688-.054 7.01 7.01 0 0 0 1.689-4.087c.006-.026.009-.052.009-.079a.44.44 0 0 0-.44-.44zM8.341.671a.44.44 0 0 0-.438.44v6.163a.44.44 0 0 0 .438.441h6.164a.44.44 0 0 0 .44-.441A7.06 7.06 0 0 0 8.341.671zm3.387 12.272L7.181 8.396a.44.44 0 0 1-.123-.307l-.002-6.422a.44.44 0 0 0-.438-.438A7.06 7.06 0 0 0 0 8.271a7.06 7.06 0 0 0 7.056 7.058c1.778 0 3.402-.657 4.642-1.742.096-.08.156-.201.156-.335a.44.44 0 0 0-.127-.309z"/></svg>