<svg xmlns="http://www.w3.org/2000/svg" width="16" height="16" fill="#8a8f99" xmlns:v="https://vecta.io/nano"><path d="M7.531 11.281h.938v.938h-.937v-.938zm3.282 0H9.406v1.875H6.594v-1.875H5.188V16h5.625v-4.719zm-1.518-.937l4.799-3.999v-.22C14.094 2.765 11.36 0 8 0S1.906 2.765 1.906 6.125v.22l4.799 3.999h2.59zm2.924-4.764a1.01 1.01 0 0 1 .821.422L9.825 8.681l1.492-2.524c.168-.346.509-.577.902-.577zm-3.75.646c.152-.387.519-.646.938-.646.369 0 .702.199.88.51L8.469 9.12V6.227zM6.594 5.58c.414 0 .782.25.938.628V9.12L5.713 6.091a1.01 1.01 0 0 1 .88-.51zm-3.634.422a1.01 1.01 0 0 1 .821-.422c.392 0 .734.231.902.577l1.492 2.524L2.96 6.003z"/></svg>