<svg xmlns="http://www.w3.org/2000/svg" width="16" height="16" fill="#8a8f99" xmlns:v="https://vecta.io/nano"><path d="M6.167 0h-5A1.17 1.17 0 0 0 0 1.167v3a1.17 1.17 0 0 0 1.167 1.167h5a1.17 1.17 0 0 0 1.167-1.167v-3A1.17 1.17 0 0 0 6.167 0zm0 6.667h-5A1.17 1.17 0 0 0 0 7.833v7A1.17 1.17 0 0 0 1.167 16h5a1.17 1.17 0 0 0 1.167-1.167v-7a1.17 1.17 0 0 0-1.167-1.167zm8.667 4h-5a1.17 1.17 0 0 0-1.167 1.167v3A1.17 1.17 0 0 0 9.834 16h5A1.17 1.17 0 0 0 16 14.833v-3a1.17 1.17 0 0 0-1.167-1.167zm0-10.667h-5a1.17 1.17 0 0 0-1.167 1.167v7a1.17 1.17 0 0 0 1.167 1.167h5A1.17 1.17 0 0 0 16 8.167v-7A1.17 1.17 0 0 0 14.834 0z"/></svg>