<svg xmlns="http://www.w3.org/2000/svg" width="18.487" height="14.636" viewBox="0 0 18.487 14.636">
  <path id="medium" d="M17.012,4.22l1.475-1.411V2.5h-5.11L9.735,11.565,5.592,2.5H.233v.309L1.957,4.883a.723.723,0,0,1,.233.6v8.152a.93.93,0,0,1-.249.809L0,16.8V17.1H5.5V16.8L3.563,14.447a.958.958,0,0,1-.267-.809V6.587L8.127,17.109h.562L12.843,6.587v8.382c0,.221,0,.267-.145.411L11.2,16.826v.31h7.25v-.309l-1.44-1.41a.428.428,0,0,1-.165-.411V4.631a.427.427,0,0,1,.164-.411Z" transform="translate(0 -2.5)" fill="#8a8f99"/>
</svg>
