<svg width="90" height="90" viewBox="0 0 90 90" fill="none" xmlns="http://www.w3.org/2000/svg">
<circle cx="45" cy="45" r="45" fill="black"/>
<path d="M48.427 41.8275C41.9312 41.8275 36.9062 47.1159 36.9062 53.3586C36.9062 59.8577 41.9312 64.8051 48.9502 64.8051C54.8381 64.8051 59.7772 59.9471 59.7772 53.5315C59.7784 46.8535 54.8393 41.8275 48.427 41.8275Z" fill="#F8D12F"/>
<path d="M56.8916 61.0082C61.0548 56.842 61.1144 49.9112 56.5805 45.3753C51.8631 40.6546 44.8191 40.5949 40.2852 45.1332" fill="#F8D12F"/>
<path d="M60.3145 71.7377C55.5469 75.7273 51.7949 77.1991 46.2538 77.1991C40.6174 77.1991 35.6247 75.3779 31.5532 71.7377C26.1802 66.9692 23.3352 60.7278 23.3352 53.4439C23.3352 46.7707 25.8989 40.7845 30.7534 36.1043C35.0812 31.8558 40.2551 29.6875 46.1502 29.6875C51.7806 29.6875 56.7376 31.5958 59.1214 35.5842V16.5414C53.1632 13.0014 47.0464 10.9428 39.9607 10.9428C20.1016 10.9428 4.05176 27.0492 4.05176 46.9222C4.05176 66.7939 20.1695 82.8025 40.0287 82.8025C47.3539 82.8025 54.1894 80.3181 59.8711 76.7399H60.3145V71.7377Z" fill="#F8D12F"/>
<path d="M4.05176 46.9222C4.05176 66.7939 20.1469 82.8025 40.006 82.8025C47.3313 82.8025 54.1429 80.3181 59.8258 76.7399H60.268V71.7377C55.5005 75.7273 51.7484 77.1991 46.2074 77.1991C40.571 77.1991 35.5782 75.3779 31.5067 71.7377C26.1337 66.9692 23.2887 60.7278 23.2887 53.4439C23.2887 46.7707 25.8524 40.7845 30.707 36.1043C35.0347 31.8558 40.2087 29.6875 46.1037 29.6875C51.7341 29.6875 56.6912 31.5958 59.0749 35.5842V16.5414C53.1167 13.0014 47 10.9428 39.9143 10.9428" fill="#F8D12F"/>
<path d="M3.95996 47.2037C3.95996 67.0755 20.1004 82.9433 39.9607 82.9433C47.286 82.9433 54.1441 80.3181 59.8258 76.74H60.268V71.7378C55.5005 75.7274 51.7484 77.1992 46.2074 77.1992C40.571 77.1992 35.5782 75.3779 31.5067 71.7378C26.1337 66.9693 23.2887 60.7279 23.2887 53.444C23.2887 46.7707 25.8524 40.7845 30.707 36.1043C35.0347 31.8559 40.2086 29.6875 46.1037 29.6875C51.7341 29.6875 56.6911 31.5959 59.0749 35.5843V17.1044" fill="#F8D12F"/>
<path d="M73.3809 61.3448C75.3153 56.9282 75.9625 52.0524 75.9625 46.9225C75.9625 41.7927 75.3153 36.9169 73.3809 32.5002" fill="#F8D12F"/>
<path d="M73.3797 32.5004V12.4593L59.0771 15.2944V16.5419C65.0366 20.3634 69.8041 25.9155 73.3797 32.5004Z" fill="#F8D12F"/>
<path d="M73.3792 61.3446C69.8036 67.722 66.0122 73.162 60.2686 76.7401H73.3792V61.3446Z" fill="#F8D12F"/>
</svg>
