<svg xmlns="http://www.w3.org/2000/svg" width="167" height="60" fill="none" xmlns:v="https://vecta.io/nano"><rect width="167" height="60" rx="10" fill="#14161a"/><g fill-rule="evenodd"><path d="M18.533 15.462c-.338.364-.533.923-.533 1.65v25.861c0 .727.194 1.287.545 1.637l.092.077 14.49-14.49v-.326L18.624 15.384l-.092.078z" fill="url(#A)"/><path d="M37.948 35.046l-4.833-4.835v-.338l4.835-4.835.104.065 5.718 3.25c1.637.923 1.637 2.444 0 3.379l-5.718 3.25c-.002 0-.106.065-.106.065z" fill="url(#B)"/><path d="M38.052 34.981l-4.938-4.939-14.582 14.582c.533.572 1.429.637 2.431.077l17.089-9.72z" fill="url(#C)"/><path d="M38.052 25.105l-17.089-9.708c-1-.572-1.898-.495-2.431.077l14.581 14.568 4.939-4.938z" fill="url(#D)"/><g fill="#000"><path opacity=".2" d="M37.948 34.877L20.976 44.52c-.948.545-1.794.507-2.339.013l-.092.092.092.078c.545.493 1.391.533 2.339-.013l17.089-9.708-.117-.104z"/><path opacity=".12" d="M43.771 31.563l-5.835 3.314.104.104 5.718-3.25c.819-.468 1.222-1.078 1.222-1.69-.052.559-.468 1.092-1.209 1.52z"/></g><path opacity=".25" d="M20.964 15.566l22.807 12.957c.741.416 1.157.961 1.222 1.521 0-.61-.403-1.222-1.222-1.69L20.964 15.397C19.326 14.461 18 15.24 18 17.112v.169c0-1.871 1.326-2.638 2.964-1.715z" fill="#fff"/></g><path d="M56.981 25c-.1 0-.185-.03-.255-.09-.06-.07-.09-.155-.09-.255V14.86c0-.11.03-.195.09-.255.07-.07.155-.105.255-.105h3.405c1.51 0 2.6.34 3.27 1.02.67.67 1.02 1.685 1.05 3.045l.015 1.17-.015 1.185c-.03.95-.19 1.725-.48 2.325a2.72 2.72 0 0 1-1.335 1.32c-.61.29-1.42.435-2.43.435h-3.48zm3.405-1.275c.69 0 1.235-.095 1.635-.285.41-.19.705-.49.885-.9.19-.42.295-.98.315-1.68l.03-1.125-.03-1.11c-.02-.99-.255-1.71-.705-2.16-.45-.46-1.185-.69-2.205-.69h-2.205v7.95h2.28zm9.592 1.425c-1.1 0-1.955-.31-2.565-.93-.6-.62-.92-1.445-.96-2.475l-.015-.645.015-.645c.04-1.02.365-1.84.975-2.46.61-.63 1.46-.945 2.55-.945s1.94.315 2.55.945c.61.62.935 1.44.975 2.46.01.11.015.325.015.645l-.015.645c-.04 1.03-.365 1.855-.975 2.475-.6.62-1.45.93-2.55.93zm0-1.155c.63 0 1.125-.2 1.485-.6.37-.4.57-.975.6-1.725a6.95 6.95 0 0 0 .015-.57l-.015-.57c-.03-.75-.23-1.325-.6-1.725-.36-.4-.855-.6-1.485-.6s-1.13.2-1.5.6-.565.975-.585 1.725l-.015.57.015.57c.02.75.215 1.325.585 1.725s.87.6 1.5.6zM77.261 25c-.13 0-.23-.03-.3-.09a.7.7 0 0 1-.18-.285l-2.13-6.96-.03-.15c0-.09.03-.165.09-.225a.34.34 0 0 1 .225-.09h.66c.1 0 .18.03.24.09.07.05.115.105.135.165l1.665 5.655 1.785-5.595c.02-.08.065-.15.135-.21.07-.07.165-.105.285-.105h.51c.12 0 .215.035.285.105.07.06.115.13.135.21l1.785 5.595 1.665-5.655c.01-.05.045-.105.105-.165.07-.06.155-.09.255-.09h.675c.08 0 .15.03.21.09s.09.135.09.225l-.03.15-2.115 6.96a.7.7 0 0 1-.18.285c-.07.06-.175.09-.315.09h-.585c-.27 0-.435-.125-.495-.375l-1.74-5.37-1.74 5.37a.49.49 0 0 1-.51.375h-.585zm10.301 0c-.1 0-.185-.03-.255-.09-.06-.07-.09-.155-.09-.255v-7.11c0-.1.03-.18.09-.24.07-.07.155-.105.255-.105h.705a.3.3 0 0 1 .24.105.3.3 0 0 1 .105.24v.66a3.07 3.07 0 0 1 1.02-.855c.4-.2.895-.3 1.485-.3.96 0 1.705.31 2.235.93.54.61.81 1.425.81 2.445v4.23c0 .1-.035.185-.105.255-.06.06-.14.09-.24.09h-.75c-.1 0-.185-.03-.255-.09-.06-.07-.09-.155-.09-.255V20.5c0-.71-.175-1.26-.525-1.65-.34-.39-.835-.585-1.485-.585-.63 0-1.13.2-1.5.6-.37.39-.555.935-.555 1.635v4.155c0 .1-.035.185-.105.255-.06.06-.14.09-.24.09h-.75zm9.112 0c-.1 0-.185-.03-.255-.09-.06-.07-.09-.155-.09-.255v-9.96c0-.1.03-.18.09-.24.07-.07.155-.105.255-.105h.705a.3.3 0 0 1 .24.105.3.3 0 0 1 .105.24v9.96c0 .1-.035.185-.105.255-.06.06-.14.09-.24.09h-.705zm6.483.15c-1.1 0-1.955-.31-2.565-.93-.6-.62-.92-1.445-.96-2.475l-.015-.645.015-.645c.04-1.02.365-1.84.975-2.46.61-.63 1.46-.945 2.55-.945s1.94.315 2.55.945c.61.62.935 1.44.975 2.46.01.11.015.325.015.645l-.015.645c-.04 1.03-.365 1.855-.975 2.475-.6.62-1.45.93-2.55.93zm0-1.155c.63 0 1.125-.2 1.485-.6.37-.4.57-.975.6-1.725a6.95 6.95 0 0 0 .015-.57l-.015-.57c-.03-.75-.23-1.325-.6-1.725-.36-.4-.855-.6-1.485-.6s-1.13.2-1.5.6-.565.975-.585 1.725l-.015.57.015.57c.02.75.215 1.325.585 1.725s.87.6 1.5.6zm7.593 1.155c-.49 0-.945-.1-1.365-.3s-.755-.47-1.005-.81a2 2 0 0 1-.36-1.155 1.96 1.96 0 0 1 .81-1.62c.55-.43 1.29-.71 2.22-.84l2.235-.315v-.435c0-1.02-.585-1.53-1.755-1.53-.44 0-.8.095-1.08.285-.28.18-.49.395-.63.645-.03.09-.07.155-.12.195-.04.04-.1.06-.18.06h-.645c-.09 0-.17-.03-.24-.09-.06-.07-.09-.15-.09-.24.01-.24.12-.51.33-.81.22-.31.555-.575 1.005-.795.45-.23 1.005-.345 1.665-.345 1.12 0 1.925.265 2.415.795.49.52.735 1.17.735 1.95v4.86c0 .1-.035.185-.105.255-.06.06-.14.09-.24.09h-.69c-.1 0-.185-.03-.255-.09-.06-.07-.09-.155-.09-.255v-.645c-.22.32-.54.59-.96.81s-.955.33-1.605.33zm.315-1.125c.65 0 1.18-.21 1.59-.63.42-.43.63-1.045.63-1.845v-.42l-1.74.255c-.71.1-1.245.27-1.605.51-.36.23-.54.525-.54.885 0 .4.165.71.495.93.33.21.72.315 1.17.315zm8.636 1.125c-1.04 0-1.825-.34-2.355-1.02s-.81-1.54-.84-2.58l-.015-.45.015-.45c.03-1.03.31-1.885.84-2.565.53-.69 1.315-1.035 2.355-1.035 1.03 0 1.84.365 2.43 1.095v-3.45c0-.1.03-.18.09-.24.07-.07.155-.105.255-.105h.72a.3.3 0 0 1 .24.105.3.3 0 0 1 .105.24v9.96c0 .1-.035.185-.105.255-.06.06-.14.09-.24.09h-.675c-.1 0-.185-.03-.255-.09-.06-.07-.09-.155-.09-.255v-.63c-.58.75-1.405 1.125-2.475 1.125zm.315-1.215c.69 0 1.205-.225 1.545-.675.35-.46.54-1.005.57-1.635.01-.11.015-.3.015-.57l-.015-.585c-.02-.59-.21-1.105-.57-1.545s-.875-.66-1.545-.66c-.71 0-1.23.22-1.56.66-.32.44-.495 1.02-.525 1.74l-.015.435c0 1.89.7 2.835 2.1 2.835zM55.931 45c-.08 0-.15-.03-.21-.09s-.09-.13-.09-.21.005-.135.015-.165l3.72-9.705c.08-.22.24-.33.48-.33h1.02c.24 0 .4.11.48.33l3.705 9.705.03.165c0 .08-.03.15-.09.21s-.13.09-.21.09h-.765c-.11 0-.195-.025-.255-.075-.06-.06-.1-.12-.12-.18l-.825-2.13h-4.92l-.825 2.13c-.02.06-.065.12-.135.18-.06.05-.14.075-.24.075h-.765zm6.45-3.675L60.356 36l-2.025 5.325h4.05zM66.835 45c-.1 0-.185-.03-.255-.09-.06-.07-.09-.155-.09-.255v-7.11c0-.1.03-.18.09-.24.07-.07.155-.105.255-.105h.705a.3.3 0 0 1 .24.105.3.3 0 0 1 .105.24v.66a3.07 3.07 0 0 1 1.02-.855c.4-.2.895-.3 1.485-.3.96 0 1.705.31 2.235.93.54.61.81 1.425.81 2.445v4.23c0 .1-.035.185-.105.255-.06.06-.14.09-.24.09h-.75c-.1 0-.185-.03-.255-.09-.06-.07-.09-.155-.09-.255V40.5c0-.71-.175-1.26-.525-1.65-.34-.39-.835-.585-1.485-.585-.63 0-1.13.2-1.5.6-.37.39-.555.935-.555 1.635v4.155c0 .1-.035.185-.105.255-.06.06-.14.09-.24.09h-.75zm11.602.15c-1.04 0-1.825-.34-2.355-1.02s-.81-1.54-.84-2.58l-.015-.45.015-.45c.03-1.03.31-1.885.84-2.565.53-.69 1.315-1.035 2.355-1.035 1.03 0 1.84.365 2.43 1.095v-3.45c0-.1.03-.18.09-.24.07-.07.155-.105.255-.105h.72a.3.3 0 0 1 .24.105.3.3 0 0 1 .105.24v9.96c0 .1-.035.185-.105.255-.06.06-.14.09-.24.09h-.675c-.1 0-.185-.03-.255-.09-.06-.07-.09-.155-.09-.255v-.63c-.58.75-1.405 1.125-2.475 1.125zm.315-1.215c.69 0 1.205-.225 1.545-.675.35-.46.54-1.005.57-1.635.01-.11.015-.3.015-.57l-.015-.585c-.02-.59-.21-1.105-.57-1.545s-.875-.66-1.545-.66c-.71 0-1.23.22-1.56.66-.32.44-.495 1.02-.525 1.74l-.015.435c0 1.89.7 2.835 2.1 2.835zM84.853 45c-.1 0-.185-.03-.255-.09-.06-.07-.09-.155-.09-.255V37.56c0-.1.03-.185.09-.255.07-.07.155-.105.255-.105h.69c.1 0 .185.035.255.105s.105.155.105.255v.66c.41-.68 1.11-1.02 2.1-1.02h.585a.3.3 0 0 1 .24.105.3.3 0 0 1 .105.24v.615a.3.3 0 0 1-.105.24c-.06.06-.14.09-.24.09h-.9c-.54 0-.965.16-1.275.48-.31.31-.465.735-.465 1.275v4.41c0 .1-.035.185-.105.255-.07.06-.155.09-.255.09h-.735zm8.402.15c-1.1 0-1.955-.31-2.565-.93-.6-.62-.92-1.445-.96-2.475l-.015-.645.015-.645c.04-1.02.365-1.84.975-2.46.61-.63 1.46-.945 2.55-.945s1.94.315 2.55.945c.61.62.935 1.44.975 2.46.01.11.015.325.015.645l-.015.645c-.04 1.03-.365 1.855-.975 2.475-.6.62-1.45.93-2.55.93zm0-1.155c.63 0 1.125-.2 1.485-.6.37-.4.57-.975.6-1.725a6.95 6.95 0 0 0 .015-.57l-.015-.57c-.03-.75-.23-1.325-.6-1.725-.36-.4-.855-.6-1.485-.6s-1.13.2-1.5.6-.565.975-.585 1.725l-.015.57.015.57c.02.75.215 1.325.585 1.725s.87.6 1.5.6zm5.643-8.25c-.1 0-.185-.03-.255-.09-.06-.07-.09-.155-.09-.255v-.81c0-.1.03-.185.09-.255.07-.07.155-.105.255-.105h.945c.1 0 .186.035.255.105s.105.155.105.255v.81c0 .1-.035.185-.105.255a.38.38 0 0 1-.255.09h-.945zm.12 9.255c-.1 0-.185-.03-.255-.09-.06-.07-.09-.155-.09-.255v-7.11c0-.1.03-.18.09-.24.07-.07.155-.105.255-.105h.72a.3.3 0 0 1 .24.105c.07.06.105.14.105.24v7.11c0 .1-.035.185-.105.255-.06.06-.14.09-.24.09h-.72zm6.138.15c-1.04 0-1.825-.34-2.355-1.02s-.81-1.54-.84-2.58l-.015-.45.015-.45c.03-1.03.31-1.885.84-2.565.53-.69 1.315-1.035 2.355-1.035 1.03 0 1.84.365 2.43 1.095v-3.45c0-.1.03-.18.09-.24.07-.07.155-.105.255-.105h.72a.3.3 0 0 1 .24.105.3.3 0 0 1 .105.24v9.96c0 .1-.035.185-.105.255-.06.06-.14.09-.24.09h-.675c-.1 0-.185-.03-.255-.09-.06-.07-.09-.155-.09-.255v-.63c-.58.75-1.405 1.125-2.475 1.125zm.315-1.215c.69 0 1.205-.225 1.545-.675.35-.46.54-1.005.57-1.635.01-.11.015-.3.015-.57l-.015-.585c-.02-.59-.21-1.105-.57-1.545s-.875-.66-1.545-.66c-.71 0-1.23.22-1.56.66-.32.44-.495 1.02-.525 1.74l-.015.435c0 1.89.7 2.835 2.1 2.835zM113.997 45c-.08 0-.15-.03-.21-.09s-.09-.13-.09-.21.005-.135.015-.165l3.72-9.705c.08-.22.24-.33.48-.33h1.02c.24 0 .4.11.48.33l3.705 9.705.03.165c0 .08-.03.15-.09.21s-.13.09-.21.09h-.765c-.11 0-.195-.025-.255-.075-.06-.06-.1-.12-.12-.18l-.825-2.13h-4.92l-.825 2.13c-.02.06-.065.12-.135.18-.06.05-.14.075-.24.075h-.765zm6.45-3.675L118.422 36l-2.025 5.325h4.05zm4.469 6.525c-.1 0-.185-.035-.255-.105-.06-.06-.09-.14-.09-.24v-9.96c0-.1.03-.18.09-.24.07-.07.155-.105.255-.105h.69a.3.3 0 0 1 .24.105.3.3 0 0 1 .105.24v.66c.56-.77 1.38-1.155 2.46-1.155 1.05 0 1.835.33 2.355.99.53.66.815 1.51.855 2.55a6.22 6.22 0 0 1 .015.51l-.015.51c-.04 1.03-.325 1.88-.855 2.55-.53.66-1.315.99-2.355.99s-1.85-.375-2.43-1.125v3.48c0 .1-.03.18-.09.24a.3.3 0 0 1-.24.105h-.735zm3.18-3.915c.71 0 1.225-.22 1.545-.66.33-.44.51-1.02.54-1.74a4.71 4.71 0 0 0 .015-.435c0-1.89-.7-2.835-2.1-2.835-.69 0-1.21.23-1.56.69-.34.45-.525.99-.555 1.62l-.015.57.015.585c.02.59.21 1.105.57 1.545s.875.66 1.545.66zM133.852 45c-.1 0-.185-.03-.255-.09-.06-.07-.09-.155-.09-.255v-9.96c0-.1.03-.18.09-.24.07-.07.155-.105.255-.105h.705a.3.3 0 0 1 .24.105.3.3 0 0 1 .105.24v5.22l2.955-2.46c.03-.02.08-.06.15-.12.07-.05.135-.085.195-.105a.94.94 0 0 1 .255-.03h.795c.09 0 .165.03.225.09s.09.135.09.225c0 .11-.06.205-.18.285l-3.465 2.88 3.84 3.735c.12.1.18.19.18.27 0 .09-.03.165-.09.225s-.135.09-.225.09h-.78c-.15 0-.26-.015-.33-.045-.06-.03-.15-.1-.27-.21l-3.345-3.195v3.105c0 .1-.035.185-.105.255-.06.06-.14.09-.24.09h-.705z" fill="#fff"/><defs><linearGradient id="A" x1="31.826" y1="16.834" x2="8.615" y2="23.018" gradientUnits="userSpaceOnUse"><stop stop-color="#00a0ff"/><stop offset=".007" stop-color="#00a1ff"/><stop offset=".26" stop-color="#00beff"/><stop offset=".512" stop-color="#00d2ff"/><stop offset=".76" stop-color="#00dfff"/><stop offset="1" stop-color="#00e3ff"/></linearGradient><linearGradient id="B" x1="45.903" y1="30.043" x2="17.602" y2="30.043" gradientUnits="userSpaceOnUse"><stop stop-color="#ffe000"/><stop offset=".409" stop-color="#ffbd00"/><stop offset=".775" stop-color="orange"/><stop offset="1" stop-color="#ff9c00"/></linearGradient><linearGradient id="C" x1="35.368" y1="32.729" x2="16.734" y2="64.091" gradientUnits="userSpaceOnUse"><stop stop-color="#ff3a44"/><stop offset="1" stop-color="#c31162"/></linearGradient><linearGradient id="D" x1="14.862" y1="6.859" x2="23.175" y2="20.866" gradientUnits="userSpaceOnUse"><stop stop-color="#32a071"/><stop offset=".069" stop-color="#2da771"/><stop offset=".476" stop-color="#15cf74"/><stop offset=".801" stop-color="#06e775"/><stop offset="1" stop-color="#00f076"/></linearGradient></defs></svg>