<svg xmlns="http://www.w3.org/2000/svg" width="65" height="65" fill="none" xmlns:v="https://vecta.io/nano"><rect width="65" height="65" rx="15" fill="#422e4d"/><g clip-path="url(#A)" fill="#9c3dcc"><path d="M46.613 32.044a.88.88 0 0 1-.88.898.88.88 0 0 1-.878-.86c-.029-1.327-.384-3.144-1.917-4.269-2.46-1.806-6.762-.986-9.693-.135-.161.046-.329.046-.49 0-2.93-.851-7.233-1.671-9.693.135-1.532 1.124-1.888 2.942-1.917 4.269a.88.88 0 0 1-.542.793.88.88 0 0 1-1.216-.831c.063-2.884 1.357-5.358 4.107-6.454.995-.387 2.236-.639 3.89-.606-.006-.006.047.062-1.989-2.662C23.97 20.605 25.189 18 27.425 18a.88.88 0 0 1 .645.282c.008.008.955.996 2.572 1.501.752-1.223 2.017-1.658 2.081-1.679a.88.88 0 0 1 .556 0c.063.021 1.328.456 2.081 1.679 1.617-.505 2.564-1.493 2.575-1.504a.87.87 0 0 1 .642-.279c2.24 0 3.452 2.608 2.029 4.321l-1.987 2.661c-.013.013 1.737-.102 3.438.447 2.998.965 4.49 3.513 4.558 6.615zm-2.569 2.513c-.013-.018.146.201-4.382-6.035-1.418-.117-2.986.12-4.361.435.161.209.35.402.571.568a.88.88 0 0 1 .176 1.23.88.88 0 0 1-1.23.176 4.92 4.92 0 0 1-1.313-1.511 2.63 2.63 0 0 1-1.007 0c-.315.551-.741 1.081-1.313 1.511a.88.88 0 0 1-1.23-.176.88.88 0 0 1 .176-1.23 2.95 2.95 0 0 0 .571-.568c-1.39-.319-2.951-.552-4.361-.435l-4.382 6.035c-2.782 4.046-1.249 9.624 3.193 11.659 5.066 2.321 10.386 2.435 15.7 0 4.445-2.037 5.973-7.616 3.193-11.659zm-10.163 7.175v.175a.88.88 0 0 1-.879.888.88.88 0 0 1-.879-.879v-.085c-.405-.071-.775-.222-1.242-.528a.89.89 0 0 1-.254-1.225.88.88 0 0 1 1.217-.254c.428.28.566.302 1.153.298.565-.004.791-.448.835-.709.053-.314-.082-.566-.44-.693-.669-.237-1.457-.537-2.008-.97-1.208-.947-.843-3.118.741-3.693v-.118a.88.88 0 0 1 .879-.888.88.88 0 0 1 .879.879v.074c.448.13.794.35.991.532a.89.89 0 0 1 .05 1.248.88.88 0 0 1-1.24.056c-.227-.168-.572-.24-.937-.13-.208.063-.321.285-.322.485.001.092.027.151.044.164.331.26.949.498 1.509.696 2.303.814 2.047 3.904-.095 4.678z"/></g><defs><clipPath id="A"><path fill="#fff" transform="translate(18 18)" d="M0 0h30v30H0z"/></clipPath></defs></svg>