<svg xmlns="http://www.w3.org/2000/svg" width="65" height="65" fill="none" xmlns:v="https://vecta.io/nano"><rect width="65" height="65" rx="15" fill="#4d2e36"/><g clip-path="url(#A)"><path d="M47.526 19.206a.87.87 0 0 0-.843-.844L34.815 18a.87.87 0 0 0-.645.258L19.522 33.057c-1.795 1.814-1.795 4.764 0 6.578l6.927 6.998c.872.881 2.033 1.367 3.268 1.367s2.396-.485 3.268-1.367l14.648-14.799a.87.87 0 0 0 .251-.638l-.358-11.989zM36.262 37.598a.87.87 0 0 1-.616.255c-.223 0-.445-.085-.615-.255l-.379-.379-.627.627a.87.87 0 0 1-.615.255c-.223 0-.446-.085-.615-.255a.87.87 0 0 1 0-1.231l1.667-1.667a.8.8 0 1 0-1.132-1.132l-.425.424-.425.425c-.495.495-1.146.743-1.797.743s-1.302-.248-1.797-.743c-.48-.48-.744-1.118-.744-1.797a2.52 2.52 0 0 1 .564-1.596l-.389-.389a.87.87 0 1 1 1.231-1.231l.379.379.397-.397a.87.87 0 1 1 1.231 1.231l-1.437 1.437c-.151.151-.234.352-.234.566s.083.415.235.566a.8.8 0 0 0 1.132 0l.425-.425.425-.425c.991-.991 2.603-.99 3.594 0 .926.926.987 2.396.181 3.392l.389.389a.87.87 0 0 1 0 1.231zm6.158-10.374c-.509.509-1.178.764-1.846.764s-1.337-.255-1.847-.764c-.493-.493-.765-1.149-.765-1.847s.272-1.353.765-1.846c1.018-1.018 2.675-1.018 3.693 0s1.018 2.675 0 3.693z" fill="#cc3d61"/></g><defs><clipPath id="A"><path fill="#fff" transform="translate(18 18)" d="M0 0h30v30H0z"/></clipPath></defs></svg>