<svg xmlns="http://www.w3.org/2000/svg" width="105" height="31" fill="none" xmlns:v="https://vecta.io/nano"><path d="M1 24.061l.9-2.545 1.799 2.545v4.242l3.148-1.273 1.349 2.121 1.349-2.97 1.349.849.9-1.273.899 1.273 1.349-1.273 1.799.424-.45-1.273h.9v-2.97l.45.424 1.349 3.394 2.024-3.887 2.924 2.19 1.293-3.093 1.406 6.063.9-.849.45 2.97 1.462-.958L30.236 30l1.349-1.697.45-1.697h1.799l.45-2.546 1.799.424.45-4.242 1.349 2.97 1.349-1.273 1.799.424 1.349-3.818 2.249.424v-.424l1.799-.424.45-5.091.9 2.97 1.799.424.9 1.273 2.249-2.97.9-6.788h1.799V4.121l1.349.424.9-2.545.9 5.091 1.349 1.273.45-.848.899-2.545 2.249 1.273.45 4.667 1.349-2.97.9.424v1.273l1.799.424.9 2.545.9-2.545 1.799 3.394 1.349-2.121 2.249 4.243h1.799l1.349-2.545 1.799 1.273v2.546l1.799-2.546 2.699 2.97h2.249l1.349-3.818 2.136-2.545L91.8 6.516l1.406 14.151 1.874-6.364.937 3.394 1.687 4.667 1.124-4.667 1.124 3.818.75-2.121.937-.848 1.012 3.394L104 20.667" stroke="#89cd00"/></svg>