<svg xmlns="http://www.w3.org/2000/svg" width="240" height="240" fill="none" xmlns:v="https://vecta.io/nano"><path d="M120 9c0-4.971 4.035-9.035 8.992-8.663a120 120 0 0 1 53.018 16.926c18.712 11.294 33.984 27.485 44.168 46.824s14.893 41.092 13.618 62.911a120.01 120.01 0 0 1-20.851 60.898c-12.367 18.021-29.421 32.323-49.321 41.362s-41.891 12.47-63.598 9.925-42.309-10.971-59.578-24.368a120 120 0 0 1-34.865-43.38c-2.13-4.491.21-9.718 4.848-11.506s9.811.544 12.001 5.006c6.825 13.907 16.747 26.114 29.049 35.658 14.679 11.387 32.189 18.549 50.641 20.712s37.144-.754 54.059-8.436a102 102 0 0 0 41.922-35.158c10.511-15.318 16.64-33.216 17.723-51.763a101.99 101.99 0 0 0-11.575-53.474 102 102 0 0 0-37.542-39.8c-13.33-8.046-28.29-12.912-43.72-14.277C124.037 17.959 120 13.971 120 9z" fill="url(#A)"/><path d="M16.471 160.035c-4.636 1.793-9.882-.505-11.323-5.262A120 120 0 0 1 21.021 52.154 120 120 0 0 1 111.007.337c4.957-.372 8.992 3.692 8.992 8.663s-4.037 8.959-8.988 9.397a102 102 0 0 0-75.143 43.934 102 102 0 0 0-13.874 85.931c1.377 4.776-.886 9.98-5.522 11.773z" fill="url(#B)"/><path d="M55.047 114c-.12 0-.222-.042-.306-.126s-.126-.186-.126-.306V101.85a.48.48 0 0 1 .108-.324c.084-.084.192-.126.324-.126h1.386c.144 0 .252.03.324.09.072.048.138.114.198.198l5.184 8.064v-7.902a.48.48 0 0 1 .108-.324c.084-.084.192-.126.324-.126h1.512c.132 0 .24.042.324.126s.126.192.126.324v11.7c0 .132-.042.24-.126.324s-.186.126-.306.126h-1.404c-.204 0-.378-.096-.522-.288l-5.166-7.884v7.74c0 .132-.042.24-.126.324a.48.48 0 0 1-.324.108h-1.512zm16.219.18c-1.404 0-2.49-.36-3.258-1.08-.768-.732-1.182-1.728-1.242-2.988l-.018-.792.018-.792c.06-1.248.48-2.238 1.26-2.97s1.86-1.098 3.24-1.098 2.46.366 3.24 1.098 1.2 1.722 1.26 2.97c.012.144.018.408.018.792l-.018.792c-.06 1.26-.474 2.256-1.242 2.988-.768.72-1.854 1.08-3.258 1.08zm0-1.782c.636 0 1.128-.198 1.476-.594.348-.408.54-1.002.576-1.782.012-.12.018-.354.018-.702l-.018-.702c-.036-.78-.228-1.368-.576-1.764-.348-.408-.84-.612-1.476-.612s-1.128.204-1.476.612c-.348.396-.54.984-.576 1.764l-.018.702.018.702c.036.78.228 1.374.576 1.782.348.396.84.594 1.476.594zM85.305 114c-.348 0-.576-.168-.684-.504l-3.852-11.556-.036-.162c0-.108.036-.198.108-.27s.162-.108.27-.108h1.584c.156 0 .276.042.36.126a.55.55 0 0 1 .198.27l3.042 9.27 3.042-9.27c.024-.096.084-.186.18-.27s.222-.126.378-.126h1.584c.096 0 .18.036.252.108a.34.34 0 0 1 .126.27l-.036.162-3.852 11.556c-.108.336-.336.504-.684.504h-1.98zm11.432.18c-1.404 0-2.49-.36-3.258-1.08-.768-.732-1.182-1.728-1.242-2.988l-.018-.792.018-.792c.06-1.248.48-2.238 1.26-2.97s1.86-1.098 3.24-1.098 2.46.366 3.24 1.098 1.2 1.722 1.26 2.97c.012.144.018.408.018.792l-.018.792c-.06 1.26-.474 2.256-1.242 2.988-.768.72-1.854 1.08-3.258 1.08zm0-1.782c.636 0 1.128-.198 1.476-.594.348-.408.54-1.002.576-1.782.012-.12.018-.354.018-.702l-.018-.702c-.036-.78-.228-1.368-.576-1.764-.348-.408-.84-.612-1.476-.612s-1.128.204-1.476.612c-.348.396-.54.984-.576 1.764l-.018.702.018.702c.036.78.228 1.374.576 1.782.348.396.84.594 1.476.594zM107.408 114c-1.092 0-1.914-.282-2.466-.846-.54-.576-.81-1.416-.81-2.52v-4.086h-1.422c-.12 0-.222-.042-.306-.126a.48.48 0 0 1-.126-.324v-1.026c0-.12.042-.222.126-.306s.186-.126.306-.126h1.422v-2.988c0-.132.042-.234.126-.306.084-.084.186-.126.306-.126h1.458c.132 0 .234.042.306.126.084.072.126.174.126.306v2.988h2.25c.132 0 .234.042.306.126.084.072.126.174.126.306v1.026c0 .132-.042.24-.126.324s-.186.126-.306.126h-2.25v3.906c0 .516.09.906.27 1.17s.48.396.9.396h1.242c.12 0 .222.042.306.126s.126.186.126.306v1.116c0 .12-.042.222-.126.306-.072.084-.174.126-.306.126h-1.458zm7.519.18c-1.332 0-2.394-.384-3.186-1.152-.78-.78-1.194-1.872-1.242-3.276l-.018-.45.018-.45c.06-1.368.48-2.442 1.26-3.222.792-.78 1.848-1.17 3.168-1.17 1.416 0 2.508.432 3.276 1.296.78.864 1.17 2.016 1.17 3.456v.378c0 .12-.042.222-.126.306s-.192.126-.324.126h-5.976v.144c.024.66.204 1.218.54 1.674.348.444.822.666 1.422.666.708 0 1.278-.276 1.71-.828.108-.132.192-.216.252-.252.072-.036.174-.054.306-.054h1.548c.108 0 .198.036.27.108.084.06.126.138.126.234 0 .288-.174.63-.522 1.026-.336.384-.822.72-1.458 1.008s-1.374.432-2.214.432zm1.998-5.67v-.054c0-.708-.18-1.278-.54-1.71-.348-.432-.834-.648-1.458-.648s-1.11.216-1.458.648-.522 1.002-.522 1.71v.054h3.978zm7.905 5.67c-.9 0-1.656-.132-2.268-.396-.612-.276-1.068-.594-1.368-.954-.288-.372-.432-.69-.432-.954a.36.36 0 0 1 .126-.288.43.43 0 0 1 .288-.108h1.422a.34.34 0 0 1 .27.126 9.5 9.5 0 0 1 .378.324c.204.192.444.342.72.45a2.5 2.5 0 0 0 .918.162c.48 0 .876-.096 1.188-.288s.468-.456.468-.792c0-.252-.072-.456-.216-.612-.132-.156-.378-.294-.738-.414-.36-.132-.894-.27-1.602-.414-1.02-.216-1.776-.546-2.268-.99-.48-.444-.72-1.032-.72-1.764 0-.48.144-.93.432-1.35.288-.432.714-.78 1.278-1.044.576-.276 1.26-.414 2.052-.414.804 0 1.5.132 2.088.396.588.252 1.032.558 1.332.918.312.348.468.66.468.936 0 .108-.042.204-.126.288-.072.072-.162.108-.27.108h-1.332c-.096 0-.198-.042-.306-.126-.084-.06-.216-.174-.396-.342s-.39-.3-.63-.396a2.27 2.27 0 0 0-.846-.144c-.444 0-.792.096-1.044.288a.92.92 0 0 0-.36.756c0 .228.06.414.18.558s.354.282.702.414.87.264 1.566.396c1.152.228 1.974.582 2.466 1.062a2.34 2.34 0 0 1 .756 1.764c0 .84-.366 1.524-1.098 2.052s-1.758.792-3.078.792zm6.412-6.48c-.12 0-.222-.042-.306-.126s-.126-.186-.126-.306v-1.71c0-.132.042-.24.126-.324s.186-.126.306-.126h1.782c.132 0 .24.042.324.126s.126.192.126.324v1.71c0 .12-.042.222-.126.306s-.192.126-.324.126h-1.782zm0 6.3c-.12 0-.222-.042-.306-.126s-.126-.186-.126-.306v-1.71c0-.132.042-.24.126-.324s.186-.126.306-.126h1.782c.132 0 .24.042.324.126s.126.192.126.324v1.71c0 .12-.042.222-.126.306s-.192.126-.324.126h-1.782zm12.995.198c-.996 0-1.854-.168-2.574-.504-.708-.336-1.254-.78-1.638-1.332-.372-.552-.57-1.146-.594-1.782v-.036a.29.29 0 0 1 .108-.234c.072-.06.162-.09.27-.09h1.674c.276 0 .456.12.54.36.168.528.444.918.828 1.17.396.252.858.378 1.386.378.672 0 1.23-.204 1.674-.612.456-.408.684-.978.684-1.71 0-.648-.228-1.176-.684-1.584-.444-.408-1.002-.612-1.674-.612-.36 0-.654.048-.882.144s-.45.228-.666.396l-.342.234a.6.6 0 0 1-.27.054h-1.656a.43.43 0 0 1-.396-.396l.63-6.156c.012-.144.06-.258.144-.342a.49.49 0 0 1 .36-.144h6.768c.12 0 .222.042.306.126s.126.186.126.306v1.206c0 .12-.042.222-.126.306s-.186.126-.306.126h-5.202l-.288 2.934c.588-.408 1.374-.612 2.358-.612.78 0 1.5.168 2.16.504a3.83 3.83 0 0 1 1.602 1.422c.396.612.594 1.326.594 2.142 0 .876-.204 1.644-.612 2.304-.408.648-.984 1.152-1.728 1.512-.732.348-1.59.522-2.574.522zm6.611 1.152a.31.31 0 0 1-.252-.108c-.06-.072-.084-.162-.072-.27l.486-3.06a.77.77 0 0 1 .18-.414c.096-.108.228-.162.396-.162h1.656c.084 0 .156.036.216.108a.29.29 0 0 1 .108.234c0 .06-.018.138-.054.234l-1.152 2.988c-.06.144-.138.252-.234.324-.084.084-.204.126-.36.126h-.918zm6.204-1.35c-.108 0-.198-.036-.27-.108a.43.43 0 0 1-.108-.288c0-.084.024-.162.072-.234l2.646-3.654c-.264.06-.51.084-.738.072-.804-.024-1.536-.222-2.196-.594a4.21 4.21 0 0 1-1.566-1.512 4.06 4.06 0 0 1-.558-2.088c0-.756.186-1.464.558-2.124.372-.672.924-1.212 1.656-1.62.732-.42 1.614-.63 2.646-.63s1.92.198 2.664.594c.744.384 1.302.906 1.674 1.566.384.648.576 1.362.576 2.142 0 .48-.078.936-.234 1.368s-.336.81-.54 1.134l-.828 1.224-3.168 4.392c-.072.108-.156.198-.252.27-.084.06-.204.09-.36.09h-1.674zm2.16-6.12c.66 0 1.212-.204 1.656-.612.456-.42.684-.978.684-1.674s-.228-1.254-.684-1.674c-.444-.42-.996-.63-1.656-.63s-1.218.21-1.674.63c-.444.42-.666.978-.666 1.674s.222 1.254.666 1.674c.444.408 1.002.612 1.674.612zm8.95 6.12c-.108 0-.198-.036-.27-.108a.43.43 0 0 1-.108-.288c0-.084.024-.162.072-.234l2.646-3.654c-.264.06-.51.084-.738.072-.804-.024-1.536-.222-2.196-.594a4.21 4.21 0 0 1-1.566-1.512 4.06 4.06 0 0 1-.558-2.088c0-.756.186-1.464.558-2.124.372-.672.924-1.212 1.656-1.62.732-.42 1.614-.63 2.646-.63s1.92.198 2.664.594c.744.384 1.302.906 1.674 1.566.384.648.576 1.362.576 2.142 0 .48-.078.936-.234 1.368s-.336.81-.54 1.134l-.828 1.224-3.168 4.392c-.072.108-.156.198-.252.27-.084.06-.204.09-.36.09h-1.674zm2.16-6.12c.66 0 1.212-.204 1.656-.612.456-.42.684-.978.684-1.674s-.228-1.254-.684-1.674c-.444-.42-.996-.63-1.656-.63s-1.218.21-1.674.63c-.444.42-.666.978-.666 1.674s.222 1.254.666 1.674c.444.408 1.002.612 1.674.612zm11.541 6.3c-1.596 0-2.79-.444-3.582-1.332-.78-.888-1.206-2.052-1.278-3.492l-.018-1.656.018-1.692c.06-1.416.492-2.568 1.296-3.456s1.992-1.332 3.564-1.332c1.584 0 2.778.444 3.582 1.332s1.23 2.04 1.278 3.456c.024.336.036.9.036 1.692l-.036 1.656c-.06 1.44-.486 2.604-1.278 3.492-.78.888-1.974 1.332-3.582 1.332zm0-2.07c.756 0 1.32-.246 1.692-.738.372-.504.57-1.206.594-2.106l.036-1.584-.036-1.566c-.024-.888-.222-1.584-.594-2.088s-.936-.756-1.692-.756c-.744 0-1.308.252-1.692.756-.372.504-.57 1.2-.594 2.088l-.018 1.566.018 1.584c.024.9.222 1.602.594 2.106.384.492.948.738 1.692.738z" fill="#ffd704"/><path d="M47.444 139c-.12 0-.222-.042-.306-.126s-.126-.186-.126-.306V134.5l-4.248-7.524c-.036-.06-.054-.126-.054-.198 0-.108.036-.198.108-.27s.156-.108.252-.108h1.602a.48.48 0 0 1 .324.108c.096.072.168.15.216.234l3.06 5.238 3.042-5.238c.144-.228.33-.342.558-.342h1.584c.108 0 .198.036.27.108s.108.162.108.27c0 .072-.018.138-.054.198l-4.248 7.524v4.068c0 .12-.042.222-.126.306s-.192.126-.324.126h-1.638zm10.478.18c-1.332 0-2.394-.384-3.186-1.152-.78-.78-1.194-1.872-1.242-3.276l-.018-.45.018-.45c.06-1.368.48-2.442 1.26-3.222.792-.78 1.848-1.17 3.168-1.17 1.416 0 2.508.432 3.276 1.296.78.864 1.17 2.016 1.17 3.456v.378c0 .12-.042.222-.126.306s-.192.126-.324.126h-5.976v.144c.024.66.204 1.218.54 1.674.348.444.822.666 1.422.666.708 0 1.278-.276 1.71-.828.108-.132.192-.216.252-.252.072-.036.174-.054.306-.054h1.548c.108 0 .198.036.27.108.084.06.126.138.126.234 0 .288-.174.63-.522 1.026-.336.384-.822.72-1.458 1.008s-1.374.432-2.214.432zm1.998-5.67v-.054c0-.708-.18-1.278-.54-1.71-.348-.432-.834-.648-1.458-.648s-1.11.216-1.458.648-.522 1.002-.522 1.71v.054h3.978zm7.905 5.67c-.9 0-1.656-.132-2.268-.396-.612-.276-1.068-.594-1.368-.954-.288-.372-.432-.69-.432-.954a.36.36 0 0 1 .126-.288.43.43 0 0 1 .288-.108h1.422a.34.34 0 0 1 .27.126 9.5 9.5 0 0 1 .378.324c.204.192.444.342.72.45a2.5 2.5 0 0 0 .918.162c.48 0 .876-.096 1.188-.288s.468-.456.468-.792c0-.252-.072-.456-.216-.612-.132-.156-.378-.294-.738-.414-.36-.132-.894-.27-1.602-.414-1.02-.216-1.776-.546-2.268-.99-.48-.444-.72-1.032-.72-1.764 0-.48.144-.93.432-1.35.288-.432.714-.78 1.278-1.044.576-.276 1.26-.414 2.052-.414.804 0 1.5.132 2.088.396.588.252 1.032.558 1.332.918.312.348.468.66.468.936 0 .108-.042.204-.126.288-.072.072-.162.108-.27.108h-1.332c-.096 0-.198-.042-.306-.126-.084-.06-.216-.174-.396-.342s-.39-.3-.63-.396a2.27 2.27 0 0 0-.846-.144c-.444 0-.792.096-1.044.288a.92.92 0 0 0-.36.756c0 .228.06.414.18.558s.354.282.702.414.87.264 1.566.396c1.152.228 1.974.582 2.466 1.062a2.34 2.34 0 0 1 .756 1.764c0 .84-.366 1.524-1.098 2.052s-1.758.792-3.078.792zm13.561-.18c-.348 0-.576-.168-.684-.504L76.85 126.94l-.036-.162c0-.108.036-.198.108-.27s.162-.108.27-.108h1.584c.156 0 .276.042.36.126a.55.55 0 0 1 .198.27l3.042 9.27 3.042-9.27c.024-.096.084-.186.18-.27s.222-.126.378-.126h1.584c.096 0 .18.036.252.108a.34.34 0 0 1 .126.27l-.036.162-3.852 11.556c-.108.336-.336.504-.684.504h-1.98zm11.432.18c-1.404 0-2.49-.36-3.258-1.08-.768-.732-1.182-1.728-1.242-2.988l-.018-.792.018-.792c.06-1.248.48-2.238 1.26-2.97s1.86-1.098 3.24-1.098 2.46.366 3.24 1.098 1.2 1.722 1.26 2.97c.012.144.018.408.018.792l-.018.792c-.06 1.26-.474 2.256-1.242 2.988-.768.72-1.854 1.08-3.258 1.08zm0-1.782c.636 0 1.128-.198 1.476-.594.348-.408.54-1.002.576-1.782.012-.12.018-.354.018-.702l-.018-.702c-.036-.78-.228-1.368-.576-1.764-.348-.408-.84-.612-1.476-.612s-1.128.204-1.476.612c-.348.396-.54.984-.576 1.764l-.018.702.018.702c.036.78.228 1.374.576 1.782.348.396.84.594 1.476.594zM103.489 139c-1.092 0-1.914-.282-2.466-.846-.54-.576-.81-1.416-.81-2.52v-4.086h-1.422c-.12 0-.222-.042-.306-.126a.48.48 0 0 1-.126-.324v-1.026c0-.12.042-.222.126-.306s.186-.126.306-.126h1.422v-2.988c0-.132.042-.234.126-.306.084-.084.186-.126.306-.126h1.458c.132 0 .234.042.306.126.084.072.126.174.126.306v2.988h2.25c.132 0 .234.042.306.126.084.072.126.174.126.306v1.026c0 .132-.042.24-.126.324s-.186.126-.306.126h-2.25v3.906c0 .516.09.906.27 1.17s.48.396.9.396h1.242c.12 0 .222.042.306.126s.126.186.126.306v1.116c0 .12-.042.222-.126.306-.072.084-.174.126-.306.126h-1.458zm7.519.18c-1.332 0-2.394-.384-3.186-1.152-.78-.78-1.194-1.872-1.242-3.276l-.018-.45.018-.45c.06-1.368.48-2.442 1.26-3.222.792-.78 1.848-1.17 3.168-1.17 1.416 0 2.508.432 3.276 1.296.78.864 1.17 2.016 1.17 3.456v.378c0 .12-.042.222-.126.306s-.192.126-.324.126h-5.976v.144c.024.66.204 1.218.54 1.674.348.444.822.666 1.422.666.708 0 1.278-.276 1.71-.828.108-.132.192-.216.252-.252.072-.036.174-.054.306-.054h1.548c.108 0 .198.036.27.108.084.06.126.138.126.234 0 .288-.174.63-.522 1.026-.336.384-.822.72-1.458 1.008s-1.374.432-2.214.432zm1.998-5.67v-.054c0-.708-.18-1.278-.54-1.71-.348-.432-.834-.648-1.458-.648s-1.11.216-1.458.648-.522 1.002-.522 1.71v.054h3.978zm7.905 5.67c-.9 0-1.656-.132-2.268-.396-.612-.276-1.068-.594-1.368-.954-.288-.372-.432-.69-.432-.954a.36.36 0 0 1 .126-.288.43.43 0 0 1 .288-.108h1.422a.34.34 0 0 1 .27.126 9.5 9.5 0 0 1 .378.324c.204.192.444.342.72.45a2.5 2.5 0 0 0 .918.162c.48 0 .876-.096 1.188-.288s.468-.456.468-.792c0-.252-.072-.456-.216-.612-.132-.156-.378-.294-.738-.414-.36-.132-.894-.27-1.602-.414-1.02-.216-1.776-.546-2.268-.99-.48-.444-.72-1.032-.72-1.764 0-.48.144-.93.432-1.35.288-.432.714-.78 1.278-1.044.576-.276 1.26-.414 2.052-.414.804 0 1.5.132 2.088.396.588.252 1.032.558 1.332.918.312.348.468.66.468.936 0 .108-.042.204-.126.288-.072.072-.162.108-.27.108h-1.332c-.096 0-.198-.042-.306-.126-.084-.06-.216-.174-.396-.342s-.39-.3-.63-.396a2.27 2.27 0 0 0-.846-.144c-.444 0-.792.096-1.044.288a.92.92 0 0 0-.36.756c0 .228.06.414.18.558s.354.282.702.414.87.264 1.566.396c1.152.228 1.974.582 2.466 1.062a2.34 2.34 0 0 1 .756 1.764c0 .84-.366 1.524-1.098 2.052s-1.758.792-3.078.792zm6.412-6.48c-.12 0-.222-.042-.306-.126s-.126-.186-.126-.306v-1.71c0-.132.042-.24.126-.324s.186-.126.306-.126h1.782c.132 0 .24.042.324.126s.126.192.126.324v1.71c0 .12-.042.222-.126.306s-.192.126-.324.126h-1.782zm0 6.3c-.12 0-.222-.042-.306-.126s-.126-.186-.126-.306v-1.71c0-.132.042-.24.126-.324s.186-.126.306-.126h1.782c.132 0 .24.042.324.126s.126.192.126.324v1.71c0 .12-.042.222-.126.306s-.192.126-.324.126h-1.782zm13.391.18c-1.044 0-1.944-.162-2.7-.486-.744-.336-1.314-.798-1.71-1.386s-.594-1.26-.594-2.016c0-.672.168-1.266.504-1.782.336-.528.786-.93 1.35-1.206-.444-.276-.792-.63-1.044-1.062-.24-.444-.36-.948-.36-1.512 0-1.056.396-1.902 1.188-2.538.804-.648 1.926-.972 3.366-.972 1.428 0 2.538.318 3.33.954s1.188 1.482 1.188 2.538c0 .564-.12 1.068-.36 1.512-.228.432-.564.792-1.008 1.08.576.276 1.026.678 1.35 1.206.336.516.504 1.116.504 1.8 0 .756-.198 1.428-.594 2.016s-.972 1.044-1.728 1.368-1.65.486-2.682.486zm0-7.65c.624-.012 1.14-.174 1.548-.486.42-.312.63-.72.63-1.224 0-.528-.204-.948-.612-1.26s-.93-.468-1.566-.468-1.158.156-1.566.468-.612.732-.612 1.26c0 .516.204.93.612 1.242s.93.468 1.566.468zm0 5.778c.708 0 1.302-.18 1.782-.54.48-.372.72-.858.72-1.458a1.71 1.71 0 0 0-.72-1.44c-.48-.372-1.074-.558-1.782-.558-.72 0-1.32.18-1.8.54-.468.36-.702.846-.702 1.458s.234 1.098.702 1.458c.48.36 1.08.54 1.8.54zm11.416 1.89c-.996 0-1.854-.168-2.574-.504-.708-.336-1.254-.78-1.638-1.332-.372-.552-.57-1.146-.594-1.782v-.036a.29.29 0 0 1 .108-.234c.072-.06.162-.09.27-.09h1.674c.276 0 .456.12.54.36.168.528.444.918.828 1.17.396.252.858.378 1.386.378.672 0 1.23-.204 1.674-.612.456-.408.684-.978.684-1.71 0-.648-.228-1.176-.684-1.584-.444-.408-1.002-.612-1.674-.612-.36 0-.654.048-.882.144s-.45.228-.666.396l-.342.234a.6.6 0 0 1-.27.054h-1.656a.43.43 0 0 1-.396-.396l.63-6.156c.012-.144.06-.258.144-.342a.49.49 0 0 1 .36-.144h6.768c.12 0 .222.042.306.126s.126.186.126.306v1.206c0 .12-.042.222-.126.306s-.186.126-.306.126h-5.202l-.288 2.934c.588-.408 1.374-.612 2.358-.612.78 0 1.5.168 2.16.504a3.83 3.83 0 0 1 1.602 1.422c.396.612.594 1.326.594 2.142 0 .876-.204 1.644-.612 2.304-.408.648-.984 1.152-1.728 1.512-.732.348-1.59.522-2.574.522zm6.611 1.152a.31.31 0 0 1-.252-.108c-.06-.072-.084-.162-.072-.27l.486-3.06a.77.77 0 0 1 .18-.414c.096-.108.228-.162.396-.162h1.656c.084 0 .156.036.216.108a.29.29 0 0 1 .108.234c0 .06-.018.138-.054.234l-1.152 2.988c-.06.144-.138.252-.234.324-.084.084-.204.126-.36.126h-.918zm9.377-1.17c-1.596 0-2.79-.444-3.582-1.332-.78-.888-1.206-2.052-1.278-3.492l-.018-1.656.018-1.692c.06-1.416.492-2.568 1.296-3.456s1.992-1.332 3.564-1.332c1.584 0 2.778.444 3.582 1.332s1.23 2.04 1.278 3.456c.024.336.036.9.036 1.692l-.036 1.656c-.06 1.44-.486 2.604-1.278 3.492-.78.888-1.974 1.332-3.582 1.332zm0-2.07c.756 0 1.32-.246 1.692-.738.372-.504.57-1.206.594-2.106l.036-1.584-.036-1.566c-.024-.888-.222-1.584-.594-2.088s-.936-.756-1.692-.756c-.744 0-1.308.252-1.692.756-.372.504-.57 1.2-.594 2.088l-.018 1.566.018 1.584c.024.9.222 1.602.594 2.106.384.492.948.738 1.692.738zm11.83 2.07c-1.596 0-2.79-.444-3.582-1.332-.78-.888-1.206-2.052-1.278-3.492l-.018-1.656.018-1.692c.06-1.416.492-2.568 1.296-3.456s1.992-1.332 3.564-1.332c1.584 0 2.778.444 3.582 1.332s1.23 2.04 1.278 3.456c.024.336.036.9.036 1.692l-.036 1.656c-.06 1.44-.486 2.604-1.278 3.492-.78.888-1.974 1.332-3.582 1.332zm0-2.07c.756 0 1.32-.246 1.692-.738.372-.504.57-1.206.594-2.106l.036-1.584-.036-1.566c-.024-.888-.222-1.584-.594-2.088s-.936-.756-1.692-.756c-.744 0-1.308.252-1.692.756-.372.504-.57 1.2-.594 2.088l-.018 1.566.018 1.584c.024.9.222 1.602.594 2.106.384.492.948.738 1.692.738zm11.83 2.07c-1.596 0-2.79-.444-3.582-1.332-.78-.888-1.206-2.052-1.278-3.492l-.018-1.656.018-1.692c.06-1.416.492-2.568 1.296-3.456s1.992-1.332 3.564-1.332c1.584 0 2.778.444 3.582 1.332s1.23 2.04 1.278 3.456c.024.336.036.9.036 1.692l-.036 1.656c-.06 1.44-.486 2.604-1.278 3.492-.78.888-1.974 1.332-3.582 1.332zm0-2.07c.756 0 1.32-.246 1.692-.738.372-.504.57-1.206.594-2.106l.036-1.584-.036-1.566c-.024-.888-.222-1.584-.594-2.088s-.936-.756-1.692-.756c-.744 0-1.308.252-1.692.756-.372.504-.57 1.2-.594 2.088l-.018 1.566.018 1.584c.024.9.222 1.602.594 2.106.384.492.948.738 1.692.738z" fill="#e44f4a"/><defs><linearGradient id="A" x1="199.5" y1="31.5" x2="56" y2="218" gradientUnits="userSpaceOnUse"><stop stop-color="#de226f"/><stop offset="1" stop-color="#e66735"/></linearGradient><linearGradient id="B" x1="120" y1="0" x2="7" y2="153" gradientUnits="userSpaceOnUse"><stop stop-color="#ffd500"/><stop offset="1" stop-color="#ffff4e"/></linearGradient></defs></svg>