<svg xmlns="http://www.w3.org/2000/svg" width="28" height="23" fill="none" viewBox="0 0 28 23">
    <path fill="#1DA1F2" d="M25.123 5.673c1.139-.808 2.096-1.817 2.877-2.98-1.042.456-2.15.76-3.308.906 1.19-.71 2.1-1.827 2.526-3.172-1.11.661-2.334 1.128-3.64 1.39C22.525.694 21.023 0 19.385 0c-3.178 0-5.736 2.58-5.736 5.741 0 .455.038.893.133 1.31C9.01 6.816 4.787 4.53 1.95 1.044c-.495.86-.787 1.844-.787 2.902 0 1.988 1.023 3.75 2.55 4.77-.922-.017-1.827-.286-2.593-.707v.063c0 2.79 1.99 5.107 4.599 5.641-.468.128-.977.19-1.505.19-.368 0-.739-.022-1.086-.099.743 2.273 2.855 3.945 5.363 4-1.953 1.527-4.433 2.447-7.118 2.447-.47 0-.921-.02-1.373-.078 2.543 1.64 5.556 2.576 8.806 2.576 10.13 0 16.732-8.451 16.317-17.076z"/>
</svg>
