<svg xmlns="http://www.w3.org/2000/svg" width="14" height="14" fill="none" xmlns:v="https://vecta.io/nano"><g clip-path="url(#A)" fill="#b6b9bf"><path d="M9.7 7.438H4.3c-.077 0-.139.063-.137.14l.124 1.809c.009.082.089.138.169.117a10.29 10.29 0 0 1 2.543-.316c.867 0 1.717.106 2.543.316.08.02.16-.035.169-.117l.124-1.809c.002-.077-.06-.14-.137-.14zm.012-2.825c-.009-.082-.089-.138-.169-.117A10.29 10.29 0 0 1 7 4.812a10.28 10.28 0 0 1-2.543-.316c-.08-.02-.16.035-.169.117l-.124 1.809c-.002.077.06.14.137.14H9.7c.077 0 .139-.063.137-.14l-.124-1.809zM9.543 3.46C9.298 2.104 8.922.992 8.489.207 8.47.172 8.436.147 8.397.139 7.941.047 7.474 0 7 0a7.05 7.05 0 0 0-1.397.139c-.039.008-.073.033-.092.068-.433.786-.809 1.897-1.054 3.253-.013.069.03.137.098.156A9.39 9.39 0 0 0 7 3.938c.845 0 1.665-.112 2.445-.322.068-.018.111-.086.098-.156zM9.91.63c-.111-.051-.227.06-.183.175.268.698.485 1.483.646 2.333.016.085.107.133.186.1a9.39 9.39 0 0 0 1.535-.803c.071-.046.084-.146.026-.208l-.17-.177A6.98 6.98 0 0 0 9.91.63z"/><path d="M10.848 6.562h2.991c.08 0 .143-.069.136-.149a6.93 6.93 0 0 0-1.124-3.259c-.042-.064-.127-.081-.191-.039a10.25 10.25 0 0 1-1.658.889l-.36.144c-.059.022-.095.082-.088.145.086.686.139 1.402.158 2.135.002.074.062.134.136.134zm-6.391 3.979c.245 1.356.621 2.467 1.054 3.253.019.035.053.06.092.068a7.07 7.07 0 0 0 2.793 0c.039-.008.073-.033.092-.068.433-.786.809-1.897 1.054-3.253.013-.069-.03-.137-.098-.156A9.39 9.39 0 0 0 7 10.063a9.39 9.39 0 0 0-2.445.322c-.068.018-.111.086-.098.156zm-1.459-.545l.36-.144c.059-.022.096-.082.088-.145-.086-.686-.139-1.402-.158-2.135-.002-.074-.062-.134-.136-.134H.161c-.08 0-.143.069-.136.149a6.93 6.93 0 0 0 1.124 3.259c.042.063.127.081.191.039a10.24 10.24 0 0 1 1.659-.889zm9.096 1.569a9.4 9.4 0 0 0-1.535-.803c-.08-.033-.17.016-.186.101-.162.849-.378 1.635-.644 2.327-.046.12.07.232.181.181a7 7 0 0 0 2.04-1.421l.17-.177c.058-.062.045-.162-.026-.208z"/><path d="M10.712 7.571l-.158 2.135c-.008.063.028.123.088.145l.36.144a10.2 10.2 0 0 1 1.659.889c.063.042.149.025.191-.039a6.93 6.93 0 0 0 1.124-3.259c.007-.08-.056-.149-.136-.149h-2.991c-.074 0-.135.059-.136.134zM1.906 2.435a9.39 9.39 0 0 0 1.534.803c.08.033.17-.016.187-.1A13.63 13.63 0 0 1 4.271.81c.047-.12-.07-.231-.181-.18a7 7 0 0 0-2.04 1.42l-.17.177c-.058.062-.045.162.026.208zm1.379 4.128a21.46 21.46 0 0 1 .161-2.269c.008-.063-.028-.123-.088-.145l-.36-.144a10.25 10.25 0 0 1-1.659-.889c-.064-.042-.149-.025-.191.039A6.93 6.93 0 0 0 .024 6.414c-.007.08.056.149.136.149h3.124zm.805 6.807c.111.051.227-.06.183-.175a13.63 13.63 0 0 1-.646-2.333c-.016-.085-.107-.133-.187-.101a9.4 9.4 0 0 0-1.534.803c-.072.046-.084.146-.026.208l.17.177a6.98 6.98 0 0 0 2.04 1.42z"/></g><defs><clipPath id="A"><path fill="#fff" d="M0 0h14v14H0z"/></clipPath></defs></svg>