<svg xmlns="http://www.w3.org/2000/svg" width="60" height="60" fill="none" xmlns:v="https://vecta.io/nano"><rect width="60" height="60" rx="15" fill="#263740"/><path d="M29.768 25.373v1.6c-.851.303-1.465 1.109-1.465 2.062a2.2 2.2 0 0 0 2.197 2.197c.404 0 .732.328.732.732s-.328.732-.732.732-.732-.328-.732-.732h-1.465c0 .954.614 1.759 1.465 2.062v1.6h1.465v-1.6c.851-.303 1.465-1.109 1.465-2.062a2.2 2.2 0 0 0-2.197-2.197c-.404 0-.732-.328-.732-.732s.328-.732.732-.732.732.328.732.732h1.465c0-.954-.614-1.759-1.465-2.062v-1.6h-1.465zM31.232 18v5.982a6.57 6.57 0 0 1 5.79 5.785H43c-.367-6.288-5.478-11.4-11.768-11.767zm-5.859 16.592c-.902-1.128-1.464-2.538-1.464-4.092 0-3.384 2.572-6.148 5.859-6.518V18C23.234 18.381 18 23.871 18 30.5c0 3.175 1.247 6.062 3.203 8.262l4.17-4.17zm17.626-3.36h-5.981c-.37 3.287-3.134 5.859-6.518 5.859-1.553 0-2.964-.562-4.092-1.465l-4.17 4.17C24.438 41.753 27.325 43 30.5 43c6.629 0 12.118-5.234 12.499-11.768z" fill="#19aaf2"/></svg>