<svg xmlns="http://www.w3.org/2000/svg" xmlns:xlink="http://www.w3.org/1999/xlink" width="60" height="60" fill="none" xmlns:v="https://vecta.io/nano"><rect width="60" height="60" rx="15" fill="#264033"/><g fill="#3dcc85"><path d="M29.5 18C22.596 18 17 23.596 17 30.5S22.596 43 29.5 43 42 37.404 42 30.5 36.404 18 29.5 18zm3.792 2.134c3.032 1.113 5.461 3.542 6.574 6.574l-1.519.271-1.366.243c-.407-.925-.99-1.779-1.706-2.496s-1.571-1.299-2.496-1.706l.514-2.886zm-7.584 20.732c-3.032-1.113-5.461-3.542-6.574-6.574l1.519-.271 1.366-.243c.407.925.99 1.779 1.706 2.496s1.571 1.299 2.496 1.707l-.514 2.886zm-1.982-16.14c-.717.717-1.299 1.571-1.706 2.496l-1.366-.244-1.519-.271c1.113-3.032 3.542-5.461 6.574-6.574l.514 2.886a8.23 8.23 0 0 0-2.496 1.706zm8.194 4.354c0 .544-.203 1.041-.537 1.42.334.379.537.876.537 1.42v.84c0 1.187-.966 2.152-2.152 2.152h-.534c-1.187 0-2.152-.966-2.152-2.152v-.84c0-.544.203-1.041.537-1.42-.334-.379-.537-.876-.537-1.42v-.84c0-1.187.966-2.152 2.153-2.152h.534c1.187 0 2.153.966 2.153 2.153v.84zm1.372 11.786l-.514-2.886c.925-.407 1.779-.99 2.496-1.706s1.299-1.571 1.706-2.496l1.366.243 1.519.271c-1.113 3.032-3.542 5.461-6.574 6.574z"/><use xlink:href="#B"/><use xlink:href="#B" y="3.679"/></g><defs ><path id="B" d="M29.767 27.553h-.534a.69.69 0 0 0-.688.688v.84a.69.69 0 0 0 .688.688h.534a.69.69 0 0 0 .688-.688v-.84a.69.69 0 0 0-.688-.688z"/></defs></svg>