<svg xmlns="http://www.w3.org/2000/svg" width="60" height="60" fill="none" xmlns:v="https://vecta.io/nano"><rect width="60" height="60" rx="15" fill="#264040"/><g clip-path="url(#A)" fill="#20d9d9"><path d="M30.5 18a12.5 12.5 0 0 0-8.838 21.339A12.5 12.5 0 0 0 43 30.5a12.52 12.52 0 0 0-3.665-8.835C36.992 19.321 33.814 18.004 30.5 18h0zm0 22.917c-2.06 0-4.074-.611-5.787-1.756a10.42 10.42 0 0 1-3.837-4.675 10.41 10.41 0 0 1-.593-6.018 10.42 10.42 0 0 1 2.851-5.334c1.457-1.457 3.313-2.449 5.334-2.851a10.41 10.41 0 0 1 6.018.593c1.903.789 3.53 2.124 4.675 3.837s1.756 3.727 1.756 5.787A10.43 10.43 0 0 1 30.5 40.917zm0-19.792a9.38 9.38 0 0 0-5.209 1.58c-1.542 1.03-2.743 2.494-3.453 4.207a9.38 9.38 0 0 0-.534 5.417 9.37 9.37 0 0 0 2.566 4.8 9.38 9.38 0 0 0 10.217 2.033 9.37 9.37 0 0 0 4.207-3.453c1.03-1.542 1.58-3.354 1.58-5.209-.003-2.485-.991-4.869-2.749-6.626a9.39 9.39 0 0 0-6.626-2.749zm0 5.208a1.04 1.04 0 0 1 1.021 1.245 1.04 1.04 0 0 1-1.421.76 1.04 1.04 0 0 1 .399-2.004zm-6.25 2.083a1.04 1.04 0 0 1 1.778-.736 1.04 1.04 0 0 1-.736 1.778 1.04 1.04 0 0 1-1.042-1.042zm10.417 6.25h-8.333l-.651-4.818 2.734 1.693 2.083-3.125 2.083 3.125 2.604-1.693-.521 4.818zm1.042-5.208a1.04 1.04 0 0 1-.736-1.778 1.04 1.04 0 0 1 1.778.736 1.04 1.04 0 0 1-1.042 1.042z"/></g><defs><clipPath id="A"><path fill="#fff" transform="translate(18 18)" d="M0 0h25v25H0z"/></clipPath></defs></svg>