<svg xmlns="http://www.w3.org/2000/svg" width="60" height="60" fill="none" xmlns:v="https://vecta.io/nano"><rect width="60" height="60" rx="15" fill="#374026"/><g fill="#8cb23e"><path d="M30.232 34.062c.842-.207 1.465-.749 1.465-1.372s-.623-1.165-1.465-1.372v2.743zM29.5 22.443a8.07 8.07 0 0 0-8.057 8.057 8.07 8.07 0 0 0 8.057 8.057 8.07 8.07 0 0 0 8.057-8.057 8.07 8.07 0 0 0-8.057-8.057zm3.662 10.247c0 1.415-1.26 2.598-2.93 2.87v.799a.732.732 0 1 1-1.465 0v-.799c-1.67-.272-2.93-1.455-2.93-2.87a.732.732 0 1 1 1.465 0c0 .623.623 1.165 1.465 1.372v-2.896c-1.67-.272-2.93-1.455-2.93-2.87s1.26-2.598 2.93-2.87v-.792a.732.732 0 1 1 1.465 0v.792c1.67.272 2.93 1.455 2.93 2.87a.732.732 0 1 1-1.465 0c0-.623-.623-1.165-1.465-1.372v2.896c1.67.272 2.93 1.455 2.93 2.87z"/><path d="M28.768 26.924c-.842.207-1.465.749-1.465 1.372s.623 1.165 1.465 1.372v-2.743zM29.5 18C22.634 18 17 23.634 17 30.5S22.634 43 29.5 43 42 37.366 42 30.5 36.366 18 29.5 18zm0 22.022c-5.25 0-9.521-4.272-9.521-9.522s4.272-9.521 9.522-9.521 9.522 4.272 9.522 9.522-4.272 9.522-9.522 9.522z"/></g></svg>