<svg xmlns="http://www.w3.org/2000/svg" width="25" height="25" fill="none" xmlns:v="https://vecta.io/nano"><g clip-path="url(#A)" fill="#19aaf2"><path d="M16.183 11.027c.407 0 .737-.33.737-.737s-.33-.737-.737-.737-.737.33-.737.737.33.737.737.737zm-7.366 0c.407 0 .737-.33.737-.737s-.33-.737-.737-.737-.737.33-.737.737.33.737.737.737zM12.5 16.92c.407 0 .737-.33.737-.736a.74.74 0 0 0-.737-.737c-.407 0-.737.33-.737.737s.33.736.737.736z"/><path d="M25 11.763c-.163-2.823-1.259-5.47-3.14-7.581l-2.589 2.589-1.042-1.042 2.589-2.589C18.707 1.259 16.06.163 13.237 0v3.661h-1.473V0C8.94.163 6.293 1.259 4.182 3.14l2.589 2.589-1.042 1.042L3.14 4.182C1.259 6.293.163 8.94 0 11.763h3.661v1.473H0c.163 2.823 1.259 5.47 3.14 7.581l2.589-2.589 1.042 1.042-2.589 2.589c2.112 1.881 4.758 2.978 7.581 3.14v-3.661h1.473V25c2.823-.163 5.47-1.259 7.582-3.14l-2.589-2.589 1.042-1.042 2.589 2.589c1.881-2.111 2.978-4.758 3.14-7.581h-3.661v-1.473H25zm-8.817.737a2.2 2.2 0 0 1-1.331-.447l-1.616.785V14.1c.857.304 1.473 1.123 1.473 2.083 0 1.218-.991 2.21-2.21 2.21s-2.21-.991-2.21-2.21c0-.96.616-1.779 1.473-2.083v-1.262l-1.616-.785a2.2 2.2 0 0 1-1.331.447c-1.218 0-2.21-.991-2.21-2.21s.991-2.21 2.21-2.21 2.21.991 2.21 2.21a2.21 2.21 0 0 1-.063.521l1.536.746 1.536-.746c-.041-.167-.063-.342-.063-.521 0-1.218.991-2.21 2.21-2.21s2.21.991 2.21 2.21-.991 2.21-2.21 2.21z"/></g><defs><clipPath id="A"><path fill="#fff" d="M0 0h25v25H0z"/></clipPath></defs></svg>