<svg xmlns="http://www.w3.org/2000/svg" width="25" height="25" fill="none" xmlns:v="https://vecta.io/nano"><g clip-path="url(#A)" fill="#3dcc85"><path d="M6.93 6.966c.723-.723 1.565-1.291 2.503-1.688a7.83 7.83 0 0 1 3.067-.62 7.83 7.83 0 0 1 3.067.62 7.85 7.85 0 0 1 2.503 1.688 7.9 7.9 0 0 1 .849 1.002v-.845a4.92 4.92 0 0 0-4.913-4.913H7.912V.049L0 5.034l5.671 3.573A7.86 7.86 0 0 1 6.93 6.966zM25 20.038l-5.671-3.573a7.87 7.87 0 0 1-1.259 1.641 7.85 7.85 0 0 1-2.503 1.687 7.83 7.83 0 0 1-3.067.62 7.83 7.83 0 0 1-3.067-.62 7.85 7.85 0 0 1-3.352-2.69v.845a4.92 4.92 0 0 0 4.913 4.913h6.094v2.163L25 20.038zM6.089 12.536a6.41 6.41 0 1 0 12.822 0 6.41 6.41 0 1 0-12.822 0zm3.97-1.042c0-.906.657-1.667 1.972-1.852v-.874h1.13v.858c.593.056 1.17.208 1.627.465l-.569 1.371c-.553-.281-1.074-.417-1.563-.417-.553 0-.729.16-.729.353 0 .673 3.102.112 3.102 2.18 0 .866-.625 1.619-1.868 1.836v.89h-1.13v-.85c-.802-.048-1.579-.264-2.06-.561l.609-1.379a3.85 3.85 0 0 0 1.852.513c.537 0 .729-.112.729-.305 0-.705-3.102-.136-3.102-2.228z"/></g><defs><clipPath id="A"><path fill="#fff" d="M0 0h25v25H0z"/></clipPath></defs></svg>