<svg xmlns="http://www.w3.org/2000/svg" width="397" height="192" fill="none" xmlns:v="https://vecta.io/nano"><path d="M110.29 46c-.1 0-.185-.035-.255-.105s-.105-.155-.105-.255v-3.39l-3.54-6.27c-.03-.05-.045-.105-.045-.165 0-.09.03-.165.09-.225s.13-.09.21-.09h1.335a.4.4 0 0 1 .27.09c.08.06.14.125.18.195l2.55 4.365 2.535-4.365c.12-.19.275-.285.465-.285h1.32c.09 0 .165.03.225.09s.09.135.09.225c0 .06-.015.115-.045.165l-3.54 6.27v3.39c0 .1-.035.185-.105.255s-.16.105-.27.105h-1.365zm8.732.15c-1.11 0-1.995-.32-2.655-.96-.65-.65-.995-1.56-1.035-2.73l-.015-.375.015-.375c.05-1.14.4-2.035 1.05-2.685.66-.65 1.54-.975 2.64-.975 1.18 0 2.09.36 2.73 1.08.65.72.975 1.68.975 2.88v.315c0 .1-.035.185-.105.255s-.16.105-.27.105h-4.98v.12c.02.55.17 1.015.45 1.395.29.37.685.555 1.185.555a1.72 1.72 0 0 0 1.425-.69c.09-.11.16-.18.21-.21.06-.03.145-.045.255-.045h1.29c.09 0 .165.03.225.09a.23.23 0 0 1 .105.195c0 .24-.145.525-.435.855-.28.32-.685.6-1.215.84s-1.145.36-1.845.36zm1.665-4.725v-.045c0-.59-.15-1.065-.45-1.425-.29-.36-.695-.54-1.215-.54s-.925.18-1.215.54-.435.835-.435 1.425v.045h3.315zm6.587 4.725c-.75 0-1.38-.11-1.89-.33-.51-.23-.89-.495-1.14-.795-.24-.31-.36-.575-.36-.795a.3.3 0 0 1 .105-.24c.07-.06.15-.09.24-.09h1.185c.09 0 .165.035.225.105.04.03.145.12.315.27.17.16.37.285.6.375s.485.135.765.135c.4 0 .73-.08.99-.24s.39-.38.39-.66c0-.21-.06-.38-.18-.51-.11-.13-.315-.245-.615-.345-.3-.11-.745-.225-1.335-.345-.85-.18-1.48-.455-1.89-.825-.4-.37-.6-.86-.6-1.47 0-.4.12-.775.36-1.125.24-.36.595-.65 1.065-.87.48-.23 1.05-.345 1.71-.345.67 0 1.25.11 1.74.33.49.21.86.465 1.11.765.26.29.39.55.39.78a.33.33 0 0 1-.105.24c-.06.06-.135.09-.225.09h-1.11c-.08 0-.165-.035-.255-.105a3.84 3.84 0 0 1-.33-.285 1.67 1.67 0 0 0-.525-.33c-.2-.08-.435-.12-.705-.12-.37 0-.66.08-.87.24-.2.16-.3.37-.3.63 0 .19.05.345.15.465s.295.235.585.345.725.22 1.305.33c.96.19 1.645.485 2.055.885a1.95 1.95 0 0 1 .63 1.47c0 .7-.305 1.27-.915 1.71s-1.465.66-2.565.66zm-15.37 21.03c-1.044 0-1.944-.162-2.7-.486-.744-.336-1.314-.798-1.71-1.386s-.594-1.26-.594-2.016c0-.672.168-1.266.504-1.782.336-.528.786-.93 1.35-1.206-.444-.276-.792-.63-1.044-1.062-.24-.444-.36-.948-.36-1.512 0-1.056.396-1.902 1.188-2.538.804-.648 1.926-.972 3.366-.972 1.428 0 2.538.318 3.33.954s1.188 1.482 1.188 2.538c0 .564-.12 1.068-.36 1.512-.228.432-.564.792-1.008 1.08.576.276 1.026.678 1.35 1.206.336.516.504 1.116.504 1.8 0 .756-.198 1.428-.594 2.016s-.972 1.044-1.728 1.368-1.65.486-2.682.486zm0-7.65c.624-.012 1.14-.174 1.548-.486.42-.312.63-.72.63-1.224 0-.528-.204-.948-.612-1.26s-.93-.468-1.566-.468-1.158.156-1.566.468-.612.732-.612 1.26c0 .516.204.93.612 1.242s.93.468 1.566.468zm0 5.778c.708 0 1.302-.18 1.782-.54.48-.372.72-.858.72-1.458a1.71 1.71 0 0 0-.72-1.44c-.48-.372-1.074-.558-1.782-.558-.72 0-1.32.18-1.8.54-.468.36-.702.846-.702 1.458s.234 1.098.702 1.458c.48.36 1.08.54 1.8.54zm11.417 1.89c-.996 0-1.854-.168-2.574-.504-.708-.336-1.254-.78-1.638-1.332-.372-.552-.57-1.146-.594-1.782v-.036a.29.29 0 0 1 .108-.234c.072-.06.162-.09.27-.09h1.674c.276 0 .456.12.54.36.168.528.444.918.828 1.17.396.252.858.378 1.386.378.672 0 1.23-.204 1.674-.612.456-.408.684-.978.684-1.71 0-.648-.228-1.176-.684-1.584-.444-.408-1.002-.612-1.674-.612-.36 0-.654.048-.883.144a2.97 2.97 0 0 0-.665.396l-.342.234a.6.6 0 0 1-.27.054h-1.656a.43.43 0 0 1-.396-.396l.63-6.156c.012-.144.06-.258.144-.342a.49.49 0 0 1 .36-.144h6.768c.12 0 .222.042.305.126a.42.42 0 0 1 .127.306v1.206c0 .12-.042.222-.127.306s-.185.126-.305.126h-5.202l-.288 2.934c.588-.408 1.374-.612 2.358-.612.78 0 1.5.168 2.16.504a3.83 3.83 0 0 1 1.602 1.422c.396.612.594 1.326.594 2.142 0 .876-.204 1.644-.612 2.304-.408.648-.984 1.152-1.728 1.512-.732.348-1.59.522-2.574.522zm6.611 1.152a.31.31 0 0 1-.252-.108c-.06-.072-.084-.162-.072-.27l.486-3.06a.77.77 0 0 1 .18-.414c.096-.108.228-.162.396-.162h1.656c.084 0 .156.036.216.108a.29.29 0 0 1 .108.234c0 .06-.018.138-.054.234l-1.152 2.988c-.06.144-.138.252-.234.324-.084.084-.204.126-.36.126h-.918zm9.376-1.17c-1.596 0-2.79-.444-3.582-1.332-.78-.888-1.206-2.052-1.278-3.492l-.018-1.656.018-1.692c.06-1.416.492-2.568 1.296-3.456s1.992-1.332 3.564-1.332c1.584 0 2.778.444 3.582 1.332s1.23 2.04 1.278 3.456c.024.336.036.9.036 1.692l-.036 1.656c-.06 1.44-.486 2.604-1.278 3.492-.78.888-1.974 1.332-3.582 1.332zm0-2.07c.756 0 1.32-.246 1.692-.738.372-.504.57-1.206.594-2.106l.036-1.584-.036-1.566c-.024-.888-.222-1.584-.594-2.088s-.936-.756-1.692-.756c-.744 0-1.308.252-1.692.756-.372.504-.57 1.2-.594 2.088l-.018 1.566.018 1.584c.024.9.222 1.602.594 2.106.384.492.948.738 1.692.738zm11.83 2.07c-1.596 0-2.79-.444-3.582-1.332-.78-.888-1.206-2.052-1.278-3.492l-.018-1.656.018-1.692c.06-1.416.492-2.568 1.296-3.456s1.992-1.332 3.564-1.332c1.584 0 2.778.444 3.582 1.332s1.23 2.04 1.278 3.456c.024.336.036.9.036 1.692l-.036 1.656c-.06 1.44-.486 2.604-1.278 3.492-.78.888-1.974 1.332-3.582 1.332zm0-2.07c.756 0 1.32-.246 1.692-.738.372-.504.57-1.206.594-2.106l.036-1.584-.036-1.566c-.024-.888-.222-1.584-.594-2.088s-.936-.756-1.692-.756c-.744 0-1.308.252-1.692.756-.372.504-.57 1.2-.594 2.088l-.018 1.566.018 1.584c.024.9.222 1.602.594 2.106.384.492.948.738 1.692.738zm11.83 2.07c-1.596 0-2.79-.444-3.582-1.332-.78-.888-1.206-2.052-1.278-3.492l-.018-1.656.018-1.692c.06-1.416.492-2.568 1.296-3.456s1.992-1.332 3.564-1.332c1.584 0 2.778.444 3.582 1.332s1.23 2.04 1.278 3.456c.024.336.036.9.036 1.692l-.036 1.656c-.06 1.44-.486 2.604-1.278 3.492-.78.888-1.974 1.332-3.582 1.332zm0-2.07c.756 0 1.32-.246 1.692-.738.372-.504.57-1.206.594-2.106l.036-1.584-.036-1.566c-.024-.888-.222-1.584-.594-2.088s-.936-.756-1.692-.756c-.744 0-1.308.252-1.692.756-.372.504-.57 1.2-.594 2.088l-.018 1.566.018 1.584c.024.9.222 1.602.594 2.106.384.492.948.738 1.692.738zM273.048 46c-.1 0-.185-.035-.255-.105s-.105-.155-.105-.255v-9.765a.4.4 0 0 1 .09-.27c.07-.07.16-.105.27-.105h1.155c.12 0 .21.025.27.075.06.04.115.095.165.165l4.32 6.72v-6.585a.4.4 0 0 1 .09-.27c.07-.07.16-.105.27-.105h1.26c.11 0 .2.035.27.105s.105.16.105.27v9.75c0 .11-.035.2-.105.27s-.155.105-.255.105h-1.17a.53.53 0 0 1-.435-.24l-4.305-6.57v6.45c0 .11-.035.2-.105.27a.4.4 0 0 1-.27.09h-1.26zm13.515.15c-1.17 0-2.075-.3-2.715-.9-.64-.61-.985-1.44-1.035-2.49l-.015-.66.015-.66c.05-1.04.4-1.865 1.05-2.475s1.55-.915 2.7-.915 2.05.305 2.7.915 1 1.435 1.05 2.475a9.48 9.48 0 0 1 .015.66l-.015.66c-.05 1.05-.395 1.88-1.035 2.49-.64.6-1.545.9-2.715.9zm0-1.485c.53 0 .94-.165 1.23-.495.29-.34.45-.835.48-1.485.01-.1.015-.295.015-.585l-.015-.585c-.03-.65-.19-1.14-.48-1.47-.29-.34-.7-.51-1.23-.51s-.94.17-1.23.51c-.29.33-.45.82-.48 1.47l-.015.585.015.585c.03.65.19 1.145.48 1.485.29.33.7.495 1.23.495zm-39.116 22.533c-.996 0-1.854-.168-2.574-.504-.708-.336-1.254-.78-1.638-1.332-.372-.552-.57-1.146-.594-1.782v-.036a.29.29 0 0 1 .108-.234c.072-.06.162-.09.27-.09h1.674c.276 0 .456.12.54.36.168.528.444.918.828 1.17.396.252.858.378 1.386.378.672 0 1.23-.204 1.674-.612.456-.408.684-.978.684-1.71 0-.648-.228-1.176-.684-1.584-.444-.408-1.002-.612-1.674-.612-.36 0-.654.048-.882.144s-.45.228-.666.396l-.342.234a.6.6 0 0 1-.27.054h-1.656a.43.43 0 0 1-.396-.396l.63-6.156c.012-.144.06-.258.144-.342a.49.49 0 0 1 .36-.144h6.768c.12 0 .222.042.306.126s.126.186.126.306v1.206c0 .12-.042.222-.126.306s-.186.126-.306.126h-5.202l-.288 2.934c.588-.408 1.374-.612 2.358-.612.78 0 1.5.168 2.16.504a3.83 3.83 0 0 1 1.602 1.422c.396.612.594 1.326.594 2.142 0 .876-.204 1.644-.612 2.304-.408.648-.984 1.152-1.728 1.512-.732.348-1.59.522-2.574.522zm6.612 1.152a.31.31 0 0 1-.252-.108c-.06-.072-.084-.162-.072-.27l.486-3.06a.77.77 0 0 1 .18-.414c.096-.108.228-.162.396-.162h1.656c.084 0 .156.036.216.108a.29.29 0 0 1 .108.234c0 .06-.018.138-.054.234l-1.152 2.988c-.06.144-.138.252-.234.324-.084.084-.204.126-.36.126h-.918zm6.204-1.35c-.108 0-.198-.036-.27-.108a.43.43 0 0 1-.108-.288c0-.084.024-.162.072-.234l2.646-3.654c-.264.06-.51.084-.738.072-.804-.024-1.536-.222-2.196-.594a4.21 4.21 0 0 1-1.566-1.512 4.06 4.06 0 0 1-.558-2.088c0-.756.186-1.464.558-2.124.372-.672.924-1.212 1.656-1.62.732-.42 1.614-.63 2.646-.63s1.92.198 2.664.594c.744.384 1.302.906 1.674 1.566.384.648.576 1.362.576 2.142 0 .48-.078.936-.234 1.368s-.336.81-.54 1.134l-.828 1.224-3.168 4.392c-.072.108-.156.198-.252.27-.084.06-.204.09-.36.09h-1.674zm2.16-6.12c.66 0 1.212-.204 1.656-.612.456-.42.684-.978.684-1.674s-.228-1.254-.684-1.674c-.444-.42-.996-.63-1.656-.63s-1.218.21-1.674.63c-.444.42-.666.978-.666 1.674s.222 1.254.666 1.674c.444.408 1.002.612 1.674.612zm8.95 6.12c-.108 0-.198-.036-.27-.108a.43.43 0 0 1-.108-.288c0-.084.024-.162.072-.234l2.646-3.654c-.264.06-.51.084-.738.072-.804-.024-1.536-.222-2.196-.594a4.21 4.21 0 0 1-1.566-1.512 4.06 4.06 0 0 1-.558-2.088c0-.756.186-1.464.558-2.124.372-.672.924-1.212 1.656-1.62.732-.42 1.614-.63 2.646-.63s1.92.198 2.664.594c.744.384 1.302.906 1.674 1.566.384.648.576 1.362.576 2.142 0 .48-.078.936-.234 1.368s-.336.81-.54 1.134l-.828 1.224-3.168 4.392c-.072.108-.156.198-.252.27-.084.06-.204.09-.36.09h-1.674zm2.16-6.12c.66 0 1.212-.204 1.656-.612.456-.42.684-.978.684-1.674s-.228-1.254-.684-1.674c-.444-.42-.996-.63-1.656-.63s-1.218.21-1.674.63c-.444.42-.666.978-.666 1.674s.222 1.254.666 1.674c.444.408 1.002.612 1.674.612zm11.541 6.3c-1.596 0-2.79-.444-3.582-1.332-.78-.888-1.206-2.052-1.278-3.492l-.018-1.656.018-1.692c.06-1.416.492-2.568 1.296-3.456s1.992-1.332 3.564-1.332c1.584 0 2.778.444 3.582 1.332s1.23 2.04 1.278 3.456c.024.336.036.9.036 1.692l-.036 1.656c-.06 1.44-.486 2.604-1.278 3.492-.78.888-1.974 1.332-3.582 1.332zm0-2.07c.756 0 1.32-.246 1.692-.738.372-.504.57-1.206.594-2.106l.036-1.584-.036-1.566c-.024-.888-.222-1.584-.594-2.088s-.936-.756-1.692-.756c-.744 0-1.308.252-1.692.756-.372.504-.57 1.2-.594 2.088l-.018 1.566.018 1.584c.024.9.222 1.602.594 2.106.384.492.948.738 1.692.738z" fill="#fff"/><path d="M191 191C140.408 99.831 51.592 24.75 1 1v190h190z" fill="url(#A)"/><path d="M1 1c50.592 23.75 139.408 98.831 190 190" stroke="#89cd00" stroke-width="2"/><path d="M206 191C256.592 99.831 345.408 24.75 396 1v190H206z" fill="url(#B)"/><path d="M396 1c-50.592 23.75-139.408 98.831-190 190" stroke="#e74b17" stroke-width="2"/><path fill="#262b33" d="M198 1h1v190h-1z"/><defs><linearGradient id="A" x1="96" y1="1" x2="96" y2="191" gradientUnits="userSpaceOnUse"><stop stop-color="#89cd00" stop-opacity=".5"/><stop offset="1" stop-color="#89cd00" stop-opacity="0"/></linearGradient><linearGradient id="B" x1="301" y1="1" x2="301" y2="191" gradientUnits="userSpaceOnUse"><stop stop-color="#e74b17" stop-opacity=".5"/><stop offset="1" stop-color="#e74b17" stop-opacity="0"/></linearGradient></defs></svg>