<svg width="33" height="41" viewBox="0 0 33 41" fill="none" xmlns="http://www.w3.org/2000/svg">
<path d="M8.21244 36.4436L13.9202 22.6643L9.3366 20.7656L2.76044 36.6414C2.4834 37.3103 3.1102 37.9995 3.80228 37.7872L7.53116 36.6429C7.6418 36.609 7.74828 36.5987 7.85788 36.6093L8.21244 36.4436Z" fill="#FFE07D"/>
<path d="M13.6757 22.5625L7.85742 36.6087C8.13902 36.6338 8.39886 36.7972 8.53798 37.0595L10.3655 40.5055C10.7047 41.1451 11.6353 41.1008 11.9125 40.432L18.4886 24.5562L13.6757 22.5625Z" fill="#FFD064"/>
<path d="M18.6597 22.5088L13.7188 24.5555L20.2949 40.4313C20.5719 41.1002 21.5026 41.1444 21.8419 40.5048L23.6694 37.0589C23.7256 36.9528 23.8017 36.8627 23.8909 36.7914L24.3384 36.2259L18.6597 22.5088Z" fill="#FFE07D"/>
<path d="M29.4474 36.6405L22.8713 20.7646L18.0752 22.7513L23.8914 36.7922C24.107 36.62 24.3992 36.5568 24.6767 36.6419L28.4056 37.7862C29.0978 37.9987 29.7246 37.3094 29.4474 36.6405Z" fill="#FFD064"/>
<path d="M17.7552 0.57552C18.4429 1.1212 19.3559 1.29184 20.1944 1.03152C21.3734 0.66536 22.6492 1.15968 23.2739 2.22456C23.7181 2.98184 24.5077 3.4708 25.3836 3.53088C26.6153 3.61536 27.6264 4.5372 27.8243 5.75584C27.9649 6.62248 28.5247 7.3636 29.3197 7.73608C30.4377 8.25984 31.0476 9.48464 30.7918 10.6924C30.6099 11.5513 30.864 12.4446 31.4708 13.0791C32.3241 13.9714 32.4504 15.3338 31.7756 16.3676C31.2956 17.1028 31.21 18.0276 31.5466 18.8385C32.02 19.9787 31.6455 21.2947 30.6428 22.015C29.9298 22.5271 29.5158 23.3586 29.5368 24.2362C29.5663 25.4705 28.7417 26.5623 27.5465 26.8718C26.6966 27.0918 26.0102 27.7175 25.7127 28.5435C25.2944 29.705 24.131 30.4254 22.9048 30.2821C22.0328 30.1802 21.1667 30.5157 20.5908 31.1785C19.7812 32.1105 18.4362 32.3618 17.3445 31.7854C16.5682 31.3754 15.6394 31.3754 14.8631 31.7854C13.7714 32.3619 12.4264 32.1105 11.6168 31.1785C11.0409 30.5157 10.1749 30.1802 9.30284 30.2821C8.0766 30.4254 6.91332 29.705 6.49492 28.5435C6.1974 27.7175 5.51108 27.0918 4.66108 26.8718C3.46588 26.5624 2.64132 25.4705 2.67084 24.2362C2.6918 23.3586 2.2778 22.5271 1.56476 22.015C0.562039 21.2947 0.187639 19.9787 0.660999 18.8385C0.997639 18.0276 0.911959 17.1028 0.432039 16.3676C-0.242761 15.3338 -0.116521 13.9714 0.736759 13.0791C1.34356 12.4446 1.59772 11.5513 1.41588 10.6924C1.16012 9.48464 1.76996 8.25976 2.88796 7.73608C3.683 7.3636 4.24268 6.62248 4.3834 5.75584C4.58116 4.5372 5.59236 3.61544 6.82404 3.53088C7.69996 3.4708 8.48956 2.98184 8.9338 2.22456C9.55844 1.15968 10.8344 0.66544 12.0133 1.03152C12.8518 1.29192 13.7648 1.1212 14.4525 0.57552C15.4197 -0.19184 16.788 -0.19184 17.7552 0.57552Z" fill="#E8AE4D"/>
<path d="M23.3522 16.0456C23.3522 10.6292 19.8579 6.02918 15.0008 4.37598C9.04473 4.93182 4.38281 9.94422 4.38281 16.0456C4.38281 22.1469 9.04473 27.1593 15.0008 27.7152C19.858 26.062 23.3522 21.4621 23.3522 16.0456Z" fill="#FFE07D"/>
<path d="M16.1036 4.3252C15.2063 4.3252 14.3327 4.4264 13.4932 4.61736C18.7098 5.80392 22.6036 10.4701 22.6036 16.046C22.6036 21.6219 18.7098 26.2881 13.4932 27.4746C14.3327 27.6656 15.2063 27.7668 16.1036 27.7668C22.5768 27.7668 27.8244 22.5192 27.8244 16.046C27.8244 9.5728 22.5768 4.3252 16.1036 4.3252Z" fill="#FFD064"/>
<path d="M16.4263 20.5445L20.4716 23.2675C20.6307 23.3746 20.8064 23.3903 20.9603 23.343C21.1032 23.1487 21.2407 22.95 21.3724 22.7473C21.3692 22.7087 21.3621 22.6691 21.3507 22.629L20.011 17.9402C19.9464 17.7139 20.0252 17.471 20.2106 17.3259L23.3 14.9075C23.2488 14.3475 23.16 13.7983 23.0363 13.2624L18.8414 13.1119C18.6062 13.1035 18.3996 12.9534 18.3189 12.7323L16.6466 8.15146C16.4616 7.64482 15.7451 7.64482 15.5601 8.15146L13.8879 12.7322C13.8072 12.9532 13.6006 13.1034 13.3654 13.1118L8.49212 13.2866C7.95308 13.3059 7.73172 13.9874 8.15636 14.3199L11.9962 17.3258C12.1815 17.4708 12.2604 17.7137 12.1958 17.94L10.8561 22.6288C10.708 23.1475 11.2876 23.5686 11.7351 23.2675L15.7804 20.5444C15.9757 20.4131 16.2311 20.4131 16.4263 20.5445Z" fill="#E8AE4D"/>
<path d="M20.4719 23.2671C20.9194 23.5683 21.499 23.1471 21.3509 22.6285L21.108 21.7783C20.8473 22.2422 20.5556 22.6864 20.2363 23.1086L20.4719 23.2671Z" fill="#E5A32E"/>
<path d="M23.7146 13.2865L22.2637 13.2344C22.4408 13.9537 22.5512 14.6992 22.5886 15.464L24.0503 14.3197C24.475 13.9873 24.2535 13.3058 23.7146 13.2865Z" fill="#E5A32E"/>
</svg>
