<svg width="351" height="351" viewBox="0 0 351 351" fill="none" xmlns="http://www.w3.org/2000/svg">
<path d="M43.8715 60.2159C107.283 -12.731 217.815 -20.4572 290.758 42.951C363.701 106.359 371.432 216.89 308.02 289.837C244.611 362.78 134.08 370.508 61.1373 307.099C-11.8056 243.691 -19.5375 133.16 43.8715 60.2159Z" fill="white"/>
<path d="M158.702 198.049C157.589 191.755 152.748 186.932 147.92 183.093C108.081 151.373 50.0802 145.425 1.43843 161.094C1.03263 166.131 0.862801 171.197 0.894471 176.271C22.9712 168.278 48.4218 167.473 71.0897 168.508C88.2527 169.29 120.702 169.938 127.615 190.012C133.032 205.731 95.9716 207.135 87.9893 207.653C60.5628 209.434 32.5785 209.964 5.64293 215.421C6.45854 218.825 7.3354 222.225 8.36099 225.604C13.6698 225.6 19.0174 225.596 24.4081 226.105C43.0668 227.877 61.7449 228.869 80.468 227.513C101.242 226.009 123.786 224.454 142.88 215.303C149.031 212.354 160.232 206.676 158.702 198.049ZM42.8223 194.695C54.3113 194.274 66.8451 196.024 78.1487 193.814C82.2631 193.009 95.6437 190.036 87.5774 185.086C84.177 182.998 80.5495 181.253 76.6363 180.35C52.3636 174.748 25.8175 181.757 1.65625 190.789C1.93236 193.845 2.29408 196.898 2.73488 199.947C15.8862 197.022 29.2706 195.192 42.8223 194.695ZM329.402 90.9839C326.532 85.7811 323.431 80.7839 320.124 75.992C307.267 82.515 292.248 85.6763 278.546 86.7478C254.497 88.63 231.943 80.6735 210.572 70.3641C186.71 58.8581 164.553 43.4765 139.348 34.8678C123.805 29.5617 107.285 26.125 90.7777 27.2613C87.5528 27.4829 84.3352 27.8176 81.1274 28.1783C77.2919 30.6503 73.5658 33.2277 69.9783 35.9441C102.328 32.4671 134.96 38.9737 165.353 57.019C195.46 74.892 220.985 99.7769 252.151 115.925C268.151 124.21 285.239 130.869 303.125 133.65C316.721 135.769 332.669 138.871 346.542 135.47C342.97 120.284 337.312 105.322 329.402 90.9839ZM275.743 43.9833C268.307 28.8258 248.703 19.6683 233.773 13.8834C222.91 9.67133 211.803 6.13584 200.845 2.18885C200.335 2.11495 199.826 2.06931 199.322 1.99903C221.795 10.05 244.738 21.839 238.122 32.948C228.545 49.033 202.813 29.6275 193.046 23.2753C182.763 16.5829 171.854 7.78738 160.283 1.09003C153.674 1.67534 147.065 2.60175 140.495 3.95486C162.073 13.6761 182.052 26.6463 201.832 39.5467C213.843 47.3784 226.273 56.1735 240.181 60.2629C249.928 63.127 285.163 63.184 275.743 43.9833ZM252.612 196.041C252.362 211.82 225.738 222.377 214.513 228.197C190.13 240.834 162.981 249.629 136.22 255.599C107.632 261.975 79.1366 265.188 49.8605 265.362C42.0034 265.407 34.2671 265.628 26.5385 266.067C32.2595 275.44 38.7599 284.066 45.8712 291.974C95.017 292.764 144.634 283.014 187.853 260.025C224.027 240.785 254.314 214.699 286.668 190.042C299.334 180.389 313.234 171.927 329.038 168.617C336.234 167.111 343.568 166.142 350.807 164.886C350.558 160.726 350.17 156.564 349.62 152.408C328.982 157.035 306.298 155.283 286.438 150.867C250.64 142.902 220.054 124.652 186.727 110.276C136.892 88.7761 64.5457 75.6874 15.3338 105.69C10.6941 116.446 7.10546 127.633 4.69374 139.086C17.0151 135.892 30.2232 134.763 41.8438 133.464C67.5027 130.584 95.0509 132.908 120.182 138.686C150.888 145.745 180.784 155.837 210.033 167.512C222.165 172.357 252.891 178.614 252.612 196.041ZM282.873 286.613C274.823 297.263 279.942 304.3 288.993 308.759C306.014 294.417 319.786 277.249 329.958 258.307C311.9 263.52 292.751 273.547 282.873 286.613ZM235.164 324.58C242.806 323.665 251.715 325.279 258.967 329.172C259.484 328.894 260.005 328.654 260.521 328.371C264.371 326.258 268.064 323.979 271.687 321.626C255.854 319.387 243.198 313.342 245.055 299.501C247.077 284.419 270.265 271.264 281.792 264.668C299.278 254.664 317.916 248.297 337.125 243.287C338.608 239.758 339.871 236.142 341.129 232.53C301.007 244.082 264.264 267.323 236.611 298.596C222.077 315.034 208.52 333.573 192.584 349.145C196.026 348.827 199.465 348.377 202.9 347.853C211.473 337.252 221.364 326.23 235.164 324.58ZM221.708 334.779C217.43 338.435 213.604 342.474 209.941 346.668C225.582 343.631 241.025 338.346 255.874 330.763C245.095 325.528 230.417 327.335 221.708 334.779ZM185.653 331.815C184.092 321.658 161.7 335.09 158.201 337.245C153.628 340.061 149.06 343.458 144.428 346.897C155.303 348.909 166.367 349.941 177.504 349.876C182.042 344.176 186.526 337.487 185.653 331.815ZM250.292 265.31C275.086 247.237 299.383 230.454 327.612 218.163C333.48 215.61 340.377 212.2 347.532 209.623C349.066 201.963 350.136 194.203 350.639 186.377C329.851 194.342 309.356 202.52 289.99 214.389C261.925 231.585 236.62 251.952 209.845 270.947C184.225 289.122 157.101 302.877 126.81 311.458C111.888 315.687 96.9858 319.589 81.617 321.817C81.43 321.845 81.2492 321.868 81.0645 321.894C89.971 327.637 99.3836 332.468 109.103 336.494C161.071 326.703 208.358 295.874 250.292 265.31Z" fill="black"/>
<path style="mix-blend-mode:multiply" opacity="0.302" d="M350.932 175.047C350.932 271.667 272.601 349.984 175.974 349.984C79.3475 349.984 1.01758 271.667 1.01758 175.047C1.01758 78.4317 79.3475 0.114258 175.974 0.114258C272.601 0.114258 350.932 78.4317 350.932 175.047Z" fill="url(#paint0_radial)"/>
<path style="mix-blend-mode:screen" opacity="0.8" d="M312.383 100.73C312.383 156.336 251.271 201.429 175.896 201.429C100.501 201.429 39.3906 156.336 39.3906 100.73C39.3906 45.1071 100.501 0.0214844 175.896 0.0214844C251.271 0.0214844 312.383 45.1071 312.383 100.73Z" fill="url(#paint1_linear)"/>
<path style="mix-blend-mode:multiply" opacity="0.2" d="M345.728 158.163C345.728 259.289 269.385 341.253 175.204 341.253C81.0255 341.253 4.68216 259.289 4.68216 158.163C-3.86763 229.028 52.9731 264.459 175.204 264.459C294.997 264.459 351.839 229.028 345.728 158.163Z" fill="url(#paint2_radial)" fill-opacity="0.5"/>
<path opacity="0.2" d="M185.251 6.58301C160.512 10.6381 136.258 17.8348 113.801 28.3684C108.696 30.7638 103.721 33.3916 98.8594 36.2014C105.336 48.1763 111.821 60.1386 118.25 72.1387C136.239 55.8238 156.866 42.4678 179.548 33.302C188.101 29.8433 196.867 26.8998 205.782 24.636C199.195 18.3528 192.349 12.3321 185.251 6.58301Z" fill="url(#paint3_linear)"/>
<path opacity="0.2" d="M83.4874 46.5195C75.0748 52.4863 67.1151 59.0579 59.7287 66.2252C53.8774 88.1569 56.1769 118.487 70.5675 136.493C73.8596 130.652 79.6276 118.713 83.4461 113.067C88.883 105.019 94.8526 97.3367 101.258 90.0532C95.169 75.5912 88.7535 61.2531 83.4874 46.5195Z" fill="url(#paint4_linear)"/>
<path d="M23.2126 111.122C22.8846 111.192 22.5644 111.255 22.2285 111.325C22.5409 111.598 22.8611 111.88 23.1814 112.161L23.3923 112.348L24.4623 113.364C25.2198 114.09 25.9852 114.824 26.7507 115.558C29.8201 118.495 32.952 121.486 36.1464 124.548C42.9491 131.085 50.0017 137.864 57.2731 144.854C54.8284 159.608 52.2433 175.15 49.5566 191.31L49.6659 191.232C51.1655 190.435 52.665 189.646 54.1724 188.842C58.015 186.811 61.8889 184.765 65.794 182.711C74.1978 178.282 82.7266 173.791 91.3491 169.246C99.9794 173.791 108.508 178.282 116.912 182.711C120.809 184.772 124.691 186.811 128.534 188.842C130.041 189.646 131.541 190.435 133.032 191.232L133.142 191.31C130.463 175.15 127.878 159.6 125.425 144.854C132.704 137.864 139.757 131.085 146.56 124.54C149.746 121.486 152.878 118.495 155.948 115.558C156.721 114.824 157.478 114.09 158.244 113.364L159.306 112.348L159.525 112.161C159.736 111.973 159.939 111.794 160.142 111.614L90.49 137.607L23.2126 111.122Z" fill="#FC931B"/>
<path fill-rule="evenodd" clip-rule="evenodd" d="M43.9862 107.803C53.1554 106.319 61.6686 104.937 69.471 103.679C70.0958 102.367 70.7128 101.07 71.322 99.7896C71.7516 98.8758 72.1734 97.9698 72.5951 97.0795C73.423 95.2909 74.2353 93.557 75.0163 91.87C76.5783 88.496 78.0467 85.3251 79.4213 82.365C82.1392 76.437 84.4432 71.3526 86.2708 67.1975C89.2856 60.3557 91.0429 56.0367 91.3475 54.6074C91.6599 56.0367 93.4094 60.3557 96.4242 67.1975C98.2596 71.3526 100.556 76.437 103.282 82.365C104.648 85.3251 106.117 88.496 107.679 91.87C108.468 93.557 109.272 95.2909 110.108 97.0795C110.522 97.9698 110.951 98.8758 111.373 99.7896C111.982 101.07 112.599 102.367 113.224 103.679C121.026 104.937 129.547 106.319 138.709 107.803C143.083 108.498 147.605 109.217 152.267 109.959C154.486 110.31 156.743 110.669 159.031 111.029C159.5 111.13 159.984 111.224 160.476 111.325C160.367 111.419 160.249 111.521 160.14 111.614L90.4884 137.607L23.2109 111.122C23.3671 111.091 23.5233 111.06 23.6717 111.029C25.9601 110.669 28.2095 110.31 30.4276 109.959C35.0981 109.217 39.6203 108.498 43.9862 107.803ZM49.7423 109.74C44.0643 111.122 40.8933 112.208 40.9871 112.856C41.0808 113.512 44.4392 113.653 50.2734 113.348C53.1867 113.2 56.7247 112.934 60.786 112.575C62.8167 112.38 64.9801 112.177 67.2607 111.958C68.401 111.841 69.5725 111.716 70.7675 111.591C71.0643 111.56 71.3689 111.528 71.6735 111.497C72.0484 111.458 72.4311 111.411 72.8138 111.364C73.9229 111.224 75.0553 111.083 76.1878 110.943C76.7502 109.724 77.3203 108.49 77.8983 107.241C78.2341 106.538 78.5778 105.819 78.9214 105.101C79.6009 103.656 80.296 102.172 81.0146 100.664C82.4204 97.634 83.8809 94.4708 85.3883 91.214C86.88 87.9415 88.4109 84.5597 89.9807 81.0919C90.3244 80.3265 90.6758 79.5533 91.0195 78.7723C91.0351 78.7723 91.0429 78.7723 91.0429 78.7723C91.0507 78.7723 91.0585 78.7801 91.0585 78.7879V78.7957C91.0585 78.7879 91.0585 78.7879 91.0585 78.7879H91.0663C91.0742 78.7957 91.0507 78.741 91.1132 78.8894L91.3709 79.4986C91.7068 80.3187 92.0504 81.1231 92.3863 81.9354C93.7453 85.161 95.0808 88.3164 96.3773 91.3858C97.705 94.4474 98.9859 97.4309 100.228 100.313C100.86 101.75 101.477 103.164 102.087 104.554C102.399 105.249 102.704 105.936 103 106.616C103.547 107.889 104.086 109.146 104.617 110.388C105.937 110.56 107.241 110.724 108.538 110.896C109.256 110.974 109.975 111.06 110.678 111.138C112.037 111.286 113.372 111.427 114.669 111.567C117.262 111.833 119.73 112.075 122.05 112.309C126.689 112.747 130.742 113.075 134.093 113.27C140.802 113.668 144.691 113.559 144.793 112.856C144.895 112.153 141.2 110.95 134.655 109.42C131.391 108.654 127.407 107.811 122.831 106.905C120.542 106.467 118.113 106.007 115.544 105.515C114.263 105.28 112.951 105.038 111.599 104.796C110.951 104.679 110.295 104.554 109.631 104.437L109.35 104.327L109.288 104.023C109.022 103.328 108.757 102.633 108.491 101.922C107.952 100.508 107.398 99.0711 106.835 97.6027C105.687 94.6739 104.508 91.6514 103.297 88.5429C102.063 85.45 100.79 82.2635 99.4936 79.0144C97.2755 73.5629 95.0027 68.002 92.6909 62.3474C92.2223 61.2071 91.7536 60.0746 91.2928 58.9421C88.4655 65.4324 85.6851 71.8056 82.9827 78.0225C81.4988 81.5293 80.0461 84.9424 78.6481 88.2539C77.2735 91.5733 75.9379 94.7911 74.6648 97.8761C74.0322 99.4225 73.4152 100.938 72.8138 102.422C72.517 103.164 72.2202 103.898 71.9312 104.624L71.8766 104.757C71.861 104.788 71.8688 104.78 71.8688 104.788L71.8531 104.843L71.8297 104.937L71.7829 105.155C71.6735 105.194 71.5642 105.233 71.4626 105.265L71.4158 105.28C71.4236 105.288 71.2908 105.304 71.2361 105.319L70.7831 105.405C70.4864 105.46 70.1818 105.515 69.885 105.569C68.7056 105.788 67.5497 106.007 66.425 106.225C64.1757 106.663 62.0435 107.084 60.0441 107.483C56.0452 108.295 52.5853 109.053 49.7423 109.74Z" fill="#FCC21B"/>
<path fill-rule="evenodd" clip-rule="evenodd" d="M258.566 135.201L189.727 111.302C190.172 111.208 190.617 111.122 191.054 111.029C193.335 110.669 195.592 110.31 197.81 109.959C202.481 109.217 206.995 108.498 211.369 107.803C220.53 106.319 229.051 104.937 236.853 103.679C237.478 102.367 238.095 101.071 238.705 99.7896C239.134 98.8759 239.556 97.9699 239.97 97.0795C240.805 95.291 241.618 93.5571 242.399 91.8701C243.961 88.496 245.429 85.3251 246.796 82.365C249.522 76.437 251.818 71.3526 253.653 67.1975C256.668 60.3558 258.418 56.0367 258.73 54.6074C259.042 56.0367 260.792 60.3558 263.807 67.1975C265.642 71.3526 267.938 76.437 270.664 82.365C272.031 85.3251 273.499 88.496 275.061 91.8701C275.842 93.5571 276.654 95.291 277.49 97.0795C277.904 97.9699 278.326 98.8759 278.755 99.7896C279.365 101.071 279.982 102.367 280.606 103.679C288.409 104.937 296.93 106.319 306.091 107.803C310.465 108.498 314.979 109.217 319.65 109.959C321.868 110.31 324.125 110.669 326.406 111.029C326.882 111.13 327.366 111.224 327.851 111.325C327.538 111.599 327.226 111.88 326.906 112.161L326.726 112.317L258.566 135.201ZM257.715 81.0919C258.058 80.3265 258.41 79.5533 258.761 78.7723C258.769 78.7723 258.777 78.7723 258.777 78.7723C258.785 78.7723 258.792 78.7801 258.792 78.7879V78.7957C258.792 78.7879 258.792 78.7879 258.8 78.7879C258.808 78.7957 258.785 78.7411 258.847 78.8894L259.105 79.4986C259.441 80.3187 259.784 81.1232 260.12 81.9354C261.479 85.1611 262.815 88.3164 264.119 91.3858C265.439 94.4474 266.72 97.4309 267.969 100.313C268.594 101.75 269.219 103.164 269.82 104.554C270.133 105.249 270.437 105.936 270.734 106.616C271.281 107.889 271.82 109.146 272.351 110.388C273.671 110.56 274.975 110.724 276.272 110.896C276.99 110.974 277.709 111.06 278.412 111.138C279.771 111.286 281.106 111.427 282.403 111.567C284.996 111.833 287.464 112.075 289.783 112.309C294.423 112.747 298.476 113.075 301.835 113.27C308.536 113.668 312.425 113.559 312.527 112.856C312.628 112.153 308.934 110.95 302.389 109.42C299.124 108.654 295.141 107.811 290.572 106.905C288.284 106.467 285.847 106.007 283.285 105.515C281.997 105.28 280.685 105.038 279.333 104.796C278.685 104.679 278.029 104.554 277.365 104.437L277.084 104.327L277.021 104.023C276.764 103.328 276.498 102.633 276.225 101.922C275.686 100.508 275.131 99.0711 274.569 97.6028C273.429 94.6739 272.242 91.6514 271.031 88.5429C269.797 85.4501 268.524 82.2635 267.227 79.0144C265.009 73.5629 262.737 68.002 260.425 62.3474C259.956 61.2071 259.488 60.0746 259.027 58.9421C256.199 65.4324 253.419 71.8056 250.717 78.0225C249.233 81.5293 247.78 84.9424 246.382 88.2539C245.007 91.5733 243.672 94.7911 242.399 97.8761C241.766 99.4226 241.149 100.938 240.548 102.422C240.251 103.164 239.954 103.898 239.665 104.624L239.611 104.757C239.603 104.788 239.603 104.78 239.603 104.788L239.587 104.843L239.564 104.937L239.517 105.155C239.407 105.194 239.306 105.233 239.197 105.265L239.158 105.28C239.158 105.288 239.025 105.304 238.97 105.319L238.517 105.405C238.22 105.46 237.923 105.515 237.627 105.569C236.44 105.788 235.284 106.007 234.159 106.225C231.91 106.663 229.777 107.084 227.778 107.483C223.779 108.295 220.319 109.053 217.476 109.74C211.798 111.122 208.627 112.208 208.721 112.856C208.823 113.512 212.173 113.653 218.007 113.348C220.921 113.2 224.459 112.934 228.52 112.575C230.551 112.38 232.714 112.177 234.995 111.958C236.135 111.841 237.307 111.716 238.501 111.591C238.798 111.56 239.103 111.528 239.407 111.497C239.782 111.458 240.165 111.411 240.548 111.364C241.657 111.224 242.789 111.083 243.93 110.943C244.492 109.724 245.062 108.49 245.632 107.241C245.968 106.538 246.312 105.819 246.655 105.101C247.335 103.656 248.038 102.172 248.748 100.664C250.154 97.634 251.615 94.4709 253.13 91.214C254.614 87.9415 256.145 84.5597 257.715 81.0919Z" fill="#FCC21B"/>
<path d="M313.935 124.54C317.129 121.486 320.261 118.495 323.331 115.558C324.096 114.824 324.861 114.09 325.619 113.364L326.689 112.348L326.728 112.317L258.568 135.201L189.729 111.302C189.689 111.31 189.65 111.317 189.611 111.325C189.924 111.599 190.236 111.88 190.556 112.161L190.775 112.348L191.845 113.364C192.603 114.09 193.368 114.824 194.133 115.558C197.203 118.495 200.335 121.486 203.529 124.548C210.332 131.085 217.385 137.864 224.656 144.855C222.203 159.608 219.626 175.15 216.939 191.31L217.049 191.232C218.548 190.435 220.048 189.646 221.555 188.842C225.398 186.811 229.272 184.765 233.177 182.711C241.581 178.282 250.102 173.791 258.732 169.246C267.362 173.791 275.883 178.282 284.295 182.711C288.192 184.773 292.066 186.811 295.917 188.842C297.416 189.646 298.916 190.435 300.415 191.232L300.525 191.31C297.838 175.15 295.261 159.6 292.808 144.855C300.08 137.864 307.132 131.085 313.935 124.54Z" fill="#FC931B"/>
<path d="M200.013 263.727C212.83 266.843 223.756 273.06 234.058 280.433C236.315 277.91 238.416 275.341 240.353 272.763C244.844 266.789 248.507 260.798 251.577 255.175C254.935 248.981 257.583 243.241 259.715 238.203C248.195 241.171 223.335 245.396 175.044 245.396C126.745 245.396 101.885 241.171 90.3652 238.203C92.4974 243.241 95.1451 248.981 98.5035 255.175C101.573 260.798 105.244 266.789 109.727 272.763C111.469 275.083 113.335 277.395 115.342 279.668C140.374 264.477 169.132 256.174 200.013 263.727Z" fill="#8B272D"/>
<path d="M200.013 263.726C169.131 256.174 140.374 264.476 115.342 279.667C118.497 283.267 121.996 286.774 125.878 290.047C132.188 295.428 139.639 300.02 147.981 303.191C156.307 306.386 165.515 308.096 175.043 308.112C184.564 308.096 193.78 306.386 202.106 303.191C210.439 300.02 217.89 295.428 224.201 290.047C227.809 287.009 231.074 283.759 234.057 280.432C223.756 273.059 212.829 266.842 200.013 263.726Z" fill="#C1272D"/>
<path d="M259.714 238.201C261.472 234.054 262.877 230.375 264.025 227.314C265.978 222.081 267.15 218.613 267.821 217.332C266.931 217.98 264.83 219.058 261.581 220.152C257.012 221.729 250.233 223.432 241.758 224.838C233.292 226.259 223.131 227.423 211.83 228.196C200.528 228.946 188.094 229.305 175.043 229.352C161.993 229.305 149.551 228.946 138.249 228.196C126.948 227.423 116.787 226.259 108.321 224.838C99.8465 223.432 93.0672 221.729 88.4982 220.152C85.2569 219.058 83.1482 217.98 82.2578 217.332C82.9295 218.613 84.1088 222.081 86.0536 227.314C87.2017 230.375 88.6075 234.054 90.3648 238.201C101.885 241.169 126.745 245.394 175.043 245.394C223.334 245.394 248.194 241.169 259.714 238.201Z" fill="white"/>
<path fill-rule="evenodd" clip-rule="evenodd" d="M351 174.431C350.961 183.249 350.305 192.137 348.993 201.025C348.626 203.236 348.251 205.454 347.876 207.68C347.423 209.89 346.931 212.092 346.454 214.311L346.087 215.974C345.962 216.521 345.806 217.068 345.658 217.614L344.775 220.91L343.893 224.206C343.557 225.3 343.198 226.377 342.854 227.471L341.807 230.735L341.276 232.368C341.089 232.907 340.878 233.446 340.683 233.985C339.87 236.125 339.058 238.28 338.254 240.436C337.34 242.545 336.418 244.661 335.504 246.785L334.809 248.379L334.044 249.933L332.505 253.049L330.959 256.173L329.264 259.219L327.561 262.281C327.272 262.789 326.999 263.296 326.702 263.804L325.773 265.288C324.539 267.272 323.289 269.256 322.047 271.239C320.704 273.168 319.368 275.09 318.025 277.027C312.488 284.634 306.341 291.866 299.648 298.653C292.868 305.339 285.636 311.485 278.021 317.023C276.092 318.366 274.163 319.71 272.242 321.045C270.25 322.295 268.266 323.537 266.29 324.779L264.798 325.7C264.299 325.997 263.783 326.278 263.275 326.559L260.222 328.262L257.176 329.957L254.051 331.503L250.935 333.042L249.373 333.815L247.788 334.502C245.663 335.424 243.547 336.338 241.43 337.251C239.275 338.064 237.127 338.868 234.979 339.68C234.44 339.876 233.909 340.087 233.37 340.274L231.738 340.805L228.465 341.852C227.38 342.195 226.294 342.562 225.208 342.89L221.905 343.781L218.616 344.663C218.07 344.804 217.523 344.968 216.968 345.093L215.313 345.452C213.095 345.929 210.892 346.429 208.682 346.882C206.456 347.256 204.238 347.623 202.02 347.998C193.139 349.303 184.244 349.959 175.434 349.998C166.616 349.927 157.9 349.248 149.355 347.998C140.811 346.717 132.485 344.726 124.394 342.328C122.386 341.672 120.379 341.024 118.388 340.376C117.38 340.071 116.412 339.673 115.428 339.306C114.451 338.931 113.475 338.564 112.499 338.189C111.522 337.822 110.554 337.447 109.578 337.08C108.617 336.681 107.672 336.252 106.719 335.838C104.821 335.002 102.916 334.205 101.049 333.331C97.3703 331.48 93.6526 329.738 90.1458 327.668C89.2633 327.168 88.3729 326.669 87.4903 326.177L86.1704 325.427L84.8895 324.615C83.1791 323.537 81.4686 322.467 79.7738 321.397C73.1195 316.914 66.7073 312.235 60.8887 307.026C57.8817 304.542 55.1638 301.777 52.3755 299.138C51.6726 298.489 51.0087 297.786 50.3605 297.091C49.7044 296.396 49.0483 295.701 48.3923 295.006C47.7362 294.311 47.088 293.623 46.4397 292.928C45.7837 292.241 45.1354 291.554 44.534 290.82C42.105 287.922 39.5745 285.142 37.372 282.142C36.2474 280.659 35.1071 279.198 34.0058 277.722C32.9593 276.207 31.9127 274.691 30.8739 273.184C22.5872 261.117 16.3 248.348 11.6139 235.625C6.93553 222.894 3.90516 210.155 2.38997 197.839C0.827921 185.53 0.656092 173.666 1.50741 162.536C2.35091 151.407 4.22538 141.019 6.71685 131.522C8.57569 124.298 10.9031 117.612 13.3946 111.457C11.8794 109.95 10.372 108.458 8.88028 106.99C11.1687 106.67 13.4336 106.357 15.6908 106.045C15.7299 105.943 15.7767 105.842 15.8158 105.748C16.2453 104.788 16.6749 103.842 17.0966 102.905C17.5106 101.968 17.9323 101.039 18.401 100.156C19.3226 98.3675 20.2129 96.618 21.0877 94.9154C21.3064 94.4937 21.5251 94.0641 21.7437 93.6501C21.978 93.2362 22.2124 92.8301 22.4467 92.424C22.9153 91.6195 23.3761 90.8229 23.8291 90.034C24.2821 89.2452 24.7351 88.472 25.1802 87.6987C25.6254 86.9333 26.0472 86.1758 26.5314 85.4572C30.2179 79.6308 33.7637 74.6478 37.0518 70.5006C38.731 68.4465 40.2462 66.533 41.7067 64.846C43.2141 63.198 44.5731 61.7063 45.7993 60.3707C46.4163 59.7069 46.9708 59.0664 47.541 58.5119C48.1189 57.9574 48.65 57.4419 49.1421 56.9655C50.134 56.0204 50.9697 55.2316 51.6569 54.6068C53.0237 53.3571 53.7657 52.7714 53.8594 52.8651C53.9532 52.9588 53.3986 53.732 52.2271 55.1613C51.6413 55.872 50.8994 56.7468 50.009 57.7699C49.5638 58.2854 49.0796 58.8399 48.5563 59.4335C48.0408 60.0271 47.5331 60.7066 46.9708 61.4017C46.4866 62.0031 45.9711 62.6357 45.44 63.2996C44.7371 64.1743 43.9951 65.0959 43.2063 66.0722C41.8551 67.8217 40.4571 69.7899 38.895 71.883C35.8412 76.124 32.5453 81.1694 29.1244 87.0114C28.6792 87.73 28.2809 88.4876 27.867 89.2608C27.4608 90.0262 27.0391 90.7994 26.6173 91.5882C26.1956 92.3771 25.766 93.1737 25.3365 93.9782C25.1178 94.3765 24.8991 94.7826 24.6804 95.1966C24.4851 95.6105 24.2821 96.0323 24.079 96.454C23.2745 98.1489 22.4467 99.8905 21.5953 101.663C21.158 102.546 20.7753 103.46 20.3926 104.389C20.2442 104.741 20.0958 105.1 19.9474 105.451C20.6659 105.35 21.3923 105.256 22.103 105.155C24.6335 104.819 27.1328 104.483 29.5852 104.155C34.2714 103.538 38.8091 102.944 43.1985 102.366C47.58 101.804 51.8132 101.257 55.8823 100.726C57.9208 100.468 59.9124 100.211 61.8649 99.9686C62.8412 99.8437 63.8019 99.7187 64.7626 99.6016L65.4733 99.5078L65.8091 99.4766L66.3793 99.4219C70.0266 92.463 73.3069 86.2148 76.1655 80.7555C79.2115 74.9915 81.8513 70.071 84.0382 66.0878C88.4041 58.1214 90.9581 53.896 91.3486 54.0913C91.7391 53.896 94.3009 58.1214 98.6668 66.0878C100.854 70.071 103.486 74.9915 106.532 80.7555C109.398 86.2148 112.671 92.463 116.318 99.4219L116.888 99.4766L117.224 99.5078L117.942 99.6016C118.895 99.7187 119.864 99.8437 120.84 99.9686C122.785 100.211 124.784 100.468 126.815 100.726C130.884 101.257 135.117 101.804 139.507 102.366C143.888 102.944 148.426 103.538 153.112 104.155C155.572 104.483 158.064 104.819 160.594 105.155C164.937 105.756 169.349 106.365 173.817 106.99C161.274 119.408 147.614 132.936 133.071 147.338C134.43 155.015 135.836 162.896 137.265 170.956C139.218 182.132 141.209 193.559 143.248 205.212C126.479 196.425 109.125 187.326 91.3486 178.016C73.5803 187.326 56.2259 196.425 39.4574 205.212C41.488 193.559 43.4875 182.132 45.4322 170.964C46.8693 162.896 48.2673 155.015 49.6341 147.338C37.9422 135.763 26.836 124.766 16.4094 114.441C14.3475 120.072 12.4417 126.109 10.9266 132.584C9.5129 138.481 8.34137 144.721 7.51348 151.243C7.03706 155.023 6.66218 158.905 6.42787 162.872C5.79524 173.697 6.14669 185.202 7.82589 197.105C9.46604 209.015 12.5589 221.293 17.2294 233.532C21.8921 245.762 28.0856 258.009 36.1849 269.552C37.1924 270.989 38.2155 272.434 39.2387 273.887C40.3087 275.301 41.4256 276.699 42.5268 278.112C44.6668 280.987 47.127 283.634 49.4857 286.407C50.0715 287.102 50.7041 287.766 51.3368 288.422C51.9694 289.078 52.602 289.742 53.2425 290.398C53.8751 291.062 54.5077 291.726 55.1481 292.389C55.7808 293.061 56.4212 293.725 57.1007 294.342C59.8108 296.857 62.4429 299.497 65.3561 301.871C70.9795 306.831 77.1808 311.275 83.593 315.539C85.2332 316.554 86.8733 317.57 88.5213 318.593L89.7553 319.358L91.0284 320.069C91.8797 320.545 92.7388 321.014 93.5901 321.483C96.9641 323.451 100.541 325.099 104.079 326.848C105.876 327.676 107.711 328.426 109.531 329.23C110.445 329.613 111.351 330.027 112.28 330.402C113.209 330.746 114.147 331.097 115.084 331.448C116.021 331.8 116.958 332.151 117.896 332.503C118.841 332.846 119.77 333.221 120.739 333.51C122.652 334.12 124.573 334.737 126.502 335.354C134.274 337.611 142.256 339.477 150.449 340.672C158.642 341.82 166.991 342.445 175.426 342.484C183.869 342.414 192.374 341.75 200.879 340.477C202.996 340.118 205.113 339.759 207.245 339.399C209.354 338.938 211.462 338.478 213.579 338.009L215.164 337.665C215.695 337.54 216.219 337.384 216.742 337.244L219.89 336.392L223.037 335.541C224.084 335.221 225.115 334.869 226.153 334.541L229.277 333.526L230.839 333.026C231.355 332.846 231.863 332.636 232.378 332.448C234.432 331.675 236.486 330.894 238.54 330.113C240.563 329.238 242.586 328.356 244.609 327.473L246.132 326.817L247.616 326.075L250.592 324.607L253.575 323.123L256.488 321.498L259.401 319.866C259.894 319.593 260.386 319.327 260.862 319.046L262.283 318.155C264.174 316.968 266.064 315.781 267.969 314.586C269.805 313.305 271.648 312.024 273.491 310.736C280.763 305.44 287.675 299.559 294.165 293.163C300.561 286.672 306.443 279.76 311.738 272.489C313.019 270.646 314.307 268.803 315.588 266.967C316.783 265.069 317.97 263.171 319.158 261.281L320.048 259.86C320.329 259.383 320.595 258.891 320.868 258.407L322.493 255.486L324.125 252.581L325.601 249.597L327.077 246.614L327.811 245.13L328.475 243.607C329.358 241.584 330.24 239.561 331.115 237.546C331.896 235.484 332.669 233.43 333.45 231.376C333.638 230.868 333.841 230.353 334.021 229.837L334.528 228.275L335.536 225.159C335.872 224.12 336.223 223.081 336.543 222.043L337.395 218.887L338.246 215.74C338.386 215.216 338.543 214.701 338.66 214.17L339.011 212.577C339.472 210.46 339.933 208.351 340.394 206.243C340.761 204.118 341.12 201.994 341.479 199.877C342.752 191.38 343.408 182.867 343.487 174.431C343.455 167.91 343.073 161.451 342.37 155.07C342.167 153.188 341.932 151.313 341.667 149.446C340.472 141.261 338.605 133.271 336.348 125.5C335.731 123.579 335.122 121.658 334.505 119.736C334.224 118.776 333.849 117.838 333.497 116.901C333.294 116.339 333.083 115.784 332.872 115.23C322.68 125.321 311.839 136.06 300.452 147.338C301.811 155.015 303.209 162.896 304.646 170.956C306.599 182.132 308.59 193.559 310.621 205.212C293.86 196.425 276.506 187.326 258.73 178.016C240.962 187.326 223.599 196.425 206.839 205.212C208.869 193.559 210.861 182.132 212.813 170.964C214.251 162.896 215.649 155.015 217.008 147.338C202.465 132.936 188.805 119.408 176.262 106.99C180.737 106.365 185.142 105.756 189.484 105.155C192.015 104.819 194.514 104.483 196.966 104.155C201.653 103.538 206.19 102.944 210.58 102.366C214.961 101.804 219.194 101.257 223.264 100.726C225.294 100.468 227.294 100.211 229.246 99.9686C230.222 99.8437 231.183 99.7187 232.144 99.6016L232.854 99.5078L233.19 99.4766L233.76 99.4219C237.408 92.463 240.68 86.2148 243.547 80.7555C246.593 74.9915 249.233 70.071 251.412 66.0878C255.785 58.1214 258.339 53.896 258.73 54.0913C259.12 53.896 261.674 58.1214 266.048 66.0878C268.227 70.071 270.867 74.9915 273.913 80.7555C276.779 86.2148 280.052 92.463 283.699 99.4219L284.269 99.4766L284.605 99.5078L285.316 99.6016C286.277 99.7187 287.237 99.8437 288.213 99.9686C290.166 100.211 292.165 100.468 294.196 100.726C298.265 101.257 302.498 101.804 306.88 102.366C311.269 102.944 315.807 103.538 320.493 104.155C322.946 104.483 325.445 104.819 327.975 105.155C328.257 105.194 328.538 105.233 328.819 105.272C328.499 104.538 328.186 103.803 327.85 103.077C326.093 99.5391 324.453 95.962 322.485 92.588C322.016 91.7366 321.54 90.8853 321.071 90.034L320.36 88.7609L319.595 87.5191C318.572 85.8712 317.549 84.231 316.533 82.5909C312.269 76.1787 307.833 69.9851 302.865 64.3539C300.499 61.4407 297.859 58.8087 295.344 56.1063C294.719 55.419 294.056 54.7786 293.392 54.146C292.728 53.5133 292.064 52.8729 291.4 52.2403C290.736 51.6076 290.08 50.9672 289.416 50.3346C288.76 49.7019 288.104 49.0693 287.401 48.4835C284.636 46.1249 281.981 43.6646 279.107 41.5246C277.693 40.4234 276.303 39.3143 274.889 38.2365C273.436 37.2134 271.992 36.198 270.547 35.1827C259.003 27.0835 246.765 20.8978 234.534 16.2273C222.295 11.5567 210.01 8.46389 198.107 6.82374C186.204 5.14454 174.699 4.79308 163.874 5.43352C153.042 6.06615 142.896 7.69849 133.586 9.9244C124.253 12.1191 115.802 15.0948 108.203 18.2189C107.258 18.6094 106.321 19.0077 105.391 19.3904C104.462 19.7731 103.54 20.1558 102.666 20.601C100.885 21.4445 99.151 22.2724 97.4562 23.0768C97.0345 23.2799 96.6127 23.483 96.1909 23.6782C95.7848 23.9047 95.3787 24.1234 94.9803 24.3343C94.1681 24.7717 93.3714 25.2012 92.5904 25.623C91.8016 26.0447 91.0206 26.4587 90.2552 26.8726C89.4898 27.2788 88.7244 27.6771 88.0136 28.1301C82.1638 31.5431 77.1262 34.8469 72.8852 37.9007C71.7527 38.7442 70.6593 39.533 69.6205 40.2984C68.7301 40.9545 67.8788 41.5871 67.0744 42.2041C65.3561 43.5943 63.7941 44.844 62.4038 45.9686C61.7087 46.5388 61.0293 47.0386 60.4357 47.5619C59.8421 48.0774 59.2876 48.5616 58.7721 49.0068C57.7411 49.8972 56.8664 50.6392 56.1557 51.2249C54.7342 52.3965 53.9532 52.9588 53.8594 52.8651C53.7657 52.7714 54.3593 52.0216 55.609 50.6548C56.2338 49.9753 57.0148 49.1318 57.9676 48.1399C58.4441 47.6479 58.9595 47.1168 59.5141 46.5466C60.0686 45.9687 60.709 45.4141 61.3651 44.7971C62.7006 43.5787 64.1924 42.2119 65.8403 40.7045C67.5274 39.244 69.4487 37.7367 71.495 36.0575C75.6422 32.7615 80.633 29.2157 86.4594 25.5371C87.1779 25.0528 87.9355 24.6233 88.7009 24.1781C89.4663 23.7329 90.2474 23.2877 91.0362 22.8269C91.8172 22.3739 92.6217 21.9131 93.4261 21.4445C93.8323 21.2102 94.2384 20.9759 94.6445 20.7416C95.0663 20.5229 95.488 20.3042 95.9176 20.0855C97.6202 19.2186 99.3619 18.3204 101.15 17.4066C102.041 16.9302 102.962 16.5162 103.907 16.0945C104.837 15.6727 105.79 15.251 106.743 14.8136C114.42 11.4162 122.996 8.1671 132.516 5.72249C142.021 3.23103 152.409 1.35656 163.539 0.505247C174.66 -0.346069 186.524 -0.16643 198.841 1.38781C211.15 2.90299 223.896 5.93337 236.627 10.6195C249.35 15.2978 262.119 21.5851 274.186 29.8717C275.694 30.9105 277.201 31.9571 278.724 33.0036C280.2 34.1049 281.661 35.2452 283.137 36.3777C286.144 38.5802 288.924 41.1029 291.822 43.5319C292.556 44.1332 293.243 44.7815 293.931 45.4376C294.618 46.0858 295.313 46.7419 296.008 47.3901C296.695 48.0462 297.391 48.7022 298.086 49.3583C298.789 50.0143 299.484 50.6704 300.14 51.3733C302.78 54.1616 305.537 56.8874 308.028 59.8943C313.237 65.7051 317.908 72.1251 322.399 78.7716C323.469 80.4743 324.539 82.1769 325.617 83.8873L326.421 85.1682L327.171 86.496C327.671 87.3785 328.171 88.2611 328.671 89.1515C330.74 92.6583 332.482 96.3681 334.333 100.047C335.2 101.913 335.997 103.827 336.84 105.717C336.942 105.959 337.051 106.193 337.152 106.428C338.496 106.615 339.839 106.803 341.198 106.99C340.308 107.873 339.394 108.771 338.496 109.669C338.722 110.278 338.957 110.887 339.191 111.497C339.566 112.473 339.933 113.449 340.308 114.425C340.675 115.409 341.065 116.378 341.37 117.385C342.018 119.385 342.674 121.384 343.33 123.392C345.728 131.483 347.712 139.816 349.001 148.353C350.242 156.897 350.93 165.614 351 174.431ZM327.85 111.325C327.366 111.223 326.882 111.129 326.406 111.028C324.125 110.669 321.868 110.309 319.65 109.958C314.979 109.216 310.465 108.497 306.091 107.802C296.93 106.318 288.409 104.936 280.606 103.679C279.981 102.366 279.364 101.07 278.755 99.789C278.326 98.8752 277.904 97.9692 277.49 97.0788C276.654 95.2903 275.842 93.5564 275.061 91.8694C273.499 88.4954 272.031 85.3244 270.664 82.3644C267.938 76.4364 265.642 71.3519 263.806 67.1969C260.792 60.3551 259.042 56.036 258.73 54.6068C258.417 56.036 256.668 60.3551 253.653 67.1969C251.818 71.3519 249.522 76.4364 246.796 82.3644C245.429 85.3244 243.961 88.4954 242.399 91.8694C241.618 93.5564 240.805 95.2903 239.97 97.0788C239.556 97.9692 239.134 98.8752 238.704 99.789C238.095 101.07 237.478 102.366 236.853 103.679C229.051 104.936 220.53 106.318 211.369 107.802C206.995 108.497 202.48 109.216 197.81 109.958C195.592 110.309 193.335 110.669 191.054 111.028C190.617 111.122 190.172 111.208 189.726 111.301C189.687 111.309 189.648 111.317 189.609 111.325C189.922 111.598 190.234 111.879 190.554 112.16L190.773 112.348L191.843 113.363C192.601 114.09 193.366 114.824 194.131 115.558C197.201 118.495 200.333 121.486 203.527 124.547C210.33 131.085 217.382 137.864 224.654 144.854C222.201 159.608 219.624 175.15 216.937 191.309L217.047 191.231C218.546 190.435 220.046 189.646 221.553 188.841C225.396 186.811 229.27 184.764 233.175 182.71C241.579 178.282 250.1 173.791 258.73 169.245C267.36 173.791 275.881 178.282 284.293 182.71C288.19 184.772 292.064 186.811 295.914 188.841C297.414 189.646 298.913 190.435 300.413 191.231L300.522 191.309C297.836 175.15 295.258 159.6 292.806 144.854C300.077 137.864 307.13 131.085 313.933 124.54C317.127 121.486 320.259 118.495 323.328 115.558C324.094 114.824 324.859 114.09 325.617 113.363L326.687 112.348L326.726 112.317L326.905 112.16C327.226 111.879 327.538 111.598 327.85 111.325ZM22.228 111.325C22.5404 111.598 22.8606 111.879 23.1808 112.16L23.3917 112.348L24.4617 113.363C25.2193 114.09 25.9847 114.824 26.7501 115.558C29.8195 118.495 32.9514 121.486 36.1458 124.547C42.9485 131.085 50.0012 137.864 57.2725 144.854C54.8279 159.608 52.2427 175.15 49.556 191.309L49.6653 191.231C51.1649 190.435 52.6645 189.646 54.1718 188.841C58.0145 186.811 61.8884 184.764 65.7935 182.71C74.1973 178.282 82.7261 173.791 91.3486 169.245C99.9789 173.791 108.508 178.282 116.912 182.71C120.809 184.772 124.691 186.811 128.533 188.841C130.041 189.646 131.54 190.435 133.032 191.231L133.141 191.309C130.462 175.15 127.877 159.6 125.425 144.854C132.704 137.864 139.756 131.085 146.559 124.54C149.746 121.486 152.878 118.495 155.947 115.558C156.72 114.824 157.478 114.09 158.243 113.363L159.305 112.348L159.524 112.16C159.735 111.973 159.938 111.793 160.141 111.614C160.251 111.52 160.368 111.418 160.477 111.325C159.985 111.223 159.501 111.129 159.032 111.028C156.744 110.669 154.487 110.309 152.268 109.958C147.606 109.216 143.084 108.497 138.71 107.802C129.548 106.318 121.028 104.936 113.225 103.679C112.6 102.366 111.983 101.07 111.374 99.789C110.952 98.8752 110.523 97.9692 110.109 97.0788C109.273 95.2903 108.469 93.5564 107.68 91.8694C106.118 88.4954 104.649 85.3244 103.283 82.3644C100.557 76.4364 98.2607 71.3519 96.4252 67.1969C93.4105 60.3551 91.661 56.036 91.3486 54.6068C91.044 56.036 89.2867 60.3551 86.2719 67.1969C84.4443 71.3519 82.1403 76.4364 79.4224 82.3644C78.0478 85.3244 76.5794 88.4954 75.0174 91.8694C74.2364 93.5564 73.4241 95.2903 72.5962 97.0788C72.1745 97.9692 71.7527 98.8752 71.3232 99.789C70.714 101.07 70.0969 102.366 69.4721 103.679C61.6697 104.936 53.1565 106.318 43.9873 107.802C39.6214 108.497 35.0992 109.216 30.4287 109.958C28.2106 110.309 25.9613 110.669 23.6729 111.028C23.5245 111.059 23.3683 111.09 23.2121 111.122C22.884 111.192 22.5638 111.254 22.228 111.325Z" fill="black"/>
<path fill-rule="evenodd" clip-rule="evenodd" d="M138.508 223.565C149.723 224.057 162.071 224.275 175.044 224.322C188.009 224.275 200.357 224.057 211.573 223.565C222.78 223.057 232.848 222.268 241.267 221.315C249.679 220.37 256.435 219.23 261.058 218.269C265.698 217.324 268.15 216.489 268.306 216.785C268.806 216.879 268.541 220.995 266.846 228.165C265.12 235.319 262.042 245.605 256.333 257.594C255.755 258.812 255.13 260.054 254.49 261.296C253.186 263.85 251.749 266.451 250.163 269.091C248.718 271.52 247.14 273.972 245.43 276.432C240.931 282.876 235.456 289.397 228.732 295.325C222.054 301.277 213.963 306.478 204.785 310.087C195.632 313.718 185.424 315.655 175.044 315.663C164.656 315.655 154.449 313.718 145.295 310.087C136.126 306.478 128.026 301.277 121.349 295.325C114.624 289.397 109.149 282.876 104.658 276.432C102.823 273.808 101.159 271.199 99.6284 268.622C98.1601 266.138 96.8167 263.694 95.5905 261.296C94.9501 260.054 94.3331 258.812 93.7473 257.594C88.038 245.605 84.9608 235.319 83.2425 228.165C81.5399 220.995 81.2744 216.879 81.7742 216.785C81.9304 216.489 84.3906 217.324 89.0221 218.269C93.6458 219.23 100.402 220.37 108.813 221.315C117.233 222.268 127.3 223.057 138.508 223.565ZM175.044 229.352C161.993 229.305 149.551 228.946 138.25 228.196C126.949 227.423 116.788 226.259 108.321 224.838C99.8471 223.432 93.0678 221.729 88.4988 220.152C85.2576 219.058 83.1488 217.98 82.2584 217.332C82.9301 218.613 84.1095 222.081 86.0542 227.314C87.2023 230.375 88.6082 234.054 90.3655 238.201C92.4977 243.239 95.1453 248.979 98.5037 255.173C101.573 260.796 105.244 266.787 109.727 272.761C111.469 275.081 113.335 277.393 115.343 279.666C118.498 283.266 121.997 286.773 125.879 290.046C132.189 295.427 139.64 300.019 147.982 303.19C156.307 306.385 165.516 308.095 175.044 308.111C184.565 308.095 193.781 306.385 202.107 303.19C210.44 300.019 217.891 295.427 224.202 290.046C227.81 287.007 231.075 283.758 234.058 280.431C236.315 277.908 238.416 275.339 240.353 272.761C244.844 266.787 248.507 260.796 251.577 255.173C254.935 248.979 257.583 243.239 259.715 238.201C261.472 234.054 262.878 230.375 264.026 227.314C265.979 222.081 267.15 218.613 267.822 217.332C266.932 217.98 264.831 219.058 261.582 220.152C257.013 221.729 250.233 223.432 241.759 224.838C233.293 226.259 223.132 227.423 211.83 228.196C200.529 228.946 188.095 229.305 175.044 229.352Z" fill="black"/>
<path d="M40.9864 112.856C41.0801 113.512 44.4385 113.653 50.2728 113.348C53.186 113.2 56.724 112.935 60.7853 112.575C62.816 112.38 64.9794 112.177 67.26 111.958C68.4003 111.841 69.5718 111.716 70.7668 111.591C71.0636 111.56 71.3682 111.529 71.6728 111.497C72.0477 111.458 72.4304 111.412 72.8131 111.365C73.9222 111.224 75.0546 111.083 76.1871 110.943C76.7494 109.725 77.3196 108.491 77.8975 107.241C78.2334 106.538 78.577 105.819 78.9207 105.101C79.6002 103.656 80.2953 102.172 81.0139 100.665C82.4197 97.6343 83.8802 94.4711 85.3876 91.2143C86.8793 87.9418 88.4101 84.5599 89.98 81.0922C90.3236 80.3268 90.6751 79.5536 91.0188 78.7726C91.0344 78.7726 91.0422 78.7726 91.0422 78.7726C91.05 78.7726 91.0578 78.7804 91.0578 78.7882V78.796C91.0578 78.7882 91.0578 78.7882 91.0578 78.7882H91.0656C91.0734 78.796 91.05 78.7413 91.1125 78.8897L91.3702 79.4989C91.706 80.319 92.0497 81.1234 92.3856 81.9357C93.7445 85.1613 95.0801 88.3167 96.3766 91.3861C97.7043 94.4477 98.9852 97.4312 100.227 100.313C100.86 101.75 101.477 103.164 102.086 104.554C102.398 105.249 102.703 105.937 103 106.616C103.546 107.889 104.085 109.147 104.616 110.388C105.936 110.56 107.241 110.724 108.537 110.896C109.256 110.974 109.974 111.06 110.677 111.138C112.036 111.287 113.372 111.427 114.668 111.568C117.261 111.833 119.729 112.075 122.049 112.31C126.688 112.747 130.742 113.075 134.092 113.27C140.801 113.669 144.691 113.559 144.792 112.856C144.894 112.154 141.2 110.951 134.655 109.42C131.39 108.655 127.407 107.811 122.83 106.905C120.541 106.468 118.112 106.007 115.543 105.515C114.262 105.28 112.95 105.038 111.599 104.796C110.95 104.679 110.294 104.554 109.631 104.437L109.349 104.328L109.287 104.023C109.021 103.328 108.756 102.633 108.49 101.922C107.951 100.508 107.397 99.0713 106.834 97.603C105.686 94.6742 104.507 91.6516 103.296 88.5432C102.062 85.4503 100.789 82.2637 99.4928 79.0147C97.2747 73.5631 95.002 68.0023 92.6901 62.3476C92.2215 61.2074 91.7529 60.0749 91.2921 58.9424C88.4648 65.4327 85.6844 71.8058 82.982 78.0228C81.4981 81.5296 80.0454 84.9427 78.6474 88.2542C77.2727 91.5735 75.9372 94.7913 74.6641 97.8764C74.0315 99.4228 73.4145 100.938 72.8131 102.422C72.5163 103.164 72.2195 103.898 71.9305 104.624L71.8759 104.757C71.8602 104.788 71.868 104.781 71.868 104.788L71.8524 104.843L71.829 104.937L71.7821 105.156C71.6728 105.195 71.5635 105.234 71.4619 105.265L71.4151 105.28C71.4229 105.288 71.2901 105.304 71.2354 105.32L70.7824 105.405C70.4856 105.46 70.1811 105.515 69.8843 105.569C68.7049 105.788 67.549 106.007 66.4243 106.226C64.175 106.663 62.0428 107.085 60.0434 107.483C56.0445 108.295 52.5846 109.053 49.7417 109.74C44.0636 111.123 40.8927 112.208 40.9864 112.856Z" fill="white"/>
<path d="M258.779 78.7726C258.786 78.7726 258.794 78.7804 258.794 78.7882V78.796C258.794 78.7882 258.794 78.7882 258.802 78.7882C258.81 78.796 258.786 78.7413 258.849 78.8897L259.107 79.4989C259.442 80.319 259.786 81.1234 260.122 81.9357C261.481 85.1613 262.817 88.3167 264.121 91.3861C265.441 94.4477 266.722 97.4312 267.971 100.313C268.596 101.75 269.221 103.164 269.822 104.554C270.135 105.249 270.439 105.937 270.736 106.616C271.283 107.889 271.822 109.147 272.353 110.388C273.673 110.56 274.977 110.724 276.274 110.896C276.992 110.974 277.711 111.06 278.414 111.138C279.773 111.287 281.108 111.427 282.405 111.568C284.998 111.833 287.466 112.075 289.785 112.31C294.425 112.747 298.478 113.075 301.837 113.27C308.538 113.669 312.427 113.559 312.529 112.856C312.63 112.154 308.936 110.951 302.391 109.42C299.126 108.655 295.143 107.811 290.574 106.905C288.286 106.468 285.849 106.007 283.287 105.515C281.999 105.28 280.686 105.038 279.335 104.796C278.687 104.679 278.031 104.554 277.367 104.437L277.086 104.328L277.023 104.023C276.766 103.328 276.5 102.633 276.227 101.922C275.688 100.508 275.133 99.0713 274.571 97.603C273.431 94.6742 272.244 91.6516 271.033 88.5432C269.799 85.4503 268.526 82.2637 267.229 79.0147C265.011 73.5631 262.738 68.0023 260.427 62.3476C259.958 61.2074 259.489 60.0749 259.029 58.9424C256.201 65.4327 253.421 71.8058 250.718 78.0228C249.234 81.5296 247.782 84.9427 246.384 88.2542C245.009 91.5735 243.674 94.7913 242.401 97.8764C241.768 99.4228 241.151 100.938 240.55 102.422C240.253 103.164 239.956 103.898 239.667 104.624L239.612 104.757C239.604 104.788 239.604 104.781 239.604 104.788L239.589 104.843L239.565 104.937L239.519 105.156C239.409 105.195 239.308 105.234 239.198 105.265L239.159 105.28C239.159 105.288 239.027 105.304 238.972 105.32L238.519 105.405C238.222 105.46 237.925 105.515 237.628 105.569C236.441 105.788 235.285 106.007 234.161 106.226C231.911 106.663 229.779 107.085 227.78 107.483C223.781 108.295 220.321 109.053 217.478 109.74C211.8 111.123 208.629 112.208 208.723 112.856C208.824 113.512 212.175 113.653 218.009 113.348C220.922 113.2 224.46 112.935 228.522 112.575C230.552 112.38 232.716 112.177 234.996 111.958C236.137 111.841 237.308 111.716 238.503 111.591C238.8 111.56 239.105 111.529 239.409 111.497C239.784 111.458 240.167 111.412 240.55 111.365C241.659 111.224 242.791 111.083 243.931 110.943C244.494 109.725 245.064 108.491 245.634 107.241C245.97 106.538 246.313 105.819 246.657 105.101C247.337 103.656 248.04 102.172 248.75 100.665C250.156 97.6343 251.617 94.4711 253.132 91.2143C254.616 87.9418 256.147 84.5599 257.716 81.0922C258.06 80.3268 258.412 79.5536 258.763 78.7726C258.771 78.7726 258.779 78.7726 258.779 78.7726Z" fill="white"/>
<defs>
<radialGradient id="paint0_radial" cx="0" cy="0" r="1" gradientUnits="userSpaceOnUse" gradientTransform="translate(169.069 128.254) scale(231.736 231.736)">
<stop offset="0.03" stop-color="white"/>
<stop offset="0.707" stop-color="#00B4EC"/>
<stop offset="0.925"/>
</radialGradient>
<linearGradient id="paint1_linear" x1="36.4934" y1="227.705" x2="36.4934" y2="11.9898" gradientUnits="userSpaceOnUse">
<stop offset="0.287"/>
<stop offset="1" stop-color="white"/>
</linearGradient>
<radialGradient id="paint2_radial" cx="0" cy="0" r="1" gradientUnits="userSpaceOnUse" gradientTransform="translate(174.657 33.8733) scale(270.213 269.551)">
<stop offset="0.03" stop-color="white"/>
<stop offset="0.707" stop-color="#00B4EC"/>
<stop offset="0.925"/>
</radialGradient>
<linearGradient id="paint3_linear" x1="190.975" y1="187.711" x2="88.5464" y2="32.3414" gradientUnits="userSpaceOnUse">
<stop offset="0.287"/>
<stop offset="1" stop-color="white"/>
</linearGradient>
<linearGradient id="paint4_linear" x1="125.094" y1="225.915" x2="28.8466" y2="79.9218" gradientUnits="userSpaceOnUse">
<stop offset="0.287"/>
<stop offset="1" stop-color="white"/>
</linearGradient>
</defs>
</svg>
