<svg width="17" height="25" viewBox="0 0 17 25" fill="none" xmlns="http://www.w3.org/2000/svg">
<path d="M5.83099 3.13474C5.83099 3.20548 5.82851 3.27623 5.82355 3.34698C5.82108 3.3773 5.8186 3.40509 5.81612 3.43288C5.80869 3.50868 5.83842 3.30402 5.8186 3.42025C5.79382 3.55416 5.76657 3.68807 5.72444 3.81946C5.71701 3.84473 5.69223 3.96853 5.66746 3.97864C5.67489 3.95843 5.6848 3.94074 5.69223 3.92053C5.68232 3.94074 5.67489 3.96095 5.66498 3.98117C5.65011 4.01149 5.63772 4.0418 5.62286 4.07212C5.56339 4.19088 5.49649 4.30458 5.41968 4.41322C5.41225 4.42333 5.38995 4.46376 5.38003 4.46628C5.39242 4.4486 5.40481 4.43344 5.4172 4.41575C5.40481 4.43344 5.38995 4.45112 5.37508 4.46628C5.33791 4.51176 5.29579 4.55724 5.25615 4.60272C5.21403 4.64567 5.1719 4.68863 5.1273 4.72905C5.10253 4.75179 5.07775 4.77201 5.05297 4.79475C5.04554 4.80233 5.03563 4.80991 5.02819 4.81496C4.98607 4.84781 4.99351 4.84275 5.05297 4.79727C5.03315 4.8377 4.93156 4.88571 4.89192 4.91097C4.84732 4.94129 4.80024 4.96908 4.75316 4.99688C4.70113 5.0272 4.64662 5.05499 4.59211 5.08026C4.57229 5.09036 4.54008 5.1131 4.51778 5.11563C4.58467 5.08784 4.59459 5.08278 4.54503 5.103C4.52521 5.11058 4.50291 5.11816 4.48309 5.12574C4.36663 5.16869 4.25018 5.20154 4.12877 5.2268C4.10647 5.23186 4.08417 5.23438 4.06187 5.23944C4.05196 5.24196 4.03957 5.24449 4.02966 5.24449C3.97515 5.25207 3.98506 5.25207 4.05939 5.24196C4.0247 5.27228 3.88099 5.25712 3.83639 5.25965C3.71498 5.2647 3.59357 5.25712 3.47216 5.24702C3.35323 5.23691 3.58614 5.26976 3.46968 5.24702C3.43747 5.24196 3.40278 5.23438 3.37057 5.22933C3.30367 5.2167 3.23925 5.19901 3.17483 5.18132C3.11536 5.16364 3.05837 5.14595 3.00139 5.12321C2.98652 5.11816 2.92953 5.10552 2.92458 5.09289C2.9444 5.10047 2.96174 5.11058 2.98156 5.11816C2.96174 5.10805 2.94192 5.10047 2.9221 5.09036C2.80317 5.03478 2.68919 4.96908 2.58017 4.89581C2.54796 4.87307 2.46371 4.83517 2.44637 4.7998C2.46371 4.81243 2.47858 4.82507 2.49592 4.8377C2.47858 4.82507 2.46123 4.80991 2.44637 4.79475C2.42655 4.77706 2.40425 4.75937 2.38442 4.74169C2.29275 4.65831 2.20355 4.56482 2.12426 4.46881C2.11683 4.46123 2.10939 4.45112 2.10444 4.44354C2.07223 4.40059 2.07718 4.40817 2.12178 4.46881C2.10196 4.4587 2.07718 4.40564 2.06479 4.38796C2.03258 4.34248 2.00285 4.297 1.97559 4.24899C1.94091 4.19088 1.90869 4.13276 1.87896 4.07465C1.86905 4.05444 1.85914 4.03422 1.84923 4.01401C1.83932 3.9938 1.82941 3.97359 1.82197 3.95337C1.79967 3.90284 1.80463 3.91295 1.83436 3.98117C1.81206 3.97106 1.78728 3.85231 1.77737 3.82199C1.75755 3.75629 1.73773 3.6906 1.72286 3.62491C1.71047 3.56932 1.69808 3.51374 1.68817 3.45562C1.6857 3.44552 1.68322 3.43288 1.68322 3.42278C1.67579 3.36719 1.67579 3.3773 1.6857 3.4531C1.67083 3.43541 1.67579 3.35708 1.67331 3.33182C1.6634 3.20801 1.6634 3.08421 1.67083 2.9604C1.67331 2.92503 1.67579 2.88965 1.68074 2.85681C1.69065 2.73553 1.65844 2.97303 1.68074 2.85428C1.69313 2.78606 1.70552 2.71784 1.72038 2.65215C1.73525 2.58645 1.75507 2.52076 1.7749 2.45507C1.78481 2.42475 1.80711 2.30852 1.83188 2.29589C1.82445 2.3161 1.81454 2.33379 1.80711 2.354C1.81702 2.33379 1.82445 2.31358 1.83436 2.29336C1.84427 2.27315 1.85418 2.25294 1.86162 2.23272C1.89631 2.16198 1.93099 2.09376 1.97064 2.02807C1.99789 1.98006 2.02763 1.93458 2.05984 1.8891C2.07223 1.87141 2.09948 1.81835 2.11683 1.80825C2.10444 1.82593 2.09205 1.84109 2.07966 1.85878C2.09205 1.84109 2.10692 1.82341 2.12178 1.80825C2.19859 1.71476 2.28036 1.62886 2.36956 1.54548C2.39434 1.52274 2.41911 1.50252 2.44389 1.47978C2.45132 1.4722 2.46123 1.46462 2.46867 1.45957C2.51079 1.42672 2.50336 1.43178 2.44389 1.47726C2.45876 1.44694 2.54796 1.40146 2.57769 1.38124C2.68671 1.30797 2.80069 1.24228 2.91962 1.18669C2.92953 1.18164 2.93944 1.17659 2.94935 1.17406C2.99891 1.15132 2.989 1.15637 2.9221 1.18669C2.92458 1.18164 2.97413 1.16648 2.98404 1.16143C3.04599 1.13869 3.11041 1.11595 3.17235 1.09826C3.22686 1.0831 3.28137 1.06794 3.33588 1.05783C3.36809 1.05025 3.40278 1.0452 3.43499 1.03762C3.45729 1.03257 3.47959 1.03004 3.50189 1.02751C3.42756 1.03762 3.41517 1.04015 3.47216 1.03257C3.58862 1.02246 3.70259 1.01488 3.81905 1.01741C3.88842 1.01993 3.9578 1.02499 4.0247 1.03257C4.14363 1.04267 3.91072 1.00983 4.02718 1.03257C4.05939 1.04015 4.09408 1.0452 4.12629 1.05025C4.27 1.08057 4.4038 1.12353 4.54255 1.17406C4.65157 1.21196 4.44096 1.12353 4.54503 1.17406C4.57476 1.18922 4.6045 1.20185 4.63423 1.21701C4.69865 1.24986 4.7606 1.2827 4.82006 1.3206C4.87953 1.3585 4.93899 1.3964 4.99598 1.43936C5.00589 1.44694 5.01333 1.45199 5.02324 1.45957C5.06536 1.49242 5.05793 1.48484 5.00094 1.44188C5.01828 1.44188 5.06536 1.49494 5.07527 1.50505C5.18181 1.59854 5.28092 1.70213 5.3726 1.81077C5.38004 1.81835 5.38747 1.82846 5.39242 1.83604C5.42463 1.87899 5.41968 1.87141 5.37508 1.81077C5.3949 1.82088 5.41968 1.87394 5.43207 1.89163C5.47171 1.94974 5.51136 2.01038 5.54605 2.07355C5.58073 2.13671 5.61542 2.19988 5.64516 2.26557C5.65507 2.28831 5.6848 2.33379 5.6848 2.35653C5.67737 2.33632 5.66746 2.31863 5.66002 2.29842C5.66746 2.31863 5.67737 2.34137 5.6848 2.36158C5.73435 2.50055 5.774 2.64204 5.80125 2.78859C5.80373 2.80627 5.82603 2.87702 5.8186 2.88965C5.81612 2.86691 5.81364 2.8467 5.80869 2.82396C5.81117 2.8467 5.81364 2.86944 5.81612 2.89218C5.82603 2.97051 5.82851 3.05136 5.83099 3.13474C5.83347 3.40004 6.05646 3.6527 6.32654 3.64007C6.59414 3.62743 6.82457 3.41772 6.82209 3.13474C6.81218 1.80825 5.98956 0.640935 4.77546 0.181085C3.60348 -0.261078 2.19116 0.128026 1.39828 1.11342C0.979535 1.63644 0.734237 2.24788 0.679726 2.9225C0.630171 3.55416 0.791225 4.21362 1.11333 4.75432C1.79472 5.89384 3.11289 6.45981 4.38893 6.19956C5.7963 5.91152 6.8097 4.58251 6.81961 3.13474C6.82209 2.86944 6.59166 2.61677 6.32406 2.62941C6.05646 2.64204 5.83099 2.85175 5.83099 3.13474Z" fill="#7A7D81"/>
<path d="M5.83099 12.1426C5.83099 12.2133 5.82851 12.284 5.82355 12.3548C5.82108 12.3851 5.8186 12.4129 5.81612 12.4407C5.80869 12.5165 5.83842 12.3118 5.8186 12.4281C5.79382 12.562 5.76657 12.6959 5.72444 12.8273C5.71701 12.8525 5.69223 12.9763 5.66746 12.9865C5.67489 12.9662 5.6848 12.9486 5.69223 12.9283C5.68232 12.9486 5.67489 12.9688 5.66498 12.989C5.65011 13.0193 5.63772 13.0496 5.62286 13.0799C5.56339 13.1987 5.49649 13.3124 5.41968 13.421C5.41225 13.4311 5.38995 13.4716 5.38003 13.4741C5.39242 13.4564 5.40481 13.4412 5.4172 13.4236C5.40481 13.4412 5.38995 13.4589 5.37508 13.4741C5.33791 13.5196 5.29579 13.5651 5.25615 13.6105C5.21403 13.6535 5.1719 13.6964 5.1273 13.7369C5.10253 13.7596 5.07775 13.7798 5.05297 13.8026C5.04554 13.8101 5.03563 13.8177 5.02819 13.8228C4.98607 13.8556 4.99351 13.8506 5.05297 13.8051C5.03315 13.8455 4.93156 13.8935 4.89192 13.9188C4.84732 13.9491 4.80024 13.9769 4.75316 14.0047C4.70113 14.035 4.64662 14.0628 4.59211 14.0881C4.57229 14.0982 4.54008 14.1209 4.51778 14.1234C4.58467 14.0957 4.59459 14.0906 4.54503 14.1108C4.52521 14.1184 4.50291 14.126 4.48309 14.1335C4.36663 14.1765 4.25018 14.2093 4.12877 14.2346C4.10647 14.2397 4.08417 14.2422 4.06187 14.2472C4.05196 14.2498 4.03957 14.2523 4.02966 14.2523C3.97515 14.2599 3.98506 14.2599 4.05939 14.2498C4.0247 14.2801 3.88099 14.2649 3.83639 14.2675C3.71498 14.2725 3.59357 14.2649 3.47216 14.2548C3.35323 14.2447 3.58614 14.2776 3.46968 14.2548C3.43747 14.2498 3.40278 14.2422 3.37057 14.2371C3.30367 14.2245 3.23925 14.2068 3.17483 14.1891C3.11536 14.1714 3.05837 14.1538 3.00139 14.131C2.98652 14.126 2.92953 14.1133 2.92458 14.1007C2.9444 14.1083 2.96174 14.1184 2.98156 14.126C2.96174 14.1159 2.94192 14.1083 2.9221 14.0982C2.80317 14.0426 2.68919 13.9769 2.58017 13.9036C2.54796 13.8809 2.46371 13.843 2.44637 13.8076C2.46371 13.8202 2.47858 13.8329 2.49592 13.8455C2.47858 13.8329 2.46123 13.8177 2.44637 13.8026C2.42655 13.7849 2.40425 13.7672 2.38442 13.7495C2.29275 13.6661 2.20355 13.5726 2.12426 13.4766C2.11683 13.469 2.10939 13.4589 2.10444 13.4514C2.07223 13.4084 2.07718 13.416 2.12178 13.4766C2.10196 13.4665 2.07718 13.4135 2.06479 13.3958C2.03258 13.3503 2.00285 13.3048 1.97559 13.2568C1.94091 13.1987 1.90869 13.1406 1.87896 13.0825C1.86905 13.0623 1.85914 13.042 1.84923 13.0218C1.83932 13.0016 1.82941 12.9814 1.82197 12.9612C1.79967 12.9107 1.80463 12.9208 1.83436 12.989C1.81206 12.9789 1.78728 12.8601 1.77737 12.8298C1.75755 12.7641 1.73773 12.6984 1.72286 12.6327C1.71047 12.5771 1.69808 12.5215 1.68817 12.4634C1.6857 12.4533 1.68322 12.4407 1.68322 12.4306C1.67579 12.375 1.67579 12.3851 1.6857 12.4609C1.67083 12.4432 1.67579 12.3649 1.67331 12.3396C1.6634 12.2158 1.6634 12.092 1.67083 11.9682C1.67331 11.9328 1.67579 11.8975 1.68074 11.8646C1.69065 11.7433 1.65844 11.9808 1.68074 11.8621C1.69313 11.7939 1.70552 11.7257 1.72038 11.66C1.73525 11.5943 1.75507 11.5286 1.7749 11.4629C1.78481 11.4326 1.80711 11.3163 1.83188 11.3037C1.82445 11.3239 1.81454 11.3416 1.80711 11.3618C1.81702 11.3416 1.82445 11.3214 1.83436 11.3012C1.84427 11.281 1.85418 11.2607 1.86162 11.2405C1.89631 11.1698 1.93099 11.1016 1.97064 11.0359C1.99789 10.9879 2.02763 10.9424 2.05984 10.8969C2.07223 10.8792 2.09948 10.8262 2.11683 10.8161C2.10444 10.8337 2.09205 10.8489 2.07966 10.8666C2.09205 10.8489 2.10692 10.8312 2.12178 10.8161C2.19859 10.7226 2.28036 10.6367 2.36956 10.5533C2.39434 10.5305 2.41911 10.5103 2.44389 10.4876C2.45132 10.48 2.46123 10.4724 2.46867 10.4674C2.51079 10.4345 2.50336 10.4396 2.44389 10.4851C2.45876 10.4547 2.54796 10.4093 2.57769 10.3891C2.68671 10.3158 2.80069 10.2501 2.91962 10.1945C2.92953 10.1895 2.93944 10.1844 2.94935 10.1819C2.99891 10.1591 2.989 10.1642 2.9221 10.1945C2.92458 10.1895 2.97413 10.1743 2.98404 10.1692C3.04599 10.1465 3.11041 10.1238 3.17235 10.1061C3.22686 10.0909 3.28137 10.0758 3.33588 10.0656C3.36809 10.0581 3.40278 10.053 3.43499 10.0454C3.45729 10.0404 3.47959 10.0379 3.50189 10.0353C3.42756 10.0454 3.41517 10.048 3.47216 10.0404C3.58862 10.0303 3.70259 10.0227 3.81905 10.0252C3.88842 10.0277 3.9578 10.0328 4.0247 10.0404C4.14363 10.0505 3.91072 10.0176 4.02718 10.0404C4.05939 10.048 4.09408 10.053 4.12629 10.0581C4.27 10.0884 4.4038 10.1313 4.54255 10.1819C4.65157 10.2198 4.44096 10.1313 4.54503 10.1819C4.57476 10.197 4.6045 10.2097 4.63423 10.2248C4.69865 10.2577 4.7606 10.2905 4.82006 10.3284C4.87953 10.3663 4.93899 10.4042 4.99598 10.4472C5.00589 10.4547 5.01333 10.4598 5.02324 10.4674C5.06536 10.5002 5.05793 10.4926 5.00094 10.4497C5.01828 10.4497 5.06536 10.5028 5.07527 10.5129C5.18181 10.6063 5.28092 10.7099 5.3726 10.8186C5.38004 10.8262 5.38747 10.8363 5.39242 10.8439C5.42463 10.8868 5.41968 10.8792 5.37508 10.8186C5.3949 10.8287 5.41968 10.8818 5.43207 10.8994C5.47171 10.9576 5.51136 11.0182 5.54605 11.0814C5.58073 11.1445 5.61542 11.2077 5.64516 11.2734C5.65507 11.2961 5.6848 11.3416 5.6848 11.3643C5.67737 11.3441 5.66746 11.3264 5.66002 11.3062C5.66746 11.3264 5.67737 11.3492 5.6848 11.3694C5.73435 11.5084 5.774 11.6499 5.80125 11.7964C5.80373 11.8141 5.82603 11.8848 5.8186 11.8975C5.81612 11.8747 5.81364 11.8545 5.80869 11.8318C5.81117 11.8545 5.81364 11.8773 5.81612 11.9C5.82603 11.9783 5.82851 12.0592 5.83099 12.1426C5.83347 12.4078 6.05646 12.6605 6.32654 12.6479C6.59414 12.6352 6.82457 12.4255 6.82209 12.1426C6.81466 10.8161 5.98956 9.64875 4.77546 9.1889C3.60348 8.74673 2.19116 9.13584 1.39828 10.1212C0.979535 10.6442 0.734237 11.2557 0.679726 11.9303C0.630171 12.562 0.791225 13.2214 1.11333 13.7621C1.79472 14.9016 3.11289 15.4676 4.38893 15.2074C5.7963 14.9193 6.8097 13.5903 6.81961 12.1426C6.82209 11.8773 6.59166 11.6246 6.32406 11.6372C6.05646 11.6499 5.83099 11.8596 5.83099 12.1426Z" fill="#7A7D81"/>
<path d="M5.83099 21.1494C5.83099 21.2201 5.82851 21.2909 5.82355 21.3616C5.82108 21.3919 5.8186 21.4197 5.81612 21.4475C5.80869 21.5233 5.83842 21.3187 5.8186 21.4349C5.79382 21.5688 5.76657 21.7027 5.72444 21.8341C5.71701 21.8594 5.69223 21.9832 5.66746 21.9933C5.67489 21.9731 5.6848 21.9554 5.69223 21.9352C5.68232 21.9554 5.67489 21.9756 5.66498 21.9958C5.65011 22.0261 5.63772 22.0565 5.62286 22.0868C5.56339 22.2055 5.49649 22.3192 5.41968 22.4279C5.41225 22.438 5.38995 22.4784 5.38003 22.4809C5.39242 22.4632 5.40481 22.4481 5.4172 22.4304C5.40481 22.4481 5.38995 22.4658 5.37508 22.4809C5.33791 22.5264 5.29579 22.5719 5.25615 22.6174C5.21403 22.6603 5.1719 22.7033 5.1273 22.7437C5.10253 22.7664 5.07775 22.7867 5.05297 22.8094C5.04554 22.817 5.03563 22.8246 5.02819 22.8296C4.98607 22.8625 4.99351 22.8574 5.05297 22.8119C5.03315 22.8523 4.93156 22.9004 4.89192 22.9256C4.84732 22.9559 4.80024 22.9837 4.75316 23.0115C4.70113 23.0418 4.64662 23.0696 4.59211 23.0949C4.57229 23.105 4.54008 23.1278 4.51778 23.1303C4.58467 23.1025 4.59459 23.0974 4.54503 23.1176C4.52521 23.1252 4.50291 23.1328 4.48309 23.1404C4.36663 23.1833 4.25018 23.2162 4.12877 23.2415C4.10647 23.2465 4.08417 23.249 4.06187 23.2541C4.05196 23.2566 4.03957 23.2591 4.02966 23.2591C3.97515 23.2667 3.98506 23.2667 4.05939 23.2566C4.0247 23.2869 3.88099 23.2718 3.83639 23.2743C3.71498 23.2794 3.59357 23.2718 3.47216 23.2617C3.35323 23.2516 3.58614 23.2844 3.46968 23.2617C3.43747 23.2566 3.40278 23.249 3.37057 23.244C3.30367 23.2313 3.23925 23.2137 3.17483 23.196C3.11536 23.1783 3.05837 23.1606 3.00139 23.1379C2.98652 23.1328 2.92953 23.1202 2.92458 23.1075C2.9444 23.1151 2.96174 23.1252 2.98156 23.1328C2.96174 23.1227 2.94192 23.1151 2.9221 23.105C2.80317 23.0494 2.68919 22.9837 2.58017 22.9105C2.54796 22.8877 2.46371 22.8498 2.44637 22.8145C2.46371 22.8271 2.47858 22.8397 2.49592 22.8524C2.47858 22.8397 2.46123 22.8246 2.44637 22.8094C2.42655 22.7917 2.40425 22.774 2.38442 22.7563C2.29275 22.673 2.20355 22.5795 2.12426 22.4835C2.11683 22.4759 2.10939 22.4658 2.10444 22.4582C2.07223 22.4152 2.07718 22.4228 2.12178 22.4835C2.10196 22.4734 2.07718 22.4203 2.06479 22.4026C2.03258 22.3571 2.00285 22.3116 1.97559 22.2636C1.94091 22.2055 1.90869 22.1474 1.87896 22.0893C1.86905 22.0691 1.85914 22.0489 1.84923 22.0287C1.83932 22.0084 1.82941 21.9882 1.82197 21.968C1.79967 21.9175 1.80463 21.9276 1.83436 21.9958C1.81206 21.9857 1.78728 21.867 1.77737 21.8366C1.75755 21.7709 1.73773 21.7053 1.72286 21.6396C1.71047 21.584 1.69808 21.5284 1.68817 21.4703C1.6857 21.4602 1.68322 21.4475 1.68322 21.4374C1.67579 21.3818 1.67579 21.3919 1.6857 21.4677C1.67083 21.4501 1.67579 21.3717 1.67331 21.3465C1.6634 21.2227 1.6634 21.0989 1.67083 20.975C1.67331 20.9397 1.67579 20.9043 1.68074 20.8715C1.69065 20.7502 1.65844 20.9877 1.68074 20.8689C1.69313 20.8007 1.70552 20.7325 1.72038 20.6668C1.73525 20.6011 1.75507 20.5354 1.7749 20.4697C1.78481 20.4394 1.80711 20.3232 1.83188 20.3105C1.82445 20.3308 1.81454 20.3484 1.80711 20.3687C1.81702 20.3484 1.82445 20.3282 1.83436 20.308C1.84427 20.2878 1.85418 20.2676 1.86162 20.2474C1.89631 20.1766 1.93099 20.1084 1.97064 20.0427C1.99789 19.9947 2.02763 19.9492 2.05984 19.9037C2.07223 19.8861 2.09948 19.833 2.11683 19.8229C2.10444 19.8406 2.09205 19.8557 2.07966 19.8734C2.09205 19.8557 2.10692 19.8381 2.12178 19.8229C2.19859 19.7294 2.28036 19.6435 2.36956 19.5601C2.39434 19.5374 2.41911 19.5172 2.44389 19.4944C2.45132 19.4869 2.46123 19.4793 2.46867 19.4742C2.51079 19.4414 2.50336 19.4464 2.44389 19.4919C2.45876 19.4616 2.54796 19.4161 2.57769 19.3959C2.68671 19.3226 2.80069 19.2569 2.91962 19.2013C2.92953 19.1963 2.93944 19.1912 2.94935 19.1887C2.99891 19.166 2.989 19.171 2.9221 19.2013C2.92458 19.1963 2.97413 19.1811 2.98404 19.1761C3.04599 19.1533 3.11041 19.1306 3.17235 19.1129C3.22686 19.0977 3.28137 19.0826 3.33588 19.0725C3.36809 19.0649 3.40278 19.0598 3.43499 19.0523C3.45729 19.0472 3.47959 19.0447 3.50189 19.0422C3.42756 19.0523 3.41517 19.0548 3.47216 19.0472C3.58862 19.0371 3.70259 19.0295 3.81905 19.0321C3.88842 19.0346 3.9578 19.0396 4.0247 19.0472C4.14363 19.0573 3.91072 19.0245 4.02718 19.0472C4.05939 19.0548 4.09408 19.0598 4.12629 19.0649C4.27 19.0952 4.4038 19.1382 4.54255 19.1887C4.65157 19.2266 4.44096 19.1382 4.54503 19.1887C4.57476 19.2039 4.6045 19.2165 4.63423 19.2317C4.69865 19.2645 4.7606 19.2974 4.82006 19.3353C4.87953 19.3732 4.93899 19.4111 4.99598 19.454C5.00589 19.4616 5.01333 19.4666 5.02324 19.4742C5.06536 19.5071 5.05793 19.4995 5.00094 19.4565C5.01828 19.4565 5.06536 19.5096 5.07527 19.5197C5.18181 19.6132 5.28092 19.7168 5.3726 19.8254C5.38004 19.833 5.38747 19.8431 5.39242 19.8507C5.42463 19.8936 5.41968 19.8861 5.37508 19.8254C5.3949 19.8355 5.41968 19.8886 5.43207 19.9063C5.47171 19.9644 5.51136 20.025 5.54605 20.0882C5.58073 20.1514 5.61542 20.2145 5.64516 20.2802C5.65507 20.303 5.6848 20.3484 5.6848 20.3712C5.67737 20.351 5.66746 20.3333 5.66002 20.3131C5.66746 20.3333 5.67737 20.356 5.6848 20.3762C5.73435 20.5152 5.774 20.6567 5.80125 20.8032C5.80373 20.8209 5.82603 20.8917 5.8186 20.9043C5.81612 20.8816 5.81364 20.8614 5.80869 20.8386C5.81117 20.8614 5.81364 20.8841 5.81612 20.9068C5.82603 20.9852 5.82851 21.066 5.83099 21.1494C5.83347 21.4147 6.05646 21.6674 6.32654 21.6547C6.59414 21.6421 6.82457 21.4324 6.82209 21.1494C6.81218 19.8229 5.98956 18.6556 4.77546 18.1957C3.60348 17.7536 2.19116 18.1427 1.39828 19.1281C0.979535 19.6511 0.734237 20.2625 0.679726 20.9371C0.630171 21.5688 0.791225 22.2283 1.11333 22.769C1.79472 23.9085 3.11289 24.4745 4.38893 24.2142C5.7963 23.9262 6.8097 22.5972 6.81961 21.1494C6.82209 20.8841 6.59166 20.6314 6.32406 20.6441C6.05646 20.6567 5.83099 20.8664 5.83099 21.1494Z" fill="#7A7D81"/>
<path d="M15.37 3.13474C15.37 3.20548 15.3676 3.27623 15.3626 3.34698C15.3601 3.3773 15.3577 3.40509 15.3552 3.43288C15.3478 3.50868 15.3775 3.30402 15.3577 3.42025C15.3329 3.55416 15.3056 3.68807 15.2635 3.81946C15.2561 3.84473 15.2313 3.96853 15.2065 3.97864C15.214 3.95843 15.2239 3.94074 15.2313 3.92053C15.2214 3.94074 15.214 3.96095 15.204 3.98117C15.1892 4.01149 15.1768 4.0418 15.1619 4.07212C15.1025 4.19088 15.0356 4.30458 14.9587 4.41322C14.9513 4.42333 14.929 4.46376 14.9191 4.46628C14.9315 4.4486 14.9439 4.43344 14.9563 4.41575C14.9439 4.43344 14.929 4.45112 14.9141 4.46628C14.877 4.51176 14.8349 4.55724 14.7952 4.60272C14.7531 4.64567 14.711 4.68863 14.6664 4.72905C14.6416 4.75179 14.6168 4.77201 14.592 4.79475C14.5846 4.80233 14.5747 4.80991 14.5673 4.81496C14.5251 4.84781 14.5326 4.84275 14.592 4.79727C14.5722 4.8377 14.4706 4.88571 14.431 4.91097C14.3864 4.94129 14.3393 4.96908 14.2922 4.99688C14.2402 5.0272 14.1857 5.05499 14.1312 5.08026C14.1113 5.09036 14.0791 5.1131 14.0568 5.11563C14.1237 5.08784 14.1336 5.08278 14.0841 5.103C14.0643 5.11058 14.042 5.11816 14.0221 5.12574C13.9057 5.16869 13.7892 5.20154 13.6678 5.2268C13.6455 5.23186 13.6232 5.23438 13.6009 5.23944C13.591 5.24196 13.5786 5.24449 13.5687 5.24449C13.5142 5.25207 13.5241 5.25207 13.5985 5.24196C13.5638 5.27228 13.4201 5.25712 13.3755 5.25965C13.254 5.2647 13.1326 5.25712 13.0112 5.24702C12.8923 5.23691 13.1252 5.26976 13.0087 5.24702C12.9765 5.24196 12.9418 5.23438 12.9096 5.22933C12.8427 5.2167 12.7783 5.19901 12.7139 5.18132C12.6544 5.16364 12.5974 5.14595 12.5404 5.12321C12.5256 5.11816 12.4686 5.10552 12.4636 5.09289C12.4835 5.10047 12.5008 5.11058 12.5206 5.11816C12.5008 5.10805 12.481 5.10047 12.4612 5.09036C12.3422 5.03478 12.2283 4.96908 12.1192 4.89581C12.087 4.87307 12.0028 4.83517 11.9854 4.7998C12.0028 4.81243 12.0176 4.82507 12.035 4.8377C12.0176 4.82507 12.0003 4.80991 11.9854 4.79475C11.9656 4.77706 11.9433 4.75937 11.9235 4.74169C11.8318 4.65831 11.7426 4.56482 11.6633 4.46881C11.6559 4.46123 11.6485 4.45112 11.6435 4.44354C11.6113 4.40059 11.6162 4.40817 11.6608 4.46881C11.641 4.4587 11.6162 4.40564 11.6039 4.38796C11.5716 4.34248 11.5419 4.297 11.5147 4.24899C11.48 4.19088 11.4478 4.13276 11.418 4.07465C11.4081 4.05444 11.3982 4.03422 11.3883 4.01401C11.3784 3.9938 11.3685 3.97359 11.361 3.95337C11.3387 3.90284 11.3437 3.91295 11.3734 3.98117C11.3511 3.97106 11.3263 3.85231 11.3164 3.82199C11.2966 3.75629 11.2768 3.6906 11.2619 3.62491C11.2495 3.56932 11.2371 3.51374 11.2272 3.45562C11.2248 3.44552 11.2223 3.43288 11.2223 3.42278C11.2148 3.36719 11.2148 3.3773 11.2248 3.4531C11.2099 3.43541 11.2148 3.35708 11.2124 3.33182C11.2025 3.20801 11.2025 3.08421 11.2099 2.9604C11.2124 2.92503 11.2148 2.88965 11.2198 2.85681C11.2297 2.73553 11.1975 2.97303 11.2198 2.85428C11.2322 2.78606 11.2446 2.71784 11.2594 2.65215C11.2743 2.58645 11.2941 2.52076 11.314 2.45507C11.3239 2.42475 11.3462 2.30852 11.3709 2.29589C11.3635 2.3161 11.3536 2.33379 11.3462 2.354C11.3561 2.33379 11.3635 2.31358 11.3734 2.29336C11.3833 2.27315 11.3932 2.25294 11.4007 2.23272C11.4354 2.16198 11.4701 2.09376 11.5097 2.02807C11.537 1.98006 11.5667 1.93458 11.5989 1.8891C11.6113 1.87141 11.6385 1.81835 11.6559 1.80825C11.6435 1.82593 11.6311 1.84109 11.6187 1.85878C11.6311 1.84109 11.646 1.82341 11.6608 1.80825C11.7377 1.71476 11.8194 1.62886 11.9086 1.54548C11.9334 1.52274 11.9582 1.50252 11.983 1.47978C11.9904 1.4722 12.0003 1.46462 12.0077 1.45957C12.0499 1.42672 12.0424 1.43178 11.983 1.47726C11.9978 1.44694 12.087 1.40146 12.1168 1.38124C12.2258 1.30797 12.3397 1.24228 12.4587 1.18669C12.4686 1.18164 12.4785 1.17659 12.4884 1.17406C12.538 1.15132 12.5281 1.15637 12.4612 1.18669C12.4636 1.18164 12.5132 1.16648 12.5231 1.16143C12.585 1.13869 12.6495 1.11595 12.7114 1.09826C12.7659 1.0831 12.8204 1.06794 12.8749 1.05783C12.9072 1.05025 12.9418 1.0452 12.9741 1.03762C12.9964 1.03257 13.0187 1.03004 13.041 1.02751C12.9666 1.03762 12.9542 1.04015 13.0112 1.03257C13.1277 1.02246 13.2417 1.01488 13.3581 1.01741C13.4275 1.01993 13.4969 1.02499 13.5638 1.03257C13.6827 1.04267 13.4498 1.00983 13.5662 1.03257C13.5985 1.04015 13.6331 1.0452 13.6654 1.05025C13.8091 1.08057 13.9429 1.12353 14.0816 1.17406C14.1906 1.21196 13.98 1.12353 14.0841 1.17406C14.1138 1.18922 14.1436 1.20185 14.1733 1.21701C14.2377 1.24986 14.2997 1.2827 14.3591 1.3206C14.4186 1.3585 14.4781 1.3964 14.535 1.43936C14.545 1.44694 14.5524 1.45199 14.5623 1.45957C14.6044 1.49242 14.597 1.48484 14.54 1.44188C14.5573 1.44188 14.6044 1.49494 14.6143 1.50505C14.7209 1.59854 14.82 1.70213 14.9117 1.81077C14.9191 1.81835 14.9265 1.82846 14.9315 1.83604C14.9637 1.87899 14.9587 1.87141 14.9141 1.81077C14.934 1.82088 14.9587 1.87394 14.9711 1.89163C15.0108 1.94974 15.0504 2.01038 15.0851 2.07355C15.1198 2.13671 15.1545 2.19988 15.1842 2.26557C15.1941 2.28831 15.2239 2.33379 15.2239 2.35653C15.2164 2.33632 15.2065 2.31863 15.1991 2.29842C15.2065 2.31863 15.2164 2.34137 15.2239 2.36158C15.2734 2.50055 15.3131 2.64204 15.3403 2.78859C15.3428 2.80627 15.3651 2.87702 15.3577 2.88965C15.3552 2.86691 15.3527 2.8467 15.3478 2.82396C15.3502 2.8467 15.3527 2.86944 15.3552 2.89218C15.3651 2.97051 15.3676 3.05136 15.37 3.13474C15.3725 3.40004 15.5955 3.6527 15.8656 3.64007C16.1332 3.62743 16.3636 3.41772 16.3612 3.13474C16.3512 1.80825 15.5286 0.640935 14.3145 0.181085C13.1425 -0.261078 11.7302 0.128026 10.9373 1.11342C10.5186 1.63644 10.2733 2.24788 10.2188 2.9225C10.1692 3.55416 10.3303 4.21362 10.6524 4.75432C11.3338 5.89384 12.6519 6.45981 13.928 6.19956C15.3354 5.91152 16.3488 4.58251 16.3587 3.13474C16.3612 2.86944 16.1307 2.61677 15.8631 2.62941C15.5955 2.64204 15.37 2.85175 15.37 3.13474Z" fill="#7A7D81"/>
<path d="M15.37 12.1426C15.37 12.2133 15.3676 12.284 15.3626 12.3548C15.3601 12.3851 15.3577 12.4129 15.3552 12.4407C15.3478 12.5165 15.3775 12.3118 15.3577 12.4281C15.3329 12.562 15.3056 12.6959 15.2635 12.8273C15.2561 12.8525 15.2313 12.9763 15.2065 12.9865C15.214 12.9662 15.2239 12.9486 15.2313 12.9283C15.2214 12.9486 15.214 12.9688 15.204 12.989C15.1892 13.0193 15.1768 13.0496 15.1619 13.0799C15.1025 13.1987 15.0356 13.3124 14.9587 13.421C14.9513 13.4311 14.929 13.4716 14.9191 13.4741C14.9315 13.4564 14.9439 13.4412 14.9563 13.4236C14.9439 13.4412 14.929 13.4589 14.9141 13.4741C14.877 13.5196 14.8349 13.5651 14.7952 13.6105C14.7531 13.6535 14.711 13.6964 14.6664 13.7369C14.6416 13.7596 14.6168 13.7798 14.592 13.8026C14.5846 13.8101 14.5747 13.8177 14.5673 13.8228C14.5251 13.8556 14.5326 13.8506 14.592 13.8051C14.5722 13.8455 14.4706 13.8935 14.431 13.9188C14.3864 13.9491 14.3393 13.9769 14.2922 14.0047C14.2402 14.035 14.1857 14.0628 14.1312 14.0881C14.1113 14.0982 14.0791 14.1209 14.0568 14.1234C14.1237 14.0957 14.1336 14.0906 14.0841 14.1108C14.0643 14.1184 14.042 14.126 14.0221 14.1335C13.9057 14.1765 13.7892 14.2093 13.6678 14.2346C13.6455 14.2397 13.6232 14.2422 13.6009 14.2472C13.591 14.2498 13.5786 14.2523 13.5687 14.2523C13.5142 14.2599 13.5241 14.2599 13.5985 14.2498C13.5638 14.2801 13.4201 14.2649 13.3755 14.2675C13.254 14.2725 13.1326 14.2649 13.0112 14.2548C12.8923 14.2447 13.1252 14.2776 13.0087 14.2548C12.9765 14.2498 12.9418 14.2422 12.9096 14.2371C12.8427 14.2245 12.7783 14.2068 12.7139 14.1891C12.6544 14.1714 12.5974 14.1538 12.5404 14.131C12.5256 14.126 12.4686 14.1133 12.4636 14.1007C12.4835 14.1083 12.5008 14.1184 12.5206 14.126C12.5008 14.1159 12.481 14.1083 12.4612 14.0982C12.3422 14.0426 12.2283 13.9769 12.1192 13.9036C12.087 13.8809 12.0028 13.843 11.9854 13.8076C12.0028 13.8202 12.0176 13.8329 12.035 13.8455C12.0176 13.8329 12.0003 13.8177 11.9854 13.8026C11.9656 13.7849 11.9433 13.7672 11.9235 13.7495C11.8318 13.6661 11.7426 13.5726 11.6633 13.4766C11.6559 13.469 11.6485 13.4589 11.6435 13.4514C11.6113 13.4084 11.6162 13.416 11.6608 13.4766C11.641 13.4665 11.6162 13.4135 11.6039 13.3958C11.5716 13.3503 11.5419 13.3048 11.5147 13.2568C11.48 13.1987 11.4478 13.1406 11.418 13.0825C11.4081 13.0623 11.3982 13.042 11.3883 13.0218C11.3784 13.0016 11.3685 12.9814 11.361 12.9612C11.3387 12.9107 11.3437 12.9208 11.3734 12.989C11.3511 12.9789 11.3263 12.8601 11.3164 12.8298C11.2966 12.7641 11.2768 12.6984 11.2619 12.6327C11.2495 12.5771 11.2371 12.5215 11.2272 12.4634C11.2248 12.4533 11.2223 12.4407 11.2223 12.4306C11.2148 12.375 11.2148 12.3851 11.2248 12.4609C11.2099 12.4432 11.2148 12.3649 11.2124 12.3396C11.2025 12.2158 11.2025 12.092 11.2099 11.9682C11.2124 11.9328 11.2148 11.8975 11.2198 11.8646C11.2297 11.7433 11.1975 11.9808 11.2198 11.8621C11.2322 11.7939 11.2446 11.7257 11.2594 11.66C11.2743 11.5943 11.2941 11.5286 11.314 11.4629C11.3239 11.4326 11.3462 11.3163 11.3709 11.3037C11.3635 11.3239 11.3536 11.3416 11.3462 11.3618C11.3561 11.3416 11.3635 11.3214 11.3734 11.3012C11.3833 11.281 11.3932 11.2607 11.4007 11.2405C11.4354 11.1698 11.4701 11.1016 11.5097 11.0359C11.537 10.9879 11.5667 10.9424 11.5989 10.8969C11.6113 10.8792 11.6385 10.8262 11.6559 10.8161C11.6435 10.8337 11.6311 10.8489 11.6187 10.8666C11.6311 10.8489 11.646 10.8312 11.6608 10.8161C11.7377 10.7226 11.8194 10.6367 11.9086 10.5533C11.9334 10.5305 11.9582 10.5103 11.983 10.4876C11.9904 10.48 12.0003 10.4724 12.0077 10.4674C12.0499 10.4345 12.0424 10.4396 11.983 10.4851C11.9978 10.4547 12.087 10.4093 12.1168 10.3891C12.2258 10.3158 12.3397 10.2501 12.4587 10.1945C12.4686 10.1895 12.4785 10.1844 12.4884 10.1819C12.538 10.1591 12.5281 10.1642 12.4612 10.1945C12.4636 10.1895 12.5132 10.1743 12.5231 10.1692C12.585 10.1465 12.6495 10.1238 12.7114 10.1061C12.7659 10.0909 12.8204 10.0758 12.8749 10.0656C12.9072 10.0581 12.9418 10.053 12.9741 10.0454C12.9964 10.0404 13.0187 10.0379 13.041 10.0353C12.9666 10.0454 12.9542 10.048 13.0112 10.0404C13.1277 10.0303 13.2417 10.0227 13.3581 10.0252C13.4275 10.0277 13.4969 10.0328 13.5638 10.0404C13.6827 10.0505 13.4498 10.0176 13.5662 10.0404C13.5985 10.048 13.6331 10.053 13.6654 10.0581C13.8091 10.0884 13.9429 10.1313 14.0816 10.1819C14.1906 10.2198 13.98 10.1313 14.0841 10.1819C14.1138 10.197 14.1436 10.2097 14.1733 10.2248C14.2377 10.2577 14.2997 10.2905 14.3591 10.3284C14.4186 10.3663 14.4781 10.4042 14.535 10.4472C14.545 10.4547 14.5524 10.4598 14.5623 10.4674C14.6044 10.5002 14.597 10.4926 14.54 10.4497C14.5573 10.4497 14.6044 10.5028 14.6143 10.5129C14.7209 10.6063 14.82 10.7099 14.9117 10.8186C14.9191 10.8262 14.9265 10.8363 14.9315 10.8439C14.9637 10.8868 14.9587 10.8792 14.9141 10.8186C14.934 10.8287 14.9587 10.8818 14.9711 10.8994C15.0108 10.9576 15.0504 11.0182 15.0851 11.0814C15.1198 11.1445 15.1545 11.2077 15.1842 11.2734C15.1941 11.2961 15.2239 11.3416 15.2239 11.3643C15.2164 11.3441 15.2065 11.3264 15.1991 11.3062C15.2065 11.3264 15.2164 11.3492 15.2239 11.3694C15.2734 11.5084 15.3131 11.6499 15.3403 11.7964C15.3428 11.8141 15.3651 11.8848 15.3577 11.8975C15.3552 11.8747 15.3527 11.8545 15.3478 11.8318C15.3502 11.8545 15.3527 11.8773 15.3552 11.9C15.3651 11.9783 15.3676 12.0592 15.37 12.1426C15.3725 12.4078 15.5955 12.6605 15.8656 12.6479C16.1332 12.6352 16.3636 12.4255 16.3612 12.1426C16.3537 10.8161 15.5286 9.64875 14.3145 9.1889C13.1425 8.74673 11.7302 9.13584 10.9373 10.1212C10.5186 10.6442 10.2733 11.2557 10.2188 11.9303C10.1692 12.562 10.3303 13.2214 10.6524 13.7621C11.3338 14.9016 12.6519 15.4676 13.928 15.2074C15.3354 14.9193 16.3488 13.5903 16.3587 12.1426C16.3612 11.8773 16.1307 11.6246 15.8631 11.6372C15.5955 11.6499 15.37 11.8596 15.37 12.1426Z" fill="#7A7D81"/>
<path d="M15.37 21.1494C15.37 21.2201 15.3676 21.2909 15.3626 21.3616C15.3601 21.3919 15.3577 21.4197 15.3552 21.4475C15.3478 21.5233 15.3775 21.3187 15.3577 21.4349C15.3329 21.5688 15.3056 21.7027 15.2635 21.8341C15.2561 21.8594 15.2313 21.9832 15.2065 21.9933C15.214 21.9731 15.2239 21.9554 15.2313 21.9352C15.2214 21.9554 15.214 21.9756 15.204 21.9958C15.1892 22.0261 15.1768 22.0565 15.1619 22.0868C15.1025 22.2055 15.0356 22.3192 14.9587 22.4279C14.9513 22.438 14.929 22.4784 14.9191 22.4809C14.9315 22.4632 14.9439 22.4481 14.9563 22.4304C14.9439 22.4481 14.929 22.4658 14.9141 22.4809C14.877 22.5264 14.8349 22.5719 14.7952 22.6174C14.7531 22.6603 14.711 22.7033 14.6664 22.7437C14.6416 22.7664 14.6168 22.7867 14.592 22.8094C14.5846 22.817 14.5747 22.8246 14.5673 22.8296C14.5251 22.8625 14.5326 22.8574 14.592 22.8119C14.5722 22.8523 14.4706 22.9004 14.431 22.9256C14.3864 22.9559 14.3393 22.9837 14.2922 23.0115C14.2402 23.0418 14.1857 23.0696 14.1312 23.0949C14.1113 23.105 14.0791 23.1278 14.0568 23.1303C14.1237 23.1025 14.1336 23.0974 14.0841 23.1176C14.0643 23.1252 14.042 23.1328 14.0221 23.1404C13.9057 23.1833 13.7892 23.2162 13.6678 23.2415C13.6455 23.2465 13.6232 23.249 13.6009 23.2541C13.591 23.2566 13.5786 23.2591 13.5687 23.2591C13.5142 23.2667 13.5241 23.2667 13.5985 23.2566C13.5638 23.2869 13.4201 23.2718 13.3755 23.2743C13.254 23.2794 13.1326 23.2718 13.0112 23.2617C12.8923 23.2516 13.1252 23.2844 13.0087 23.2617C12.9765 23.2566 12.9418 23.249 12.9096 23.244C12.8427 23.2313 12.7783 23.2137 12.7139 23.196C12.6544 23.1783 12.5974 23.1606 12.5404 23.1379C12.5256 23.1328 12.4686 23.1202 12.4636 23.1075C12.4835 23.1151 12.5008 23.1252 12.5206 23.1328C12.5008 23.1227 12.481 23.1151 12.4612 23.105C12.3422 23.0494 12.2283 22.9837 12.1192 22.9105C12.087 22.8877 12.0028 22.8498 11.9854 22.8145C12.0028 22.8271 12.0176 22.8397 12.035 22.8524C12.0176 22.8397 12.0003 22.8246 11.9854 22.8094C11.9656 22.7917 11.9433 22.774 11.9235 22.7563C11.8318 22.673 11.7426 22.5795 11.6633 22.4835C11.6559 22.4759 11.6485 22.4658 11.6435 22.4582C11.6113 22.4152 11.6162 22.4228 11.6608 22.4835C11.641 22.4734 11.6162 22.4203 11.6039 22.4026C11.5716 22.3571 11.5419 22.3116 11.5147 22.2636C11.48 22.2055 11.4478 22.1474 11.418 22.0893C11.4081 22.0691 11.3982 22.0489 11.3883 22.0287C11.3784 22.0084 11.3685 21.9882 11.361 21.968C11.3387 21.9175 11.3437 21.9276 11.3734 21.9958C11.3511 21.9857 11.3263 21.867 11.3164 21.8366C11.2966 21.7709 11.2768 21.7053 11.2619 21.6396C11.2495 21.584 11.2371 21.5284 11.2272 21.4703C11.2248 21.4602 11.2223 21.4475 11.2223 21.4374C11.2148 21.3818 11.2148 21.3919 11.2248 21.4677C11.2099 21.4501 11.2148 21.3717 11.2124 21.3465C11.2025 21.2227 11.2025 21.0989 11.2099 20.975C11.2124 20.9397 11.2148 20.9043 11.2198 20.8715C11.2297 20.7502 11.1975 20.9877 11.2198 20.8689C11.2322 20.8007 11.2446 20.7325 11.2594 20.6668C11.2743 20.6011 11.2941 20.5354 11.314 20.4697C11.3239 20.4394 11.3462 20.3232 11.3709 20.3105C11.3635 20.3308 11.3536 20.3484 11.3462 20.3687C11.3561 20.3484 11.3635 20.3282 11.3734 20.308C11.3833 20.2878 11.3932 20.2676 11.4007 20.2474C11.4354 20.1766 11.4701 20.1084 11.5097 20.0427C11.537 19.9947 11.5667 19.9492 11.5989 19.9037C11.6113 19.8861 11.6385 19.833 11.6559 19.8229C11.6435 19.8406 11.6311 19.8557 11.6187 19.8734C11.6311 19.8557 11.646 19.8381 11.6608 19.8229C11.7377 19.7294 11.8194 19.6435 11.9086 19.5601C11.9334 19.5374 11.9582 19.5172 11.983 19.4944C11.9904 19.4869 12.0003 19.4793 12.0077 19.4742C12.0499 19.4414 12.0424 19.4464 11.983 19.4919C11.9978 19.4616 12.087 19.4161 12.1168 19.3959C12.2258 19.3226 12.3397 19.2569 12.4587 19.2013C12.4686 19.1963 12.4785 19.1912 12.4884 19.1887C12.538 19.166 12.5281 19.171 12.4612 19.2013C12.4636 19.1963 12.5132 19.1811 12.5231 19.1761C12.585 19.1533 12.6495 19.1306 12.7114 19.1129C12.7659 19.0977 12.8204 19.0826 12.8749 19.0725C12.9072 19.0649 12.9418 19.0598 12.9741 19.0523C12.9964 19.0472 13.0187 19.0447 13.041 19.0422C12.9666 19.0523 12.9542 19.0548 13.0112 19.0472C13.1277 19.0371 13.2417 19.0295 13.3581 19.0321C13.4275 19.0346 13.4969 19.0396 13.5638 19.0472C13.6827 19.0573 13.4498 19.0245 13.5662 19.0472C13.5985 19.0548 13.6331 19.0598 13.6654 19.0649C13.8091 19.0952 13.9429 19.1382 14.0816 19.1887C14.1906 19.2266 13.98 19.1382 14.0841 19.1887C14.1138 19.2039 14.1436 19.2165 14.1733 19.2317C14.2377 19.2645 14.2997 19.2974 14.3591 19.3353C14.4186 19.3732 14.4781 19.4111 14.535 19.454C14.545 19.4616 14.5524 19.4666 14.5623 19.4742C14.6044 19.5071 14.597 19.4995 14.54 19.4565C14.5573 19.4565 14.6044 19.5096 14.6143 19.5197C14.7209 19.6132 14.82 19.7168 14.9117 19.8254C14.9191 19.833 14.9265 19.8431 14.9315 19.8507C14.9637 19.8936 14.9587 19.8861 14.9141 19.8254C14.934 19.8355 14.9587 19.8886 14.9711 19.9063C15.0108 19.9644 15.0504 20.025 15.0851 20.0882C15.1198 20.1514 15.1545 20.2145 15.1842 20.2802C15.1941 20.303 15.2239 20.3484 15.2239 20.3712C15.2164 20.351 15.2065 20.3333 15.1991 20.3131C15.2065 20.3333 15.2164 20.356 15.2239 20.3762C15.2734 20.5152 15.3131 20.6567 15.3403 20.8032C15.3428 20.8209 15.3651 20.8917 15.3577 20.9043C15.3552 20.8816 15.3527 20.8614 15.3478 20.8386C15.3502 20.8614 15.3527 20.8841 15.3552 20.9068C15.3651 20.9852 15.3676 21.066 15.37 21.1494C15.3725 21.4147 15.5955 21.6674 15.8656 21.6547C16.1332 21.6421 16.3636 21.4324 16.3612 21.1494C16.3512 19.8229 15.5286 18.6556 14.3145 18.1957C13.1425 17.7536 11.7302 18.1427 10.9373 19.1281C10.5186 19.6511 10.2733 20.2625 10.2188 20.9371C10.1692 21.5688 10.3303 22.2283 10.6524 22.769C11.3338 23.9085 12.6519 24.4745 13.928 24.2142C15.3354 23.9262 16.3488 22.5972 16.3587 21.1494C16.3612 20.8841 16.1307 20.6314 15.8631 20.6441C15.5955 20.6567 15.37 20.8664 15.37 21.1494Z" fill="#7A7D81"/>
</svg>
