<svg width="18" height="17" viewBox="0 0 18 17" fill="none" xmlns="http://www.w3.org/2000/svg">
<path d="M8.14085 0H1.38491C1.11467 0 0.902344 0.210807 0.902344 0.479108V7.18661C0.902344 7.45491 1.11467 7.66572 1.38491 7.66572H8.14085C8.41108 7.66572 8.62341 7.45491 8.62341 7.18661V0.479108C8.62341 0.210807 8.41108 0 8.14085 0ZM7.65828 6.70751H1.86748V0.958215H7.65828V6.70751Z" fill="white"/>
<path d="M8.14085 8.62402H1.38491C1.11467 8.62402 0.902344 8.83483 0.902344 9.10313V15.8106C0.902344 16.0789 1.11467 16.2897 1.38491 16.2897H8.14085C8.41108 16.2897 8.62341 16.0789 8.62341 15.8106V9.10313C8.62341 8.83483 8.41108 8.62402 8.14085 8.62402ZM7.65828 15.3315H1.86748V9.58224H7.65828V15.3315Z" fill="white"/>
<path d="M16.8274 8.62402H10.0714C9.8012 8.62402 9.58887 8.83483 9.58887 9.10313V15.8106C9.58887 16.0789 9.8012 16.2897 10.0714 16.2897H16.8274C17.0976 16.2897 17.3099 16.0789 17.3099 15.8106V9.10313C17.3099 8.83483 17.0976 8.62402 16.8274 8.62402ZM16.3448 15.3315H10.554V9.58224H16.3448V15.3315Z" fill="white"/>
<path d="M16.8274 0H10.0714C9.8012 0 9.58887 0.210807 9.58887 0.479108V7.18661C9.58887 7.45491 9.8012 7.66572 10.0714 7.66572H16.8274C17.0976 7.66572 17.3099 7.45491 17.3099 7.18661V0.479108C17.3099 0.210807 17.0976 0 16.8274 0ZM16.3448 6.70751H10.554V0.958215H16.3448V6.70751Z" fill="white"/>
</svg>
