<svg width="65" height="45" viewBox="0 0 65 45" fill="none" xmlns="http://www.w3.org/2000/svg">
<circle cx="22.5" cy="22.5" r="22" fill="#1E232B" stroke="#F0B90B"/>
<path d="M16.5 20.5L13 17L22 8L31 17L27.5 20.5L22 15L16.5 20.5Z" fill="#F0B90B"/>
<path d="M16.5 24L13 27.5L22 36.5L31 27.5L27.5 24L22 29.5L16.5 24Z" fill="#F0B90B"/>
<path d="M11.5 19L8 22.5L11.5 26L15 22.5L11.5 19Z" fill="#F0B90B"/>
<path d="M22 19L18.5 22.5L22 26L25.5 22.5L22 19Z" fill="#F0B90B"/>
<path d="M32.5 19L29 22.5L32.5 26L36 22.5L32.5 19Z" fill="#F0B90B"/>
<path d="M55 20L59.5 24.5L64 20" stroke="#D4D6D9" stroke-width="1.5"/>
</svg>
