<svg width="65" height="49" viewBox="0 0 65 49" fill="none" xmlns="http://www.w3.org/2000/svg">
<circle cx="22.5" cy="22.5" r="22" fill="#1E232B" stroke="#F0B90B"/>
<path fill-rule="evenodd" clip-rule="evenodd" d="M32.586 32.0365C32.586 32.0365 34 31.9223 34 30.3383C34 28.7543 30.6381 24.8428 30.6381 24.8428C30.6381 24.8428 30.6381 20.4462 30.6381 17.9244C30.6381 15.2308 28.4843 13.5179 25.744 12.7843C25.9037 12.3845 25.9915 11.9483 25.9915 11.4915C25.9915 9.56344 24.4284 8 22.5 8C20.5716 8 19.0085 9.56344 19.0085 11.4915C19.0085 11.9483 19.0963 12.3845 19.2556 12.7843C16.5157 13.5179 14.3619 15.2308 14.3619 17.9244C14.3619 20.4462 14.3619 24.8428 14.3619 24.8428C14.3619 24.8428 11 28.7543 11 30.3383C11 31.9223 12.414 32.0365 12.414 32.0365H32.586ZM22.5 9.83846C23.4128 9.83846 24.153 10.5787 24.153 11.4915C24.153 12.4047 23.4128 13.1445 22.5 13.1445C21.5872 13.1445 20.847 12.4047 20.847 11.4915C20.847 10.5787 21.5872 9.83846 22.5 9.83846ZM25.9904 33.7013C25.9518 35.7098 24.4038 37.3257 22.5 37.3257C20.5962 37.3257 19.0482 35.7098 19.0096 33.7013H25.9904Z" fill="#F0B90B"/>
<rect x="29.5" y="35.5" width="27" height="12.2222" rx="6.11111" fill="#121417" stroke="#F60B0B"/>
<path d="M40.3112 45.1C39.7245 45.1 39.2245 45.0067 38.8112 44.82C38.4045 44.6333 38.0978 44.4 37.8912 44.12C37.6912 43.8333 37.5845 43.54 37.5712 43.24C37.5712 43.18 37.5912 43.1333 37.6312 43.1C37.6778 43.06 37.7312 43.04 37.7912 43.04H38.6912C38.8378 43.04 38.9345 43.1067 38.9812 43.24C39.1278 43.72 39.5745 43.96 40.3212 43.96C40.7278 43.96 41.0478 43.8667 41.2812 43.68C41.5145 43.4867 41.6312 43.2133 41.6312 42.86C41.6312 42.1933 41.2145 41.86 40.3812 41.86H39.3512C39.2778 41.86 39.2178 41.8367 39.1712 41.79C39.1245 41.7433 39.1012 41.6867 39.1012 41.62V41.2C39.1012 41.0933 39.1478 40.9933 39.2412 40.9L41.0312 39.15H38.1712C38.1045 39.15 38.0478 39.1267 38.0012 39.08C37.9545 39.0333 37.9312 38.9767 37.9312 38.91V38.25C37.9312 38.1767 37.9512 38.1167 37.9912 38.07C38.0378 38.0233 38.0978 38 38.1712 38H42.4612C42.5345 38 42.5945 38.0233 42.6412 38.07C42.6878 38.1167 42.7112 38.1767 42.7112 38.25V38.85C42.7112 38.95 42.6678 39.0433 42.5812 39.13L40.8512 40.91L40.9712 40.92C41.6112 40.9733 42.1178 41.1667 42.4912 41.5C42.8712 41.8333 43.0612 42.31 43.0612 42.93C43.0612 43.37 42.9412 43.7533 42.7012 44.08C42.4678 44.4067 42.1412 44.66 41.7212 44.84C41.3078 45.0133 40.8378 45.1 40.3112 45.1ZM46.61 45.1C46.0233 45.1 45.5233 45.0067 45.11 44.82C44.7033 44.6333 44.3967 44.4 44.19 44.12C43.99 43.8333 43.8833 43.54 43.87 43.24C43.87 43.18 43.89 43.1333 43.93 43.1C43.9767 43.06 44.03 43.04 44.09 43.04H44.99C45.1367 43.04 45.2333 43.1067 45.28 43.24C45.4267 43.72 45.8733 43.96 46.62 43.96C47.0267 43.96 47.3467 43.8667 47.58 43.68C47.8133 43.4867 47.93 43.2133 47.93 42.86C47.93 42.1933 47.5133 41.86 46.68 41.86H45.65C45.5767 41.86 45.5167 41.8367 45.47 41.79C45.4233 41.7433 45.4 41.6867 45.4 41.62V41.2C45.4 41.0933 45.4467 40.9933 45.54 40.9L47.33 39.15H44.47C44.4033 39.15 44.3467 39.1267 44.3 39.08C44.2533 39.0333 44.23 38.9767 44.23 38.91V38.25C44.23 38.1767 44.25 38.1167 44.29 38.07C44.3367 38.0233 44.3967 38 44.47 38H48.76C48.8333 38 48.8933 38.0233 48.94 38.07C48.9867 38.1167 49.01 38.1767 49.01 38.25V38.85C49.01 38.95 48.9667 39.0433 48.88 39.13L47.15 40.91L47.27 40.92C47.91 40.9733 48.4167 41.1667 48.79 41.5C49.17 41.8333 49.36 42.31 49.36 42.93C49.36 43.37 49.24 43.7533 49 44.08C48.7667 44.4067 48.44 44.66 48.02 44.84C47.6067 45.0133 47.1367 45.1 46.61 45.1Z" fill="#F70B0B"/>
<path d="M55 20L59.5 24.5L64 20" stroke="#D4D6D9" stroke-width="1.5"/>
</svg>
