<svg width="65" height="49" viewBox="0 0 65 49" fill="none" xmlns="http://www.w3.org/2000/svg">
<circle cx="22.5" cy="22.5" r="22" fill="#1E232B" stroke="#F0B90B"/>
<path d="M36 17.0018V19.0018C36 19.5322 35.7893 20.0409 35.4142 20.416C35.0391 20.791 34.5304 21.0018 34 21.0018H10C9.46957 21.0018 8.96086 20.791 8.58579 20.416C8.21071 20.0409 8 19.5322 8 19.0018V17.0018C8 16.4713 8.21071 15.9626 8.58579 15.5875C8.96086 15.2125 9.46957 15.0018 10 15.0018H34C34.5304 15.0018 35.0391 15.2125 35.4142 15.5875C35.7893 15.9626 36 16.4713 36 17.0018ZM29.64 14.0018H27H29.64ZM34.71 21.9018C34.479 21.9672 34.2401 22.0009 34 22.0018H10C9.74984 22.0037 9.50068 21.97 9.26 21.9018H34.71ZM19.64 9.23176C19.539 9.14756 19.4223 9.08412 19.2967 9.04507C19.1711 9.00603 19.039 8.99215 18.908 9.00422C18.7771 9.0163 18.6497 9.0541 18.5334 9.11545C18.417 9.1768 18.3139 9.2605 18.23 9.36176L14.36 14.0018H17L19.8 10.6418C19.8825 10.5389 19.9438 10.4206 19.9805 10.2939C20.0171 10.1672 20.0283 10.0345 20.0134 9.90346C19.9986 9.77241 19.9579 9.64559 19.8938 9.5303C19.8297 9.41502 19.7435 9.31356 19.64 9.23176ZM29.64 14.0018L25.77 9.36176C25.686 9.26064 25.5828 9.17707 25.4665 9.11581C25.3501 9.05455 25.2229 9.01681 25.0919 9.00474C24.961 8.99267 24.829 9.0065 24.7034 9.04546C24.5778 9.08441 24.4611 9.14771 24.36 9.23176C24.2589 9.31581 24.1753 9.41895 24.114 9.53529C24.0528 9.65164 24.0151 9.77891 24.003 9.90984C23.9909 10.0408 24.0047 10.1728 24.0437 10.2984C24.0826 10.424 24.146 10.5406 24.23 10.6418L27 14.0018H29.64ZM34.74 21.9018L33.24 32.4218C33.1381 33.1426 32.7776 33.8018 32.2256 34.2765C31.6737 34.7511 30.968 35.0089 30.24 35.0018H13.73C13.0035 35.0093 12.299 34.7529 11.7473 34.2802C11.1956 33.8076 10.8341 33.1508 10.73 32.4318L9.26 21.9018H34.74ZM18 31.8418L17 25.8418C16.979 25.7104 16.9323 25.5845 16.8626 25.4713C16.793 25.358 16.7017 25.2595 16.594 25.1815C16.4863 25.1035 16.3642 25.0475 16.2349 25.0167C16.1055 24.9858 15.9713 24.9807 15.84 25.0018C15.7087 25.0228 15.5828 25.0694 15.4695 25.1391C15.3562 25.2088 15.2578 25.3001 15.1798 25.4078C15.1018 25.5155 15.0457 25.6375 15.0149 25.7669C14.984 25.8963 14.979 26.0304 15 26.1618L16 32.1618C16.0383 32.3984 16.1604 32.6134 16.3439 32.7675C16.5275 32.9217 16.7603 33.0048 17 33.0018H17.16C17.2921 32.9824 17.4189 32.9367 17.533 32.8675C17.6472 32.7983 17.7463 32.707 17.8246 32.5989C17.9029 32.4908 17.9587 32.3681 17.9889 32.2381C18.019 32.108 18.0228 31.9733 18 31.8418ZM23 26.0018C23 25.7365 22.8946 25.4822 22.7071 25.2947C22.5196 25.1071 22.2652 25.0018 22 25.0018C21.7348 25.0018 21.4804 25.1071 21.2929 25.2947C21.1054 25.4822 21 25.7365 21 26.0018V32.0018C21 32.267 21.1054 32.5213 21.2929 32.7089C21.4804 32.8964 21.7348 33.0018 22 33.0018C22.2652 33.0018 22.5196 32.8964 22.7071 32.7089C22.8946 32.5213 23 32.267 23 32.0018V26.0018ZM29 26.1618C29.021 26.0304 29.016 25.8963 28.9851 25.7669C28.9543 25.6375 28.8982 25.5155 28.8202 25.4078C28.7422 25.3001 28.6438 25.2088 28.5305 25.1391C28.4172 25.0694 28.2913 25.0228 28.16 25.0018C28.0287 24.9807 27.8945 24.9858 27.7651 25.0167C27.6358 25.0475 27.5137 25.1035 27.406 25.1815C27.2983 25.2595 27.207 25.358 27.1374 25.4713C27.0677 25.5845 27.021 25.7104 27 25.8418L26 31.8418C25.9772 31.9733 25.981 32.108 26.0111 32.2381C26.0413 32.3681 26.0971 32.4908 26.1754 32.5989C26.2537 32.707 26.3528 32.7983 26.467 32.8675C26.5811 32.9367 26.7079 32.9824 26.84 33.0018H27C27.2397 33.0048 27.4725 32.9217 27.6561 32.7675C27.8396 32.6134 27.9617 32.3984 28 32.1618L29 26.1618Z" fill="#F0B90B"/>
<rect x="29.5" y="35.5" width="27" height="12.2222" rx="6.11111" fill="#121417" stroke="#0AAE2E"/>
<path d="M40.1694 45C40.1027 45 40.0461 44.9767 39.9994 44.93C39.9527 44.8833 39.9294 44.8267 39.9294 44.76V39.58L38.4094 40.75C38.3694 40.7833 38.3227 40.8 38.2694 40.8C38.1894 40.8 38.1227 40.7633 38.0694 40.69L37.6494 40.15C37.6161 40.0967 37.5994 40.0467 37.5994 40C37.5994 39.92 37.6361 39.8533 37.7094 39.8L39.9494 38.07C40.0094 38.0233 40.0927 38 40.1994 38H41.0794C41.1527 38 41.2094 38.0233 41.2494 38.07C41.2961 38.11 41.3194 38.1667 41.3194 38.24V44.76C41.3194 44.8267 41.2961 44.8833 41.2494 44.93C41.2094 44.9767 41.1527 45 41.0794 45H40.1694ZM45.3083 45.1C44.4217 45.1 43.7583 44.8533 43.3183 44.36C42.885 43.8667 42.6483 43.22 42.6083 42.42C42.6017 42.24 42.5983 41.9333 42.5983 41.5C42.5983 41.06 42.6017 40.7467 42.6083 40.56C42.6417 39.7733 42.8817 39.1333 43.3283 38.64C43.775 38.1467 44.435 37.9 45.3083 37.9C46.1883 37.9 46.8517 38.1467 47.2983 38.64C47.745 39.1333 47.9817 39.7733 48.0083 40.56C48.0217 40.7467 48.0283 41.06 48.0283 41.5C48.0283 41.9333 48.0217 42.24 48.0083 42.42C47.975 43.22 47.7383 43.8667 47.2983 44.36C46.865 44.8533 46.2017 45.1 45.3083 45.1ZM45.3083 43.95C45.7283 43.95 46.0417 43.8133 46.2483 43.54C46.455 43.26 46.565 42.87 46.5783 42.37C46.5917 41.9833 46.5983 41.69 46.5983 41.49C46.5983 41.27 46.5917 40.98 46.5783 40.62C46.565 40.1267 46.455 39.74 46.2483 39.46C46.0417 39.18 45.7283 39.04 45.3083 39.04C44.895 39.04 44.5817 39.18 44.3683 39.46C44.1617 39.74 44.0517 40.1267 44.0383 40.62C44.0317 40.8 44.0283 41.09 44.0283 41.49C44.0283 41.8833 44.0317 42.1767 44.0383 42.37C44.0517 42.87 44.1617 43.26 44.3683 43.54C44.5817 43.8133 44.895 43.95 45.3083 43.95Z" fill="#0AAE2E"/>
<path d="M55 20L59.5 24.5L64 20" stroke="#D4D6D9" stroke-width="1.5"/>
</svg>
