<svg width="45" height="45" viewBox="0 0 45 45" fill="none" xmlns="http://www.w3.org/2000/svg">
<circle cx="22.5" cy="22.5" r="22" fill="#1E232B" stroke="#707070"/>
<path d="M29.3072 19.0141H29.1718V17.2254C29.1718 17.2085 29.1718 17.1887 29.1718 17.1718C29.1718 15.2697 28.4162 13.4455 27.0712 12.1006C25.7262 10.7556 23.9021 10 22 10C20.0979 10 18.2738 10.7556 16.9288 12.1006C15.5838 13.4455 14.8282 15.2697 14.8282 17.1718V19.0141H14.6928C14.2438 19.0141 13.8133 19.1925 13.4958 19.5099C13.1783 19.8274 13 20.2579 13 20.7069V31.6282H31V20.7069C31 20.2579 30.8217 19.8274 30.5042 19.5099C30.1867 19.1925 29.7562 19.0141 29.3072 19.0141ZM23.7464 29.2555H20.3608L21.0125 25.8925C20.7059 25.6817 20.4746 25.3784 20.3527 25.0268C20.2308 24.6752 20.2245 24.2939 20.3348 23.9385C20.4452 23.5831 20.6663 23.2723 20.9659 23.0516C21.2655 22.831 21.6279 22.7119 22 22.7119C22.3721 22.7119 22.7345 22.831 23.0341 23.0516C23.3337 23.2723 23.5548 23.5831 23.6652 23.9385C23.7755 24.2939 23.7692 24.6752 23.6473 25.0268C23.5254 25.3784 23.2941 25.6817 22.9875 25.8925L23.7464 29.2555ZM28.0433 17.2254V19.0141H15.9567V17.1718C15.9567 15.569 16.5934 14.0319 17.7268 12.8986C18.8601 11.7652 20.3972 11.1285 22 11.1285C23.6028 11.1285 25.1399 11.7652 26.2732 12.8986C27.4066 14.0319 28.0433 15.569 28.0433 17.1718C28.0419 17.1896 28.0419 17.2075 28.0433 17.2254ZM13 32.7426V32.974C13 33.4229 13.1783 33.8535 13.4958 34.171C13.8133 34.4884 14.2438 34.6668 14.6928 34.6668H29.3072C29.7562 34.6668 30.1867 34.4884 30.5042 34.171C30.8217 33.8535 31 33.4229 31 32.974V32.7567H13V32.7426Z" fill="#707070"/>
</svg>
