<svg width="47" height="47" viewBox="0 0 47 47" fill="none" xmlns="http://www.w3.org/2000/svg">
<circle cx="23.5" cy="23.5" r="23" fill="#707070" stroke="#707070"/>
<path fill-rule="evenodd" clip-rule="evenodd" d="M23.5 1C11.0736 1 1 11.0736 1 23.5C1 35.9264 11.0736 46 23.5 46C35.9264 46 46 35.9264 46 23.5C46 17.5326 43.6295 11.8097 39.4099 7.5901C35.1903 3.37053 29.4674 1 23.5 1ZM23.4155 37.9918C20.9491 39.184 17.1351 38.1586 17.8007 35.6748L21.3979 22.2497C22.6501 17.5767 19.2298 19.0784 17.6689 19.7636L17.6459 19.7738C18.5938 18.3485 19.9062 17.2032 21.4467 16.457C23.9131 15.2648 27.7271 16.2902 27.0615 18.774L23.4643 32.1995C22.2121 36.8725 25.6325 35.3708 27.1934 34.6855L27.2164 34.6754C26.2684 36.1005 24.9559 37.2457 23.4155 37.9918ZM24.3388 12.1155C24.7422 13.0895 25.6926 13.7245 26.7468 13.7245C27.438 13.7245 28.101 13.4499 28.5897 12.9611C29.0785 12.4723 29.3531 11.8094 29.3531 11.1181C29.3531 10.064 28.7181 9.11359 27.7442 8.71018C26.7703 8.30677 25.6492 8.52975 24.9038 9.27516C24.1584 10.0206 23.9354 11.1416 24.3388 12.1155Z" fill="#1E232B"/>
</svg>
