<svg width="47" height="47" viewBox="0 0 47 47" fill="none" xmlns="http://www.w3.org/2000/svg">
<circle cx="23.5" cy="23.5" r="23" fill="#1E232B" stroke="#F0B90B"/>
<path d="M29.3284 22.2834C29.3284 20.4339 30.0608 19.6987 31.9132 19.6987C30.0636 19.6987 29.3284 18.9663 29.3284 17.1139C29.3284 18.9663 28.5961 19.6987 26.7436 19.6987C28.5961 19.7015 29.3284 20.4339 29.3284 22.2834ZM30.9396 23.2743C30.9396 24.4977 30.4542 24.9974 29.2164 24.9974C30.4399 24.9974 30.9396 25.4828 30.9396 26.7063C30.9396 25.4828 31.4249 24.9974 32.6628 24.9974C31.4249 24.9831 30.9396 24.5035 30.9396 23.2743ZM24.5265 18.4379C24.5265 17.5619 24.874 17.2144 25.7499 17.2144C24.874 17.2144 24.5265 16.8669 24.5265 15.9909C24.5265 16.8669 24.179 17.2144 23.303 17.2144C24.179 17.2144 24.5265 17.5619 24.5265 18.4379ZM27.9326 31.0918C25.9368 30.343 24.141 29.1429 22.6857 27.5853C21.2304 26.0277 20.1548 24.1547 19.5431 22.1127C18.9314 20.0707 18.8 17.9149 19.1593 15.8137C19.5186 13.7125 20.3588 11.7228 21.6143 10C19.4477 10.5178 17.4382 11.5513 15.7569 13.0127C14.0756 14.474 12.7722 16.32 11.9576 18.3933C11.1431 20.4667 10.8415 22.7062 11.0785 24.9212C11.3155 27.1362 12.0842 29.2611 13.319 31.1152C14.5538 32.9693 16.2183 34.4976 18.1707 35.5701C20.1232 36.6426 22.3058 37.2276 24.533 37.2752C26.7601 37.3228 28.9658 36.8317 30.9623 35.8436C32.9588 34.8555 34.6871 33.3997 36 31.6001C33.3207 32.2429 30.5101 32.0658 27.9326 31.0918Z" fill="#F0B90B"/>
</svg>
