<svg width="58" height="66" viewBox="0 0 58 66" fill="none" xmlns="http://www.w3.org/2000/svg">
<path d="M37.3572 0.131302C36.6114 -0.0825513 35.8335 0.348646 35.6197 1.09444L34.0709 6.49582C33.857 7.24161 34.2882 8.01951 35.034 8.23337C35.7798 8.44722 36.5577 8.01602 36.7715 7.27023L38.3204 1.86885C38.5342 1.12306 38.103 0.345155 37.3572 0.131302ZM15.9938 2.56816C15.6481 2.46906 15.2687 2.50868 14.9293 2.69678C14.2508 3.07289 14.0087 3.91713 14.3848 4.59571L17.1087 9.50972C17.4847 10.1882 18.3291 10.4303 19.0076 10.0542C19.6862 9.67812 19.9282 8.83389 19.5521 8.15529L16.8282 3.24129C16.6402 2.90197 16.3393 2.66723 15.9938 2.56816ZM54.1831 13.5188C53.8376 13.4197 53.4581 13.4593 53.1187 13.6474L48.2048 16.3713C47.5262 16.7475 47.2841 17.5917 47.6603 18.2702C48.0364 18.9487 48.8807 19.1908 49.5591 18.8147L54.4732 16.0909C55.1517 15.7147 55.3938 14.8704 55.0177 14.1919C54.8296 13.8526 54.5288 13.6179 54.1831 13.5188ZM33.8724 12.2844C25.6385 9.92338 15.8365 14.0261 13.2456 23.0614C9.88398 34.7849 17.9572 39.7568 15.6037 47.9644L30.4575 52.2237C32.811 44.0161 42.2922 44.0779 45.6539 32.3544C48.2447 23.319 42.1062 14.6454 33.8724 12.2844ZM28.5422 15.1858C28.5492 15.1877 28.5561 15.1897 28.5631 15.1918C28.5986 15.2005 28.6338 15.2106 28.6686 15.222C28.9843 15.3142 29.2577 15.5142 29.4411 15.7872C29.6245 16.0602 29.7063 16.3888 29.6723 16.716C29.6383 17.0431 29.4906 17.3479 29.2549 17.5773C29.0192 17.8068 28.7105 17.9462 28.3826 17.9714C24.7366 18.2686 21.4286 20.473 19.7812 23.8395C19.6158 24.1735 19.3244 24.4282 18.9712 24.5475C18.618 24.6667 18.2319 24.6407 17.8978 24.4753C17.5637 24.3098 17.309 24.0185 17.1898 23.6653C17.0705 23.312 17.0965 22.9259 17.2619 22.5918C19.3476 18.3299 23.5074 15.5594 28.1319 15.1823C28.2681 15.1634 28.4062 15.1645 28.542 15.1857L28.5422 15.1858ZM2.60625 19.3941C1.86045 19.1802 1.08255 19.6114 0.868698 20.3572C0.654845 21.103 1.08604 21.8809 1.83184 22.0948L7.23321 23.6436C7.97901 23.8574 8.75691 23.4262 8.97076 22.6804C9.18461 21.9347 8.75342 21.1568 8.00762 20.9429L2.60625 19.3941ZM51.2186 33.3335C50.4728 33.1196 49.6949 33.5508 49.4811 34.2966C49.2672 35.0424 49.6984 35.8203 50.4442 36.0341L55.8456 37.583C56.5914 37.7968 57.3693 37.3656 57.5831 36.6198C57.797 35.874 57.3658 35.0961 56.62 34.8823L51.2186 33.3335ZM14.8293 50.6651L14.0549 53.3658L28.9087 57.625L29.6831 54.9243L14.8293 50.6651ZM13.2805 56.0665C12.8356 57.6181 13.7818 59.133 15.2068 59.5416L24.6592 62.252C26.0842 62.6606 27.6894 61.8773 28.1343 60.3257L13.2805 56.0665ZM16.8451 61.4727C16.4161 62.9689 17.2752 64.5188 18.7714 64.9478C20.2676 65.3768 21.8175 64.5177 22.2465 63.0215L16.8451 61.4727Z" fill="#778200"/>
</svg>
