<svg width="56" height="56" viewBox="0 0 56 56" fill="none" xmlns="http://www.w3.org/2000/svg">
<path d="M49.8242 41.7089C50.2693 42.0554 50.5595 42.5649 50.6313 43.1259C50.7031 43.6868 50.5506 44.2535 50.2074 44.7018C47.3454 48.4511 43.579 51.4056 39.2641 53.2863C34.9492 55.1671 30.2282 55.9119 25.547 55.4505C20.8658 54.989 16.379 53.3366 12.5104 50.6492C8.64184 47.9618 5.5192 44.3282 3.43747 40.0916C1.35574 35.855 0.383637 31.1553 0.612997 26.4365C0.842358 21.7176 2.26561 17.1354 4.7483 13.1227C7.23099 9.10991 10.6912 5.7991 14.802 3.50298C18.9128 1.20686 23.5385 0.00124167 28.2422 0C28.8066 0 29.348 0.225234 29.7472 0.626153C30.1463 1.02707 30.3706 1.57084 30.3706 2.13782C30.3706 2.70481 30.1463 3.24857 29.7472 3.64949C29.348 4.05041 28.8066 4.27564 28.2422 4.27564C24.2614 4.275 20.3461 5.29386 16.8665 7.23596C13.3868 9.17807 10.4576 11.9793 8.35565 15.3748C6.25373 18.7704 5.0485 22.6482 4.85386 26.6419C4.65922 30.6355 5.48159 34.613 7.24327 38.1985C9.00495 41.7841 11.6477 44.8593 14.9219 47.1334C18.1961 49.4076 21.9935 50.8057 25.9554 51.1956C29.9172 51.5855 33.9126 50.9543 37.564 49.3617C41.2153 47.7691 44.4021 45.2676 46.8232 42.0937C46.9942 41.8693 47.2078 41.6812 47.4516 41.5402C47.6955 41.3992 47.9647 41.3082 48.2438 41.2725C48.5229 41.2367 48.8062 41.2568 49.0775 41.3317C49.3488 41.4066 49.6026 41.5348 49.8242 41.7089ZM49.0793 15.0716C49.5206 15.075 49.952 14.9405 50.3138 14.6868C50.5423 14.5232 50.7364 14.3158 50.8848 14.0765C51.0332 13.8372 51.133 13.5708 51.1785 13.2927C51.224 13.0145 51.2143 12.73 51.1499 12.4556C51.0855 12.1812 50.9677 11.9224 50.8033 11.6939C50.5913 11.3949 50.3063 11.1557 49.9756 10.9994C49.6449 10.8432 49.2798 10.775 48.9153 10.8016C48.5508 10.8282 48.1993 10.9486 47.8946 11.1513C47.5898 11.3539 47.3422 11.6319 47.1755 11.9586C47.0088 12.2852 46.9286 12.6495 46.9427 13.0162C46.9567 13.383 47.0646 13.74 47.2559 14.0528C47.4472 14.3656 47.7154 14.6236 48.0348 14.802C48.3541 14.9805 48.7139 15.0733 49.0793 15.0716ZM43.4177 9.27814C43.7814 9.27719 44.1388 9.18265 44.4558 9.00355C44.7727 8.82444 45.0387 8.56674 45.2284 8.25503C45.418 7.94332 45.525 7.58801 45.539 7.22299C45.5531 6.85796 45.4738 6.49541 45.3087 6.16992C45.1436 5.84442 44.8982 5.56685 44.596 5.36367C44.2937 5.1605 43.9447 5.03851 43.5822 5.00934C43.2196 4.98016 42.8557 5.04478 42.5251 5.19703C42.1945 5.34927 41.9083 5.58407 41.6937 5.87901C41.4615 6.19812 41.322 6.57562 41.2906 6.96959C41.2592 7.36356 41.3371 7.75857 41.5157 8.11074C41.6943 8.46291 41.9666 8.75845 42.3024 8.96453C42.6382 9.17061 43.0242 9.27917 43.4177 9.27814ZM50.6118 20.8437C50.7523 21.2942 51.0372 21.6853 51.4223 21.956C51.8073 22.2267 52.2707 22.3618 52.7402 22.3402C52.9446 22.373 53.153 22.373 53.3574 22.3402C53.7598 22.2156 54.1163 21.9739 54.3818 21.6457C54.6474 21.3176 54.8101 20.9176 54.8493 20.4966C54.8886 20.0755 54.8026 19.6522 54.6023 19.2802C54.402 18.9083 54.0963 18.6043 53.724 18.4069C53.3516 18.2094 52.9294 18.1273 52.5106 18.1709C52.0918 18.2146 51.6953 18.382 51.3712 18.652C51.0472 18.922 50.8101 19.2825 50.6901 19.6879C50.5701 20.0932 50.5724 20.5253 50.6969 20.9293L50.6118 20.8437ZM53.0807 34.2051C52.8166 34.1103 52.5365 34.0689 52.2564 34.0831C51.9763 34.0974 51.7018 34.1671 51.4486 34.2883C51.1955 34.4095 50.9686 34.5798 50.7812 34.7893C50.5937 34.9988 50.4494 35.2435 50.3563 35.5092C50.1701 36.045 50.2033 36.6332 50.4488 37.1444C50.6943 37.6555 51.1319 38.0478 51.6653 38.2349C52.1988 38.422 52.7844 38.3886 53.2933 38.1421C53.8022 37.8955 54.1928 37.456 54.379 36.9202C54.5631 36.3871 54.5299 35.8026 54.2867 35.294C54.0435 34.7854 53.61 34.394 53.0807 34.2051ZM53.8257 26.0814C53.2612 26.0814 52.7198 26.3066 52.3206 26.7076C51.9215 27.1085 51.6972 27.6522 51.6972 28.2192C51.6972 28.7862 51.9215 29.33 52.3206 29.7309C52.7198 30.1318 53.2612 30.357 53.8257 30.357C54.3901 30.357 54.9315 30.1318 55.3307 29.7309C55.7298 29.33 55.9541 28.7862 55.9541 28.2192C55.9541 27.6522 55.7298 27.1085 55.3307 26.7076C54.9315 26.3066 54.3901 26.0814 53.8257 26.0814ZM36.245 5.55833C36.6323 5.53899 37.007 5.4137 37.3287 5.19602C37.6503 4.97834 37.9066 4.67653 38.0699 4.32319C38.2331 3.96986 38.2972 3.57843 38.2551 3.19118C38.213 2.80394 38.0664 2.43561 37.8311 2.12598C37.5958 1.81634 37.2807 1.57717 36.9199 1.4343C36.5591 1.29144 36.1663 1.2503 35.7839 1.31534C35.4015 1.38038 35.0441 1.54912 34.7502 1.80334C34.4564 2.05756 34.2373 2.38759 34.1166 2.75779C34.0091 3.08734 33.9831 3.43819 34.0407 3.7801C34.0984 4.122 34.238 4.44469 34.4474 4.72032C34.6569 4.99596 34.93 5.21628 35.2432 5.36228C35.5563 5.50827 35.9002 5.57556 36.245 5.55833ZM30.3706 11.5656C30.3706 10.9986 30.1463 10.4549 29.7472 10.0539C29.348 9.65302 28.8066 9.42779 28.2422 9.42779C27.6777 9.42779 27.1363 9.65302 26.7371 10.0539C26.338 10.4549 26.1137 10.9986 26.1137 11.5656V27.7917C26.1155 28.2336 26.2536 28.6641 26.5089 29.024C26.7643 29.3839 27.1244 29.6554 27.5398 29.8012L38.8842 33.7989C39.1095 33.8811 39.3469 33.9245 39.5866 33.9272C40.0961 33.9366 40.592 33.762 40.9843 33.4352C41.3765 33.1084 41.639 32.6511 41.724 32.1465C41.809 31.6418 41.711 31.1232 41.4476 30.685C41.1843 30.2468 40.7732 29.918 40.289 29.7585L30.3706 26.2738V11.5656Z" fill="#FF5B5B"/>
</svg>
