<svg width="134" height="119" viewBox="0 0 134 119" fill="none" xmlns="http://www.w3.org/2000/svg">
<path d="M64.6249 104.64C64.4649 104.64 64.3249 104.59 64.2049 104.49C64.0849 104.37 64.0249 104.23 64.0249 104.07V103.38C64.1649 102.54 64.4749 101.79 64.9549 101.13C65.4549 100.47 66.1349 99.72 66.9949 98.88C67.6349 98.24 68.1149 97.72 68.4349 97.32C68.7549 96.9 68.9249 96.48 68.9449 96.06C69.0049 95.44 68.7949 94.95 68.3149 94.59C67.8549 94.21 67.2949 94.02 66.6349 94.02C65.0749 94.02 64.1149 94.77 63.7549 96.27C63.5949 96.75 63.2849 96.99 62.8249 96.99H59.1649C58.9449 96.99 58.7649 96.92 58.6249 96.78C58.5049 96.62 58.4449 96.42 58.4449 96.18C58.4849 95.08 58.8349 94.04 59.4949 93.06C60.1549 92.06 61.1249 91.25 62.4049 90.63C63.6849 90.01 65.2149 89.7 66.9949 89.7C68.8149 89.7 70.2949 89.99 71.4349 90.57C72.5749 91.13 73.3849 91.83 73.8649 92.67C74.3649 93.49 74.6149 94.33 74.6149 95.19C74.6149 96.17 74.3849 97.03 73.9249 97.77C73.4849 98.51 72.8249 99.36 71.9449 100.32C71.4049 100.9 70.9749 101.39 70.6549 101.79C70.3549 102.19 70.1249 102.61 69.9649 103.05C69.9049 103.23 69.8349 103.5 69.7549 103.86C69.5949 104.14 69.4549 104.34 69.3349 104.46C69.2149 104.58 69.0449 104.64 68.8249 104.64H64.6249ZM64.6849 111C64.4649 111 64.2849 110.93 64.1449 110.79C64.0049 110.65 63.9349 110.47 63.9349 110.25V106.83C63.9349 106.61 64.0049 106.43 64.1449 106.29C64.2849 106.15 64.4649 106.08 64.6849 106.08H68.5249C68.7449 106.08 68.9249 106.15 69.0649 106.29C69.2249 106.43 69.3049 106.61 69.3049 106.83V110.25C69.3049 110.47 69.2249 110.65 69.0649 110.79C68.9249 110.93 68.7449 111 68.5249 111H64.6849Z" fill="#F0B90B"/>
<path d="M16.9851 93.8169C16.7927 93.7247 16.653 93.5839 16.5659 93.3943C16.4902 93.1806 16.4981 92.9774 16.5896 92.7847L16.9843 91.9537C17.6331 91.0226 18.4348 90.2979 19.3895 89.7795C20.3682 89.2726 21.6148 88.761 23.1294 88.2447C24.265 87.8426 25.1396 87.4928 25.7532 87.1954C26.3782 86.8738 26.8228 86.4659 27.0871 85.9716C27.5139 85.2594 27.5416 84.5482 27.1703 83.8381C26.8345 83.1155 26.2698 82.564 25.4762 82.1838C23.6004 81.2851 22.017 81.6354 20.7262 83.2346C20.2593 83.7206 19.7493 83.8311 19.1961 83.5661L14.7951 81.4576C14.5306 81.3309 14.3542 81.1429 14.2659 80.8936C14.2131 80.6318 14.2554 80.3563 14.3926 80.0673C15.0699 78.7654 16.0856 77.7145 17.4397 76.9143C18.8053 76.0901 20.435 75.6733 22.3287 75.664C24.2225 75.6546 26.2396 76.1626 28.3799 77.1881C30.5684 78.2365 32.1822 79.4384 33.2213 80.7937C34.2718 82.1249 34.8454 83.4346 34.9421 84.7229C35.0744 85.9985 34.8945 87.1543 34.4027 88.1901C33.8421 89.3704 33.0737 90.2737 32.0973 90.9C31.145 91.5378 29.8652 92.1814 28.258 92.8307C27.2769 93.2182 26.4796 93.5606 25.866 93.858C25.2765 94.167 24.7597 94.5403 24.3157 94.9781C24.1406 95.1604 23.902 95.4452 23.5999 95.8327C23.2473 96.0778 22.9646 96.238 22.7516 96.3134C22.5387 96.3888 22.3 96.3632 22.0354 96.2364L16.9851 93.8169ZM13.4196 101.512C13.1551 101.385 12.9787 101.197 12.8904 100.948C12.8021 100.698 12.8209 100.441 12.9467 100.176L14.9028 96.0571C15.0287 95.7921 15.2158 95.6157 15.4642 95.5277C15.7126 95.4397 15.9691 95.4591 16.2336 95.5858L20.8511 97.798C21.1156 97.9247 21.292 98.1127 21.3803 98.362C21.4926 98.6228 21.4859 98.8857 21.36 99.1506L19.404 103.27C19.2781 103.535 19.079 103.705 18.8065 103.782C18.5581 103.87 18.3016 103.851 18.0371 103.724L13.4196 101.512Z" fill="#F0B90B"/>
<path d="M111.889 95.9728C111.7 96.0716 111.504 96.0989 111.301 96.0547C111.086 95.9868 110.929 95.8581 110.831 95.6687L110.407 94.8519C110.057 93.771 109.963 92.6916 110.126 91.6138C110.312 90.5236 110.655 89.2156 111.156 87.6899C111.519 86.5369 111.767 85.6248 111.9 84.9536C112.02 84.2587 111.964 83.6565 111.73 83.1469C111.42 82.3759 110.871 81.9256 110.083 81.796C109.307 81.6303 108.528 81.7514 107.749 82.1591C105.905 83.1229 105.231 84.6038 105.726 86.6019C105.831 87.269 105.612 87.7446 105.069 88.0288L100.744 90.29C100.484 90.4259 100.229 90.4542 99.9775 90.375C99.7376 90.2597 99.544 90.06 99.3967 89.7759C98.7691 88.449 98.5446 87.0017 98.7231 85.4338C98.8894 83.8423 99.5386 82.2841 100.671 80.7594C101.803 79.2347 103.42 77.9224 105.523 76.8227C107.674 75.6983 109.601 75.1273 111.303 75.1096C112.994 75.0682 114.38 75.3965 115.463 76.0943C116.557 76.7561 117.368 77.596 117.895 78.6141C118.496 79.7742 118.752 80.9344 118.663 82.0946C118.597 83.2424 118.339 84.6564 117.888 86.3365C117.606 87.3567 117.398 88.2024 117.266 88.8736C117.156 89.5325 117.142 90.1718 117.223 90.7915C117.263 91.0416 117.346 91.4045 117.472 91.8801C117.455 92.3104 117.412 92.6336 117.344 92.8498C117.276 93.066 117.112 93.2421 116.852 93.378L111.889 95.9728ZM115.862 103.465C115.602 103.601 115.347 103.629 115.095 103.55C114.844 103.47 114.651 103.301 114.516 103.04L112.418 98.9916C112.283 98.7311 112.255 98.4748 112.334 98.2226C112.414 97.9703 112.584 97.7763 112.844 97.6404L117.381 95.268C117.641 95.1321 117.896 95.1037 118.148 95.183C118.423 95.2499 118.628 95.4135 118.763 95.674L120.861 99.7225C120.996 99.9829 121.012 100.245 120.909 100.51C120.829 100.762 120.659 100.956 120.399 101.092L115.862 103.465Z" fill="#F0B90B"/>
<g clip-path="url(#clip0)">
<path d="M29.251 21.5156L67.0526 40.5L104.854 21.5156V62.0156L67.0526 80.9997L29.251 62.0153V21.5156Z" fill="#DB5449"/>
<path d="M29.251 25.3125V37.146L66.9265 55.6874L104.854 37.0827V25.3125L67.0526 43.9174L29.251 25.3125Z" fill="#C54B42"/>
<path d="M67.0526 80.9997V40.5L31.7711 22.7812H29.251V62.0156L67.0526 80.9997Z" fill="#D05045"/>
<path d="M29.251 25.3125V37.146L66.9265 55.6874L67.0526 55.6241V43.8539V43.9172L29.251 25.3125Z" fill="#BB483E"/>
<path d="M26.7305 20.1877L67.0522 0.000976562L107.374 20.1877V22.8456L67.0522 43.0319L26.7305 22.9087V20.1877Z" fill="#EB6258"/>
<path d="M90.1744 6.39146C88.8513 3.9868 86.0162 2.53125 82.677 2.53125C75.0538 2.53125 69.6986 9.68208 67.0524 14.2383C64.4062 9.68208 58.9881 2.59456 51.4277 2.59456C46.5765 2.59456 43.1113 5.56881 43.1113 9.61878C43.1113 16.8328 50.9867 21.5156 66.8003 21.5156C82.6139 21.5156 90.9933 15.504 90.9933 9.68208C90.9934 8.54306 90.7415 7.40403 90.1744 6.39146ZM53.0659 14.1752C51.3018 12.9729 50.6719 11.6439 50.6719 10.758C50.6719 9.68224 51.68 8.85959 53.129 8.85959C56.5312 8.85959 59.2402 13.3525 60.7522 16.4534C56.7831 16.1369 54.4519 15.061 53.0659 14.1752ZM81.039 14.1752C79.6529 15.0612 77.3218 16.1369 73.3527 16.4532C74.8017 13.3525 77.5109 8.85943 80.976 8.85943C82.4249 8.85943 83.4331 9.68208 83.4331 10.7578C83.4332 11.6439 82.8031 12.9727 81.039 14.1752Z" fill="#EFEFEF"/>
<path d="M26.7305 20.25L67.0522 40.057L107.374 20.25V33.3492L66.9262 53.1562L26.7305 33.3492V20.25Z" fill="#E2574C"/>
<path d="M82.1731 34.3614V32.906L67.0525 24.6795L51.9319 32.906V34.3614L41.8516 29.9318V27.9068L66.5485 14.8076L67.0525 15.0607L67.5566 14.8076L92.2535 27.8435V29.8685L82.1731 34.3614Z" fill="#EFEFEF"/>
<path d="M82.1729 32.9063V73.343L92.2532 68.2805V27.8438L82.1729 32.9063Z" fill="#DCDCDC"/>
<path d="M41.8506 68.3436L51.9309 73.4061V32.9696L41.8506 27.8438C41.8506 27.8436 41.8506 68.3436 41.8506 68.3436Z" fill="#D1D1D1"/>
</g>
<defs>
<clipPath id="clip0">
<rect width="80.6435" height="81" fill="white" transform="translate(26.7305)"/>
</clipPath>
</defs>
</svg>
