<svg width="80" height="80" viewBox="0 0 80 80" fill="none" xmlns="http://www.w3.org/2000/svg">
<path d="M49.5909 34.6738C42.4637 34.6738 36.9502 40.4509 36.9502 47.2702C36.9502 54.3697 42.4637 59.7741 50.165 59.7741C56.6253 59.7741 62.0447 54.4674 62.0447 47.4591C62.046 40.1642 56.6267 34.6738 49.5909 34.6738Z" fill="#3F9C05"/>
<path d="M58.8772 55.6272C63.4452 51.0762 63.5105 43.5051 58.5359 38.5502C53.3598 33.3933 45.6309 33.3282 40.6562 38.2857" fill="#286304"/>
<path d="M62.6321 67.3477C57.4011 71.7058 53.2842 73.3136 47.2045 73.3136C41.0201 73.3136 35.5419 71.3241 31.0746 67.3477C25.1792 62.1387 22.0576 55.3206 22.0576 47.3639C22.0576 40.0742 24.8706 33.5349 30.1971 28.4224C34.9456 23.7815 40.6225 21.4128 47.0907 21.4128C53.2685 21.4128 58.7075 23.4974 61.323 27.8543V7.05231C54.7855 3.18532 48.0741 0.936523 40.2995 0.936523C18.5097 0.936523 0.899414 18.5308 0.899414 40.2396C0.899414 61.9472 18.5842 79.4346 40.3741 79.4346C48.4115 79.4346 55.9115 76.7207 62.1456 72.812H62.6321V67.3477Z" fill="#3F9C05"/>
<path d="M0.90332 40.2396C0.90332 61.9472 18.5633 79.4346 40.3531 79.4346C48.3906 79.4346 55.8644 76.7207 62.0998 72.812H62.585V67.3477C57.3539 71.7058 53.2371 73.3136 47.1574 73.3136C40.973 73.3136 35.4948 71.3241 31.0275 67.3477C25.1321 62.1387 22.0105 55.3206 22.0105 47.3639C22.0105 40.0742 24.8235 33.5349 30.15 28.4224C34.8984 23.7815 40.5754 21.4128 47.0436 21.4128C53.2214 21.4128 58.6604 23.4974 61.2759 27.8543V7.05231C54.7384 3.18532 48.027 0.936523 40.2524 0.936523" fill="#286304"/>
<path d="M0.799805 40.5468C0.799805 62.2543 18.5094 79.588 40.3006 79.588C48.3381 79.588 55.8629 76.7204 62.097 72.8117H62.5822V67.3474C57.3511 71.7055 53.2343 73.3133 47.1545 73.3133C40.9702 73.3133 35.492 71.3238 31.0247 67.3474C25.1293 62.1384 22.0077 55.3203 22.0077 47.3636C22.0077 40.0739 24.8207 33.5347 30.1472 28.4221C34.8956 23.7812 40.5726 21.4125 47.0408 21.4125C53.2186 21.4125 58.6576 23.4972 61.2731 27.854V7.66699" fill="#3F9C05"/>
<path d="M76.9678 55.9945C79.0903 51.1699 79.8004 45.8437 79.8004 40.2399C79.8004 34.6362 79.0903 29.31 76.9678 24.4854" fill="#286304"/>
<path d="M76.9685 24.4853V2.59277L61.2754 5.68976V7.05258C67.8142 11.2271 73.0452 17.292 76.9685 24.4853Z" fill="#3F9C05"/>
<path d="M76.9683 55.9932C73.045 62.9597 68.8851 68.9023 62.583 72.8109H76.9683V55.9932Z" fill="#3F9C05"/>
</svg>
