<svg width="79" height="79" viewBox="0 0 79 79" fill="none" xmlns="http://www.w3.org/2000/svg">
<path d="M48.6457 33.7373C41.5498 33.7373 36.0605 39.5144 36.0605 46.3337C36.0605 53.4332 41.5498 58.8376 49.2173 58.8376C55.6491 58.8376 61.0446 53.5309 61.0446 46.5226C61.0459 39.2277 55.6504 33.7373 48.6457 33.7373Z" fill="#F0B90B"/>
<path d="M57.8918 54.6907C62.4396 50.1397 62.5047 42.5685 57.5519 37.6136C52.3986 32.4568 44.7038 32.3916 39.751 37.3492" fill="#F8D12F"/>
<path d="M61.6299 66.4111C56.4219 70.7693 52.3232 72.3771 46.2702 72.3771C40.113 72.3771 34.659 70.3876 30.2113 66.4111C24.3419 61.2022 21.234 54.3841 21.234 46.4273C21.234 39.1377 24.0346 32.5984 29.3377 27.4859C34.0652 22.845 39.7172 20.4763 46.1569 20.4763C52.3076 20.4763 57.7226 22.5609 60.3266 26.9178V6.11579C53.8179 2.2488 47.136 0 39.3956 0C17.7017 0 0.168945 17.5943 0.168945 39.3031C0.168945 61.0107 17.7759 78.4981 39.4698 78.4981C47.4719 78.4981 54.9389 75.7842 61.1456 71.8755H61.6299V66.4111Z" fill="#F0B90B"/>
<path d="M0.172852 39.3031C0.172852 61.0107 17.7551 78.4981 39.449 78.4981C47.4511 78.4981 54.892 75.7842 61.1 71.8755H61.583V66.4111C56.375 70.7693 52.2763 72.3771 46.2233 72.3771C40.0661 72.3771 34.6121 70.3876 30.1644 66.4111C24.295 61.2022 21.1871 54.3841 21.1871 46.4273C21.1871 39.1377 23.9877 32.5984 29.2908 27.4859C34.0184 22.845 39.6703 20.4763 46.11 20.4763C52.2607 20.4763 57.6757 22.5609 60.2797 26.9178V6.11579C53.771 2.2488 47.0891 0 39.3487 0" fill="#F8D12F"/>
<path d="M0.0693359 39.6103C0.0693359 61.3178 17.701 78.6516 39.3963 78.6516C47.3984 78.6516 54.8901 75.7839 61.0968 71.8752H61.5798V66.4109C56.3718 70.769 52.2731 72.3768 46.2201 72.3768C40.0629 72.3768 34.6088 70.3873 30.1612 66.4109C24.2918 61.2019 21.1839 54.3838 21.1839 46.4271C21.1839 39.1374 23.9845 32.5981 29.2876 27.4856C34.0151 22.8447 39.6671 20.476 46.1068 20.476C52.2575 20.476 57.6725 22.5606 60.2765 26.9175V6.73047" fill="#F0B90B"/>
<path d="M75.9023 55.058C78.0155 50.2334 78.7225 44.9072 78.7225 39.3034C78.7225 33.6997 78.0155 28.3734 75.9023 23.5488" fill="#F8D12F"/>
<path d="M75.9033 23.5488V1.65625L60.2793 4.75323V6.11605C66.7893 10.2905 71.9973 16.3555 75.9033 23.5488Z" fill="#F0B90B"/>
<path d="M75.9031 55.0566C71.9971 62.0232 67.8554 67.9657 61.5811 71.8744H75.9031V55.0566Z" fill="#F0B90B"/>
</svg>
