<svg width="16" height="16" viewBox="0 0 16 16" fill="none" xmlns="http://www.w3.org/2000/svg">
<path d="M15.4149 14.2219L11.663 10.4969C12.5789 9.3875 13.1266 7.97188 13.1266 6.425C13.1266 2.87813 10.2277 0 6.6552 0C3.07957 0 0.180664 2.87812 0.180664 6.42812C0.180664 9.97812 3.07957 12.8562 6.6552 12.8562C8.2101 12.8562 9.63909 12.3125 10.7565 11.4031L14.5052 15.125C14.757 15.375 15.1631 15.375 15.4149 15.125C15.6667 14.875 15.6667 14.4719 15.4149 14.2219ZM1.46487 6.42812C1.46487 3.58437 3.78777 1.27813 6.65205 1.27813C9.51634 1.27813 11.8392 3.58437 11.8392 6.42812C11.8392 9.27188 9.51634 11.5781 6.65205 11.5781C3.78777 11.5781 1.46487 9.27188 1.46487 6.42812Z" fill="#D4D6D9"/>
</svg>
