<svg width="48" height="48" viewBox="0 0 48 48" fill="none" xmlns="http://www.w3.org/2000/svg">
<path d="M28.8424 23.6907C28.8424 26.1951 26.8123 28.2252 24.3079 28.2252C21.8036 28.2252 19.7734 26.1951 19.7734 23.6907C19.7734 21.1864 21.8036 19.1562 24.3079 19.1562C26.8123 19.1562 28.8424 21.1864 28.8424 23.6907Z" fill="#F0B90B"/>
<path d="M34.9144 15.6675C34.6965 15.0768 34.3487 14.5422 33.8968 14.1033C33.458 13.6515 32.9237 13.3037 32.3327 13.0857C31.8534 12.8996 31.1333 12.678 29.807 12.6176C28.3722 12.5522 27.9421 12.5381 24.3098 12.5381C20.6773 12.5381 20.2471 12.5518 18.8127 12.6173C17.4864 12.678 16.766 12.8996 16.287 13.0857C15.696 13.3037 15.1613 13.6515 14.7228 14.1033C14.271 14.5422 13.9232 15.0765 13.7049 15.6675C13.5187 16.1468 13.2971 16.8673 13.2368 18.1936C13.1713 19.6279 13.1572 20.0581 13.1572 23.6907C13.1572 27.3229 13.1713 27.7531 13.2368 29.1878C13.2971 30.5141 13.5187 31.2342 13.7049 31.7136C13.9232 32.3046 14.2706 32.8389 14.7225 33.2777C15.1613 33.7296 15.6956 34.0773 16.2866 34.2953C16.766 34.4818 17.4864 34.7034 18.8127 34.7638C20.2471 34.8292 20.6769 34.8429 24.3095 34.8429C27.9424 34.8429 28.3726 34.8292 29.8066 34.7638C31.1329 34.7034 31.8534 34.4818 32.3327 34.2953C33.5191 33.8377 34.4568 32.9 34.9144 31.7136C35.1006 31.2342 35.3222 30.5141 35.3829 29.1878C35.4484 27.7531 35.4621 27.3229 35.4621 23.6907C35.4621 20.0581 35.4484 19.6279 35.3829 18.1936C35.3226 16.8673 35.101 16.1468 34.9144 15.6675ZM24.3098 30.6757C20.4517 30.6757 17.3241 27.5485 17.3241 23.6903C17.3241 19.8322 20.4517 16.705 24.3098 16.705C28.1676 16.705 31.2952 19.8322 31.2952 23.6903C31.2952 27.5485 28.1676 30.6757 24.3098 30.6757ZM31.5714 18.0613C30.6698 18.0613 29.9389 17.3303 29.9389 16.4288C29.9389 15.5272 30.6698 14.7963 31.5714 14.7963C32.4729 14.7963 33.2039 15.5272 33.2039 16.4288C33.2035 17.3303 32.4729 18.0613 31.5714 18.0613Z" fill="#F0B90B"/>
<path d="M24.3096 0C11.2277 0 0.619141 10.6086 0.619141 23.6904C0.619141 36.7723 11.2277 47.3809 24.3096 47.3809C37.3914 47.3809 48 36.7723 48 23.6904C48 10.6086 37.3914 0 24.3096 0ZM37.831 29.2989C37.7652 30.747 37.535 31.7357 37.1988 32.6011C36.4921 34.4284 35.0476 35.8729 33.2202 36.5796C32.3552 36.9158 31.3662 37.1457 29.9184 37.2119C28.4678 37.278 28.0043 37.2939 24.3099 37.2939C20.6152 37.2939 20.1521 37.278 18.7011 37.2119C17.2533 37.1457 16.2643 36.9158 15.3993 36.5796C14.4912 36.238 13.6692 35.7027 12.9896 35.0104C12.2977 34.3312 11.7624 33.5088 11.4207 32.6011C11.0846 31.7361 10.8543 30.747 10.7885 29.2993C10.7216 27.8483 10.7061 27.3848 10.7061 23.6904C10.7061 19.996 10.7216 19.5326 10.7881 18.082C10.8539 16.6338 11.0838 15.6452 11.42 14.7798C11.7616 13.8721 12.2974 13.0497 12.9896 12.3705C13.6688 11.6782 14.4912 11.1428 15.3989 10.8012C16.2643 10.4651 17.253 10.2352 18.7011 10.169C20.1518 10.1028 20.6152 10.0869 24.3096 10.0869C28.004 10.0869 28.4674 10.1028 29.9181 10.1694C31.3662 10.2352 32.3548 10.4651 33.2202 10.8009C34.1279 11.1425 34.9503 11.6782 35.6299 12.3705C36.3218 13.0501 36.8575 13.8721 37.1988 14.7798C37.5353 15.6452 37.7652 16.6338 37.8314 18.082C37.8975 19.5326 37.9131 19.996 37.9131 23.6904C37.9131 27.3848 37.8975 27.8483 37.831 29.2989Z" fill="#F0B90B"/>
</svg>
