<svg width="50" height="50" viewBox="0 0 50 50" fill="none" xmlns="http://www.w3.org/2000/svg">
<circle cx="25" cy="25" r="25" fill="#F0B90B"/>
<path d="M37.8743 13.1257C34.569 9.82027 30.1744 8 25.5 8C20.8256 8 16.4309 9.82027 13.1257 13.1256C9.82027 16.4309 8 20.8256 8 25.5C8 30.1744 9.82027 34.569 13.1257 37.8743C16.4309 41.1797 20.8256 42.9999 25.5 42.9999C30.1745 42.9999 34.569 41.1797 37.8744 37.8743C41.1797 34.569 43 30.1743 43 25.4999C43 20.8255 41.1797 16.4309 37.8743 13.1257ZM14.5773 14.5773C16.1161 13.0384 17.9226 11.8647 19.8917 11.0986C19.3672 11.7533 18.8765 12.5059 18.4267 13.3523C17.9044 14.3353 17.4537 15.4149 17.0783 16.5681C15.778 16.3523 14.5732 16.0869 13.4968 15.7755C13.8341 15.3608 14.194 14.9605 14.5773 14.5773ZM12.2539 17.5419C13.5129 17.9451 14.9527 18.285 16.5237 18.5543C16.0862 20.4113 15.8287 22.4097 15.7673 24.4736H10.0874C10.2487 21.9967 10.9926 19.6329 12.2539 17.5419ZM12.1422 33.2682C10.949 31.2243 10.2439 28.9287 10.0874 26.5264H15.7712C15.8383 28.5313 16.0907 30.4729 16.5134 32.2813C14.9101 32.5412 13.4342 32.8726 12.1422 33.2682ZM14.5773 36.4227C14.1411 35.9865 13.7349 35.5285 13.3583 35.0518C14.4742 34.7424 15.7216 34.4804 17.0644 34.2702C17.4424 35.4394 17.898 36.5333 18.4267 37.5284C18.9168 38.4508 19.4557 39.2612 20.0338 39.9555C18.0097 39.191 16.1531 37.9984 14.5773 36.4227ZM24.4735 40.6836C22.9144 40.2469 21.4395 38.8231 20.2396 36.5651C19.82 35.7754 19.4514 34.9138 19.1356 33.9956C20.8261 33.8096 22.625 33.6996 24.4735 33.6737V40.6836ZM24.4735 31.6207C22.4236 31.6487 20.4255 31.7774 18.5543 31.9971C18.1415 30.2908 17.8932 28.444 17.825 26.5265H24.4736V31.6207H24.4735ZM24.4735 24.4735H17.8211C17.8834 22.5024 18.1357 20.604 18.5613 18.8543C20.4206 19.0867 22.4145 19.2281 24.4735 19.2686V24.4735ZM24.4735 17.2154C22.6178 17.178 20.8229 17.057 19.1444 16.8596C19.4582 15.9509 19.8239 15.0981 20.2396 14.3156C21.4394 12.0575 22.9144 10.6337 24.4735 10.197V17.2154ZM38.8107 17.651C40.0326 19.715 40.754 22.0396 40.9127 24.4735H35.2329C35.1721 22.4334 34.9195 20.4575 34.4912 18.6187C36.0725 18.3633 37.5302 18.0384 38.8107 17.651ZM36.4227 14.5773C36.8348 14.9894 37.2198 15.4214 37.5789 15.8699C36.4802 16.17 35.2566 16.4246 33.9419 16.6296C33.5626 15.4532 33.105 14.3528 32.5733 13.3523C32.1236 12.5059 31.6329 11.7533 31.1084 11.0986C33.0773 11.8647 34.8839 13.0384 36.4227 14.5773ZM26.5265 26.5265H33.175C33.1064 28.4589 32.8547 30.3197 32.4361 32.0371C30.5771 31.8059 28.5841 31.6659 26.5265 31.6265V26.5265ZM26.5265 24.4735V19.2754C28.5776 19.2485 30.5773 19.1208 32.4502 18.9019C32.8689 20.6384 33.1171 22.5203 33.1789 24.4735H26.5265ZM26.5263 10.197H26.5264C28.0856 10.6337 29.5605 12.0575 30.7603 14.3156C31.1826 15.1104 31.5534 15.9779 31.8705 16.9029C30.1777 17.0882 28.3768 17.1974 26.5263 17.2224V10.197ZM26.5265 40.6836V33.6797C28.3804 33.716 30.1739 33.8359 31.8519 34.0321C31.5389 34.9367 31.1744 35.7858 30.7604 36.5651C29.5605 38.8231 28.0856 40.2469 26.5265 40.6836ZM36.4227 36.4227C34.8469 37.9985 32.9903 39.191 30.9662 39.9554C31.5443 39.2612 32.0831 38.4508 32.5733 37.5284C33.0942 36.548 33.5438 35.4716 33.9186 34.3219C35.2492 34.5416 36.4802 34.8131 37.5768 35.1326C37.2184 35.5801 36.8341 36.0113 36.4227 36.4227ZM38.8031 33.3619C37.5293 32.9524 36.0688 32.6078 34.4742 32.3359C34.9046 30.512 35.1611 28.5515 35.229 26.5265H40.9128C40.7536 28.9654 40.0297 31.2948 38.8031 33.3619Z" fill="#580F77"/>
</svg>
