<svg width="48" height="48" viewBox="0 0 48 48" fill="none" xmlns="http://www.w3.org/2000/svg">
<path d="M23.6904 0C10.6086 0 0 10.6086 0 23.6904C0 36.7723 10.6086 47.3809 23.6904 47.3809C36.7723 47.3809 47.3809 36.7723 47.3809 23.6904C47.3809 10.6086 36.7723 0 23.6904 0ZM35.5754 18.1262V21.334C34.0629 21.3345 32.5932 21.0381 31.2072 20.4534C30.3159 20.0771 29.4855 19.5923 28.726 19.0064L28.7488 28.8798C28.7393 31.1031 27.8597 33.1921 26.2677 34.7655C24.9721 36.0463 23.3305 36.8607 21.5511 37.1244C21.133 37.1863 20.7075 37.218 20.2772 37.218C18.3724 37.218 16.5641 36.601 15.0848 35.4625C14.8064 35.2482 14.5402 35.0159 14.2867 34.7655C12.5614 33.0603 11.6717 30.7492 11.8215 28.3178C11.9358 26.4671 12.6768 24.7021 13.912 23.3187C15.5463 21.4881 17.8326 20.472 20.2772 20.472C20.7075 20.472 21.133 20.5043 21.5511 20.5662V21.7522V25.0514C21.1546 24.9207 20.7313 24.8488 20.2904 24.8488C18.057 24.8488 16.2502 26.6709 16.2836 28.9059C16.3048 30.336 17.0859 31.586 18.238 32.2751C18.7795 32.599 19.4024 32.7996 20.0671 32.8361C20.5879 32.8647 21.088 32.7921 21.5511 32.6392C23.1468 32.1121 24.2979 30.6133 24.2979 28.8456L24.3032 22.2338V10.1628H28.7207C28.7249 10.6005 28.7694 11.0276 28.8519 11.4415C29.1853 13.1165 30.1295 14.5698 31.4436 15.5605C32.5894 16.4248 34.0162 16.9371 35.5627 16.9371C35.5637 16.9371 35.5765 16.9371 35.5754 16.9361V18.1262H35.5754Z" fill="#F0B90B"/>
</svg>
