<svg width="48" height="48" viewBox="0 0 48 48" fill="none" xmlns="http://www.w3.org/2000/svg">
<path d="M28.7757 31.7744C27.7144 32.8357 25.4403 33.2145 23.8197 33.2145C22.1945 33.2145 19.9251 32.8357 18.8637 31.7744C18.6125 31.5231 18.2098 31.5231 17.9589 31.7744C17.7077 32.0256 17.7077 32.4283 17.9589 32.6792C19.6409 34.3612 22.8723 34.4938 23.8197 34.4938C24.7672 34.4938 27.9938 34.3612 29.6809 32.6792C29.9271 32.4279 29.9271 32.0252 29.6809 31.7744C29.4297 31.5231 29.027 31.5231 28.7757 31.7744Z" fill="#F0B90B"/>
<path d="M20.8542 26.159C20.8542 24.7991 19.7455 23.6904 18.3856 23.6904C17.026 23.6904 15.917 24.7991 15.917 26.159C15.917 27.5186 17.026 28.6276 18.3856 28.6276C19.7455 28.6276 20.8542 27.5189 20.8542 26.159Z" fill="#F0B90B"/>
<path d="M23.8135 0C10.7316 0 0.123047 10.6086 0.123047 23.6904C0.123047 36.7723 10.7316 47.3809 23.8135 47.3809C36.8954 47.3809 47.5039 36.7723 47.5039 23.6904C47.5039 10.6086 36.8954 0 23.8135 0ZM37.5587 26.8506C37.6107 27.1918 37.6393 27.5377 37.6393 27.8884C37.6393 33.2044 31.4514 37.5115 23.8182 37.5115C16.185 37.5115 9.99708 33.2044 9.99708 27.8884C9.99708 27.533 10.0256 27.1824 10.0777 26.8412C8.8743 26.3011 8.03564 25.093 8.03564 23.6904C8.03564 21.7858 9.58028 20.2364 11.4897 20.2364C12.4183 20.2364 13.257 20.6012 13.8776 21.1983C16.275 19.469 19.592 18.3646 23.2828 18.2699C23.2828 18.2226 25.0075 10.0067 25.0075 10.0067C25.0407 9.84583 25.1354 9.70811 25.2728 9.61846C25.4102 9.52845 25.5761 9.49989 25.7373 9.53314L31.4799 10.7553C31.8826 9.94054 32.7115 9.37662 33.6828 9.37662C35.0474 9.37662 36.1514 10.4806 36.1514 11.8452C36.1514 13.2098 35.0474 14.3138 33.6828 14.3138C32.3609 14.3138 31.2901 13.2713 31.2287 11.9638L26.0876 10.8692L24.5148 18.275C28.1394 18.4026 31.3946 19.5019 33.754 21.2077C34.3747 20.6062 35.218 20.2364 36.1514 20.2364C38.0611 20.2364 39.6054 21.7811 39.6054 23.6904C39.6054 25.1024 38.7574 26.3105 37.5587 26.8506Z" fill="#F0B90B"/>
<path d="M29.244 23.6904C27.8841 23.6904 26.7754 24.7991 26.7754 26.159C26.7754 27.5186 27.8841 28.6276 29.244 28.6276C30.6035 28.6276 31.7126 27.5186 31.7126 26.159C31.7126 24.7991 30.6039 23.6904 29.244 23.6904Z" fill="#F0B90B"/>
</svg>
