<svg width="48" height="48" viewBox="0 0 48 48" fill="none" xmlns="http://www.w3.org/2000/svg">
<path d="M47.752 23.6904C47.752 10.6052 37.1468 0 24.0615 0C10.9763 0 0.371094 10.6052 0.371094 23.6904C0.371094 36.7757 10.9763 47.3809 24.0615 47.3809C24.2003 47.3809 24.3392 47.3809 24.478 47.3716V28.9375H19.3882V23.0056H24.478V18.6377C24.478 13.5757 27.5688 10.818 32.0848 10.818C34.2503 10.818 36.1103 10.9753 36.6471 11.0494V16.3427H33.5377C31.0854 16.3427 30.6042 17.5087 30.6042 19.2207V22.9964H36.4805L35.7124 28.9282H30.6042V46.4647C40.506 43.6237 47.752 34.5085 47.752 23.6904Z" fill="#F0B90B"/>
</svg>
