<svg width="48" height="48" viewBox="0 0 48 48" fill="none" xmlns="http://www.w3.org/2000/svg">
<path d="M21.2344 28.1286L28.9406 23.6903L21.2344 19.252V28.1286Z" fill="#F0B90B"/>
<path d="M24.1846 0C11.1027 0 0.494141 10.6086 0.494141 23.6904C0.494141 36.7723 11.1027 47.3809 24.1846 47.3809C37.2664 47.3809 47.875 36.7723 47.875 23.6904C47.875 10.6086 37.2664 0 24.1846 0ZM38.9875 23.7147C38.9875 23.7147 38.9875 28.5192 38.378 30.836C38.0364 32.1041 37.0365 33.1039 35.7684 33.4452C33.4517 34.055 24.1846 34.055 24.1846 34.055C24.1846 34.055 14.9417 34.055 12.6007 33.421C11.3326 33.0797 10.3327 32.0795 9.99114 30.8114C9.38131 28.5192 9.38131 23.6904 9.38131 23.6904C9.38131 23.6904 9.38131 18.8863 9.99114 16.5695C10.3324 15.3014 11.3568 14.2769 12.6007 13.9357C14.9175 13.3259 24.1846 13.3259 24.1846 13.3259C24.1846 13.3259 33.4517 13.3259 35.7684 13.9599C37.0365 14.3012 38.0364 15.3014 38.378 16.5695C39.0121 18.8863 38.9875 23.7147 38.9875 23.7147Z" fill="#F0B90B"/>
</svg>
