<svg width="48" height="48" viewBox="0 0 48 48" fill="none" xmlns="http://www.w3.org/2000/svg">
<path d="M23.9385 0C10.8566 0 0.248047 10.6086 0.248047 23.6904C0.248047 36.7723 10.8566 47.3809 23.9385 47.3809C37.0204 47.3809 47.6289 36.7723 47.6289 23.6904C47.6289 10.6086 37.0204 0 23.9385 0ZM34.7553 18.4713C34.7658 18.7044 34.7708 18.9387 34.7708 19.174C34.7708 26.3593 29.3015 34.645 19.2995 34.6453H19.2999H19.2995C16.2287 34.6453 13.3711 33.7452 10.9647 32.2027C11.3902 32.253 11.8232 32.2779 12.2617 32.2779C14.8095 32.2779 17.1541 31.4089 19.0154 29.9503C16.635 29.9062 14.628 28.3341 13.9354 26.1735C14.2669 26.2371 14.6078 26.2718 14.9573 26.2718C15.4537 26.2718 15.9344 26.2049 16.3913 26.0802C13.9032 25.5821 12.0289 23.3832 12.0289 20.7501C12.0289 20.7255 12.0289 20.7035 12.0296 20.6807C12.7624 21.0881 13.6003 21.3332 14.4925 21.3607C13.0324 20.3864 12.0727 18.7211 12.0727 16.8345C12.0727 15.8382 12.342 14.9048 12.809 14.1013C15.4905 17.3915 19.498 19.5554 24.0173 19.7828C23.924 19.3844 23.8759 18.9694 23.8759 18.5429C23.8759 15.5411 26.3113 13.1057 29.3142 13.1057C30.8783 13.1057 32.291 13.7669 33.2833 14.8239C34.5221 14.5795 35.6854 14.1269 36.7362 13.5041C36.3295 14.7733 35.4678 15.8382 34.345 16.5117C35.445 16.3801 36.4933 16.0884 37.4675 15.6553C36.7398 16.7459 35.817 17.7038 34.7553 18.4713Z" fill="#F0B90B"/>
</svg>
