<svg width="22" height="23" viewBox="0 0 22 23" fill="none" xmlns="http://www.w3.org/2000/svg">
<path d="M19.3086 9.56017C18.9338 9.56017 18.6299 9.8701 18.6299 10.2525V19.9575C18.6299 20.5936 18.1227 21.1108 17.4989 21.1108H2.72196C2.09841 21.1108 1.5908 20.5936 1.5908 19.9575V4.88973C1.5908 4.25363 2.09841 3.73625 2.72196 3.73625H14.4714C14.8462 3.73625 15.1503 3.42632 15.1503 3.0439C15.1503 2.66149 14.8464 2.35156 14.4714 2.35156H2.72196C1.34986 2.35156 0.233398 3.49005 0.233398 4.88948V19.957C0.233398 21.356 1.34961 22.495 2.72196 22.495H17.4989C18.871 22.495 19.9873 21.356 19.9875 19.957V10.2525C19.9875 9.86985 19.6836 9.56017 19.3086 9.56017Z" fill="url(#paint0_linear)"/>
<path d="M21.2137 0.295482C20.5615 -0.198155 19.6404 -0.0589367 19.1561 0.605911L9.30207 14.1458L6.33751 11.4244C5.73405 10.8703 4.80363 10.9201 4.26047 11.5354C3.71707 12.151 3.76585 13.0996 4.36955 13.6534L8.36184 17.3178C8.67165 17.6023 9.07681 17.7597 9.49031 17.7597C9.53443 17.7597 9.57928 17.7577 9.6234 17.7545C10.0825 17.7165 10.5114 17.4848 10.8009 17.1174C10.8129 17.1021 10.8247 17.0871 10.8359 17.0714L21.5182 2.39375C22.0023 1.7284 21.866 0.78937 21.2137 0.295482Z" fill="url(#paint1_linear)"/>
<defs>
<linearGradient id="paint0_linear" x1="10.1104" y1="2.35156" x2="10.1104" y2="22.495" gradientUnits="userSpaceOnUse">
<stop stop-color="#286304"/>
<stop offset="1" stop-color="#3F9C05"/>
</linearGradient>
<linearGradient id="paint1_linear" x1="12.8454" y1="0" x2="12.8454" y2="17.7597" gradientUnits="userSpaceOnUse">
<stop stop-color="#286304"/>
<stop offset="1" stop-color="#3F9C05"/>
</linearGradient>
</defs>
</svg>
