<svg width="20" height="21" viewBox="0 0 20 21" fill="none" xmlns="http://www.w3.org/2000/svg">
<path d="M19.3086 7.56017C18.9338 7.56017 18.6299 7.8701 18.6299 8.25251V17.9575C18.6299 18.5936 18.1227 19.1108 17.4989 19.1108H2.72196C2.09841 19.1108 1.5908 18.5936 1.5908 17.9575V2.88973C1.5908 2.25363 2.09841 1.73625 2.72196 1.73625H14.4714C14.8462 1.73625 15.1503 1.42632 15.1503 1.0439C15.1503 0.661492 14.8464 0.351562 14.4714 0.351562H2.72196C1.34986 0.351562 0.233398 1.49005 0.233398 2.88948V17.957C0.233398 19.356 1.34961 20.495 2.72196 20.495H17.4989C18.871 20.495 19.9873 19.356 19.9875 17.957V8.25251C19.9875 7.86985 19.6836 7.56017 19.3086 7.56017Z" fill="url(#paint0_linear)"/>
<defs>
<linearGradient id="paint0_linear" x1="10.1104" y1="0.351562" x2="10.1104" y2="20.495" gradientUnits="userSpaceOnUse">
<stop stop-color="#F0B90B"/>
<stop offset="1" stop-color="#F8D12F"/>
</linearGradient>
</defs>
</svg>
