<svg width="16" height="16" viewBox="0 0 16 16" fill="none" xmlns="http://www.w3.org/2000/svg">
<path d="M8 0C7.4208 0 6.90695 0.386302 6.63333 0.90625C6.63333 0.90625 0.391062 12.7745 0.372222 12.8125C0.1851 13.1902 0 13.6487 0 14.2C0 15.187 0.722661 16 1.6 16H8H14.4C15.2773 16 16 15.187 16 14.2C16 13.6487 15.8149 13.1902 15.6278 12.8125C15.6089 12.7745 9.36667 0.90625 9.36667 0.90625C9.09305 0.386302 8.5792 0 8 0ZM8 1.2C8.22293 1.2 8.34878 1.32035 8.46667 1.5625C8.46667 1.5625 14.6832 13.3778 14.7 13.4125C14.8415 13.7047 14.9333 13.968 14.9333 14.2C14.9333 14.5385 14.7009 14.8 14.4 14.8H8H1.6C1.29913 14.8 1.06667 14.5385 1.06667 14.2C1.06667 13.968 1.15855 13.7047 1.3 13.4125C1.31677 13.3779 7.53333 1.5625 7.53333 1.5625C7.65122 1.32036 7.77707 1.2 8 1.2ZM7.99444 4.7875C7.92393 4.78832 7.85426 4.80486 7.78947 4.83616C7.72468 4.86746 7.66604 4.91291 7.61696 4.96987C7.56788 5.02683 7.52933 5.09417 7.50353 5.168C7.47773 5.24183 7.4652 5.32069 7.46667 5.4V10.2C7.46567 10.2795 7.47872 10.3584 7.50508 10.4322C7.53143 10.506 7.57056 10.5732 7.62018 10.6298C7.66981 10.6864 7.72894 10.7314 7.79414 10.7621C7.85934 10.7927 7.92932 10.8085 8 10.8085C8.07068 10.8085 8.14066 10.7927 8.20586 10.7621C8.27106 10.7314 8.33019 10.6864 8.37982 10.6298C8.42944 10.5732 8.46857 10.506 8.49492 10.4322C8.52128 10.3584 8.53433 10.2795 8.53333 10.2V5.4C8.53482 5.31963 8.52194 5.23975 8.49545 5.1651C8.46896 5.09044 8.42942 5.02253 8.37915 4.9654C8.32889 4.90827 8.26893 4.86309 8.20285 4.83252C8.13676 4.80196 8.06589 4.78665 7.99444 4.7875ZM8 11.6C7.60726 11.6 7.28889 11.9582 7.28889 12.4C7.28889 12.8418 7.60726 13.2 8 13.2C8.39274 13.2 8.71111 12.8418 8.71111 12.4C8.71111 11.9582 8.39274 11.6 8 11.6Z" fill="#C8102E"/>
</svg>
