<svg width="77" height="46" viewBox="0 0 77 46" fill="none" xmlns="http://www.w3.org/2000/svg">
<path d="M26.7375 45.245L0.919453 24.6518C-0.30633 23.6712 -0.30633 22.139 0.919453 21.1584L26.7375 0.381354C27.6568 -0.415404 29.3423 0.136198 29.3423 1.11682V3.81355L7.73787 21.1584C6.51208 22.139 6.51208 23.6712 7.73787 24.6518L29.3423 41.8128V44.2644C29.3423 45.4902 27.7334 45.9805 26.7375 45.245Z" fill="url(#paint0_linear)"/>
<path d="M37.2331 45.2538L36.2371 44.457L29.3421 39.0023L11.3384 24.6606C10.1126 23.68 10.1126 22.1478 11.3384 21.1672L29.3421 6.70292L36.2371 1.1869L37.1564 0.451428C38.1524 -0.345331 39.8378 0.144982 39.8378 1.1869V11.7899L73.5469 11.7899C75.2323 11.7899 76.6113 12.8931 76.6113 14.2415V31.4024C76.6113 32.7508 75.2323 33.854 73.5469 33.854L39.8378 33.854V44.2732C39.8378 45.4989 38.229 45.9893 37.2331 45.2538Z" fill="url(#paint1_linear)"/>
<defs>
<linearGradient id="paint0_linear" x1="29.3423" y1="22.7953" x2="0.000114441" y2="22.7953" gradientUnits="userSpaceOnUse">
<stop stop-color="#F3A228"/>
<stop offset="1" stop-color="#F5B301"/>
</linearGradient>
<linearGradient id="paint1_linear" x1="76.6113" y1="22.8277" x2="10.4191" y2="22.8277" gradientUnits="userSpaceOnUse">
<stop stop-color="#F3A228"/>
<stop offset="1" stop-color="#F5B301"/>
</linearGradient>
</defs>
</svg>
