<svg width="26" height="25" viewBox="0 0 26 25" fill="none" xmlns="http://www.w3.org/2000/svg">
<g clip-path="url(#clip0)">
<path d="M12.502 0C5.59839 0 0.00195312 5.59644 0.00195312 12.5C0.00195312 19.4036 5.59839 25 12.502 25C19.4055 25 25.002 19.4036 25.002 12.5C25.002 5.59644 19.4055 0 12.502 0ZM16.294 2.13389C19.3257 3.24668 21.7552 5.67632 22.868 8.70791L21.3487 8.97866L19.9825 9.22212C19.5753 8.29663 18.9927 7.44272 18.276 6.72593C17.5592 6.00918 16.7053 5.42661 15.7798 5.01943L16.294 2.13389ZM8.70991 22.8661C5.67822 21.7533 3.24868 19.3237 2.13589 16.2921L3.65522 16.0213L5.02144 15.7779C5.42861 16.7034 6.01113 17.5573 6.72793 18.2741C7.44473 18.9908 8.29858 19.5734 9.22412 19.9806L8.70991 22.8661ZM6.72793 6.72598C6.01118 7.44277 5.42861 8.29668 5.02144 9.22217L3.65522 8.97871L2.13589 8.70796C3.24868 5.67632 5.67822 3.24673 8.70991 2.13394L9.22412 5.01953C8.29858 5.42666 7.44473 6.00923 6.72793 6.72598ZM14.9215 11.0799C14.9215 11.6237 14.7184 12.1207 14.3846 12.5C14.7184 12.8793 14.9215 13.3763 14.9215 13.9201V14.7597C14.9215 15.9466 13.956 16.9122 12.769 16.9122H12.2349C11.0479 16.9122 10.0824 15.9466 10.0824 14.7597V13.9201C10.0824 13.3763 10.2855 12.8793 10.6193 12.5C10.2855 12.1207 10.0824 11.6237 10.0824 11.0799V10.2403C10.0824 9.05337 11.0479 8.08779 12.2349 8.08779H12.769C13.956 8.08779 14.9215 9.05337 14.9215 10.2403V11.0799ZM16.294 22.8661L15.7798 19.9805C16.7053 19.5733 17.5592 18.9908 18.276 18.274C18.9927 17.5572 19.5753 16.7033 19.9825 15.7778L21.3487 16.0213L22.868 16.292C21.7552 19.3237 19.3257 21.7533 16.294 22.8661Z" fill="#3DCC85"/>
<path d="M12.7687 9.55261H12.2345C11.8554 9.55261 11.5469 9.86106 11.5469 10.2403V11.0799C11.5469 11.4591 11.8554 11.7676 12.2345 11.7676H12.7687C13.1478 11.7676 13.4563 11.4591 13.4563 11.0799V10.2403C13.4563 9.86106 13.1478 9.55261 12.7687 9.55261Z" fill="#3DCC85"/>
<path d="M13.543 16.3555C14.3851 16.1506 15.0081 15.6135 15.0081 14.9963C15.0081 14.3791 14.3851 13.842 13.543 13.6371V16.3555Z" fill="#8CB23E"/>
<path d="M12.8099 4.84277C8.36675 4.84277 4.75195 8.4241 4.75195 12.8261C4.75195 17.2281 8.36675 20.8095 12.8099 20.8095C17.2531 20.8095 20.8679 17.2281 20.8679 12.8261C20.8679 8.4241 17.2531 4.84277 12.8099 4.84277ZM16.4726 14.9963C16.4726 16.3985 15.2122 17.5709 13.5425 17.8406V18.6322C13.5425 19.0333 13.2148 19.358 12.8099 19.358C12.405 19.358 12.0774 19.0333 12.0774 18.6322V17.8406C10.4076 17.5709 9.1472 16.3985 9.1472 14.9963C9.1472 14.5952 9.47484 14.2706 9.87974 14.2706C10.2846 14.2706 10.6123 14.5952 10.6123 14.9963C10.6123 15.6136 11.2352 16.1506 12.0774 16.3555V13.4861C10.4076 13.2164 9.1472 12.0439 9.1472 10.6418C9.1472 9.23961 10.4076 8.06717 12.0774 7.79748V7.01299C12.0774 6.61184 12.405 6.28723 12.8099 6.28723C13.2148 6.28723 13.5425 6.61184 13.5425 7.01299V7.79748C15.2122 8.06717 16.4726 9.23961 16.4726 10.6418C16.4726 11.0429 16.145 11.3675 15.7401 11.3675C15.3352 11.3675 15.0075 11.0429 15.0075 10.6418C15.0075 10.0245 14.3846 9.48748 13.5425 9.28258V12.152C15.2122 12.4217 16.4726 13.5941 16.4726 14.9963Z" fill="#8CB23E"/>
<path d="M12.0784 9.28259C11.2362 9.4875 10.6133 10.0246 10.6133 10.6418C10.6133 11.259 11.2362 11.7961 12.0784 12.001V9.28259Z" fill="#8CB23E"/>
<path d="M12.8184 0.439819C5.9516 0.439819 0.316406 6.02284 0.316406 12.8261C0.316406 19.6294 5.9516 25.2124 12.8184 25.2124C19.6853 25.2124 25.3205 19.6294 25.3205 12.8261C25.3205 6.02284 19.6853 0.439819 12.8184 0.439819ZM12.8184 22.261C7.56759 22.261 3.29541 18.0283 3.29541 12.8261C3.29541 7.62387 7.56759 3.39124 12.8184 3.39124C18.0693 3.39124 22.3415 7.62387 22.3415 12.8261C22.3415 18.0283 18.0693 22.261 12.8184 22.261Z" fill="#8CB23E"/>
</g>
<defs>
<clipPath id="clip0">
<rect width="25" height="25" fill="white" transform="translate(0.00195312)"/>
</clipPath>
</defs>
</svg>
