<svg width="26" height="25" viewBox="0 0 26 25" fill="none" xmlns="http://www.w3.org/2000/svg">
<g clip-path="url(#clip0)">
<path d="M12.502 0C5.59839 0 0.00195312 5.59644 0.00195312 12.5C0.00195312 19.4036 5.59839 25 12.502 25C19.4055 25 25.002 19.4036 25.002 12.5C25.002 5.59644 19.4055 0 12.502 0ZM16.294 2.13389C19.3257 3.24668 21.7552 5.67632 22.868 8.70791L21.3487 8.97866L19.9825 9.22212C19.5753 8.29663 18.9927 7.44272 18.276 6.72593C17.5592 6.00918 16.7053 5.42661 15.7798 5.01943L16.294 2.13389ZM8.70991 22.8661C5.67822 21.7533 3.24868 19.3237 2.13589 16.2921L3.65522 16.0213L5.02144 15.7779C5.42861 16.7034 6.01113 17.5573 6.72793 18.2741C7.44473 18.9908 8.29858 19.5734 9.22412 19.9806L8.70991 22.8661ZM6.72793 6.72598C6.01118 7.44277 5.42861 8.29668 5.02144 9.22217L3.65522 8.97871L2.13589 8.70796C3.24868 5.67632 5.67822 3.24673 8.70991 2.13394L9.22412 5.01953C8.29858 5.42666 7.44473 6.00923 6.72793 6.72598ZM14.9215 11.0799C14.9215 11.6237 14.7184 12.1207 14.3846 12.5C14.7184 12.8793 14.9215 13.3763 14.9215 13.9201V14.7597C14.9215 15.9466 13.956 16.9122 12.769 16.9122H12.2349C11.0479 16.9122 10.0824 15.9466 10.0824 14.7597V13.9201C10.0824 13.3763 10.2855 12.8793 10.6193 12.5C10.2855 12.1207 10.0824 11.6237 10.0824 11.0799V10.2403C10.0824 9.05337 11.0479 8.08779 12.2349 8.08779H12.769C13.956 8.08779 14.9215 9.05337 14.9215 10.2403V11.0799ZM16.294 22.8661L15.7798 19.9805C16.7053 19.5733 17.5592 18.9908 18.276 18.274C18.9927 17.5572 19.5753 16.7033 19.9825 15.7778L21.3487 16.0213L22.868 16.292C21.7552 19.3237 19.3257 21.7533 16.294 22.8661Z" fill="#3DCC85"/>
<path d="M12.7687 9.55261H12.2345C11.8554 9.55261 11.5469 9.86106 11.5469 10.2403V11.0799C11.5469 11.4591 11.8554 11.7676 12.2345 11.7676H12.7687C13.1478 11.7676 13.4563 11.4591 13.4563 11.0799V10.2403C13.4563 9.86106 13.1478 9.55261 12.7687 9.55261Z" fill="#3DCC85"/>
<path d="M12.7687 13.2324H12.2345C11.8554 13.2324 11.5469 13.5409 11.5469 13.9201V14.7597C11.5469 15.1389 11.8554 15.4474 12.2345 15.4474H12.7687C13.1478 15.4474 13.4563 15.1389 13.4563 14.7597V13.9201C13.4563 13.5409 13.1478 13.2324 12.7687 13.2324Z" fill="#3DCC85"/>
</g>
<defs>
<clipPath id="clip0">
<rect width="25" height="25" fill="white" transform="translate(0.00195312)"/>
</clipPath>
</defs>
</svg>
