<svg width="26" height="25" viewBox="0 0 26 25" fill="none" xmlns="http://www.w3.org/2000/svg">
<path d="M11.777 7.37305V8.9728C10.9265 9.27617 10.3125 10.0815 10.3125 11.0352C10.3125 12.2468 11.2979 13.2324 12.5092 13.2324C12.9132 13.2324 13.2415 13.5607 13.2415 13.9648C13.2415 14.3689 12.9132 14.6973 12.5092 14.6973C12.1052 14.6973 11.777 14.3689 11.777 13.9648H10.3125C10.3125 14.9185 10.9265 15.7238 11.777 16.0272V17.627H13.2415V16.0272C14.0919 15.7238 14.7059 14.9185 14.7059 13.9648C14.7059 12.7532 13.7205 11.7676 12.5092 11.7676C12.1052 11.7676 11.777 11.4393 11.777 11.0352C11.777 10.6311 12.1052 10.3027 12.5092 10.3027C12.9132 10.3027 13.2415 10.6311 13.2415 11.0352H14.7059C14.7059 10.0815 14.0919 9.27617 13.2415 8.9728V7.37305H11.777Z" fill="#19AAF2"/>
<path d="M13.2383 0V5.98223C16.281 6.32466 18.6838 8.72808 19.0269 11.7676H25.0029C24.636 5.47862 19.5267 0.366944 13.2383 0Z" fill="#19AAF2"/>
<path d="M7.37283 16.5916C6.471 15.4637 5.90869 14.0533 5.90869 12.5C5.90869 9.11588 8.48056 6.35201 11.7666 5.98223V0C5.23464 0.381153 0.00195312 5.87076 0.00195312 12.5C0.00195312 15.6746 1.24842 18.5624 3.20375 20.7617L7.37283 16.5916Z" fill="#19AAF2"/>
<path d="M24.9954 13.2324H19.016C18.6463 16.5193 15.8831 19.0918 12.4998 19.0918C10.947 19.0918 9.53691 18.5293 8.40931 17.6273L4.24023 21.7974C6.43895 23.7532 9.32608 25 12.4998 25C19.1274 25 24.6144 19.766 24.9954 13.2324Z" fill="#19AAF2"/>
</svg>
