<svg width="26" height="25" viewBox="0 0 26 25" fill="none" xmlns="http://www.w3.org/2000/svg">
<path d="M12.502 0C10.0297 0 7.61294 0.733112 5.55733 2.10663C3.50171 3.48015 1.89956 5.43238 0.953464 7.71646C0.0073692 10.0005 -0.240172 12.5139 0.242143 14.9386C0.724458 17.3634 1.91497 19.5907 3.66312 21.3388C5.41128 23.087 7.63856 24.2775 10.0633 24.7598C12.4881 25.2421 15.0014 24.9946 17.2855 24.0485C19.5696 23.1024 21.5218 21.5002 22.8953 19.4446C24.2688 17.389 25.0019 14.9723 25.0019 12.5C24.9982 9.18594 23.6801 6.00867 21.3367 3.66528C18.9933 1.32188 15.816 0.00372204 12.502 0V0ZM12.502 22.9167C10.4417 22.9167 8.42778 22.3057 6.71476 21.1611C5.00175 20.0165 3.66662 18.3897 2.87821 16.4863C2.0898 14.5829 1.88352 12.4884 2.28544 10.4678C2.68737 8.44717 3.67946 6.5911 5.13626 5.1343C6.59306 3.67751 8.44913 2.68542 10.4698 2.28349C12.4904 1.88156 14.5848 2.08784 16.4882 2.87625C18.3916 3.66467 20.0185 4.9998 21.1631 6.71281C22.3077 8.42582 22.9186 10.4398 22.9186 12.5C22.9155 15.2617 21.817 17.9094 19.8642 19.8622C17.9114 21.8151 15.2637 22.9135 12.502 22.9167Z" fill="#20D9D9"/>
<path d="M12.5039 3.125C10.6497 3.125 8.83714 3.67483 7.29543 4.70497C5.75373 5.73511 4.55211 7.19928 3.84254 8.91234C3.13297 10.6254 2.94731 12.5104 3.30905 14.329C3.67078 16.1475 4.56367 17.818 5.87478 19.1291C7.1859 20.4402 8.85636 21.3331 10.6749 21.6949C12.4935 22.0566 14.3785 21.8709 16.0916 21.1614C17.8046 20.4518 19.2688 19.2502 20.2989 17.7085C21.3291 16.1668 21.8789 14.3542 21.8789 12.5C21.8761 10.0144 20.8875 7.6315 19.1299 5.87396C17.3724 4.11641 14.9894 3.12779 12.5039 3.125ZM12.5039 8.33333C12.7099 8.33333 12.9113 8.39442 13.0826 8.50888C13.2539 8.62334 13.3874 8.78603 13.4663 8.97637C13.5451 9.16671 13.5657 9.37615 13.5255 9.57822C13.4854 9.78028 13.3861 9.96589 13.2405 10.1116C13.0948 10.2572 12.9092 10.3565 12.7071 10.3966C12.5051 10.4368 12.2956 10.4162 12.1053 10.3374C11.9149 10.2585 11.7522 10.125 11.6378 9.95372C11.5233 9.78242 11.4622 9.58102 11.4622 9.375C11.4622 9.09873 11.572 8.83378 11.7673 8.63843C11.9627 8.44308 12.2276 8.33333 12.5039 8.33333ZM6.25391 10.4167C6.25391 10.2106 6.315 10.0092 6.42946 9.83794C6.54392 9.66664 6.7066 9.53313 6.89694 9.45429C7.08728 9.37545 7.29673 9.35482 7.49879 9.39501C7.70085 9.43521 7.88646 9.53442 8.03214 9.68009C8.17782 9.82577 8.27703 10.0114 8.31722 10.2134C8.35742 10.4155 8.33679 10.625 8.25795 10.8153C8.1791 11.0056 8.04559 11.1683 7.87429 11.2828C7.70299 11.3972 7.50159 11.4583 7.29557 11.4583C7.01931 11.4583 6.75435 11.3486 6.559 11.1532C6.36365 10.9579 6.25391 10.6929 6.25391 10.4167ZM16.6706 16.6667H8.33724L7.6862 11.849L10.4206 13.5417L12.5039 10.4167L14.5872 13.5417L17.1914 11.849L16.6706 16.6667ZM17.7122 11.4583C17.5062 11.4583 17.3048 11.3972 17.1335 11.2828C16.9622 11.1683 16.8287 11.0056 16.7499 10.8153C16.671 10.625 16.6504 10.4155 16.6906 10.2134C16.7308 10.0114 16.83 9.82577 16.9757 9.68009C17.1213 9.53442 17.3069 9.43521 17.509 9.39501C17.7111 9.35482 17.9205 9.37545 18.1109 9.45429C18.3012 9.53313 18.4639 9.66664 18.5783 9.83794C18.6928 10.0092 18.7539 10.2106 18.7539 10.4167C18.7539 10.6929 18.6441 10.9579 18.4488 11.1532C18.2534 11.3486 17.9885 11.4583 17.7122 11.4583Z" fill="#20D9D9"/>
</svg>
