<svg width="25" height="28" viewBox="0 0 25 28" fill="none" xmlns="http://www.w3.org/2000/svg">
<path d="M18.3284 12.2834C18.3284 10.4339 19.0608 9.69865 20.9132 9.69865C19.0636 9.69865 18.3284 8.9663 18.3284 7.11388C18.3284 8.9663 17.5961 9.69865 15.7436 9.69865C17.5961 9.70152 18.3284 10.4339 18.3284 12.2834ZM19.9396 13.2743C19.9396 14.4977 19.4542 14.9974 18.2164 14.9974C19.4399 14.9974 19.9396 15.4828 19.9396 16.7063C19.9396 15.4828 20.4249 14.9974 21.6628 14.9974C20.4249 14.9831 19.9396 14.5035 19.9396 13.2743ZM13.5265 8.43785C13.5265 7.5619 13.874 7.21439 14.7499 7.21439C13.874 7.21439 13.5265 6.86689 13.5265 5.99093C13.5265 6.86689 13.179 7.21439 12.303 7.21439C13.179 7.21439 13.5265 7.5619 13.5265 8.43785ZM16.9326 21.0918C14.9368 20.343 13.141 19.1429 11.6857 17.5853C10.2304 16.0277 9.15483 14.1547 8.54311 12.1127C7.93139 10.0707 7.80004 7.91485 8.15933 5.81365C8.51862 3.71245 9.35882 1.72276 10.6143 0C8.44766 0.517785 6.43819 1.55133 4.75687 3.01269C3.07556 4.47405 1.77217 6.31995 0.957622 8.39333C0.143074 10.4667 -0.15852 12.7062 0.078504 14.9212C0.315528 17.1362 1.08415 19.2611 2.31897 21.1152C3.55379 22.9693 5.21825 24.4976 7.17072 25.5701C9.12318 26.6426 11.3058 27.2276 13.533 27.2752C15.7601 27.3228 17.9658 26.8317 19.9623 25.8436C21.9588 24.8555 23.6871 23.3997 25 21.6001C22.3207 22.2429 19.5101 22.0658 16.9326 21.0918Z" fill="#B757F2"/>
</svg>
