<svg width="45" height="25" viewBox="0 0 45 25" fill="none" xmlns="http://www.w3.org/2000/svg">
<path d="M41.359 0.343264H12.9395C12.0513 0.342321 11.1933 0.666066 10.5272 1.25356L1.23302 9.44626C0.845569 9.78796 0.535265 10.2082 0.322717 10.679C0.110169 11.1499 0.000244141 11.6606 0.000244141 12.1772C0.000244141 12.6938 0.110169 13.2044 0.322717 13.6753C0.535265 14.1461 0.845569 14.5664 1.23302 14.9081L10.5272 23.1007C11.1933 23.6882 12.0513 24.012 12.9395 24.011H41.359C42.3248 24.011 43.2509 23.6274 43.9338 22.9446C44.6166 22.2617 45.0002 21.3356 45.0002 20.3699V3.98446C45.0002 3.01876 44.6166 2.0926 43.9338 1.40974C43.2509 0.726888 42.3248 0.343264 41.359 0.343264ZM43.1796 20.4518C43.1796 20.9346 42.9878 21.3977 42.6464 21.7391C42.305 22.0806 41.8419 22.2724 41.359 22.2724H12.9395C12.4926 22.2715 12.0617 22.1062 11.7288 21.8081L2.44372 13.6154C2.24999 13.4446 2.09484 13.2345 1.98857 12.999C1.88229 12.7636 1.82733 12.5083 1.82733 12.25C1.82733 11.9917 1.88229 11.7363 1.98857 11.5009C2.09484 11.2655 2.24999 11.0554 2.44372 10.8845L11.7288 2.69184C12.063 2.39705 12.4938 2.2351 12.9395 2.23669H41.359C41.8419 2.23669 42.305 2.4285 42.6464 2.76993C42.9878 3.11136 43.1796 3.57443 43.1796 4.05729V20.4518ZM31.191 8.49044L27.4679 12.2136L31.191 15.9367C31.2763 16.0213 31.344 16.122 31.3903 16.2329C31.4365 16.3439 31.4603 16.4628 31.4603 16.583C31.4603 16.7032 31.4365 16.8222 31.3903 16.9331C31.344 17.044 31.2763 17.1447 31.191 17.2293C31.1059 17.3137 31.0051 17.3804 30.8941 17.4257C30.7832 17.471 30.6645 17.494 30.5447 17.4933C30.3059 17.4923 30.077 17.3975 29.9075 17.2293L26.1752 13.5062L22.4521 17.2293C22.3671 17.3137 22.2662 17.3804 22.1553 17.4257C22.0444 17.471 21.9256 17.494 21.8058 17.4933C21.6258 17.4925 21.45 17.4384 21.3007 17.3378C21.1515 17.2371 21.0354 17.0945 20.9672 16.9279C20.899 16.7613 20.8817 16.5782 20.9175 16.4017C20.9534 16.2253 21.0408 16.0635 21.1686 15.9367L24.8917 12.2136L21.1686 8.49044C21.0833 8.40582 21.0155 8.30514 20.9693 8.19421C20.9231 8.08328 20.8993 7.9643 20.8993 7.84413C20.8993 7.72396 20.9231 7.60498 20.9693 7.49405C21.0155 7.38312 21.0833 7.28244 21.1686 7.19782C21.3391 7.02827 21.5699 6.93311 21.8103 6.93311C22.0508 6.93311 22.2816 7.02827 22.4521 7.19782L26.1752 10.9483L29.9075 7.21602C30.078 7.04648 30.3087 6.95132 30.5492 6.95132C30.7897 6.95132 31.0204 7.04648 31.191 7.21602C31.3578 7.38619 31.4512 7.61496 31.4512 7.85323C31.4512 8.09151 31.3578 8.32028 31.191 8.49044Z" fill="white"/>
</svg>
