<svg width="29" height="27" viewBox="0 0 29 27" fill="none" xmlns="http://www.w3.org/2000/svg">
<path d="M14.3476 11.8697C15.7452 11.7482 17.1124 12.3862 17.872 13.5711C19.0265 15.3333 20.3937 16.974 21.9432 18.4627C23.5839 19.9819 23.7358 22.534 22.5813 24.4177C21.4267 26.3318 19.148 27.3648 17.0213 26.7572C15.2894 26.2407 13.4665 26.2407 11.7347 26.7572C9.48638 27.3344 7.11653 26.3014 6.05314 24.205C4.98975 22.2302 5.35434 19.5869 7.08615 18.1285C8.3926 17.0044 9.51676 15.6675 10.4282 14.1788C11.3701 12.7508 12.5854 11.7482 14.3476 11.8697Z" fill="#F0B90B"/>
<path d="M13.6787 6.18816C13.5876 7.1604 13.4661 8.10226 13.2534 9.04412C12.8584 10.4417 11.9469 11.4747 10.3974 11.657C8.93904 11.8393 7.9668 11.019 7.20724 9.89483C4.92854 6.55275 5.96155 2.17765 9.45555 0.415464C11.1266 -0.435248 12.3115 0.0204905 12.9799 1.78268C13.1622 2.20804 13.2838 2.66378 13.3749 3.1499C13.4964 4.09176 13.5572 5.03362 13.6787 6.18816Z" fill="#F0B90B"/>
<path d="M15.1074 5.61088C15.2897 4.57787 15.4112 3.18028 15.8062 1.87382C16.3531 0.0204857 17.6899 -0.435253 19.4217 0.445842C23.1588 2.35995 24.0095 7.58575 21.0624 10.5936C20.2117 11.4747 19.1787 11.9001 17.933 11.5355C16.505 11.1101 15.7455 10.0164 15.4416 8.61876C15.2593 7.79843 15.229 6.88695 15.1074 5.61088Z" fill="#F0B90B"/>
<path d="M7.0254 15.0599C7.05579 15.3333 7.0254 15.6068 7.0254 15.9106C6.84311 17.4297 5.84048 18.25 4.29097 18.0981C1.76922 17.8551 0.098173 16.0017 0.00702526 13.2369C-0.0537399 11.5963 0.280469 9.98598 0.979268 8.49724C1.67807 7.00849 2.80222 6.76543 3.98714 7.91997C5.96201 9.86445 6.81273 12.3254 7.0254 15.0599Z" fill="#F0B90B"/>
<path d="M21.7305 14.8776C21.9128 12.5381 22.7939 10.2898 24.2826 8.46687C24.6168 8.07189 24.9814 7.73768 25.4068 7.49462C26.1967 7.0085 27.017 7.09965 27.4424 7.91998C28.7792 10.381 29.3869 13.0243 28.1412 15.6979C27.412 17.2778 25.984 18.007 24.2826 18.0981C22.8546 18.1589 21.9431 17.369 21.7912 15.941C21.7609 15.6068 21.7609 15.3029 21.7305 14.8776Z" fill="#F0B90B"/>
</svg>
