<svg xmlns="http://www.w3.org/2000/svg" width="16" height="16" fill="none" xmlns:v="https://vecta.io/nano"><g clip-path="url(#A)" fill="#8a8f99"><path d="M11.532 6.904h2.938v5.189h-2.938V6.904zm-5.001 0H9.47v5.189H6.531V6.904zm8.503 6.126H.967a.94.94 0 0 0-.938.938v1.094A.94.94 0 0 0 .967 16h14.067a.94.94 0 0 0 .938-.938v-1.094a.94.94 0 0 0-.938-.938zm.35-10.086L8.349.067c-.223-.089-.471-.091-.7.001L.617 2.944c-.357.144-.588.485-.588.87v1.214a.94.94 0 0 0 .938.938h14.067a.94.94 0 0 0 .938-.938V3.814c0-.385-.231-.726-.588-.87zm-6.914.553a.47.47 0 0 1-.47.468.47.47 0 0 1-.469-.469v-1A.47.47 0 0 1 8 2.027a.47.47 0 0 1 .469.469v1zM1.529 6.904h2.938v5.189H1.529V6.904z"/></g><defs><clipPath id="A"><path fill="#fff" d="M0 0h16v16H0z"/></clipPath></defs></svg>