<svg width="32" height="32" viewBox="0 0 32 32" fill="none" xmlns="http://www.w3.org/2000/svg">
<path d="M15.9991 26.3935C21.7394 26.3935 26.3928 21.7401 26.3928 15.9998C26.3928 10.2596 21.7394 5.60617 15.9991 5.60617C10.2589 5.60617 5.60547 10.2596 5.60547 15.9998C5.60547 21.7401 10.2589 26.3935 15.9991 26.3935Z" fill="#F0B90B"/>
<path d="M16.0127 0.0498896V0L15.9999 0.0249448L15.987 0V0.0498896L13.6191 4.59853H15.987H16.0127H18.3806L16.0127 0.0498896Z" fill="#F0B90B"/>
<path d="M8.03748 2.1804L8.01253 2.13693L8.01367 2.16528L7.99023 2.14978L8.0148 2.19325L8.23893 7.316L10.2893 6.13263L10.3116 6.11941L12.3624 4.93566L8.03748 2.1804Z" fill="#F0B90B"/>
<path d="M2.1907 8.01368L2.14762 7.98874L2.16311 8.01217L2.13477 8.01104L2.17823 8.03598L4.93349 12.3609L6.11686 10.3101L6.13009 10.2882L7.31383 8.23743L2.1907 8.01368Z" fill="#F0B90B"/>
<path d="M0.0495116 15.9873L0 15.9869L0.0249448 15.9998L0 16.0126H0.0498896L4.59853 18.3805L4.59816 16.0126V15.9873L4.59853 13.6191L0.0495116 15.9873Z" fill="#F0B90B"/>
<path d="M2.17823 23.964L2.13477 23.9885L2.16311 23.9874L2.14762 24.0108L2.19108 23.9859L7.31383 23.7622L6.13009 21.7118L6.11724 21.6898L4.93349 19.6387L2.17823 23.964Z" fill="#F0B90B"/>
<path d="M8.01518 29.8067L7.99023 29.8498L8.01367 29.8343L8.01253 29.8627L8.03748 29.8192L12.3624 27.0639L10.3116 25.8806L10.2897 25.8674L8.23893 24.6832L8.01518 29.8067Z" fill="#F0B90B"/>
<path d="M15.9878 31.9501L15.9874 31.9996L16.0002 31.9751L16.0131 31.9996V31.9497L18.3809 27.4011L16.0131 27.4015L15.9878 27.4011H13.6191L15.9878 31.9501Z" fill="#F0B90B"/>
<path d="M23.9639 29.8192L23.9885 29.8627L23.9874 29.8343L24.0108 29.8498L23.9859 29.8064L23.7621 24.6836L21.7117 25.8674L21.6894 25.8802L19.6387 27.064L23.9639 29.8192Z" fill="#F0B90B"/>
<path d="M29.8067 23.9859L29.8498 24.0109L29.8343 23.9874L29.8627 23.9886L29.8192 23.9636L27.0639 19.6391L25.8806 21.6895L25.867 21.7114L24.6836 23.7622L29.8067 23.9859Z" fill="#F0B90B"/>
<path d="M31.9494 16.0123L31.9989 16.0126L31.9744 15.9998L31.9989 15.9869H31.949L27.4008 13.6191V15.9869L27.4004 16.0126V18.3805L31.9494 16.0123Z" fill="#F0B90B"/>
<path d="M29.8208 8.0356L29.8642 8.01104L29.8359 8.01217L29.8514 7.98874L29.8079 8.01331L24.6855 8.23743L25.8689 10.2878L25.8818 10.3101L27.0651 12.3609L29.8208 8.0356Z" fill="#F0B90B"/>
<path d="M23.9874 2.19287L24.0124 2.14978L23.989 2.16528L23.9901 2.13693L23.9651 2.1804L19.6406 4.93528L21.691 6.11903L21.7129 6.13263L23.7633 7.31638L23.9874 2.19287Z" fill="#F0B90B"/>
</svg>
