<svg width="23" height="30" viewBox="0 0 23 30" fill="none" xmlns="http://www.w3.org/2000/svg">
<path fill-rule="evenodd" clip-rule="evenodd" d="M21.586 24.0365C21.586 24.0365 23 23.9223 23 22.3383C23 20.7543 19.6381 16.8428 19.6381 16.8428C19.6381 16.8428 19.6381 12.4462 19.6381 9.92444C19.6381 7.23083 17.4843 5.51794 14.744 4.78432C14.9037 4.38447 14.9915 3.94826 14.9915 3.49149C14.9915 1.56344 13.4284 0 11.5 0C9.57158 0 8.00851 1.56344 8.00851 3.49149C8.00851 3.94826 8.09626 4.38447 8.25562 4.78432C5.51574 5.51794 3.36188 7.23083 3.36188 9.92444C3.36188 12.4462 3.36188 16.8428 3.36188 16.8428C3.36188 16.8428 0 20.7543 0 22.3383C0 23.9223 1.414 24.0365 1.414 24.0365H21.586ZM11.5 1.83846C12.4128 1.83846 13.153 2.57869 13.153 3.49149C13.153 4.40466 12.4128 5.14452 11.5 5.14452C10.5872 5.14452 9.84697 4.40466 9.84697 3.49149C9.84697 2.57869 10.5872 1.83846 11.5 1.83846ZM14.9904 25.7013C14.9518 27.7098 13.4038 29.3257 11.5 29.3257C9.59618 29.3257 8.04816 27.7098 8.00961 25.7013H14.9904Z" fill="#F0B90B"/>
</svg>
