<svg width="31" height="31" viewBox="0 0 31 31" fill="none" xmlns="http://www.w3.org/2000/svg">
<path fill-rule="evenodd" clip-rule="evenodd" d="M30.4137 13.8983C30.4697 14.4247 30.5 14.9587 30.5 15.5C30.5 16.041 30.4697 16.5757 30.4137 17.1017L27.105 18.56C26.8267 19.6177 26.4063 20.6167 25.868 21.5393L27.1773 24.911C26.5043 25.7447 25.7443 26.5047 24.9107 27.1777L21.539 25.8687C20.6163 26.4067 19.6173 26.827 18.5597 27.1053L17.1013 30.4143C16.5753 30.4697 16.0413 30.5 15.5 30.5C14.9587 30.5 14.4247 30.4697 13.8983 30.414L12.4403 27.105C11.3827 26.827 10.383 26.4063 9.461 25.8683L6.08933 27.1773C5.25567 26.5043 4.49567 25.7443 3.82267 24.9107L5.13167 21.5393C4.593 20.6167 4.17267 19.6173 3.89467 18.5597L0.586 17.1017C0.53 16.5757 0.5 16.041 0.5 15.5C0.5 14.9587 0.53 14.4247 0.586 13.8983L3.89433 12.4407C4.17233 11.3827 4.593 10.383 5.13133 9.46033L3.82233 6.08933C4.49533 5.25533 5.255 4.49567 6.089 3.82267L9.46 5.13133C10.3827 4.59267 11.3823 4.17267 12.44 3.89433L13.898 0.586C14.4247 0.53 14.9587 0.5 15.5 0.5C16.0413 0.5 16.5753 0.53 17.1017 0.586L18.5597 3.89467C19.6177 4.17267 20.617 4.593 21.5393 5.13167L24.9107 3.82267C25.7443 4.49567 26.5043 5.25533 27.1773 6.08933L25.8683 9.461C26.4063 10.3833 26.827 11.3827 27.105 12.4403L30.4137 13.8983ZM15.5 10.1977C12.5717 10.1977 10.1977 12.5717 10.1977 15.5C10.1977 18.4283 12.5717 20.8023 15.5 20.8023C18.4287 20.8023 20.8027 18.4283 20.8027 15.5C20.8023 12.5713 18.4283 10.1977 15.5 10.1977Z" fill="#0BC7F0"/>
</svg>
