<svg width="35" height="35" viewBox="0 0 35 35" fill="none" xmlns="http://www.w3.org/2000/svg">
<circle cx="17.5" cy="17.5" r="17.5" fill="#F3A228"/>
<path d="M23.2081 20.5013C23.2081 17.4808 20.9496 16.1716 18.9783 15.3673C16.7773 14.4573 16.4054 13.9826 16.4054 13.26C16.4054 12.5978 16.8922 11.8903 18.2648 11.8903C19.6919 11.8903 20.5596 12.3862 20.9768 12.622L21.7145 13.0423L22.8423 10.0671L22.3132 9.75872C21.5422 9.30519 20.7077 9.02098 19.7614 8.88795C19.6132 8.86678 19.5014 8.7398 19.5014 8.58862V6.44193H16.5384V8.81236C16.5384 8.9454 16.4507 9.06331 16.3238 9.10262C14.1529 9.7557 12.8589 11.4186 12.8589 13.5532C12.8589 16.3167 15.1204 17.5745 17.3306 18.4423C19.2444 19.2193 19.6344 19.8935 19.6344 20.6736C19.6344 21.8225 18.543 22.3365 17.4606 22.3365C16.3842 22.3365 15.2232 21.9888 14.3525 21.4114L13.5785 20.8974L12.4961 23.9209L12.9436 24.2383C13.7266 24.7977 14.8786 25.2089 16.1061 25.3722C16.2572 25.3933 16.3691 25.5203 16.3691 25.6715V27.9089H19.3563V25.4629C19.3563 25.3298 19.4439 25.2119 19.5709 25.1726C21.8143 24.4893 23.2081 22.6994 23.2081 20.5013Z" fill="#333333"/>
</svg>
