<svg xmlns="http://www.w3.org/2000/svg" width="25" height="25" fill="none" xmlns:v="https://vecta.io/nano"><g clip-path="url(#C)"><path d="M17.383 6.054l-5.859-4.395c-.503-.369-1.172.007-1.172.586v2.197H8.057C3.618 4.443 0 8.061 0 12.499c0 4.175 3.193 7.617 7.266 8.013l-2.095-1.567c-.39-.292-.389-.88 0-1.172l2.227-1.67c-1.714-.307-3.003-1.802-3.003-3.603 0-2.021 1.641-3.662 3.662-3.662h2.295v2.197c0 .578.669.955 1.172.586l5.859-4.395c.391-.27.392-.901 0-1.172z" fill="url(#A)"/><path d="M17.735 4.487l2.095 1.567c.39.292.389.88 0 1.172l-2.226 1.67c1.714.308 3.003 1.802 3.003 3.604 0 2.021-1.641 3.662-3.662 3.662h-2.197v-2.197c0-.577-.668-.955-1.172-.586l-5.957 4.395c-.391.271-.391.901 0 1.172l5.957 4.394c.464.361 1.172.022 1.172-.586v-2.197h2.197c4.439 0 8.057-3.618 8.057-8.057 0-4.175-3.193-7.617-7.266-8.013z" fill="url(#B)"/></g><defs><linearGradient id="A" x1="8.838" y1="1.513" x2="8.838" y2="20.512" gradientUnits="userSpaceOnUse"><stop stop-color="#ec6a35"/><stop offset="1" stop-color="#dd216e"/></linearGradient><linearGradient id="B" x1="16.162" y1="4.487" x2="16.162" y2="23.487" gradientUnits="userSpaceOnUse"><stop stop-color="#ec6a35"/><stop offset="1" stop-color="#dd216e"/></linearGradient><clipPath id="C"><path fill="#fff" d="M0 0h25v25H0z"/></clipPath></defs></svg>