<svg width="32" height="31" viewBox="0 0 32 31" fill="none" xmlns="http://www.w3.org/2000/svg">
<path d="M31.4583 28.792L23.9171 21.2508C25.7581 19.0049 26.8589 16.139 26.8589 13.0073C26.8589 5.82674 21.0322 0 13.8516 0C6.66463 0 0.837891 5.82674 0.837891 13.0137C0.837891 20.2006 6.66463 26.0273 13.8516 26.0273C16.9769 26.0273 19.8491 24.9265 22.095 23.0855L29.6299 30.6204C30.1361 31.1265 30.9522 31.1265 31.4583 30.6204C31.9644 30.1143 31.9644 29.2982 31.4583 28.792ZM3.41912 13.0137C3.41912 7.25653 8.0881 2.58755 13.8452 2.58755C19.6024 2.58755 24.2714 7.25653 24.2714 13.0137C24.2714 18.7708 19.6024 23.4398 13.8452 23.4398C8.0881 23.4398 3.41912 18.7708 3.41912 13.0137Z" fill="white" fill-opacity="0.33"/>
</svg>
