<svg width="28" height="27" viewBox="0 0 28 27" fill="none" xmlns="http://www.w3.org/2000/svg">
<path d="M28 8.00176V10.0018C28 10.5322 27.7893 11.0409 27.4142 11.416C27.0391 11.791 26.5304 12.0018 26 12.0018H2C1.46957 12.0018 0.960859 11.791 0.585786 11.416C0.210714 11.0409 0 10.5322 0 10.0018V8.00176C0 7.47133 0.210714 6.96262 0.585786 6.58755C0.960859 6.21247 1.46957 6.00176 2 6.00176H26C26.5304 6.00176 27.0391 6.21247 27.4142 6.58755C27.7893 6.96262 28 7.47133 28 8.00176ZM21.64 5.00176H19H21.64ZM26.71 12.9018C26.479 12.9672 26.2401 13.0009 26 13.0018H2C1.74984 13.0037 1.50068 12.97 1.26 12.9018H26.71ZM11.64 0.23176C11.539 0.147558 11.4223 0.0841183 11.2967 0.0450739C11.1711 0.00602937 11.039 -0.00785241 10.908 0.00422346C10.7771 0.0162993 10.6497 0.0540956 10.5334 0.115448C10.417 0.1768 10.3139 0.260502 10.23 0.36176L6.36 5.00176H9L11.8 1.64176C11.8825 1.53885 11.9438 1.42064 11.9805 1.29393C12.0171 1.16722 12.0283 1.03452 12.0134 0.903463C11.9986 0.772406 11.9579 0.645585 11.8938 0.530305C11.8297 0.415024 11.7435 0.313562 11.64 0.23176ZM21.64 5.00176L17.77 0.36176C17.686 0.260642 17.5828 0.177069 17.4665 0.115811C17.3501 0.0545535 17.2229 0.0168115 17.0919 0.00473987C16.961 -0.00733175 16.829 0.00650331 16.7034 0.0454556C16.5778 0.0844078 16.4611 0.147714 16.36 0.23176C16.2589 0.315806 16.1753 0.418946 16.114 0.535291C16.0528 0.651635 16.0151 0.778906 16.003 0.909836C15.9909 1.04077 16.0047 1.17279 16.0437 1.29838C16.0826 1.42396 16.146 1.54064 16.23 1.64176L19 5.00176H21.64ZM26.74 12.9018L25.24 23.4218C25.1381 24.1426 24.7776 24.8018 24.2256 25.2765C23.6737 25.7511 22.968 26.0089 22.24 26.0018H5.73C5.00353 26.0093 4.29903 25.7529 3.7473 25.2802C3.19557 24.8076 2.83409 24.1508 2.73 23.4318L1.26 12.9018H26.74ZM10 22.8418L9 16.8418C8.97899 16.7104 8.93232 16.5845 8.86265 16.4713C8.79298 16.358 8.70168 16.2595 8.59397 16.1815C8.48625 16.1035 8.36423 16.0475 8.23486 16.0167C8.1055 15.9858 7.97132 15.9807 7.84 16.0018C7.70868 16.0228 7.58278 16.0694 7.4695 16.1391C7.35621 16.2088 7.25776 16.3001 7.17976 16.4078C7.10176 16.5155 7.04573 16.6375 7.01489 16.7669C6.98405 16.8963 6.97899 17.0304 7 17.1618L8 23.1618C8.03833 23.3984 8.16039 23.6134 8.34394 23.7675C8.52748 23.9217 8.76031 24.0048 9 24.0018H9.16C9.29206 23.9824 9.4189 23.9367 9.53304 23.8675C9.64718 23.7983 9.74632 23.707 9.8246 23.5989C9.90289 23.4908 9.95874 23.3681 9.98886 23.2381C10.019 23.108 10.0228 22.9733 10 22.8418ZM15 17.0018C15 16.7365 14.8946 16.4822 14.7071 16.2947C14.5196 16.1071 14.2652 16.0018 14 16.0018C13.7348 16.0018 13.4804 16.1071 13.2929 16.2947C13.1054 16.4822 13 16.7365 13 17.0018V23.0018C13 23.267 13.1054 23.5213 13.2929 23.7089C13.4804 23.8964 13.7348 24.0018 14 24.0018C14.2652 24.0018 14.5196 23.8964 14.7071 23.7089C14.8946 23.5213 15 23.267 15 23.0018V17.0018ZM21 17.1618C21.021 17.0304 21.016 16.8963 20.9851 16.7669C20.9543 16.6375 20.8982 16.5155 20.8202 16.4078C20.7422 16.3001 20.6438 16.2088 20.5305 16.1391C20.4172 16.0694 20.2913 16.0228 20.16 16.0018C20.0287 15.9807 19.8945 15.9858 19.7651 16.0167C19.6358 16.0475 19.5137 16.1035 19.406 16.1815C19.2983 16.2595 19.207 16.358 19.1374 16.4713C19.0677 16.5845 19.021 16.7104 19 16.8418L18 22.8418C17.9772 22.9733 17.981 23.108 18.0111 23.2381C18.0413 23.3681 18.0971 23.4908 18.1754 23.5989C18.2537 23.707 18.3528 23.7983 18.467 23.8675C18.5811 23.9367 18.7079 23.9824 18.84 24.0018H19C19.2397 24.0048 19.4725 23.9217 19.6561 23.7675C19.8396 23.6134 19.9617 23.3984 20 23.1618L21 17.1618Z" fill="#F0B90B"/>
</svg>
