<svg width="26" height="24" viewBox="0 0 26 24" fill="none" xmlns="http://www.w3.org/2000/svg">
<path d="M4.15409 7.62939e-06H8.76947C8.89188 7.62939e-06 9.00928 0.0486317 9.09583 0.135187C9.18239 0.221743 9.23101 0.339136 9.23101 0.461544L9.23101 15.6923H12.4618C12.5491 15.6923 12.6345 15.717 12.7084 15.7635C12.7822 15.8101 12.8412 15.8767 12.8788 15.9555C12.9163 16.0343 12.9307 16.1221 12.9203 16.2087C12.9099 16.2954 12.8752 16.3773 12.8201 16.445L6.82012 23.8296C6.77679 23.8829 6.72215 23.9258 6.66017 23.9552C6.59819 23.9847 6.53041 24 6.46178 24C6.39315 24 6.32538 23.9847 6.2634 23.9552C6.20141 23.9258 6.14677 23.8829 6.10344 23.8296L0.103447 16.445C0.0483875 16.3773 0.0136537 16.2954 0.00327539 16.2087C-0.00710297 16.1221 0.00729955 16.0343 0.0448121 15.9555C0.0823247 15.8767 0.14141 15.8101 0.215213 15.7635C0.289017 15.717 0.374514 15.6923 0.461786 15.6923H3.69255L3.69255 0.461544C3.69255 0.339136 3.74118 0.221743 3.82773 0.135187C3.91429 0.0486317 4.03168 7.62939e-06 4.15409 7.62939e-06ZM13.0265 7.55497C12.9715 7.62268 12.9367 7.70462 12.9263 7.79127C12.916 7.87792 12.9304 7.96574 12.9679 8.04454C13.0054 8.12334 13.0645 8.18989 13.1383 8.23647C13.2121 8.28304 13.2976 8.30774 13.3849 8.30769L16.6156 8.30769V23.5385C16.6156 23.6609 16.6642 23.7783 16.7508 23.8648C16.8374 23.9514 16.9548 24 17.0772 24H21.6925C21.815 24 21.9323 23.9514 22.0189 23.8648C22.1055 23.7783 22.1541 23.6609 22.1541 23.5385V8.30769H25.3849C25.4721 8.30774 25.5576 8.28304 25.6314 8.23647C25.7052 8.18989 25.7643 8.12334 25.8018 8.04454C25.8393 7.96574 25.8537 7.87792 25.8434 7.79127C25.833 7.70462 25.7982 7.62268 25.7432 7.55497L19.7432 0.170361C19.6999 0.117132 19.6452 0.0742264 19.5832 0.0447578C19.5213 0.0152893 19.4535 0 19.3849 0C19.3162 0 19.2485 0.0152893 19.1865 0.0447578C19.1245 0.0742264 19.0698 0.117132 19.0265 0.170361L13.0265 7.55497Z" fill="url(#paint0_linear)"/>
<defs>
<linearGradient id="paint0_linear" x1="0" y1="12" x2="25.8466" y2="12" gradientUnits="userSpaceOnUse">
<stop stop-color="#F3A228"/>
<stop offset="1" stop-color="#F5B301"/>
</linearGradient>
</defs>
</svg>
