<svg width="15" height="16" viewBox="0 0 15 16" fill="none" xmlns="http://www.w3.org/2000/svg">
<path d="M4.55273 6.69643L2.67773 4.82143L7.49916 0L12.3206 4.82143L10.4456 6.69643L7.49916 3.75L4.55273 6.69643Z" fill="#F0B90B"/>
<path d="M4.55273 8.57142L2.67773 10.4464L7.49916 15.2679L12.3206 10.4464L10.4456 8.57142L7.49916 11.5179L4.55273 8.57142Z" fill="#F0B90B"/>
<path d="M1.875 5.89285L0 7.76785L1.875 9.64285L3.75 7.76785L1.875 5.89285Z" fill="#F0B90B"/>
<path d="M7.76953 5.89285L5.89453 7.76785L7.76953 9.64285L9.64453 7.76785L7.76953 5.89285Z" fill="#F0B90B"/>
<path d="M13.125 5.89285L11.25 7.76785L13.125 9.64285L15 7.76785L13.125 5.89285Z" fill="#F0B90B"/>
</svg>
