<svg width="18" height="18" viewBox="0 0 18 18" fill="none" xmlns="http://www.w3.org/2000/svg">
<circle cx="9" cy="9" r="9" fill="black"/>
<path d="M9.68305 8.36526C8.3839 8.36526 7.37891 9.42296 7.37891 10.6715C7.37891 11.9713 8.3839 12.9608 9.7877 12.9608C10.9653 12.9608 11.9531 11.9892 11.9531 10.7061C11.9533 9.37048 10.9655 8.36526 9.68305 8.36526Z" fill="#F0B90B"/>
<path d="M11.3779 12.2017C12.2106 11.3685 12.2225 9.98232 11.3157 9.07515C10.3722 8.131 8.96342 8.11907 8.05664 9.02672" fill="#F8D12F"/>
<path d="M12.067 14.3476C11.1135 15.1456 10.3631 15.4399 9.25487 15.4399C8.12759 15.4399 7.12903 15.0757 6.31474 14.3476C5.24014 13.3939 4.67114 12.1457 4.67114 10.6889C4.67114 9.35423 5.18388 8.15699 6.15479 7.22095C7.02033 6.37126 8.05512 5.93759 9.23413 5.93759C10.3602 5.93759 11.3516 6.31926 11.8284 7.11694V3.30838C10.6367 2.60038 9.41339 2.18866 7.99624 2.18866C4.02442 2.18866 0.814453 5.40993 0.814453 9.38453C0.814453 13.3589 4.03801 16.5606 8.00983 16.5606C9.47489 16.5606 10.842 16.0637 11.9783 15.3481H12.067V14.3476Z" fill="#F0B90B"/>
<path d="M0.814453 9.38453C0.814453 13.3589 4.03348 16.5606 8.00531 16.5606C9.47037 16.5606 10.8327 16.0637 11.9693 15.3481H12.0577V14.3476C11.1042 15.1456 10.3538 15.4399 9.24558 15.4399C8.1183 15.4399 7.11974 15.0757 6.30545 14.3476C5.23085 13.3939 4.66184 12.1457 4.66184 10.6889C4.66184 9.35423 5.17459 8.15699 6.1455 7.22095C7.01104 6.37126 8.04583 5.93759 9.22484 5.93759C10.3509 5.93759 11.3423 6.31926 11.8191 7.11694V3.30838C10.6274 2.60038 9.4041 2.18866 7.98695 2.18866" fill="#F8D12F"/>
<path d="M0.791016 9.44097C0.791016 13.4153 4.01911 16.5889 7.99117 16.5889C9.45623 16.5889 10.8278 16.0639 11.9642 15.3482H12.0526V14.3478C11.0991 15.1457 10.3487 15.4401 9.2405 15.4401C8.11322 15.4401 7.11466 15.0758 6.30037 14.3478C5.22577 13.3941 4.65676 12.1458 4.65676 10.689C4.65676 9.35438 5.16951 8.15713 6.14042 7.22109C7.00596 6.3714 8.04075 5.93773 9.21976 5.93773C10.3458 5.93773 11.3373 6.3194 11.814 7.11709V3.42111" fill="#F0B90B"/>
<path d="M14.6719 12.2693C15.0588 11.386 15.1882 10.4108 15.1882 9.38482C15.1882 8.35885 15.0588 7.38369 14.6719 6.50037" fill="#F8D12F"/>
<path d="M14.675 6.50029V2.49207L11.8145 3.05908V3.3086C13.0063 4.07289 13.9598 5.1833 14.675 6.50029Z" fill="#F0B90B"/>
<path d="M14.6729 12.2687C13.9578 13.5442 13.1995 14.6322 12.0508 15.3478H14.6729V12.2687Z" fill="#F0B90B"/>
</svg>
