<svg width="14" height="14" viewBox="0 0 14 14" fill="none" xmlns="http://www.w3.org/2000/svg">
<path fill-rule="evenodd" clip-rule="evenodd" d="M7 0C3.13401 0 0 3.13401 0 7C0 10.866 3.13401 14 7 14C10.866 14 14 10.866 14 7C14 5.14348 13.2625 3.36301 11.9497 2.05025C10.637 0.737498 8.85651 0 7 0ZM6.97391 11.5086C6.20659 11.8795 5.02001 11.5605 5.22708 10.7877L6.34622 6.61101C6.7358 5.1572 5.67169 5.62438 5.18607 5.83759L5.17891 5.84073C5.47382 5.39732 5.88213 5.04101 6.36139 4.80884C7.12871 4.43795 8.31529 4.75697 8.10822 5.5297L6.98908 9.7065C6.59951 11.1603 7.66364 10.6931 8.14925 10.4799L8.15639 10.4768C7.86147 10.9202 7.45315 11.2764 6.97391 11.5086ZM7.26136 3.45817C7.38686 3.76117 7.68253 3.95873 8.0105 3.95873C8.22555 3.95873 8.4318 3.8733 8.58387 3.72123C8.73593 3.56917 8.82136 3.36292 8.82136 3.14787C8.82136 2.8199 8.6238 2.52423 8.3208 2.39873C8.0178 2.27322 7.66903 2.34259 7.43713 2.5745C7.20522 2.8064 7.13585 3.15517 7.26136 3.45817Z" fill="#B6B9BF"/>
</svg>
