<svg width="13" height="31" viewBox="0 0 13 31" fill="none" xmlns="http://www.w3.org/2000/svg">
<path d="M6.41613 29.9918C3.94977 31.184 0.135749 30.1586 0.801339 27.6748L4.39857 14.2497C5.65697 9.55359 2.19647 11.0934 0.646484 11.7738C1.59442 10.3485 2.90686 9.20323 4.44733 8.45698C6.91369 7.26483 10.7277 8.29026 10.0621 10.774L6.46489 24.1995C5.20653 28.8956 8.66699 27.3558 10.217 26.6754C9.269 28.1005 7.95657 29.2457 6.41613 29.9918Z" fill="#707070"/>
<path d="M9.74705 5.72448C8.69288 5.72449 7.74251 5.08947 7.3391 4.11555C6.93568 3.14162 7.15867 2.02059 7.90408 1.27518C8.64949 0.529766 9.77053 0.306778 10.7445 0.710192C11.7184 1.11361 12.3534 2.06398 12.3534 3.11814C12.3534 3.80939 12.0788 4.47233 11.59 4.96111C11.1012 5.4499 10.4383 5.72449 9.74705 5.72448Z" fill="#707070"/>
</svg>
