<svg xmlns="http://www.w3.org/2000/svg" width="14" height="14" fill="none" xmlns:v="https://vecta.io/nano"><g clip-path="url(#A)"><path d="M14 2.659c-.521.228-1.075.38-1.654.453.595-.355 1.049-.913 1.263-1.586-.555.331-1.167.564-1.82.695-.527-.561-1.277-.908-2.097-.908a2.87 2.87 0 0 0-2.868 2.871c0 .228.019.446.067.654-2.386-.116-4.497-1.26-5.916-3.002a2.89 2.89 0 0 0-.393 1.451c0 .994.512 1.875 1.275 2.385-.461-.009-.913-.143-1.297-.354v.032c0 1.395.995 2.553 2.3 2.82-.234.064-.488.094-.752.094-.184 0-.369-.011-.543-.049.372 1.137 1.427 1.972 2.682 1.999-.976.764-2.216 1.224-3.559 1.224A5.37 5.37 0 0 1 0 11.4a8.08 8.08 0 0 0 4.403 1.288c5.282 0 8.169-4.375 8.169-8.167a7.35 7.35 0 0 0-.01-.371c.57-.404 1.048-.909 1.438-1.49z" fill="#b6b9bf"/></g><defs><clipPath id="A"><path fill="#fff" d="M0 0h14v14H0z"/></clipPath></defs></svg>