<svg xmlns="http://www.w3.org/2000/svg" width="14" height="14" fill="none" xmlns:v="https://vecta.io/nano"><g clip-path="url(#A)"><path d="M7 .35c-3.86 0-7 2.826-7 6.3 0 1.214.384 2.39 1.113 3.408-.138 1.525-.507 2.658-1.044 3.194-.071.071-.089.179-.044.269.04.08.121.129.209.129.011 0 .021-.001.032-.002.095-.013 2.29-.329 3.878-1.246.902.364 1.862.548 2.857.548 3.86 0 7-2.826 7-6.3S10.86.35 7 .35zM3.733 7.583c-.515 0-.933-.419-.933-.933s.419-.933.933-.933.933.419.933.933-.419.933-.933.933zm3.267 0c-.515 0-.933-.419-.933-.933s.419-.933.933-.933.933.419.933.933-.419.933-.933.933zm3.267 0c-.515 0-.933-.419-.933-.933s.419-.933.933-.933.933.419.933.933-.419.933-.933.933z" fill="#b6b9bf"/></g><defs><clipPath id="A"><path fill="#fff" d="M0 0h14v14H0z"/></clipPath></defs></svg>