<svg xmlns="http://www.w3.org/2000/svg" width="14" height="14" fill="none" xmlns:v="https://vecta.io/nano"><g clip-path="url(#A)" fill="#b6b9bf"><path d="M7.317 5.565v.704c0 .224.045.411.133.557a.63.63 0 0 0 .548.317c.222 0 .443-.108.656-.321l2.325-2.325a1.31 1.31 0 0 0 0-1.851L8.653.321C8.44.108 8.22 0 7.998 0c-.339 0-.68.27-.68.874v.639a6.91 6.91 0 0 0-6.44 6.045.41.41 0 0 0 .738.292 5.82 5.82 0 0 1 4.678-2.377 5.79 5.79 0 0 1 1.023.092zm5.541.446a.41.41 0 0 0-.482.139 5.82 5.82 0 0 1-4.678 2.377 5.79 5.79 0 0 1-1.023-.092v-.704c0-.604-.342-.874-.68-.874-.222 0-.443.108-.656.321L3.015 9.502a1.31 1.31 0 0 0 0 1.852l2.325 2.325c.213.213.434.321.656.321.339 0 .68-.271.68-.874v-.639c3.301-.195 6.033-2.728 6.439-6.044a.41.41 0 0 0-.256-.431z"/></g><defs><clipPath id="A"><path fill="#fff" d="M0 0h14v14H0z"/></clipPath></defs></svg>