<svg xmlns="http://www.w3.org/2000/svg" width="14" height="14" fill="none" xmlns:v="https://vecta.io/nano"><g clip-path="url(#A)"><path d="M13.779.563c-.006-.215-.179-.387-.394-.394L7.847 0c-.113-.003-.222.04-.301.12L.71 7.027a2.19 2.19 0 0 0 0 3.07l3.232 3.266A2.13 2.13 0 0 0 5.468 14a2.13 2.13 0 0 0 1.525-.638l6.836-6.906c.078-.079.121-.187.117-.298L13.779.563zM8.522 9.146c-.079.079-.183.119-.287.119s-.208-.04-.287-.119l-.177-.177-.292.292c-.079.079-.183.119-.287.119s-.208-.04-.287-.119c-.159-.159-.159-.416 0-.574l.778-.778c.146-.146.145-.382 0-.528s-.383-.146-.528 0l-.198.198-.198.198a1.18 1.18 0 0 1-1.677 0 1.18 1.18 0 0 1-.347-.838c0-.274.093-.534.263-.745l-.181-.182c-.159-.159-.159-.416 0-.574s.416-.159.574 0l.177.177.185-.185c.159-.159.416-.159.575 0s.159.416 0 .575l-.671.671a.37.37 0 0 0-.109.264.37.37 0 0 0 .109.264c.146.146.383.146.528 0l.198-.198.198-.198a1.19 1.19 0 0 1 1.677 0 1.19 1.19 0 0 1 .084 1.583l.181.182c.159.159.159.416 0 .575zm2.874-4.841c-.238.238-.55.356-.862.356s-.624-.119-.862-.356a1.21 1.21 0 0 1-.357-.862 1.21 1.21 0 0 1 .357-.862 1.22 1.22 0 0 1 1.723 0 1.22 1.22 0 0 1 0 1.723z" fill="#b6b9bf"/></g><defs><clipPath id="A"><path fill="#fff" d="M0 0h14v14H0z"/></clipPath></defs></svg>