<svg width="18" height="25" viewBox="0 0 18 25" fill="none" xmlns="http://www.w3.org/2000/svg">
<path d="M16.3072 9.0141H16.1718V7.22539C16.1718 7.20846 16.1718 7.18871 16.1718 7.17178C16.1718 5.26971 15.4162 3.44554 14.0712 2.10057C12.7262 0.755596 10.9021 0 9 0C7.09792 0 5.27375 0.755596 3.92878 2.10057C2.58381 3.44554 1.82821 5.26971 1.82821 7.17178V9.0141H1.69279C1.24383 9.0141 0.813266 9.19245 0.495806 9.50991C0.178347 9.82737 0 10.2579 0 10.7069V21.6282H18V10.7069C18 10.2579 17.8217 9.82737 17.5042 9.50991C17.1867 9.19245 16.7562 9.0141 16.3072 9.0141ZM10.7464 19.2555H7.36081L8.01254 15.8925C7.70585 15.6817 7.47463 15.3784 7.35269 15.0268C7.23076 14.6752 7.2245 14.2939 7.33483 13.9385C7.44517 13.5831 7.66631 13.2723 7.96592 13.0516C8.26552 12.831 8.62788 12.7119 9 12.7119C9.37212 12.7119 9.73448 12.831 10.0341 13.0516C10.3337 13.2723 10.5548 13.5831 10.6652 13.9385C10.7755 14.2939 10.7692 14.6752 10.6473 15.0268C10.5254 15.3784 10.2941 15.6817 9.98746 15.8925L10.7464 19.2555ZM15.0433 7.22539V9.0141H2.95674V7.17178C2.95674 5.56901 3.59344 4.03189 4.72677 2.89856C5.8601 1.76523 7.39723 1.12853 9 1.12853C10.6028 1.12853 12.1399 1.76523 13.2732 2.89856C14.4066 4.03189 15.0433 5.56901 15.0433 7.17178C15.0419 7.18963 15.0419 7.20755 15.0433 7.22539ZM0 22.7426V22.974C0 23.4229 0.178347 23.8535 0.495806 24.171C0.813266 24.4884 1.24383 24.6668 1.69279 24.6668H16.3072C16.7562 24.6668 17.1867 24.4884 17.5042 24.171C17.8217 23.8535 18 23.4229 18 22.974V22.7567H0V22.7426Z" fill="#707070"/>
</svg>
